<?xml version="1.0" encoding="UTF-8" standalone="no"?>
<svg width="25px" height="25px" viewBox="0 0 25 25" version="1.1" xmlns="http://www.w3.org/2000/svg" xmlns:xlink="http://www.w3.org/1999/xlink">
    <!-- Generator: sketchtool 49.3 (51167) - http://www.bohemiancoding.com/sketch -->
    <title>7D1B18DD-9F30-421F-8B2C-1BA07902F64F</title>
    <desc>Created with sketchtool.</desc>
    <defs></defs>
    <g id="Welcome" stroke="none" stroke-width="1" fill="none" fill-rule="evenodd">
        <g id="contact-mobile" transform="translate(-61.000000, -1053.000000)" fill="#FFFFFF">
            <g id="bottom-CTA" transform="translate(0.000000, 884.000000)">
                <g id="contribute-CTA" transform="translate(43.000000, 160.000000)">
                    <path d="M30.25,9 C33.640642,9 36.529936,10.2304564 38.9179688,12.6914062 C41.3060015,15.1523561 42.5,18.114566 42.5,21.578125 C42.5,24.3125137 41.7161537,26.7734266 40.1484375,28.9609375 C38.5807213,31.1484484 36.575533,32.6614541 34.1328125,33.5 L33.9140625,33.5 C33.4765603,33.5 33.2578125,33.2812522 33.2578125,32.84375 C33.2578125,32.8072915 33.266927,32.3971393 33.2851562,31.6132812 C33.3033855,30.8294232 33.3125,30.1093783 33.3125,29.453125 C33.3125,28.395828 33.0208363,27.6119817 32.4375,27.1015625 C34.1145917,26.8828114 35.4726511,26.3450564 36.5117188,25.4882812 C37.5507864,24.6315061 38.0703125,23.1093859 38.0703125,20.921875 C38.0703125,19.6093684 37.6510459,18.4791714 36.8125,17.53125 C37.1770852,16.473953 37.1406272,15.361985 36.703125,14.1953125 L36.4296875,14.1953125 C35.5911416,14.1953125 34.5520895,14.6328081 33.3125,15.5078125 C32.255203,15.2161444 31.2343799,15.0703125 30.25,15.0703125 C29.2656201,15.0703125 28.244797,15.2161444 27.1875,15.5078125 C25.9479105,14.6328081 24.9088584,14.1953125 24.0703125,14.1953125 L23.796875,14.1953125 C23.3593728,15.361985 23.3229148,16.473953 23.6875,17.53125 C22.8489541,18.4791714 22.4296875,19.6093684 22.4296875,20.921875 C22.4296875,23.1093859 22.9400991,24.6315061 23.9609375,25.4882812 C24.9817759,26.3450564 26.3307208,26.8828114 28.0078125,27.1015625 C27.6067688,27.5026062 27.351563,28.0677047 27.2421875,28.796875 C26.8046853,29.0156261 26.3307317,29.125 25.8203125,29.125 C24.9088496,29.125 24.1979192,28.6692754 23.6875,27.7578125 C23.2135393,26.9557252 22.5755248,26.5182295 21.7734375,26.4453125 C21.0078087,26.4453125 20.9895797,26.7005183 21.71875,27.2109375 C22.2656277,27.5026056 22.7213523,28.1223911 23.0859375,29.0703125 C23.122396,29.2161466 23.195312,29.3893219 23.3046875,29.5898438 C23.414063,29.7903656 23.7148413,30.0546859 24.2070312,30.3828125 C24.6992212,30.7109391 25.2916632,30.875 25.984375,30.875 C26.4947942,30.875 26.8958319,30.838542 27.1875,30.765625 L27.1875,32.8984375 C27.1875,33.2994812 26.9869812,33.5 26.5859375,33.5 L26.3671875,33.5 C23.8880084,32.6614541 21.8737057,31.1575629 20.3242188,28.9882812 C18.7747318,26.8189996 18,24.3489722 18,21.578125 C18,18.114566 19.1939985,15.1523561 21.5820312,12.6914062 C23.970064,10.2304564 26.859358,9 30.25,9 Z" id="ion-social-github---Ionicons"></path>
                </g>
            </g>
        </g>
    </g>
</svg>