<?xml version="1.0" encoding="UTF-8" standalone="no"?>
<svg width="19px" height="19px" viewBox="0 0 19 19" version="1.1" xmlns="http://www.w3.org/2000/svg" xmlns:xlink="http://www.w3.org/1999/xlink">
    <!-- Generator: sketchtool 49.3 (51167) - http://www.bohemiancoding.com/sketch -->
    <title>714E2783-D2A9-48EC-842E-5399F5896F1D</title>
    <desc>Created with sketchtool.</desc>
    <defs></defs>
    <g id="Welcome" stroke="none" stroke-width="1" fill="none" fill-rule="evenodd">
        <g id="contact-mobile" transform="translate(-61.000000, -1315.000000)" fill="#FFFFFF">
            <g id="bottom-CTA-Copy" transform="translate(0.000000, 1127.000000)">
                <g id="search-CTA" transform="translate(48.000000, 175.000000)">
                    <path d="M26.8541667,24.578125 L26.65625,24.9244792 L32,30.3177083 L30.3177083,32 L24.9739583,26.6067708 L24.6276042,26.8541667 C23.3081531,27.6788236 21.9392432,28.0911458 20.5208333,28.0911458 C18.4426979,28.0911458 16.6697122,27.3489658 15.2018229,25.8645833 C13.7339336,24.3802009 13,22.5989687 13,20.5208333 C13,18.4426979 13.7339336,16.6697122 15.2018229,15.2018229 C16.6697122,13.7339336 18.4426979,13 20.5208333,13 C22.5989687,13 24.3719545,13.7339336 25.8398438,15.2018229 C27.307733,16.6697122 28.0416667,18.4426979 28.0416667,20.5208333 C28.0416667,21.9722295 27.6458373,23.3246465 26.8541667,24.578125 Z M24.7265625,16.3151042 C23.5720428,15.1605845 22.1701471,14.5833333 20.5208333,14.5833333 C18.8715195,14.5833333 17.4696238,15.1605845 16.3151042,16.3151042 C15.1605845,17.4696238 14.5833333,18.8715195 14.5833333,20.5208333 C14.5833333,22.1701471 15.1605845,23.5720428 16.3151042,24.7265625 C17.4696238,25.8810822 18.8715195,26.4583333 20.5208333,26.4583333 C22.1701471,26.4583333 23.5720428,25.8810822 24.7265625,24.7265625 C25.9140684,23.5390566 26.5078125,22.1371609 26.5078125,20.5208333 C26.5078125,18.9045058 25.9140684,17.5026101 24.7265625,16.3151042 Z" id="search_icn"></path>
                </g>
            </g>
        </g>
    </g>
</svg>