<?xml version="1.0" encoding="UTF-8" standalone="no"?>
<svg width="22px" height="22px" viewBox="0 0 22 22" version="1.1" xmlns="http://www.w3.org/2000/svg" xmlns:xlink="http://www.w3.org/1999/xlink">
    <!-- Generator: sketchtool 49.3 (51167) - http://www.bohemiancoding.com/sketch -->
    <title>0B5C9B9D-63F3-4605-9EE5-73DF226022EC</title>
    <desc>Created with sketchtool.</desc>
    <defs></defs>
    <g id="Welcome" stroke="none" stroke-width="1" fill="none" fill-rule="evenodd">
        <g id="contact-mobile" transform="translate(-51.000000, -400.000000)" fill="#FFFFFF">
            <g id="hero-section" transform="translate(0.000000, 58.000000)">
                <g id="chat-slack-CTA" transform="translate(10.000000, 331.000000)">
                    <g id="Group-2" transform="translate(41.000000, 9.000000)">
                        <path d="M20.0829327,12.2596154 C21.1670673,12.2596154 22,13.0528846 22,14.1370192 C22,14.9831731 21.5637019,15.578125 20.7704327,15.8557692 L18.4963942,16.6358173 L19.2367788,18.84375 C19.3028846,19.0420673 19.3293269,19.2536058 19.3293269,19.4651442 C19.3293269,20.5096154 18.4831731,21.3822115 17.4387019,21.3822115 C16.6057692,21.3822115 15.8653846,20.8665865 15.6009615,20.0733173 L14.8737981,17.8918269 L10.7752404,19.2932692 L11.5024038,21.4615385 C11.5685096,21.6598558 11.6081731,21.8713942 11.6081731,22.0829327 C11.6081731,23.1141827 10.7620192,24 9.70432692,24 C8.87139423,24 8.14423077,23.484375 7.87980769,22.6911058 L7.15264423,20.5360577 L5.12980769,21.2367788 C4.91826923,21.3028846 4.69350962,21.3557692 4.46875,21.3557692 C3.39783654,21.3557692 2.59134615,20.5625 2.59134615,19.4915865 C2.59134615,18.671875 3.12019231,17.9314904 3.90024038,17.6670673 L5.96274038,16.9663462 L4.57451923,12.828125 L2.51201923,13.5420673 C2.30048077,13.6081731 2.08894231,13.6478365 1.87740385,13.6478365 C0.819711538,13.6478365 0,12.8413462 0,11.7836538 C0,10.9639423 0.528846154,10.2235577 1.30889423,9.95913462 L3.38461538,9.25841346 L2.68389423,7.15625 C2.61778846,6.95793269 2.578125,6.74639423 2.578125,6.53485577 C2.578125,5.49038462 3.42427885,4.61778846 4.48197115,4.61778846 C5.31490385,4.61778846 6.04206731,5.13341346 6.30649038,5.92668269 L7.02043269,8.04206731 L11.1189904,6.65384615 L10.4050481,4.53846154 C10.3389423,4.34014423 10.2992788,4.12860577 10.2992788,3.91706731 C10.2992788,2.87259615 11.1586538,2 12.203125,2 C13.0360577,2 13.7764423,2.52884615 14.0408654,3.30889423 L14.7415865,5.4375 L16.8834135,4.71033654 C17.0685096,4.65745192 17.2536058,4.63100962 17.4519231,4.63100962 C18.4831731,4.63100962 19.3689904,5.39783654 19.3689904,6.45552885 C19.3689904,7.27524038 18.734375,7.96274038 17.9939904,8.21394231 L15.9182692,8.92788462 L17.3064904,13.1057692 L19.4747596,12.3653846 C19.6730769,12.2992788 19.8846154,12.2596154 20.0829327,12.2596154 Z M9.58533654,15.7235577 L13.6838942,14.3353365 L12.2956731,10.1706731 L8.19711538,11.5853365 L9.58533654,15.7235577 Z" id="slack_icn"></path>
                    </g>
                </g>
            </g>
        </g>
    </g>
</svg>