<?xml version="1.0" encoding="UTF-8" standalone="no"?>
<svg width="28px" height="18px" viewBox="0 0 28 18" version="1.1" xmlns="http://www.w3.org/2000/svg" xmlns:xlink="http://www.w3.org/1999/xlink">
    <!-- Generator: sketchtool 49.3 (51167) - http://www.bohemiancoding.com/sketch -->
    <title>13AF23AB-70A8-4E30-B76B-96C84C6796DC</title>
    <desc>Created with sketchtool.</desc>
    <defs></defs>
    <g id="Symbols" stroke="none" stroke-width="1" fill="none" fill-rule="evenodd">
        <g id="footer-mobile" transform="translate(-44.000000, -94.000000)">
            <g id="Group" transform="translate(44.000000, 40.000000)">
                <g id="left-group">
                    <g id="email_footer_icn" transform="translate(0.000000, 42.000000)">
                        <rect id="Rectangle-2" fill="#D8D8D8" opacity="0" x="0" y="0" width="28" height="42"></rect>
                        <path d="M1.27884615,13.4134615 C0.830125962,13.1891014 0.538462212,12.942309 0.403846154,12.6730769 C0.314102115,12.4038448 0.325319952,12.2243594 0.4375,12.1346154 C0.549680048,12.0448713 0.807690288,12 1.21153846,12 L26.9230769,12 C27.3269251,12 27.5849353,12.0448713 27.6971154,12.1346154 C27.8092954,12.2243594 27.8205133,12.4038448 27.7307692,12.6730769 C27.5961532,12.942309 27.3044894,13.1891014 26.8557692,13.4134615 C19.4518861,17.4519433 15.6602573,19.5160252 15.4807692,19.6057692 C15.1217931,19.7852573 14.6506439,19.875 14.0673077,19.875 C13.4839714,19.875 13.0128223,19.7852573 12.6538462,19.6057692 C12.4743581,19.5160252 8.68272933,17.4519433 1.27884615,13.4134615 Z M27.4615385,13.6826923 C27.7756426,13.6378203 27.9439101,13.6266025 27.9663462,13.6490385 C27.9887822,13.6714745 28,13.7948707 28,14.0192308 L28,27.8173077 C28,28.1314118 27.8317325,28.4455112 27.4951923,28.7596154 C27.1586522,29.0737195 26.8333349,29.2307692 26.5192308,29.2307692 L1.61538462,29.2307692 C1.25640846,29.2307692 0.897437692,29.0737195 0.538461538,28.7596154 C0.179485385,28.4455112 0,28.1314118 0,27.8173077 L0,14.0192308 C0,13.6153826 0.201921058,13.5032042 0.605769231,13.6826923 C0.740385288,13.7724363 1.30127712,14.142625 2.28846154,14.7932692 C3.27564596,15.4439135 4.49839014,16.2628156 5.95673077,17.25 C7.41507139,18.2371844 8.59294423,19.022433 9.49038462,19.6057692 L3.90384615,25.8653846 C3.7692301,26.0000007 3.74679442,26.112179 3.83653846,26.2019231 C3.88141048,26.2467951 3.9487175,26.2580129 4.03846154,26.2355769 C4.12820558,26.2131409 4.1955126,26.1794874 4.24038462,26.1346154 L10.8365385,20.5480769 C11.7788509,21.1762852 12.384614,21.5576916 12.6538462,21.6923077 C13.0128223,21.8717958 13.4839714,21.9615385 14.0673077,21.9615385 C14.6506439,21.9615385 15.1217931,21.8717958 15.4807692,21.6923077 C15.7500013,21.5576916 16.3557645,21.1762852 17.2980769,20.5480769 L23.8942308,26.1346154 C23.9391028,26.1794874 24.0064098,26.2131409 24.0961538,26.2355769 C24.1858979,26.2580129 24.2532049,26.2467951 24.2980769,26.2019231 C24.3429489,26.1570511 24.2980776,26.0448727 24.1634615,25.8653846 L18.6442308,19.6057692 C19.5416712,19.022433 20.7083262,18.2371844 22.1442308,17.25 C23.5801354,16.2628156 24.7916617,15.4439135 25.7788462,14.7932692 C26.7660306,14.142625 27.3269224,13.7724363 27.4615385,13.6826923 Z" id="ion-email---Ionicons" fill="#ED1879"></path>
                    </g>
                </g>
            </g>
        </g>
    </g>
</svg>