<?xml version="1.0" encoding="UTF-8" standalone="no"?>
<svg width="28px" height="23px" viewBox="0 0 28 23" version="1.1" xmlns="http://www.w3.org/2000/svg" xmlns:xlink="http://www.w3.org/1999/xlink">
    <!-- Generator: sketchtool 49.3 (51167) - http://www.bohemiancoding.com/sketch -->
    <title>AF707E9B-F39F-42BE-8399-ED542685FEE7</title>
    <desc>Created with sketchtool.</desc>
    <defs></defs>
    <g id="Symbols" stroke="none" stroke-width="1" fill="none" fill-rule="evenodd">
        <g id="footer-mobile" transform="translate(-44.000000, -134.000000)">
            <g id="Group" transform="translate(44.000000, 40.000000)">
                <g id="left-group">
                    <g id="Medium_footer_icn" transform="translate(0.000000, 84.000000)">
                        <rect id="Rectangle-2" fill="#D8D8D8" opacity="0" x="0" y="0" width="28" height="42"></rect>
                        <path d="M3.29145239,14.4953192 C3.32593841,14.1545859 3.19600197,13.8178089 2.9415736,13.5884824 L0.349878797,10.4663732 L0.349878797,10 L8.39709114,10 L14.6171587,23.6414152 L20.0856348,10 L27.7570513,10 L27.7570513,10.4663732 L25.5411523,12.5909621 C25.3501174,12.7365799 25.2553544,12.9759132 25.2949413,13.212793 L25.2949413,28.8233394 C25.2553544,29.0602192 25.3501174,29.2995523 25.5411523,29.4451703 L27.7052174,31.5697592 L27.7052174,32.0361323 L16.8200993,32.0361323 L16.8200993,31.5697592 L19.0619153,29.393351 C19.2822093,29.1731192 19.2822093,29.1083452 19.2822093,28.7715202 L19.2822093,16.1535349 L13.0491833,31.9843131 L12.2068825,31.9843131 L4.95013705,16.1535349 L4.95013705,26.7635245 C4.88963295,27.2095983 5.03778189,27.658697 5.35184975,27.9812767 L8.2675064,31.51794 L8.2675064,31.9843131 L0,31.9843131 L0,31.51794 L2.91565665,27.9812767 C3.22743781,27.6581622 3.36694808,27.2060844 3.29145239,26.7635245 L3.29145239,14.4953192 Z" id="Shape" fill="#ED1879" fill-rule="nonzero"></path>
                    </g>
                </g>
            </g>
        </g>
    </g>
</svg>