<?xml version="1.0" encoding="UTF-8" standalone="no"?>
<svg width="22px" height="22px" viewBox="0 0 22 22" version="1.1" xmlns="http://www.w3.org/2000/svg" xmlns:xlink="http://www.w3.org/1999/xlink">
    <!-- Generator: sketchtool 49.3 (51167) - http://www.bohemiancoding.com/sketch -->
    <title>655164A5-19E9-4455-A420-E161DA18FC76</title>
    <desc>Created with sketchtool.</desc>
    <defs></defs>
    <g id="Symbols" stroke="none" stroke-width="1" fill="none" fill-rule="evenodd">
        <g id="footer-mobile" transform="translate(-47.000000, -50.000000)">
            <g id="Group" transform="translate(44.000000, 40.000000)">
                <g id="left-group">
                    <g id="slack_footer_icn">
                        <rect id="Rectangle-2" fill="#D8D8D8" opacity="0" x="0" y="0" width="28" height="42"></rect>
                        <path d="M23.0829327,20.2596154 C24.1670673,20.2596154 25,21.0528846 25,22.1370192 C25,22.9831731 24.5637019,23.578125 23.7704327,23.8557692 L21.4963942,24.6358173 L22.2367788,26.84375 C22.3028846,27.0420673 22.3293269,27.2536058 22.3293269,27.4651442 C22.3293269,28.5096154 21.4831731,29.3822115 20.4387019,29.3822115 C19.6057692,29.3822115 18.8653846,28.8665865 18.6009615,28.0733173 L17.8737981,25.8918269 L13.7752404,27.2932692 L14.5024038,29.4615385 C14.5685096,29.6598558 14.6081731,29.8713942 14.6081731,30.0829327 C14.6081731,31.1141827 13.7620192,32 12.7043269,32 C11.8713942,32 11.1442308,31.484375 10.8798077,30.6911058 L10.1526442,28.5360577 L8.12980769,29.2367788 C7.91826923,29.3028846 7.69350962,29.3557692 7.46875,29.3557692 C6.39783654,29.3557692 5.59134615,28.5625 5.59134615,27.4915865 C5.59134615,26.671875 6.12019231,25.9314904 6.90024038,25.6670673 L8.96274038,24.9663462 L7.57451923,20.828125 L5.51201923,21.5420673 C5.30048077,21.6081731 5.08894231,21.6478365 4.87740385,21.6478365 C3.81971154,21.6478365 3,20.8413462 3,19.7836538 C3,18.9639423 3.52884615,18.2235577 4.30889423,17.9591346 L6.38461538,17.2584135 L5.68389423,15.15625 C5.61778846,14.9579327 5.578125,14.7463942 5.578125,14.5348558 C5.578125,13.4903846 6.42427885,12.6177885 7.48197115,12.6177885 C8.31490385,12.6177885 9.04206731,13.1334135 9.30649038,13.9266827 L10.0204327,16.0420673 L14.1189904,14.6538462 L13.4050481,12.5384615 C13.3389423,12.3401442 13.2992788,12.1286058 13.2992788,11.9170673 C13.2992788,10.8725962 14.1586538,10 15.203125,10 C16.0360577,10 16.7764423,10.5288462 17.0408654,11.3088942 L17.7415865,13.4375 L19.8834135,12.7103365 C20.0685096,12.6574519 20.2536058,12.6310096 20.4519231,12.6310096 C21.4831731,12.6310096 22.3689904,13.3978365 22.3689904,14.4555288 C22.3689904,15.2752404 21.734375,15.9627404 20.9939904,16.2139423 L18.9182692,16.9278846 L20.3064904,21.1057692 L22.4747596,20.3653846 C22.6730769,20.2992788 22.8846154,20.2596154 23.0829327,20.2596154 Z M12.5853365,23.7235577 L16.6838942,22.3353365 L15.2956731,18.1706731 L11.1971154,19.5853365 L12.5853365,23.7235577 Z" id="slack---FontAwesome" fill="#ED1879"></path>
                    </g>
                </g>
            </g>
        </g>
    </g>
</svg>