<?xml version="1.0" encoding="UTF-8" standalone="no"?>
<svg width="28px" height="20px" viewBox="0 0 28 20" version="1.1" xmlns="http://www.w3.org/2000/svg" xmlns:xlink="http://www.w3.org/1999/xlink">
    <!-- Generator: sketchtool 49.3 (51167) - http://www.bohemiancoding.com/sketch -->
    <title>A5AC67C2-DE8E-49EF-8818-0263BAF99051</title>
    <desc>Created with sketchtool.</desc>
    <defs></defs>
    <g id="Symbols" stroke="none" stroke-width="1" fill="none" fill-rule="evenodd">
        <g id="footer-mobile" transform="translate(-44.000000, -261.000000)">
            <g id="Group" transform="translate(44.000000, 40.000000)">
                <g id="right-group" transform="translate(0.000000, 126.000000)">
                    <g id="youtube_footer_icn" transform="translate(0.000000, 84.000000)">
                        <rect id="Rectangle-Copy" fill="#D8D8D8" opacity="0" x="0" y="0" width="28" height="42"></rect>
                        <path d="M24.9394091,11.5826217 C26.1442045,11.9032053 27.0928636,12.8478016 27.4148636,14.0473539 C28,16.2214047 28,20.7575758 28,20.7575758 C28,20.7575758 28,25.2935894 27.4148636,27.467955 C27.0928636,28.66735 26.1442045,29.6119462 24.9394091,29.9326872 C22.7558864,30.5151515 14,30.5151515 14,30.5151515 C14,30.5151515 5.24411364,30.5151515 3.06059091,29.9326872 C1.85595455,29.6119462 0.907136364,28.66735 0.585136364,27.467955 C0,25.2935894 0,20.7575758 0,20.7575758 C0,20.7575758 0,16.2214047 0.585136364,14.0473539 C0.907136364,12.8478016 1.85595455,11.9032053 3.06059091,11.5826217 C5.24411364,11 14,11 14,11 C14,11 22.7558864,11 24.9394091,11.5826217 Z M18.6666667,21.1819803 L11.030303,16.9393939 L11.030303,25.4242424 L18.6666667,21.1819803 Z" id="Combined-Shape" fill="#ED1879"></path>
                    </g>
                </g>
            </g>
        </g>
    </g>
</svg>