<?xml version="1.0" encoding="UTF-8" standalone="no"?>
<svg width="25px" height="25px" viewBox="0 0 25 25" version="1.1" xmlns="http://www.w3.org/2000/svg" xmlns:xlink="http://www.w3.org/1999/xlink">
    <!-- Generator: sketchtool 49.3 (51167) - http://www.bohemiancoding.com/sketch -->
    <title>05250A91-D150-4889-B282-FD6B9655CAAE</title>
    <desc>Created with sketchtool.</desc>
    <defs></defs>
    <g id="Welcome" stroke="none" stroke-width="1" fill="none" fill-rule="evenodd">
        <g id="contact" transform="translate(-895.000000, -924.000000)" fill="#FFFFFF">
            <g id="collaborate" transform="translate(98.000000, 893.000000)">
                <g id="contribute-CTA" transform="translate(778.000000, 22.000000)">
                    <path d="M31.25,9 C34.640642,9 37.529936,10.2304564 39.9179688,12.6914062 C42.3060015,15.1523561 43.5,18.114566 43.5,21.578125 C43.5,24.3125137 42.7161537,26.7734266 41.1484375,28.9609375 C39.5807213,31.1484484 37.575533,32.6614541 35.1328125,33.5 L34.9140625,33.5 C34.4765603,33.5 34.2578125,33.2812522 34.2578125,32.84375 C34.2578125,32.8072915 34.266927,32.3971393 34.2851562,31.6132812 C34.3033855,30.8294232 34.3125,30.1093783 34.3125,29.453125 C34.3125,28.395828 34.0208363,27.6119817 33.4375,27.1015625 C35.1145917,26.8828114 36.4726511,26.3450564 37.5117188,25.4882812 C38.5507864,24.6315061 39.0703125,23.1093859 39.0703125,20.921875 C39.0703125,19.6093684 38.6510459,18.4791714 37.8125,17.53125 C38.1770852,16.473953 38.1406272,15.361985 37.703125,14.1953125 L37.4296875,14.1953125 C36.5911416,14.1953125 35.5520895,14.6328081 34.3125,15.5078125 C33.255203,15.2161444 32.2343799,15.0703125 31.25,15.0703125 C30.2656201,15.0703125 29.244797,15.2161444 28.1875,15.5078125 C26.9479105,14.6328081 25.9088584,14.1953125 25.0703125,14.1953125 L24.796875,14.1953125 C24.3593728,15.361985 24.3229148,16.473953 24.6875,17.53125 C23.8489541,18.4791714 23.4296875,19.6093684 23.4296875,20.921875 C23.4296875,23.1093859 23.9400991,24.6315061 24.9609375,25.4882812 C25.9817759,26.3450564 27.3307208,26.8828114 29.0078125,27.1015625 C28.6067688,27.5026062 28.351563,28.0677047 28.2421875,28.796875 C27.8046853,29.0156261 27.3307317,29.125 26.8203125,29.125 C25.9088496,29.125 25.1979192,28.6692754 24.6875,27.7578125 C24.2135393,26.9557252 23.5755248,26.5182295 22.7734375,26.4453125 C22.0078087,26.4453125 21.9895797,26.7005183 22.71875,27.2109375 C23.2656277,27.5026056 23.7213523,28.1223911 24.0859375,29.0703125 C24.122396,29.2161466 24.195312,29.3893219 24.3046875,29.5898438 C24.414063,29.7903656 24.7148413,30.0546859 25.2070312,30.3828125 C25.6992212,30.7109391 26.2916632,30.875 26.984375,30.875 C27.4947942,30.875 27.8958319,30.838542 28.1875,30.765625 L28.1875,32.8984375 C28.1875,33.2994812 27.9869812,33.5 27.5859375,33.5 L27.3671875,33.5 C24.8880084,32.6614541 22.8737057,31.1575629 21.3242188,28.9882812 C19.7747318,26.8189996 19,24.3489722 19,21.578125 C19,18.114566 20.1939985,15.1523561 22.5820312,12.6914062 C24.970064,10.2304564 27.859358,9 31.25,9 Z" id="ion-social-github---Ionicons"></path>
                </g>
            </g>
        </g>
    </g>
</svg>