<?xml version="1.0" encoding="UTF-8" standalone="no"?>
<svg width="23px" height="19px" viewBox="0 0 23 19" version="1.1" xmlns="http://www.w3.org/2000/svg" xmlns:xlink="http://www.w3.org/1999/xlink">
    <!-- Generator: sketchtool 49.3 (51167) - http://www.bohemiancoding.com/sketch -->
    <title>2CFC9F07-559A-4070-AA1F-08884E4100A6</title>
    <desc>Created with sketchtool.</desc>
    <defs></defs>
    <g id="Welcome" stroke="none" stroke-width="1" fill="none" fill-rule="evenodd">
        <g id="resource-form-mobile" transform="translate(-119.000000, -775.000000)" fill="#FFFFFF">
            <g id="send-CTA-Copy" transform="translate(7.000000, 763.000000)">
                <path d="M114.867788,16.9591346 C114.5633,16.8068903 114.365385,16.639424 114.274038,16.4567308 C114.213141,16.2740375 114.220753,16.1522439 114.296875,16.0913462 C114.372997,16.0304484 114.548076,16 114.822115,16 L132.269231,16 C132.543271,16 132.718349,16.0304484 132.794471,16.0913462 C132.870593,16.1522439 132.878205,16.2740375 132.817308,16.4567308 C132.725961,16.639424 132.528046,16.8068903 132.223558,16.9591346 C127.199494,19.6995329 124.626603,21.10016 124.504808,21.1610577 C124.261217,21.2828532 123.941508,21.34375 123.545673,21.34375 C123.149838,21.34375 122.830129,21.2828532 122.586538,21.1610577 C122.464743,21.10016 119.891852,19.6995329 114.867788,16.9591346 Z M132.634615,17.1418269 C132.847757,17.1113781 132.961939,17.1037659 132.977163,17.1189904 C132.992388,17.1342148 133,17.217948 133,17.3701923 L133,26.7331731 C133,26.9463152 132.885818,27.1594541 132.657452,27.3725962 C132.429085,27.5857382 132.208334,27.6923077 131.995192,27.6923077 L115.096154,27.6923077 C114.852563,27.6923077 114.608976,27.5857382 114.365385,27.3725962 C114.121794,27.1594541 114,26.9463152 114,26.7331731 L114,17.3701923 C114,17.0961525 114.137018,17.0200314 114.411058,17.1418269 C114.502404,17.2027247 114.883009,17.4539241 115.552885,17.8954327 C116.22276,18.3369413 117.052479,18.8926249 118.042067,19.5625 C119.031656,20.2323751 119.830926,20.7652224 120.439904,21.1610577 L116.649038,25.4086538 C116.557692,25.5000005 116.542468,25.5761215 116.603365,25.6370192 C116.633814,25.6674681 116.679487,25.6750802 116.740385,25.6598558 C116.801282,25.6446313 116.846955,25.621795 116.877404,25.5913462 L121.353365,21.8004808 C121.992792,22.226765 122.403845,22.4855765 122.586538,22.5769231 C122.830129,22.6987186 123.149838,22.7596154 123.545673,22.7596154 C123.941508,22.7596154 124.261217,22.6987186 124.504808,22.5769231 C124.687501,22.4855765 125.098554,22.226765 125.737981,21.8004808 L130.213942,25.5913462 C130.244391,25.621795 130.290064,25.6446313 130.350962,25.6598558 C130.411859,25.6750802 130.457532,25.6674681 130.487981,25.6370192 C130.51843,25.6065704 130.487981,25.5304493 130.396635,25.4086538 L126.651442,21.1610577 C127.26042,20.7652224 128.052078,20.2323751 129.026442,19.5625 C130.000806,18.8926249 130.822913,18.3369413 131.492788,17.8954327 C132.162664,17.4539241 132.543269,17.2027247 132.634615,17.1418269 Z" id="email_icn" transform="translate(123.500000, 21.846154) rotate(23.000000) translate(-123.500000, -21.846154) "></path>
            </g>
        </g>
    </g>
</svg>