<?xml version="1.0" encoding="UTF-8" standalone="no"?>
<svg width="150px" height="148px" viewBox="0 0 150 148" version="1.1" xmlns="http://www.w3.org/2000/svg" xmlns:xlink="http://www.w3.org/1999/xlink">
    <!-- Generator: sketchtool 49.3 (51167) - http://www.bohemiancoding.com/sketch -->
    <title>B8844DC9-32CC-4428-9895-5A5C19D6363D</title>
    <desc>Created with sketchtool.</desc>
    <defs></defs>
    <g id="Welcome" stroke="none" stroke-width="1" fill="none" fill-rule="evenodd">
        <g id="about-us" transform="translate(-143.000000, -1045.000000)" fill-rule="nonzero">
            <g id="values-section" transform="translate(100.000000, 956.000000)">
                <g id="Democracy-group" transform="translate(0.000000, 69.000000)">
                    <g id="democracy-symbol" transform="translate(43.000000, 20.000000)">
                        <ellipse id="Oval" fill="#ED1E7A" cx="77.0564516" cy="67.0238953" rx="66.8225806" ry="66.9027823"></ellipse>
                        <polygon id="Shape" fill="#2E96D3" points="149.25 147.176432 149.25 147.34599 125.201613 147.34599 125.201613 147.176432 125.201613 120.676923 127.620968 120.676923 147.048387 120.676923 149.25 120.676923"></polygon>
                        <polygon id="Shape" fill="#2E96D3" points="109.185484 147.176432 109.185484 147.34599 68.8548387 147.34599 68.8548387 147.176432 68.8548387 90.9315876 72.8709677 90.9315876 105.508065 90.9315876 109.185484 90.9315876"></polygon>
                        <polygon id="Shape" fill="#2E96D3" points="61.4516129 97.2052373 61.4516129 147.34599 48.2903226 147.34599 48.2903226 97.2052373 49.5967742 97.2052373 60.2419355 97.2052373"></polygon>
                        <polygon id="Shape" fill="#2E96D3" points="36.9193548 147.176432 36.9193548 147.34599 12.8709677 147.34599 12.8709677 147.176432 12.8709677 100.911293 15.2903226 100.911293 34.7177419 100.911293 36.9193548 100.911293"></polygon>
                        <path d="M124.693548,96.7207856 C125.008065,96.696563 125.298387,96.4543372 125.298387,96.0909984 L125.298387,89.2360065 L125.322581,89.2360065 L125.322581,77.1731588 C125.322581,76.3495908 125.66129,75.5986907 126.193548,75.0657938 C126.725806,74.5328969 127.475806,74.1937807 128.298387,74.1937807 C129.943548,74.1937807 131.298387,75.5260229 131.298387,77.1973813 L131.298387,71.8684124 C131.298387,71.0448445 131.637097,70.2939444 132.169355,69.7610475 C132.701613,69.2281506 133.451613,68.8890344 134.274194,68.8890344 C135.919355,68.8890344 137.274194,70.2212766 137.274194,71.892635 L137.274194,74.7509002 C137.274194,73.9273322 137.612903,73.1764321 138.145161,72.6435352 C138.677419,72.1106383 139.427419,71.7715221 140.25,71.7715221 C141.895161,71.7715221 143.25,73.1037643 143.25,74.7751227 L143.25,81.0729951 C143.25,80.2494272 143.58871,79.498527 144.120968,78.9656301 C144.653226,78.4327332 145.403226,78.093617 146.225806,78.093617 C147.870968,78.093617 149.225806,79.4258592 149.225806,81.0972177 L149.225806,89.3328969 L149.225806,99.6759411 L149.225806,104.084452 C149.225806,106.652046 148.427419,109.025859 147.048387,110.987889 L147.048387,120.749591 L127.596774,120.749591 L127.596774,111.157447 C127.548387,111.109002 127.5,111.036334 127.475806,110.987889 L113.153226,91.2464812 C115.669355,89.3571195 119.225806,89.8900164 121.08871,92.4091653 L124.137097,96.5270049 C124.282258,96.6481178 124.5,96.7450082 124.693548,96.7207856 Z" id="Shape" fill="#D8EAF3"></path>
                        <path d="M72.8951613,74.8720131 C72.8225806,74.7751227 72.75,74.6782324 72.6774194,74.5813421 L48.6290323,41.4448445 C52.8387097,38.2716858 58.8387097,39.1436989 61.9596774,43.406874 L67.0645161,50.3345336 C67.2822581,50.6252046 67.5967742,50.7705401 67.8870968,50.7705401 C67.9112903,50.7705401 67.9112903,50.7705401 67.9354839,50.7705401 C68.4677419,50.7705401 69,50.3345336 69,49.7047463 L69,38.2232406 L69.0241935,38.2232406 L69.0241935,17.9973813 C69.0241935,16.6166939 69.5806452,15.3571195 70.5,14.4366612 C71.4193548,13.5162029 72.6532258,12.9590835 74.0564516,12.9590835 C76.8387097,12.9590835 79.0887097,15.211784 79.0887097,17.9973813 L79.0887097,9.05924714 C79.0887097,7.67855974 79.6451613,6.41898527 80.5645161,5.498527 C81.483871,4.57806874 82.7177419,4.02094926 84.1209677,4.02094926 C86.9032258,4.02094926 89.1532258,6.27364975 89.1532258,9.05924714 L89.1532258,13.8553191 C89.1532258,12.4746318 89.7096774,11.2150573 90.6290323,10.294599 C91.5483871,9.37414075 92.7822581,8.81702128 94.1854839,8.81702128 C96.9677419,8.81702128 99.2177419,11.0697218 99.2177419,13.8553191 L99.2177419,24.4163666 C99.2177419,23.0356792 99.7741935,21.7761047 100.693548,20.8556465 C101.612903,19.9351882 102.846774,19.3780687 104.25,19.3780687 C107.032258,19.3780687 109.282258,21.6307692 109.282258,24.4163666 L109.282258,38.2474632 L109.282258,55.6150573 L109.282258,62.9787234 C109.282258,67.2903437 107.927419,71.2870704 105.604839,74.5571195 L105.604839,90.9315876 L72.8709677,90.9315876 L72.8951613,74.8720131 Z" id="Shape" fill="#D8EAF3"></path>
                        <path d="M49.5967742,91.9731588 C49.5725806,91.9489362 49.5483871,91.900491 49.5241935,91.8762684 L41.6854839,81.0729951 C43.0645161,80.0314239 45.0241935,80.3220949 46.0403226,81.7027823 L47.7096774,83.9554828 C47.7822581,84.0523732 47.8790323,84.1008183 47.9758065,84.1008183 C48.1451613,84.1008183 48.3387097,83.9554828 48.3387097,83.7617021 L48.3387097,80.0072013 L48.3387097,73.4186579 C48.3387097,72.9584288 48.5322581,72.5466448 48.8225806,72.2559738 C49.1129032,71.9653028 49.5241935,71.7715221 49.983871,71.7715221 C50.8790323,71.7715221 51.6290323,72.4981997 51.6290323,73.4186579 L51.6290323,70.5119476 C51.6290323,70.0517185 51.8225806,69.6399345 52.1129032,69.3492635 C52.4032258,69.0585925 52.8145161,68.8648118 53.2741935,68.8648118 C54.1693548,68.8648118 54.9193548,69.5914894 54.9193548,70.5119476 L54.9193548,72.0621931 C54.9193548,71.601964 55.1129032,71.19018 55.4032258,70.899509 C55.6935484,70.608838 56.1048387,70.4150573 56.5645161,70.4150573 C57.4596774,70.4150573 58.2096774,71.1417349 58.2096774,72.0621931 L58.2096774,75.5018003 C58.2096774,75.0415712 58.4032258,74.6297872 58.6935484,74.3391162 C58.983871,74.0484452 59.3951613,73.8546645 59.8548387,73.8546645 C60.75,73.8546645 61.5,74.5813421 61.5,75.5018003 L61.5,80.0072013 L61.5,85.6752864 L61.5,88.097545 C61.5,89.502455 61.0645161,90.8104746 60.3145161,91.8762684 L60.3145161,97.2052373 L49.6693548,97.2052373 L49.5967742,91.9731588 Z" id="Shape" fill="#D8EAF3"></path>
                        <path d="M15.2903226,91.3191489 C15.2419355,91.2707038 15.1935484,91.198036 15.1693548,91.1495908 L0.846774194,71.4081833 C3.36290323,69.5188216 6.91935484,70.0517185 8.78225806,72.5708674 L11.8306452,76.688707 C11.9516129,76.8582651 12.1451613,76.9551555 12.3145161,76.9551555 L12.3387097,76.9551555 C12.6532258,76.9551555 12.9919355,76.7129296 12.9919355,76.3253682 L12.9919355,69.4703764 L13.016129,69.4703764 L13.016129,57.4075286 C13.016129,56.5839607 13.3548387,55.8330606 13.8870968,55.3001637 C14.4193548,54.7672668 15.1693548,54.4281506 15.9919355,54.4281506 C17.6370968,54.4281506 18.9919355,55.7603928 18.9919355,57.4317512 L18.9919355,52.1027823 C18.9919355,51.2792144 19.3306452,50.5283142 19.8629032,49.9954173 C20.3951613,49.4625205 21.1451613,49.1234043 21.9677419,49.1234043 C23.6129032,49.1234043 24.9677419,50.4556465 24.9677419,52.1270049 L24.9677419,54.98527 C24.9677419,54.1617021 25.3064516,53.410802 25.8387097,52.8779051 C26.3709677,52.3450082 27.1209677,52.005892 27.9435484,52.005892 C29.5887097,52.005892 30.9435484,53.3381342 30.9435484,55.0094926 L30.9435484,61.307365 C30.9435484,60.4837971 31.2822581,59.7328969 31.8145161,59.2 C32.3467742,58.6671031 33.0967742,58.3279869 33.9193548,58.3279869 C35.5645161,58.3279869 36.9193548,59.6602291 36.9193548,61.3315876 L36.9193548,69.5672668 L36.9193548,79.910311 L36.9193548,84.3188216 C36.9193548,86.8864157 36.1209677,89.2844517 34.7419355,91.2222586 L34.7419355,100.983961 L15.2903226,100.983961 L15.2903226,91.3191489 Z" id="Shape" fill="#D8EAF3"></path>
                        <ellipse id="Oval" fill="#D8EAF3" cx="77.0564516" cy="99.6759411" rx="3.67741935" ry="3.68183306"></ellipse>
                        <ellipse id="Oval" fill="#D8EAF3" cx="19.2822581" cy="107.742062" rx="2.58870968" ry="2.59181669"></ellipse>
                        <ellipse id="Oval" fill="#D8EAF3" cx="131.298387" cy="126.635679" rx="2.58870968" ry="2.59181669"></ellipse>
                        <ellipse id="Oval" fill="#D8EAF3" cx="52.7177419" cy="101.637971" rx="1.71774194" ry="1.7198036"></ellipse>
                        <g id="Group" transform="translate(30.725806, 90.834697)" fill="#2A8ABC">
                            <rect id="Rectangle-path" x="0.193548387" y="10.0765957" width="5.97580645" height="46.4346972"></rect>
                            <rect id="Rectangle-path" x="112.596774" y="29.8422259" width="5.97580645" height="26.6690671"></rect>
                            <rect id="Rectangle-path" x="26.8064516" y="6.27364975" width="3.82258065" height="50.2376432"></rect>
                            <rect id="Rectangle-path" x="69.3387097" y="0.0968903437" width="9.02419355" height="56.4144026"></rect>
                        </g>
                        <g id="Group" transform="translate(14.516129, 77.027823)" fill="#C7DCE0">
                            <path d="M20.2016129,14.1217676 L20.2016129,23.8834697 L18.0483871,23.8834697 L18.0483871,16.4229133 L18.0967742,16.4229133 C18.8951613,15.7446809 19.6209677,14.9695581 20.2016129,14.1217676 Z" id="Shape"></path>
                            <path d="M5.25,18.0216039 L5.22580645,18.0700491 C3.94354839,19.01473 2.90322581,18.5787234 2.90322581,18.5787234 L2.90322581,23.8592471 L0.75,23.8592471 L0.75,14.2913257 C1.93548387,15.8900164 3.45967742,17.1738134 5.25,18.0216039 Z" id="Shape"></path>
                            <path d="M10.4274194,9.76170213 C10.4274194,10.4883797 10.0403226,11.0697218 9.33870968,11.0697218 C8.61290323,11.0697218 8.03225806,10.4641571 8.03225806,9.61636661 C8.03225806,4.84451718 4.59677419,0.872013093 0.0725806452,0.0726677578 C7.5483871,0.0968903437 10.4274194,5.78919804 10.4274194,9.76170213 Z" id="Shape"></path>
                        </g>
                        <g id="Group" transform="translate(126.774194, 96.890344)" fill="#C7DCE0">
                            <path d="M20.25,14.0248773 L20.25,23.7865794 L18.0967742,23.7865794 L18.0967742,16.3260229 L18.1451613,16.3260229 C18.9435484,15.6477905 19.6451613,14.8726678 20.25,14.0248773 Z" id="Shape"></path>
                            <path d="M5.2983871,17.9247136 L5.27419355,17.9731588 C3.99193548,18.9178396 2.9516129,18.4818331 2.9516129,18.4818331 L2.9516129,23.7623568 L0.798387097,23.7623568 L0.798387097,14.1702128 C1.95967742,15.793126 3.50806452,17.0769231 5.2983871,17.9247136 Z" id="Shape"></path>
                            <path d="M10.4758065,9.68903437 C10.4758065,10.4157119 10.0887097,10.997054 9.38709677,10.997054 C8.66129032,10.997054 8.08064516,10.3914894 8.08064516,9.54369885 C8.08064516,4.77184943 4.64516129,0.799345336 0.120967742,0 C7.57258065,0 10.4758065,5.69230769 10.4758065,9.68903437 Z" id="Shape"></path>
                        </g>
                        <g id="Group" transform="translate(71.370968, 50.382979)" fill="#C7DCE0">
                            <path d="M34.4032258,23.9561375 L34.4032258,40.5243863 L30.75,40.5243863 L30.75,27.8559738 L30.8225806,27.8559738 C32.1774194,26.7175123 33.3870968,25.4094926 34.4032258,23.9561375 Z" id="Shape"></path>
                            <path d="M9.02419355,30.593126 L8.97580645,30.6900164 C6.7983871,32.2644845 5.03225806,31.5620295 5.03225806,31.5620295 L5.03225806,40.5243863 L1.40322581,40.5243863 L1.40322581,24.2710311 C3.36290323,26.9597381 5.97580645,29.1397709 9.02419355,30.593126 Z" id="Shape"></path>
                            <path d="M17.7822581,16.5924714 C17.7822581,17.8278232 17.1532258,18.8209493 15.9193548,18.8209493 C14.6854839,18.8209493 13.6935484,17.7793781 13.6935484,16.3502455 C13.6935484,8.2599018 7.86290323,1.52602291 0.169354839,0.145335516 C12.8709677,0.145335516 17.7822581,9.8101473 17.7822581,16.5924714 Z" id="Shape"></path>
                        </g>
                        <g id="Group" transform="translate(49.112903, 83.810147)" fill="#C7DCE0">
                            <path d="M11.1290323,7.89656301 L11.1290323,13.2739771 L9.94354839,13.2739771 L9.94354839,9.15613748 L9.96774194,9.15613748 C10.4032258,8.79279869 10.7903226,8.35679214 11.1290323,7.89656301 Z" id="Shape"></path>
                            <path d="M2.87903226,10.0523732 L2.85483871,10.0765957 C2.15322581,10.58527 1.57258065,10.3672668 1.57258065,10.3672668 L1.57258065,13.2739771 L0.387096774,13.2739771 L0.387096774,7.99345336 C1.04032258,8.86546645 1.88709677,9.56792144 2.87903226,10.0523732 Z" id="Shape"></path>
                            <path d="M5.73387097,5.498527 C5.73387097,5.88608838 5.51612903,6.22520458 5.12903226,6.22520458 C4.74193548,6.22520458 4.40322581,5.88608838 4.40322581,5.42585925 C4.40322581,2.78559738 2.51612903,0.605564648 0,0.169558101 C4.13709677,0.145335516 5.73387097,3.29427169 5.73387097,5.498527 Z" id="Shape"></path>
                        </g>
                        <g id="Group" transform="translate(48.629032, 3.875614)" fill="#F5F6FA">
                            <path d="M60.5564516,51.6909984 L60.5564516,59.1031097 C60.5564516,62.0340426 59.9274194,64.8438625 58.7903226,67.3630115 C58.7177419,67.5325696 58.6451613,67.6779051 58.5725806,67.8474632 C58.5241935,67.9201309 58.5,68.0170213 58.4516129,68.089689 C57.5080645,69.9790507 56.2983871,71.6988543 54.8225806,73.1764321 C54.8225806,73.1764321 54.8225806,73.1764321 54.8225806,73.1764321 C49.983871,77.802946 44.1774194,76.688707 42.2903226,74.702455 L42.5322581,74.702455 C50.7580645,74.702455 57.4112903,68.0170213 57.4112903,59.8055646 L57.4112903,21.6307692 C57.4112903,19.7414075 55.9112903,18.1427169 54.0241935,18.1184943 C52.0887097,18.0942717 50.516129,19.6445172 50.516129,21.5823241 L50.516129,20.5165303 C50.516129,19.1358429 51.0725806,17.8762684 51.9919355,16.9558101 C52.9112903,16.0353519 54.1451613,15.4782324 55.5483871,15.4782324 C58.3306452,15.4782324 60.5806452,17.7309329 60.5806452,20.5165303 L60.5806452,34.3476268 L60.5806452,51.6909984 L60.5564516,51.6909984 Z" id="Shape"></path>
                            <path d="M50.516129,21.5823241 L50.516129,43.3099836 C48.7983871,43.3099836 47.3951613,41.9050736 47.3951613,40.18527 L47.3951613,11.0697218 C47.3951613,9.18036007 45.8951613,7.58166939 44.0080645,7.55744681 C42.0725806,7.53322422 40.5,9.08346972 40.5,11.0212766 L40.5,9.9797054 C40.5,8.599018 41.0564516,7.33944354 41.9758065,6.41898527 C42.8951613,5.498527 44.1290323,4.94140753 45.5322581,4.94140753 C48.3145161,4.94140753 50.5645161,7.19410802 50.5645161,9.9797054 L50.5645161,20.5407529 L50.5645161,21.5823241 L50.516129,21.5823241 Z" id="Shape"></path>
                            <path d="M40.4758065,10.997054 L40.4758065,40.8635025 L40.3306452,40.8635025 C38.6129032,40.8635025 37.2096774,39.4585925 37.2096774,37.7387889 L37.2096774,6.27364975 C37.2096774,4.38428805 35.7096774,2.78559738 33.8225806,2.7613748 C32.25,2.73715221 30.8951613,3.75450082 30.4596774,5.18363339 L30.4596774,5.1594108 C30.4596774,3.7787234 31.016129,2.51914894 31.9354839,1.59869067 C32.8548387,0.678232406 34.0887097,0.12111293 35.4919355,0.12111293 C38.2741935,0.12111293 40.5241935,2.37381342 40.5241935,5.1594108 L40.5241935,9.95548282 L40.5241935,10.997054 L40.4758065,10.997054 Z" id="Shape"></path>
                            <path d="M1.62096774,39.7734861 L0,37.5450082 C4.20967742,34.3718494 10.2096774,35.2438625 13.3306452,39.5070376 L18.4354839,46.4346972 C18.6532258,46.7253682 18.9677419,46.8707038 19.2580645,46.8707038 C19.2822581,46.8707038 19.2822581,46.8707038 19.3064516,46.8707038 L20.1774194,46.8707038 C26.0564516,46.8707038 31.1854839,49.9954173 34.0403226,54.6703764 C30.8951613,49.9469722 23.9032258,48.9538462 18.9919355,49.8500818 C17.6612903,50.0923077 16.3064516,49.5351882 15.5564516,48.3967267 L11.1774194,41.8324059 C9.12096774,38.7076923 4.83870968,37.8356792 1.62096774,39.7734861 Z" id="Shape"></path>
                            <path d="M30.4354839,14.097545 L30.4354839,39.0468085 C28.7177419,39.0468085 27.3145161,37.6418985 27.3145161,35.9220949 L27.3145161,14.8242226 C27.3145161,12.9348609 25.8145161,11.3361702 23.9274194,11.3119476 C22.016129,11.287725 20.4677419,12.7895254 20.4193548,14.6788871 L20.4193548,14.097545 C20.4193548,12.7168576 20.9758065,11.4572831 21.8951613,10.5368249 C22.8145161,9.61636661 24.0483871,9.05924714 25.4516129,9.05924714 C28.1854839,9.05924714 30.4354839,11.3119476 30.4354839,14.097545 Z" id="Shape"></path>
                        </g>
                        <g id="Group" transform="translate(0.483871, 49.171849)" fill="#F5F6FA">
                            <path d="M36.4112903,30.9322422 L36.4112903,35.3649755 C36.4112903,37.1332242 36.0241935,38.8045827 35.3467742,40.306383 C35.2983871,40.4032733 35.25,40.5001637 35.2016129,40.597054 C35.1774194,40.6454992 35.1532258,40.6939444 35.1290323,40.7423895 C34.5725806,41.8808511 33.8225806,42.8981997 32.9516129,43.7944354 C32.9516129,43.7944354 32.9516129,43.7944354 32.9516129,43.7944354 C30.0483871,46.5558101 26.5887097,45.9018003 25.4516129,44.7148936 L25.5967742,44.7148936 C30.5080645,44.7148936 34.5,40.7181669 34.5,35.800982 L34.5,12.9590835 C34.5,11.8206219 33.6048387,10.8759411 32.4677419,10.8517185 C31.3064516,10.8274959 30.3629032,11.7721768 30.3629032,12.9348609 L30.3629032,12.3050736 C30.3629032,11.4815057 30.7016129,10.7306056 31.233871,10.1734861 C31.766129,9.6405892 32.5403226,9.301473 33.3629032,9.301473 C35.0322581,9.301473 36.3629032,10.6579378 36.3629032,12.3050736 L36.3629032,20.589198 L36.3629032,30.9322422 L36.4112903,30.9322422 Z" id="Shape"></path>
                            <path d="M30.4112903,12.9106383 L30.4112903,25.9181669 C29.3709677,25.9181669 28.5483871,25.0703764 28.5483871,24.0530278 L28.5483871,6.63698854 C28.5483871,5.498527 27.6532258,4.55384615 26.516129,4.52962357 C25.3548387,4.50540098 24.4112903,5.45008183 24.4112903,6.61276596 L24.4112903,5.98297872 C24.4112903,5.1594108 24.75,4.40851064 25.2822581,3.85139116 C25.8145161,3.29427169 26.5887097,2.97937807 27.4112903,2.97937807 C29.0806452,2.97937807 30.4112903,4.33584288 30.4112903,5.98297872 L30.4112903,12.3050736 L30.4112903,12.9106383 Z" id="Shape"></path>
                            <path d="M24.4112903,6.56432079 L24.4112903,24.4405892 L24.3145161,24.4405892 C23.2741935,24.4405892 22.4516129,23.5927987 22.4516129,22.5754501 L22.4516129,3.73027823 C22.4516129,2.59181669 21.5564516,1.64713584 20.4193548,1.62291326 C19.4758065,1.59869067 18.6774194,2.22847791 18.4112903,3.07626841 C18.4112903,2.25270049 18.75,1.50180033 19.2822581,0.944680851 C19.8145161,0.387561375 20.5887097,0.0726677578 21.4112903,0.0726677578 C23.0806452,0.0726677578 24.4112903,1.42913257 24.4112903,3.07626841 L24.4112903,5.93453355 L24.4112903,6.56432079 Z" id="Shape"></path>
                            <path d="M1.13709677,23.810802 L0.169354839,22.4785597 C2.68548387,20.589198 6.29032258,21.0978723 8.15322581,23.6412439 L11.2016129,27.7833061 C11.3225806,27.9528642 11.516129,28.0497545 11.6854839,28.0497545 C11.6854839,28.0497545 11.7096774,28.0497545 11.7096774,28.0497545 L12.2419355,28.0497545 C15.75,28.0497545 18.8467742,29.9148936 20.5403226,32.7247136 C18.6532258,29.890671 14.4677419,29.309329 11.5403226,29.8422259 C10.7419355,29.9875614 9.91935484,29.6484452 9.48387097,28.9702128 L6.87096774,25.0461538 C5.61290323,23.1567921 3.0483871,22.6481178 1.13709677,23.810802 Z" id="Shape"></path>
                            <path d="M18.3870968,8.4294599 L18.3870968,23.3747954 C17.3467742,23.3747954 16.5241935,22.5270049 16.5241935,21.5096563 L16.5241935,8.86546645 C16.5241935,7.72700491 15.6290323,6.78232406 14.4919355,6.75810147 C13.3548387,6.73387889 12.4112903,7.65433715 12.3870968,8.7685761 L12.3870968,8.4294599 C12.3870968,7.60589198 12.7258065,6.85499182 13.2580645,6.29787234 C13.7903226,5.74075286 14.5645161,5.42585925 15.3870968,5.42585925 C17.0322581,5.42585925 18.3870968,6.75810147 18.3870968,8.4294599 Z" id="Shape"></path>
                        </g>
                        <g id="Group" transform="translate(112.983871, 69.034370)" fill="#F5F6FA">
                            <path d="M36.3387097,30.8595745 L36.3387097,35.2923077 C36.3387097,37.0605565 35.9516129,38.7319149 35.2741935,40.2337152 C35.2258065,40.3306056 35.1774194,40.4274959 35.1290323,40.5243863 C35.1048387,40.5728314 35.0806452,40.6212766 35.0564516,40.6697218 C34.5,41.8081833 33.75,42.8255319 32.8790323,43.7217676 C32.8790323,43.7217676 32.8790323,43.7217676 32.8790323,43.7217676 C29.9758065,46.4831424 26.516129,45.8291326 25.3790323,44.6422259 L25.5241935,44.6422259 C30.4354839,44.6422259 34.4274194,40.6454992 34.4274194,35.7283142 L34.4274194,12.8864157 C34.4274194,11.7479542 33.5322581,10.8032733 32.3951613,10.7790507 C31.233871,10.7548282 30.2903226,11.699509 30.2903226,12.8621931 L30.2903226,12.2324059 C30.2903226,11.408838 30.6290323,10.6579378 31.1612903,10.1008183 C31.6935484,9.56792144 32.4677419,9.22880524 33.2903226,9.22880524 C34.9596774,9.22880524 36.2903226,10.58527 36.2903226,12.2324059 L36.2903226,20.5165303 L36.2903226,30.8595745 L36.3387097,30.8595745 Z" id="Shape"></path>
                            <path d="M30.3387097,12.813748 L30.3387097,25.8212766 C29.2983871,25.8212766 28.4758065,24.9734861 28.4758065,23.9561375 L28.4758065,6.5400982 C28.4758065,5.40163666 27.5806452,4.45695581 26.4435484,4.43273322 C25.2822581,4.40851064 24.3387097,5.35319149 24.3387097,6.51587561 L24.3387097,5.88608838 C24.3387097,5.06252046 24.6774194,4.31162029 25.2096774,3.75450082 C25.7419355,3.19738134 26.516129,2.88248773 27.3387097,2.88248773 C29.0080645,2.88248773 30.3387097,4.23895254 30.3387097,5.88608838 L30.3387097,12.2081833 L30.3387097,12.813748 Z" id="Shape"></path>
                            <path d="M24.3145161,6.49165303 L24.3145161,24.3679214 L24.2177419,24.3679214 C23.1774194,24.3679214 22.3548387,23.5201309 22.3548387,22.5027823 L22.3548387,3.65761047 C22.3548387,2.51914894 21.4596774,1.57446809 20.3225806,1.5502455 C19.3790323,1.52602291 18.5806452,2.15581015 18.3145161,3.00360065 C18.3145161,2.18003273 18.6532258,1.42913257 19.1854839,0.872013093 C19.7177419,0.339116203 20.4919355,-1.13686838e-13 21.3145161,-1.13686838e-13 C22.983871,-1.13686838e-13 24.3145161,1.35646481 24.3145161,3.00360065 L24.3145161,5.86186579 L24.3145161,6.49165303 Z" id="Shape"></path>
                            <path d="M1.06451613,23.7139116 L0.0967741935,22.3816694 C2.61290323,20.4923077 6.21774194,21.000982 8.08064516,23.5443535 L11.1290323,27.6864157 C11.25,27.8559738 11.4435484,27.9528642 11.6129032,27.9528642 C11.6129032,27.9528642 11.6370968,27.9528642 11.6370968,27.9528642 L12.1693548,27.9528642 C15.6774194,27.9528642 18.7741935,29.8180033 20.4677419,32.6278232 C18.5806452,29.7937807 14.3951613,29.2124386 11.4677419,29.7453355 C10.6693548,29.890671 9.84677419,29.5515548 9.41129032,28.8733224 L6.7983871,24.9492635 C5.54032258,23.0841244 2.97580645,22.5512275 1.06451613,23.7139116 Z" id="Shape"></path>
                            <path d="M18.3145161,8.35679214 L18.3145161,23.3021277 C17.2741935,23.3021277 16.4516129,22.4543372 16.4516129,21.4369885 L16.4516129,8.79279869 C16.4516129,7.65433715 15.5564516,6.7096563 14.4193548,6.68543372 C13.2822581,6.66121113 12.3387097,7.58166939 12.3145161,8.69590835 L12.3145161,8.35679214 C12.3145161,7.53322422 12.6532258,6.78232406 13.1854839,6.22520458 C13.7177419,5.69230769 14.4919355,5.35319149 15.3145161,5.35319149 C16.9596774,5.3289689 18.3145161,6.68543372 18.3145161,8.35679214 Z" id="Shape"></path>
                        </g>
                        <g id="Group" transform="translate(41.612903, 69.034370)" fill="#F5F6FA">
                            <path d="M19.6935484,16.8104746 L19.6935484,19.2085106 C19.6935484,20.1531915 19.5,21.0736498 19.1129032,21.8729951 C19.0887097,21.9214403 19.0645161,21.9698854 19.0403226,22.0183306 C19.016129,22.0425532 19.016129,22.0667758 18.9919355,22.0909984 C18.6774194,22.696563 18.2903226,23.2536825 17.8306452,23.7381342 C17.8306452,23.7381342 17.8306452,23.7381342 17.8306452,23.7381342 C16.2580645,25.2399345 14.3951613,24.8765957 13.766129,24.2225859 L13.8387097,24.2225859 C16.5,24.2225859 18.6532258,22.0667758 18.6532258,19.4022913 L18.6532258,7.07299509 C18.6532258,6.46743044 18.1693548,5.93453355 17.5645161,5.93453355 C16.9354839,5.93453355 16.4274194,6.41898527 16.4274194,7.0487725 L16.4274194,6.7096563 C16.4274194,6.24942717 16.6209677,5.86186579 16.9112903,5.57119476 C17.2016129,5.28052373 17.6129032,5.08674304 18.0483871,5.08674304 C18.9435484,5.08674304 19.6693548,5.81342062 19.6693548,6.7096563 L19.6693548,11.1666121 L19.6693548,16.8104746 L19.6935484,16.8104746 Z" id="Shape"></path>
                            <path d="M16.4516129,7.07299509 L16.4516129,14.097545 C15.8951613,14.097545 15.4354839,13.6373159 15.4354839,13.0801964 L15.4354839,3.68183306 C15.4354839,3.07626841 14.9516129,2.54337152 14.3467742,2.54337152 C13.7177419,2.54337152 13.2096774,3.02782324 13.2096774,3.65761047 L13.2096774,3.31849427 C13.2096774,2.85826514 13.4032258,2.47070376 13.6935484,2.18003273 C13.983871,1.8893617 14.3951613,1.69558101 14.8306452,1.69558101 C15.7258065,1.69558101 16.4516129,2.42225859 16.4516129,3.31849427 L16.4516129,6.73387889 L16.4516129,7.07299509 Z" id="Shape"></path>
                            <path d="M13.2096774,3.65761047 L13.2096774,13.3224223 L13.1612903,13.3224223 C12.6048387,13.3224223 12.1451613,12.8621931 12.1451613,12.3050736 L12.1451613,2.13158756 C12.1451613,1.52602291 11.6612903,0.993126023 11.0564516,0.993126023 C10.5483871,0.993126023 10.1129032,1.30801964 9.96774194,1.76824877 C9.96774194,1.30801964 10.1612903,0.920458265 10.4516129,0.629787234 C10.7419355,0.339116203 11.1532258,0.145335516 11.5887097,0.145335516 C12.483871,0.145335516 13.2096774,0.872013093 13.2096774,1.76824877 L13.2096774,3.31849427 L13.2096774,3.65761047 Z" id="Shape"></path>
                            <path d="M0.629032258,12.9590835 L0.0967741935,12.2324059 C1.4516129,11.2150573 3.38709677,11.4815057 4.40322581,12.8621931 L6.0483871,15.090671 C6.12096774,15.1875614 6.21774194,15.2360065 6.31451613,15.2360065 C6.31451613,15.2360065 6.31451613,15.2360065 6.33870968,15.2360065 L6.62903226,15.2360065 C8.51612903,15.2360065 10.1854839,16.2533552 11.1048387,17.7551555 C10.0887097,16.2291326 7.81451613,15.914239 6.24193548,16.20491 C5.80645161,16.2775777 5.37096774,16.1080196 5.12903226,15.7446809 L3.7016129,13.6130933 C3.07258065,12.5957447 1.66935484,12.3292962 0.629032258,12.9590835 Z" id="Shape"></path>
                            <path d="M9.96774194,4.6507365 L9.96774194,12.7168576 C9.41129032,12.7168576 8.9516129,12.2566285 8.9516129,11.699509 L8.9516129,4.86873977 C8.9516129,4.26317512 8.46774194,3.73027823 7.86290323,3.73027823 C7.25806452,3.73027823 6.75,4.21472995 6.72580645,4.8202946 L6.72580645,4.62651391 C6.72580645,4.16628478 6.91935484,3.7787234 7.20967742,3.48805237 C7.5,3.19738134 7.91129032,3.00360065 8.34677419,3.00360065 C9.21774194,3.02782324 9.96774194,3.75450082 9.96774194,4.6507365 Z" id="Shape"></path>
                        </g>
                        <path d="M109.185484,147.90311 C108.798387,147.90311 108.459677,147.588216 108.459677,147.176432 L108.459677,91.6582651 L69.5806452,91.6582651 L69.5806452,147.176432 C69.5806452,147.563993 69.266129,147.90311 68.8548387,147.90311 C68.4677419,147.90311 68.1290323,147.588216 68.1290323,147.176432 L68.1290323,90.9315876 C68.1290323,90.5440262 68.4435484,90.20491 68.8548387,90.20491 L109.185484,90.20491 C109.572581,90.20491 109.91129,90.5198036 109.91129,90.9315876 L109.91129,147.176432 C109.91129,147.588216 109.596774,147.90311 109.185484,147.90311 Z" id="Shape" fill="#066695"></path>
                        <path d="M80.4677419,81.8723404 C80.3709677,81.8723404 80.25,81.8481178 80.1532258,81.7996727 C76.9354839,80.2736498 74.1532258,77.9240589 72.0967742,75.0173486 C72.0967742,75.0173486 72.0725806,74.993126 72.0725806,74.993126 L48.0241935,41.8566285 C47.7822581,41.5417349 47.8548387,41.0815057 48.1693548,40.8635025 C50.3709677,39.2163666 53.0564516,38.5139116 55.7903226,38.9256956 C58.5,39.313257 60.8951613,40.7666121 62.516129,42.9708674 L67.6209677,49.898527 C67.766129,50.0923077 67.9354839,50.0438625 68.0080645,50.0196399 C68.0806452,49.9954173 68.25,49.9227496 68.25,49.6805237 L68.25,38.199018 C68.25,38.1263502 68.25,38.0779051 68.2741935,38.0052373 L68.2741935,17.9489362 C68.2741935,14.7757774 70.8387097,12.2081833 74.0080645,12.2081833 C75.7258065,12.2081833 77.25,12.9590835 78.3145161,14.1459902 L78.3145161,9.03502455 C78.3145161,5.86186579 80.8790323,3.29427169 84.0483871,3.29427169 C87.2177419,3.29427169 89.7822581,5.86186579 89.7822581,9.03502455 L89.7822581,10.003928 C90.8467742,8.81702128 92.3709677,8.06612111 94.0887097,8.06612111 C97.2580645,8.06612111 99.8225806,10.6337152 99.8225806,13.806874 L99.8225806,20.5407529 C100.887097,19.3538462 102.41129,18.602946 104.129032,18.602946 C107.298387,18.602946 109.862903,21.1705401 109.862903,24.3436989 L109.862903,62.9787234 C109.862903,69.1554828 107.153226,74.993126 102.41129,78.9656301 C102.096774,79.2320786 101.66129,79.1836334 101.395161,78.8687398 C101.129032,78.5538462 101.177419,78.1178396 101.491935,77.8513912 C105.895161,74.1453355 108.435484,68.7194763 108.435484,62.9787234 L108.435484,24.3679214 C108.435484,21.994108 106.5,20.0563011 104.129032,20.0563011 C101.758065,20.0563011 99.8225806,21.994108 99.8225806,24.3679214 C99.8225806,24.7554828 99.5080645,25.094599 99.0967742,25.094599 C98.7096774,25.094599 98.3709677,24.7797054 98.3709677,24.3679214 L98.3709677,13.806874 C98.3709677,11.4330606 96.4354839,9.49525368 94.0645161,9.49525368 C91.6935484,9.49525368 89.7580645,11.4330606 89.7580645,13.806874 C89.7580645,14.1944354 89.4435484,14.5335516 89.0322581,14.5335516 C88.6451613,14.5335516 88.3064516,14.2186579 88.3064516,13.806874 L88.3064516,9.01080196 C88.3064516,6.63698854 86.3709677,4.69918167 84,4.69918167 C81.6290323,4.69918167 79.6935484,6.63698854 79.6935484,9.01080196 L79.6935484,17.9489362 C79.6935484,18.3364975 79.3790323,18.6756137 78.9677419,18.6756137 C78.5806452,18.6756137 78.2419355,18.3607201 78.2419355,17.9489362 C78.2419355,15.5751227 76.3064516,13.6373159 73.9354839,13.6373159 C71.5645161,13.6373159 69.6290323,15.5751227 69.6290323,17.9489362 L69.6290323,38.1747954 C69.6290323,38.2474632 69.6290323,38.2959083 69.6048387,38.3685761 L69.6048387,49.6805237 C69.6048387,50.4798691 69.1209677,51.1338789 68.3709677,51.3761047 C67.6209677,51.6183306 66.8467742,51.3761047 66.3629032,50.7463175 L61.2580645,43.8186579 C59.8548387,41.9292962 57.7983871,40.6939444 55.4758065,40.3548282 C53.3709677,40.0399345 51.2903226,40.5001637 49.5241935,41.6144026 L73.1129032,74.0968903 C73.1129032,74.1211129 73.1370968,74.1211129 73.1370968,74.1453355 C75.0483871,76.8582651 77.6612903,79.0625205 80.6612903,80.491653 C81.0241935,80.6612111 81.1693548,81.0972177 81,81.4605565 C81,81.7270049 80.733871,81.8723404 80.4677419,81.8723404 Z" id="Shape" fill="#066695"></path>
                        <path d="M79.0645161,43.6490998 C78.6774194,43.6490998 78.3387097,43.3342062 78.3387097,42.9224223 L78.3387097,17.9731588 C78.3387097,17.5855974 78.6532258,17.2464812 79.0645161,17.2464812 C79.4516129,17.2464812 79.7903226,17.5613748 79.7903226,17.9731588 L79.7903226,42.9224223 C79.7903226,43.3342062 79.4516129,43.6490998 79.0645161,43.6490998 Z" id="Shape" fill="#066695"></path>
                        <path d="M89.1048387,45.4657938 C88.7177419,45.4657938 88.3790323,45.1509002 88.3790323,44.7391162 L88.3790323,13.8310966 C88.3790323,13.4435352 88.6935484,13.104419 89.1048387,13.104419 C89.4919355,13.104419 89.8306452,13.4193126 89.8306452,13.8310966 L89.8306452,44.7391162 C89.8306452,45.1266776 89.516129,45.4657938 89.1048387,45.4657938 Z" id="Shape" fill="#066695"></path>
                        <path d="M99.1451613,47.8880524 C98.7580645,47.8880524 98.4193548,47.5731588 98.4193548,47.1613748 L98.4193548,24.3679214 C98.4193548,23.9803601 98.733871,23.6412439 99.1451613,23.6412439 C99.5322581,23.6412439 99.8709677,23.9561375 99.8709677,24.3679214 L99.8709677,47.1613748 C99.8709677,47.5731588 99.5564516,47.8880524 99.1451613,47.8880524 Z" id="Shape" fill="#066695"></path>
                        <path d="M105.508065,91.6582651 L72.8951613,91.6582651 C72.5080645,91.6582651 72.1693548,91.3433715 72.1693548,90.9315876 L72.1693548,74.8477905 C72.1693548,74.4602291 72.483871,74.1211129 72.8951613,74.1211129 C73.2822581,74.1211129 73.6209677,74.4360065 73.6209677,74.8477905 L73.6209677,90.20491 L104.806452,90.20491 L104.806452,74.5571195 C104.806452,74.1695581 105.120968,73.8304419 105.532258,73.8304419 C105.943548,73.8304419 106.258065,74.1453355 106.258065,74.5571195 L106.258065,90.9315876 C106.233871,91.3433715 105.919355,91.6582651 105.508065,91.6582651 Z" id="Shape" fill="#066695"></path>
                        <path d="M85.0645161,67.7505728 C84.6774194,67.7505728 84.3387097,67.4356792 84.3387097,67.0238953 C84.3387097,58.4490998 77.3709677,51.4729951 68.8064516,51.4729951 L67.8870968,51.4729951 C67.5,51.4729951 67.1612903,51.1581015 67.1612903,50.7463175 C67.1612903,50.3587561 67.4758065,50.0196399 67.8870968,50.0196399 L68.8064516,50.0196399 C78.1693548,50.0196399 85.766129,57.6497545 85.766129,66.9996727 C85.7903226,67.4356792 85.4758065,67.7505728 85.0645161,67.7505728 Z" id="Shape" fill="#066695"></path>
                        <path d="M36.9193548,147.90311 C36.5322581,147.90311 36.1935484,147.588216 36.1935484,147.176432 L36.1935484,101.637971 L13.5967742,101.637971 L13.5967742,147.200655 C13.5967742,147.588216 13.2822581,147.927332 12.8709677,147.927332 C12.4596774,147.927332 12.1451613,147.612439 12.1451613,147.200655 L12.1451613,100.935516 C12.1451613,100.547954 12.4596774,100.208838 12.8709677,100.208838 L36.9193548,100.208838 C37.3064516,100.208838 37.6451613,100.523732 37.6451613,100.935516 L37.6451613,147.200655 C37.6451613,147.588216 37.3064516,147.90311 36.9193548,147.90311 Z" id="Shape" fill="#066695"></path>
                        <path d="M19.7903226,95.8003273 C19.6935484,95.8003273 19.5725806,95.7761047 19.4758065,95.7276596 C17.516129,94.8072013 15.8225806,93.3780687 14.5645161,91.5855974 C14.5645161,91.5855974 14.5645161,91.5855974 14.5403226,91.5613748 L0.241935484,71.8441899 C1.58206781e-15,71.5292962 0.0725806452,71.0690671 0.387096774,70.8510638 C1.76612903,69.8094926 3.43548387,69.3977087 5.12903226,69.6399345 C6.82258065,69.8821604 8.32258065,70.7783961 9.33870968,72.1590835 L12.2177419,76.0831424 L12.2177419,69.494599 C12.2177419,69.4461538 12.2177419,69.3977087 12.2419355,69.3492635 L12.2419355,57.4317512 C12.2419355,55.3728314 13.9112903,53.7256956 15.9435484,53.7256956 C16.7903226,53.7256956 17.5887097,54.0163666 18.2177419,54.5008183 L18.2177419,52.1270049 C18.2177419,50.0680851 19.8870968,48.4209493 21.9193548,48.4209493 C23.9274194,48.4209493 25.5725806,50.0438625 25.6209677,52.0543372 C26.25,51.5698854 27.0483871,51.2792144 27.8951613,51.2792144 C29.9516129,51.2792144 31.5967742,52.9505728 31.5967742,54.98527 L31.5967742,58.3279869 C32.2258065,57.8435352 33.0241935,57.5528642 33.8709677,57.5528642 C35.9274194,57.5528642 37.5725806,59.2242226 37.5725806,61.2589198 L37.5725806,84.2461538 C37.5725806,88.0248773 35.9032258,91.5613748 33.0241935,93.9836334 C32.7096774,94.2500818 32.2741935,94.2016367 32.0080645,93.886743 C31.7419355,93.5718494 31.7903226,93.1358429 32.1048387,92.8693944 C34.6693548,90.7135843 36.1451613,87.5646481 36.1451613,84.2219313 L36.1451613,61.2346972 C36.1451613,59.9751227 35.1290323,58.9577741 33.8709677,58.9577741 C32.6129032,58.9577741 31.5967742,59.9751227 31.5967742,61.2346972 C31.5967742,61.6222586 31.2822581,61.9613748 30.8709677,61.9613748 C30.483871,61.9613748 30.1451613,61.6464812 30.1451613,61.2346972 L30.1451613,54.9368249 C30.1451613,53.6772504 29.1290323,52.6599018 27.8709677,52.6599018 C26.6129032,52.6599018 25.5967742,53.6772504 25.5967742,54.9368249 C25.5967742,55.3243863 25.2822581,55.6635025 24.8709677,55.6635025 C24.483871,55.6635025 24.1451613,55.3486088 24.1451613,54.9368249 L24.1451613,52.0785597 C24.1451613,50.8189853 23.1290323,49.8016367 21.8709677,49.8016367 C20.6129032,49.8016367 19.5967742,50.8189853 19.5967742,52.0785597 L19.5967742,57.4075286 C19.5967742,57.79509 19.2822581,58.1342062 18.8709677,58.1342062 C18.483871,58.1342062 18.1451613,57.8193126 18.1451613,57.4075286 C18.1451613,56.1479542 17.1290323,55.1306056 15.8709677,55.1306056 C14.6129032,55.1306056 13.5967742,56.1479542 13.5967742,57.4075286 L13.5967742,69.4703764 C13.5967742,69.5188216 13.5967742,69.5672668 13.5725806,69.6157119 L13.5725806,76.3253682 C13.5725806,76.9309329 13.2096774,77.4396072 12.6290323,77.6091653 C12.0725806,77.802946 11.4677419,77.6091653 11.1048387,77.1247136 L8.05645161,73.006874 C7.25806452,71.9410802 6.12096774,71.2386252 4.81451613,71.0448445 C3.75,70.899509 2.66129032,71.0932897 1.74193548,71.601964 L15.6048387,90.6893617 C15.6048387,90.6893617 15.6290323,90.7135843 15.6290323,90.7135843 C16.7419355,92.2880524 18.2419355,93.5718494 19.983871,94.3954173 C20.3467742,94.5649755 20.4919355,95.000982 20.3225806,95.3643208 C20.3225806,95.6307692 20.0564516,95.8003273 19.7903226,95.8003273 Z" id="Shape" fill="#066695"></path>
                        <path d="M18.9677419,73.0310966 C18.5806452,73.0310966 18.2419355,72.7162029 18.2419355,72.304419 L18.2419355,57.4317512 C18.2419355,57.0441899 18.5564516,56.7050736 18.9677419,56.7050736 C19.3548387,56.7050736 19.6935484,57.0199673 19.6935484,57.4317512 L19.6935484,72.304419 C19.6935484,72.6919804 19.3548387,73.0310966 18.9677419,73.0310966 Z" id="Shape" fill="#066695"></path>
                        <path d="M24.9435484,74.0968903 C24.5564516,74.0968903 24.2177419,73.7819967 24.2177419,73.3702128 L24.2177419,54.9610475 C24.2177419,54.5734861 24.5322581,54.2343699 24.9435484,54.2343699 C25.3306452,54.2343699 25.6693548,54.5492635 25.6693548,54.9610475 L25.6693548,73.3702128 C25.6693548,73.7819967 25.3548387,74.0968903 24.9435484,74.0968903 Z" id="Shape" fill="#066695"></path>
                        <path d="M30.9193548,75.5502455 C30.5322581,75.5502455 30.1935484,75.2353519 30.1935484,74.8235679 L30.1935484,61.2346972 C30.1935484,60.8471358 30.5080645,60.5080196 30.9193548,60.5080196 C31.3064516,60.5080196 31.6451613,60.8229133 31.6451613,61.2346972 L31.6451613,74.8235679 C31.6451613,75.2111293 31.3306452,75.5502455 30.9193548,75.5502455 Z" id="Shape" fill="#066695"></path>
                        <g id="XMLID_2_" transform="translate(11.370968, 76.058920)" fill="#066695">
                            <g id="Group">
                                <path d="M23.3467742,25.5790507 L3.89516129,25.5790507 C3.48387097,25.5790507 3.16935484,25.2641571 3.16935484,24.8523732 L3.16935484,15.2602291 C3.16935484,14.8484452 3.48387097,14.5335516 3.89516129,14.5335516 C4.30645161,14.5335516 4.62096774,14.8484452 4.62096774,15.2602291 L4.62096774,24.1256956 L22.6209677,24.1256956 L22.6209677,15.090671 C22.6209677,14.6788871 22.9354839,14.3639935 23.3467742,14.3639935 C23.7580645,14.3639935 24.0725806,14.6788871 24.0725806,15.090671 L24.0725806,24.8523732 C24.0725806,25.2399345 23.7580645,25.5790507 23.3467742,25.5790507 Z" id="Shape"></path>
                                <path d="M11.1774194,11.3119476 C10.766129,11.3119476 10.4516129,10.997054 10.4516129,10.58527 C10.4516129,5.64386252 6.43548387,1.62291326 1.5,1.62291326 L0.943548387,1.62291326 C0.532258065,1.62291326 0.217741935,1.30801964 0.217741935,0.896235679 C0.217741935,0.484451718 0.532258065,0.169558101 0.943548387,0.169558101 L1.5,0.169558101 C7.23387097,0.169558101 11.9032258,4.84451718 11.9032258,10.58527 C11.9032258,10.997054 11.5645161,11.3119476 11.1774194,11.3119476 Z" id="Shape"></path>
                            </g>
                        </g>
                        <path d="M149.25,147.90311 C148.862903,147.90311 148.524194,147.588216 148.524194,147.176432 L148.524194,121.403601 L125.927419,121.403601 L125.927419,147.176432 C125.927419,147.563993 125.612903,147.90311 125.201613,147.90311 C124.814516,147.90311 124.475806,147.588216 124.475806,147.176432 L124.475806,120.676923 C124.475806,120.289362 124.790323,119.950245 125.201613,119.950245 L149.25,119.950245 C149.637097,119.950245 149.975806,120.265139 149.975806,120.676923 L149.975806,147.176432 C149.975806,147.588216 149.637097,147.90311 149.25,147.90311 Z" id="Shape" fill="#066695"></path>
                        <path d="M132.120968,115.565957 C132.024194,115.565957 131.903226,115.541735 131.806452,115.49329 C129.846774,114.572831 128.153226,113.143699 126.895161,111.351227 C126.895161,111.351227 126.895161,111.351227 126.870968,111.327005 L112.548387,91.5855974 C112.306452,91.2707038 112.379032,90.8104746 112.693548,90.5924714 C114.072581,89.5509002 115.741935,89.1391162 117.435484,89.3813421 C119.129032,89.6235679 120.629032,90.5198036 121.645161,91.900491 L124.524194,95.8245499 L124.524194,89.2360065 C124.524194,89.1875614 124.524194,89.1391162 124.548387,89.090671 L124.548387,77.1731588 C124.548387,75.114239 126.217742,73.4671031 128.25,73.4671031 C129.096774,73.4671031 129.895161,73.7577741 130.524194,74.2422259 L130.524194,71.8684124 C130.524194,69.8094926 132.193548,68.1623568 134.225806,68.1623568 C136.233871,68.1623568 137.879032,69.78527 137.927419,71.7957447 C138.556452,71.311293 139.354839,71.0206219 140.201613,71.0206219 C142.258065,71.0206219 143.903226,72.6919804 143.903226,74.7266776 L143.903226,78.0693944 C144.532258,77.5849427 145.330645,77.2942717 146.177419,77.2942717 C148.233871,77.2942717 149.879032,78.9656301 149.879032,81.0003273 L149.879032,103.987561 C149.879032,107.766285 148.209677,111.302782 145.330645,113.725041 C145.016129,113.991489 144.580645,113.943044 144.314516,113.628151 C144.048387,113.313257 144.096774,112.87725 144.41129,112.610802 C146.975806,110.454992 148.451613,107.306056 148.451613,103.963339 L148.451613,80.9761047 C148.451613,79.7165303 147.435484,78.6991817 146.177419,78.6991817 C144.919355,78.6991817 143.903226,79.7165303 143.903226,80.9761047 C143.903226,81.3636661 143.58871,81.7027823 143.177419,81.7027823 C142.766129,81.7027823 142.451613,81.3878887 142.451613,80.9761047 L142.451613,74.6782324 C142.451613,73.4186579 141.435484,72.4013093 140.177419,72.4013093 C138.919355,72.4013093 137.903226,73.4186579 137.903226,74.6782324 C137.903226,75.0657938 137.58871,75.40491 137.177419,75.40491 C136.790323,75.40491 136.451613,75.0900164 136.451613,74.6782324 L136.451613,71.8199673 C136.451613,70.5603928 135.435484,69.5430442 134.177419,69.5430442 C132.919355,69.5430442 131.903226,70.5603928 131.903226,71.8199673 L131.903226,77.1489362 C131.903226,77.5364975 131.58871,77.8756137 131.177419,77.8756137 C130.790323,77.8756137 130.451613,77.5607201 130.451613,77.1489362 C130.451613,75.8893617 129.435484,74.8720131 128.177419,74.8720131 C126.919355,74.8720131 125.903226,75.8893617 125.903226,77.1489362 L125.903226,89.211784 C125.903226,89.2602291 125.903226,89.3086743 125.879032,89.3571195 L125.879032,96.0667758 C125.879032,96.6723404 125.516129,97.1810147 124.935484,97.3505728 C124.379032,97.5443535 123.774194,97.3505728 123.41129,96.8661211 L120.362903,92.7482815 C119.564516,91.6824877 118.427419,90.9800327 117.120968,90.786252 C116.056452,90.6166939 114.967742,90.8346972 114.048387,91.3433715 L127.91129,110.430769 C127.91129,110.430769 127.935484,110.454992 127.935484,110.454992 C129.048387,112.02946 130.548387,113.313257 132.290323,114.136825 C132.653226,114.306383 132.798387,114.74239 132.629032,115.105728 C132.653226,115.396399 132.387097,115.565957 132.120968,115.565957 Z" id="Shape" fill="#066695"></path>
                        <path d="M131.298387,92.7967267 C130.91129,92.7967267 130.572581,92.4818331 130.572581,92.0700491 L130.572581,77.1973813 C130.572581,76.80982 130.887097,76.4707038 131.298387,76.4707038 C131.685484,76.4707038 132.024194,76.7855974 132.024194,77.1973813 L132.024194,92.0700491 C132.024194,92.4576105 131.685484,92.7967267 131.298387,92.7967267 Z" id="Shape" fill="#066695"></path>
                        <path d="M137.274194,93.8625205 C136.887097,93.8625205 136.548387,93.5476268 136.548387,93.1358429 L136.548387,74.7266776 C136.548387,74.3391162 136.862903,74 137.274194,74 C137.66129,74 138,74.3148936 138,74.7266776 L138,93.1358429 C138,93.5476268 137.685484,93.8625205 137.274194,93.8625205 Z" id="Shape" fill="#066695"></path>
                        <path d="M143.274194,95.3158756 C142.887097,95.3158756 142.548387,95.000982 142.548387,94.589198 L142.548387,81.0003273 C142.548387,80.612766 142.862903,80.2736498 143.274194,80.2736498 C143.685484,80.2736498 144,80.5885434 144,81.0003273 L144,94.589198 C143.975806,94.9767594 143.66129,95.3158756 143.274194,95.3158756 Z" id="Shape" fill="#066695"></path>
                        <path d="M147.048387,121.403601 L127.596774,121.403601 C127.209677,121.403601 126.870968,121.088707 126.870968,120.676923 L126.870968,111.084779 C126.870968,110.697218 127.185484,110.358101 127.596774,110.358101 C127.983871,110.358101 128.322581,110.672995 128.322581,111.084779 L128.322581,119.950245 L146.322581,119.950245 L146.322581,110.915221 C146.322581,110.52766 146.637097,110.188543 147.048387,110.188543 C147.435484,110.188543 147.774194,110.503437 147.774194,110.915221 L147.774194,120.676923 C147.774194,121.064484 147.459677,121.403601 147.048387,121.403601 Z" id="Shape" fill="#066695"></path>
                        <path d="M134.879032,107.136498 C134.491935,107.136498 134.153226,106.821604 134.153226,106.40982 C134.153226,101.468412 130.137097,97.4474632 125.201613,97.4474632 L124.645161,97.4474632 C124.258065,97.4474632 123.919355,97.1325696 123.919355,96.7207856 C123.919355,96.3332242 124.233871,95.994108 124.645161,95.994108 L125.201613,95.994108 C130.935484,95.994108 135.604839,100.669067 135.604839,106.40982 C135.604839,106.821604 135.266129,107.136498 134.879032,107.136498 Z" id="Shape" fill="#066695"></path>
                        <path d="M61.4516129,148 C61.0887097,148 60.7983871,147.709329 60.7983871,147.34599 L60.7983871,97.8592471 L48.9193548,97.8592471 L48.9193548,147.34599 C48.9193548,147.709329 48.6290323,148 48.266129,148 C47.9032258,148 47.6129032,147.709329 47.6129032,147.34599 L47.6129032,97.2052373 C47.6129032,96.8418985 47.9032258,96.5512275 48.266129,96.5512275 L61.4516129,96.5512275 C61.8145161,96.5512275 62.1048387,96.8418985 62.1048387,97.2052373 L62.1048387,147.34599 C62.0806452,147.709329 61.7903226,148 61.4516129,148 Z" id="Shape" fill="#066695"></path>
                        <path d="M52.0645161,94.6618658 C51.9677419,94.6618658 51.8709677,94.6376432 51.7983871,94.589198 C50.6854839,94.0563011 49.7419355,93.2569558 49.016129,92.2638298 C49.016129,92.2638298 49.016129,92.2638298 49.016129,92.2638298 L41.1774194,81.4605565 C40.9596774,81.1698854 41.0322581,80.7823241 41.3225806,80.5643208 C42.1209677,79.9587561 43.1129032,79.7165303 44.1048387,79.8618658 C45.0967742,80.0072013 45.9677419,80.5400982 46.5725806,81.3394435 L47.7096774,82.889689 L47.7096774,80.0314239 C47.7096774,80.0072013 47.7096774,79.9587561 47.7096774,79.9345336 L47.7096774,73.4428805 C47.7096774,72.1833061 48.7258065,71.1659574 49.983871,71.1659574 C50.3467742,71.1659574 50.6854839,71.2386252 50.9758065,71.3839607 L50.9758065,70.5361702 C50.9758065,69.2765957 51.9919355,68.2592471 53.25,68.2592471 C54.3387097,68.2592471 55.2580645,69.0343699 55.4758065,70.0759411 C55.7903226,69.906383 56.1532258,69.8337152 56.516129,69.8337152 C57.7741935,69.8337152 58.7903226,70.8510638 58.7903226,72.1106383 L58.7903226,73.4913257 C59.0806452,73.3459902 59.4193548,73.2733224 59.7822581,73.2733224 C61.0403226,73.2733224 62.0564516,74.290671 62.0564516,75.5502455 L62.0564516,88.1217676 C62.0564516,90.2533552 61.1129032,92.2638298 59.4919355,93.6445172 C59.2258065,93.8625205 58.8145161,93.8382979 58.5967742,93.5718494 C58.3790323,93.305401 58.4032258,92.893617 58.6693548,92.6756137 C60.0241935,91.5371522 60.7983871,89.8900164 60.7983871,88.1459902 L60.7983871,75.5744681 C60.7983871,75.0173486 60.3629032,74.5813421 59.8064516,74.5813421 C59.25,74.5813421 58.8145161,75.0173486 58.8145161,75.5744681 C58.8145161,75.9378069 58.5241935,76.2284779 58.1612903,76.2284779 C57.7983871,76.2284779 57.5080645,75.9378069 57.5080645,75.5744681 L57.5080645,72.1348609 C57.5080645,71.5777414 57.0725806,71.1417349 56.516129,71.1417349 C55.9596774,71.1417349 55.5241935,71.5777414 55.5241935,72.1348609 C55.5241935,72.4981997 55.233871,72.7888707 54.8709677,72.7888707 C54.5080645,72.7888707 54.2177419,72.4981997 54.2177419,72.1348609 L54.2177419,70.5846154 C54.2177419,70.0274959 53.7822581,69.5914894 53.2258065,69.5914894 C52.6693548,69.5914894 52.233871,70.0274959 52.233871,70.5846154 L52.233871,73.4913257 C52.233871,73.8546645 51.9435484,74.1453355 51.5806452,74.1453355 C51.2177419,74.1453355 50.9274194,73.8546645 50.9274194,73.4913257 C50.9274194,72.9342062 50.4919355,72.4981997 49.9354839,72.4981997 C49.3790323,72.4981997 48.9435484,72.9342062 48.9435484,73.4913257 L48.9435484,80.0798691 C48.9435484,80.1040917 48.9435484,80.1525368 48.9435484,80.1767594 L48.9435484,83.8101473 C48.9435484,84.2461538 48.6774194,84.6094926 48.266129,84.7548282 C47.8548387,84.9001637 47.4193548,84.7548282 47.1532258,84.3914894 L45.483871,82.1387889 C45.0967742,81.605892 44.516129,81.2667758 43.8629032,81.1698854 C43.4274194,81.0972177 42.9919355,81.1698854 42.5806452,81.3152209 L49.983871,91.5129296 C49.983871,91.5129296 50.0080645,91.5371522 50.0080645,91.5371522 C50.5887097,92.3607201 51.3870968,93.0389525 52.3064516,93.4749591 C52.6209677,93.6202946 52.766129,94.007856 52.6209677,94.3227496 C52.5483871,94.5407529 52.3064516,94.6618658 52.0645161,94.6618658 Z" id="Shape" fill="#066695"></path>
                        <path d="M51.6290323,82.2114566 C51.266129,82.2114566 50.9758065,81.9207856 50.9758065,81.5574468 L50.9758065,73.4186579 C50.9758065,73.0553191 51.266129,72.7646481 51.6290323,72.7646481 C51.9919355,72.7646481 52.2822581,73.0553191 52.2822581,73.4186579 L52.2822581,81.5574468 C52.2580645,81.9207856 51.9677419,82.2114566 51.6290323,82.2114566 Z" id="Shape" fill="#066695"></path>
                        <path d="M54.8951613,82.7927987 C54.5322581,82.7927987 54.2419355,82.5021277 54.2419355,82.1387889 L54.2419355,72.0621931 C54.2419355,71.6988543 54.5322581,71.4081833 54.8951613,71.4081833 C55.2580645,71.4081833 55.5483871,71.6988543 55.5483871,72.0621931 L55.5483871,82.1387889 C55.5241935,82.5021277 55.2580645,82.7927987 54.8951613,82.7927987 Z" id="Shape" fill="#066695"></path>
                        <path d="M58.1612903,83.592144 C57.7983871,83.592144 57.5080645,83.301473 57.5080645,82.9381342 L57.5080645,75.5018003 C57.5080645,75.1384615 57.7983871,74.8477905 58.1612903,74.8477905 C58.5241935,74.8477905 58.8145161,75.1384615 58.8145161,75.5018003 L58.8145161,82.9381342 C58.8145161,83.301473 58.5241935,83.592144 58.1612903,83.592144 Z" id="Shape" fill="#066695"></path>
                        <path d="M60.2419355,97.8592471 L49.5967742,97.8592471 C49.233871,97.8592471 48.9435484,97.5685761 48.9435484,97.2052373 L48.9435484,91.9731588 C48.9435484,91.60982 49.233871,91.3191489 49.5967742,91.3191489 C49.9596774,91.3191489 50.25,91.60982 50.25,91.9731588 L50.25,96.5754501 L59.6129032,96.5754501 L59.6129032,91.8762684 C59.6129032,91.5129296 59.9032258,91.2222586 60.266129,91.2222586 C60.6290323,91.2222586 60.9193548,91.5129296 60.9193548,91.8762684 L60.9193548,97.2052373 C60.8951613,97.5685761 60.6048387,97.8592471 60.2419355,97.8592471 Z" id="Shape" fill="#066695"></path>
                        <path d="M53.5887097,90.0595745 C53.2258065,90.0595745 52.9354839,89.7689034 52.9354839,89.4055646 C52.9354839,86.8379705 50.8548387,84.7548282 48.2903226,84.7548282 L48,84.7548282 C47.6370968,84.7548282 47.3467742,84.4641571 47.3467742,84.1008183 C47.3467742,83.7374795 47.6370968,83.4468085 48,83.4468085 L48.2903226,83.4468085 C51.5564516,83.4468085 54.2419355,86.111293 54.2419355,89.4055646 C54.2177419,89.7689034 53.9274194,90.0595745 53.5887097,90.0595745 Z" id="Shape" fill="#066695"></path>
                    </g>
                </g>
            </g>
        </g>
    </g>
</svg>