<?xml version="1.0" encoding="UTF-8" standalone="no"?>
<svg width="23px" height="19px" viewBox="0 0 23 19" version="1.1" xmlns="http://www.w3.org/2000/svg" xmlns:xlink="http://www.w3.org/1999/xlink">
    <!-- Generator: sketchtool 49.3 (51167) - http://www.bohemiancoding.com/sketch -->
    <title>F2F29115-85A5-44E3-8562-275CCFD290BF</title>
    <desc>Created with sketchtool.</desc>
    <defs></defs>
    <g id="Welcome" stroke="none" stroke-width="1" fill="none" fill-rule="evenodd">
        <g id="about-us" transform="translate(-877.000000, -2729.000000)" fill="#FFFFFF">
            <g id="bottomCTA-section" transform="translate(1.000000, 2651.000000)">
                <g id="write-email-CTA" transform="translate(854.000000, 66.000000)">
                    <path d="M24.8677885,16.9591346 C24.5632998,16.8068903 24.3653851,16.639424 24.2740385,16.4567308 C24.2131407,16.2740375 24.2207528,16.1522439 24.296875,16.0913462 C24.3729972,16.0304484 24.5480756,16 24.8221154,16 L42.2692308,16 C42.5432706,16 42.718349,16.0304484 42.7944712,16.0913462 C42.8705933,16.1522439 42.8782054,16.2740375 42.8173077,16.4567308 C42.7259611,16.639424 42.5280464,16.8068903 42.2235577,16.9591346 C37.1994941,19.6995329 34.6266032,21.10016 34.5048077,21.1610577 C34.2612167,21.2828532 33.9415084,21.34375 33.5456731,21.34375 C33.1498378,21.34375 32.8301294,21.2828532 32.5865385,21.1610577 C32.464743,21.10016 29.891852,19.6995329 24.8677885,16.9591346 Z M42.6346154,17.1418269 C42.8477575,17.1113781 42.961939,17.1037659 42.9771635,17.1189904 C42.9923879,17.1342148 43,17.217948 43,17.3701923 L43,26.7331731 C43,26.9463152 42.8858184,27.1594541 42.6574519,27.3725962 C42.4290854,27.5857382 42.2083344,27.6923077 41.9951923,27.6923077 L25.0961538,27.6923077 C24.8525629,27.6923077 24.6089756,27.5857382 24.3653846,27.3725962 C24.1217937,27.1594541 24,26.9463152 24,26.7331731 L24,17.3701923 C24,17.0961525 24.1370179,17.0200314 24.4110577,17.1418269 C24.5024043,17.2027247 24.8830095,17.4539241 25.5528846,17.8954327 C26.2227598,18.3369413 27.052479,18.8926249 28.0420673,19.5625 C29.0316556,20.2323751 29.8309264,20.7652224 30.4399038,21.1610577 L26.6490385,25.4086538 C26.5576919,25.5000005 26.5424676,25.5761215 26.6033654,25.6370192 C26.6338143,25.6674681 26.6794869,25.6750802 26.7403846,25.6598558 C26.8012824,25.6446313 26.846955,25.621795 26.8774038,25.5913462 L31.3533654,21.8004808 C31.9927917,22.226765 32.4038452,22.4855765 32.5865385,22.5769231 C32.8301294,22.6987186 33.1498378,22.7596154 33.5456731,22.7596154 C33.9415084,22.7596154 34.2612167,22.6987186 34.5048077,22.5769231 C34.6875009,22.4855765 35.0985545,22.226765 35.7379808,21.8004808 L40.2139423,25.5913462 C40.2443912,25.621795 40.2900638,25.6446313 40.3509615,25.6598558 C40.4118593,25.6750802 40.4575319,25.6674681 40.4879808,25.6370192 C40.5184296,25.6065704 40.4879812,25.5304493 40.3966346,25.4086538 L36.6514423,21.1610577 C37.2604197,20.7652224 38.0520785,20.2323751 39.0264423,19.5625 C40.0008062,18.8926249 40.8229133,18.3369413 41.4927885,17.8954327 C42.1626636,17.4539241 42.5432688,17.2027247 42.6346154,17.1418269 Z" id="email_icn" transform="translate(33.500000, 21.846154) rotate(23.000000) translate(-33.500000, -21.846154) "></path>
                </g>
            </g>
        </g>
    </g>
</svg>