<?xml version="1.0" encoding="UTF-8" standalone="no"?>
<svg width="150px" height="151px" viewBox="0 0 150 151" version="1.1" xmlns="http://www.w3.org/2000/svg" xmlns:xlink="http://www.w3.org/1999/xlink">
    <!-- Generator: sketchtool 49.3 (51167) - http://www.bohemiancoding.com/sketch -->
    <title>B1A77E52-57DF-41A1-8589-E845F81B0C06</title>
    <desc>Created with sketchtool.</desc>
    <defs></defs>
    <g id="Welcome" stroke="none" stroke-width="1" fill="none" fill-rule="evenodd">
        <g id="about-us" transform="translate(-653.000000, -1045.000000)" fill-rule="nonzero">
            <g id="values-section" transform="translate(100.000000, 956.000000)">
                <g id="Support-group" transform="translate(512.000000, 69.000000)">
                    <g id="Support-symbol" transform="translate(41.000000, 20.000000)">
                        <path d="M135.777351,135.37428 L135.777351,149.28023 L104.712092,149.28023 L104.539347,149.28023 L104.539347,139.721689 L104.539347,139.692898 C104.971209,139.721689 105.403071,139.721689 105.834933,139.721689 L131.285988,139.721689 L131.429942,139.721689 C132.639155,139.721689 133.704415,139.232246 134.510557,138.454894 C135.287908,137.648752 135.777351,136.583493 135.777351,135.37428 Z" id="Shape" fill="#2E96D3"></path>
                        <path d="M149.049904,14.4241843 L149.049904,45.6621881 L139.491363,45.6621881 L139.462572,45.6621881 C139.491363,45.2303263 139.491363,44.7984645 139.491363,44.3666027 L139.491363,18.9443378 L139.491363,18.8003839 C139.491363,17.5911708 139.001919,16.5259117 138.224568,15.7197697 C137.447217,14.9424184 136.353167,14.452975 135.143954,14.452975 L149.049904,14.452975 L149.049904,14.4241843 Z" id="Shape" fill="#ED1E7A"></path>
                        <path d="M45.4318618,1.15163148 L45.4318618,10.7101727 L45.4318618,10.7389635 C45,10.7101727 44.5681382,10.7101727 44.1362764,10.7101727 L18.7140115,10.7101727 L18.5700576,10.7101727 C17.3608445,10.7101727 16.2955854,11.1996161 15.4894434,11.9769674 C14.7120921,12.7543186 14.2226488,13.8483685 14.2226488,15.0575816 L14.2226488,1.15163148 L45.4318618,1.15163148 Z" id="Shape" fill="#2E96D3"></path>
                        <path d="M14.8272553,136.007678 L0.921305182,136.007678 L0.921305182,104.769674 L10.4798464,104.769674 L10.5086372,104.769674 C10.4798464,105.201536 10.4798464,105.633397 10.4798464,106.065259 L10.4798464,131.487524 L10.4798464,131.631478 C10.4798464,132.840691 10.9692898,133.90595 11.7466411,134.712092 C12.5239923,135.518234 13.6180422,136.007678 14.8272553,136.007678 Z" id="Shape" fill="#ED1E7A"></path>
                        <path d="M131.429942,131.026871 C133.819578,131.026871 135.777351,132.984645 135.777351,135.37428 C135.777351,136.583493 135.287908,137.648752 134.510557,138.454894 C133.733205,139.232246 132.639155,139.721689 131.429942,139.721689 L131.285988,139.721689 L105.863724,139.721689 C105.431862,139.721689 105,139.721689 104.568138,139.692898 C101.746641,139.520154 99.0690979,138.800384 96.6506718,137.648752 C93.8579655,136.324376 91.3819578,134.395393 89.4241843,132.06334 L73.8771593,132.06334 L73.8771593,109.232246 L86.3147793,109.232246 C86.487524,108.886756 86.6602687,108.512476 86.8330134,108.166987 C90.2591171,101.68906 96.8522073,97.168906 104.568138,96.7082534 C105,96.6794626 105.431862,96.6794626 105.863724,96.6794626 L108.224568,96.6794626 L122.965451,96.6794626 C122.965451,98.9539347 122.044146,101.026871 120.547025,102.523992 C119.222649,103.848369 117.466411,104.712092 115.508637,104.913628 L119.481766,104.913628 L119.481766,104.942418 L136.324376,104.942418 L136.986564,104.942418 C139.3762,104.942418 141.333973,106.900192 141.333973,109.289827 C141.333973,110.49904 140.84453,111.564299 140.067179,112.370441 C139.289827,113.147793 138.195777,113.637236 136.986564,113.637236 L144.702495,113.637236 C147.092131,113.637236 149.049904,115.59501 149.049904,117.984645 C149.049904,119.193858 148.560461,120.259117 147.783109,121.065259 C147.005758,121.84261 145.911708,122.332054 144.702495,122.332054 L140.556622,122.332054 C142.946257,122.332054 144.904031,124.289827 144.904031,126.679463 C144.904031,127.888676 144.414587,128.953935 143.637236,129.760077 C142.859885,130.537428 141.765835,131.026871 140.556622,131.026871 L131.429942,131.026871 Z" id="Shape" fill="#D8EAF3"></path>
                        <path d="M104.712092,34.6928983 L104.712092,30.7197697 L104.740883,30.7197697 L104.740883,13.8771593 L104.740883,13.2149712 C104.740883,10.8253359 106.698656,8.86756238 109.088292,8.86756238 C110.297505,8.86756238 111.362764,9.35700576 112.168906,10.134357 C112.946257,10.9117083 113.435701,12.0057582 113.435701,13.2149712 L113.435701,5.49904031 C113.435701,3.10940499 115.393474,1.15163148 117.783109,1.15163148 C118.992322,1.15163148 120.057582,1.64107486 120.863724,2.4184261 C121.641075,3.19577735 122.130518,4.28982726 122.130518,5.49904031 L122.130518,9.64491363 C122.130518,7.25527831 124.088292,5.2975048 126.477927,5.2975048 C127.68714,5.2975048 128.752399,5.78694818 129.558541,6.56429942 C130.335893,7.34165067 130.825336,8.43570058 130.825336,9.64491363 L130.825336,18.7715931 C130.825336,16.3819578 132.783109,14.4241843 135.172745,14.4241843 C136.381958,14.4241843 137.447217,14.9136276 138.253359,15.6909789 C139.03071,16.4683301 139.520154,17.56238 139.520154,18.7715931 L139.520154,18.915547 L139.520154,44.3378119 C139.520154,44.7696737 139.520154,45.2015355 139.491363,45.6333973 C139.318618,48.4548944 138.598848,51.1324376 137.447217,53.5508637 C136.122841,56.3435701 134.193858,58.8195777 131.861804,60.7773512 L131.861804,76.3243762 L109.03071,76.3243762 L109.03071,63.8867562 C108.685221,63.7140115 108.31094,63.5412668 107.965451,63.3685221 C101.487524,59.9424184 96.9673704,53.3493282 96.5067179,45.6333973 C96.4779271,45.2015355 96.4779271,44.7696737 96.4779271,44.3378119 L96.4779271,41.9769674 L96.4779271,27.2360845 C98.7523992,27.2360845 100.825336,28.1573896 102.322457,29.6545106 C103.646833,30.950096 104.510557,32.7351248 104.712092,34.6928983 Z" id="Shape" fill="#D8EAF3"></path>
                        <path d="M18.5412668,19.3761996 C16.1516315,19.3761996 14.193858,17.4184261 14.193858,15.0287908 C14.193858,13.8195777 14.6833013,12.7543186 15.4606526,11.9481766 C16.2380038,11.1708253 17.3320537,10.681382 18.5412668,10.681382 L18.6852207,10.681382 L44.1074856,10.681382 C44.5393474,10.681382 44.9712092,10.681382 45.403071,10.7101727 C48.2245681,10.8829175 50.9021113,11.6026871 53.3205374,12.7543186 C56.1132438,14.0786948 58.5892514,16.0076775 60.547025,18.3397313 L76.0940499,18.3397313 L76.0940499,41.1708253 L63.6564299,41.1708253 C63.4836852,41.5163148 63.3109405,41.890595 63.1381958,42.2360845 C59.7408829,48.7140115 53.1190019,53.2341651 45.403071,53.6948177 C44.9712092,53.7236084 44.5393474,53.7236084 44.1074856,53.7236084 L41.7466411,53.7236084 L27.0057582,53.7236084 C27.0057582,51.4491363 27.9270633,49.3761996 29.4241843,47.8790787 C30.7485605,46.5547025 32.5047985,45.6909789 34.462572,45.4894434 L30.4894434,45.4894434 L30.4894434,45.4606526 L13.646833,45.4606526 L12.9846449,45.4606526 C10.5950096,45.4606526 8.63723608,43.5028791 8.63723608,41.1132438 C8.63723608,39.9040307 9.12667946,38.8387716 9.90403071,38.0326296 C10.681382,37.2552783 11.7754319,36.7658349 12.9846449,36.7658349 L5.26871401,36.7658349 C2.87907869,36.7658349 0.921305182,34.8080614 0.921305182,32.4184261 C0.921305182,31.2092131 1.41074856,30.1439539 2.18809981,29.3378119 C2.96545106,28.5604607 4.05950096,28.0710173 5.26871401,28.0710173 L9.41458733,28.0710173 C7.02495202,28.0710173 5.0671785,26.1132438 5.0671785,23.7236084 C5.0671785,22.5143954 5.55662188,21.4491363 6.33397313,20.6429942 C7.11132438,19.865643 8.20537428,19.3761996 9.41458733,19.3761996 L18.5412668,19.3761996 Z" id="Shape" fill="#D8EAF3"></path>
                        <path d="M45.2591171,115.738964 L45.2591171,119.712092 L45.2303263,119.712092 L45.2303263,136.554702 L45.2303263,137.216891 C45.2303263,139.606526 43.2725528,141.564299 40.8829175,141.564299 C39.6737044,141.564299 38.6084453,141.074856 37.8023033,140.297505 C37.024952,139.520154 36.5355086,138.426104 36.5355086,137.216891 L36.5355086,144.932821 C36.5355086,147.322457 34.5777351,149.28023 32.1880998,149.28023 C30.9788868,149.28023 29.9136276,148.790787 29.1074856,148.013436 C28.3301344,147.236084 27.840691,146.142035 27.840691,144.932821 L27.840691,140.786948 C27.840691,143.176583 25.8829175,145.134357 23.4932821,145.134357 C22.2840691,145.134357 21.21881,144.644914 20.4126679,143.867562 C19.6353167,143.090211 19.1458733,141.996161 19.1458733,140.786948 L19.1458733,131.660269 C19.1458733,134.049904 17.1880998,136.007678 14.7984645,136.007678 C13.5892514,136.007678 12.5239923,135.518234 11.7178503,134.740883 C10.940499,133.963532 10.4510557,132.869482 10.4510557,131.660269 L10.4510557,131.516315 L10.4510557,106.09405 C10.4510557,105.662188 10.4510557,105.230326 10.4798464,104.798464 C10.6525912,101.976967 11.3723608,99.2994242 12.5239923,96.8809981 C13.8483685,94.0882917 15.7773512,91.6122841 18.109405,89.6545106 L18.109405,74.1074856 L40.940499,74.1074856 L40.940499,86.5451056 C41.2859885,86.7178503 41.6602687,86.890595 42.0057582,87.0633397 C48.4836852,90.4894434 53.0038388,97.0825336 53.4644914,104.798464 C53.4932821,105.230326 53.4932821,105.662188 53.4932821,106.09405 L53.4932821,108.454894 L53.4932821,123.195777 C51.21881,123.195777 49.1458733,122.274472 47.6487524,120.777351 C46.3243762,119.452975 45.4606526,117.696737 45.2591171,115.738964 Z" id="Shape" fill="#D8EAF3"></path>
                        <path d="M73.8483685,104.769674 L73.8483685,109.232246 L73.8483685,132.06334 L73.8483685,136.525912 L45.2591171,136.525912 L45.2591171,119.683301 L45.2879079,119.683301 L45.2879079,115.710173 C45.4894434,117.667946 46.353167,119.424184 47.6775432,120.74856 C49.1746641,122.245681 51.2476008,123.166987 53.5220729,123.166987 L53.5220729,108.426104 L53.5220729,106.065259 C53.5220729,105.633397 53.5220729,105.201536 53.4932821,104.769674 L53.5220729,104.769674 L73.8483685,104.769674 Z" id="Shape" fill="#ED1E7A"></path>
                        <path d="M109.03071,76.3243762 L131.861804,76.3243762 L136.324376,76.3243762 L136.324376,104.913628 L119.481766,104.913628 L119.481766,104.884837 L115.508637,104.884837 C117.466411,104.683301 119.222649,103.819578 120.547025,102.495202 C122.044146,100.998081 122.965451,98.925144 122.965451,96.6506718 L108.224568,96.6506718 L105.863724,96.6506718 C105.431862,96.6506718 105,96.6506718 104.568138,96.6794626 L104.568138,96.6506718 L104.568138,76.2955854 L109.03071,76.2955854 L109.03071,76.3243762 Z" id="Shape" fill="#2E96D3"></path>
                        <path d="M76.1228407,41.1708253 L76.1228407,18.3397313 L76.1228407,13.8771593 L104.712092,13.8771593 L104.712092,30.7197697 L104.683301,30.7197697 L104.683301,34.6928983 C104.481766,32.7351248 103.618042,30.9788868 102.293666,29.6545106 C100.796545,28.1573896 98.7236084,27.2360845 96.4491363,27.2360845 L96.4491363,41.9769674 L96.4491363,44.3378119 C96.4491363,44.7696737 96.4491363,45.2015355 96.4779271,45.6333973 L96.4491363,45.6333973 L76.0940499,45.6333973 L76.0940499,41.1708253 L76.1228407,41.1708253 Z" id="Shape" fill="#ED1E7A"></path>
                        <path d="M45.4318618,53.6948177 L45.4318618,74.0786948 L40.9692898,74.0786948 L18.1381958,74.0786948 L13.6756238,74.0786948 L13.6756238,45.4894434 L30.5182342,45.4894434 L30.5182342,45.5182342 L34.4913628,45.5182342 C32.5335893,45.7197697 30.7773512,46.5834933 29.452975,47.9078695 C27.9558541,49.4049904 27.0345489,51.4779271 27.0345489,53.7523992 L41.7466411,53.7523992 L44.1074856,53.7523992 C44.5393474,53.7236084 45,53.7236084 45.4318618,53.6948177 Z" id="Shape" fill="#2E96D3"></path>
                        <path d="M134.510557,138.454894 C133.733205,139.232246 132.639155,139.721689 131.429942,139.721689 L131.285988,139.721689 L105.863724,139.721689 C105.431862,139.721689 105,139.721689 104.568138,139.692898 L104.568138,139.721689 L104.568138,143.119002 C105.71977,143.378119 106.928983,143.550864 108.138196,143.637236 C108.570058,143.666027 109.001919,143.666027 109.433781,143.666027 L134.856046,143.666027 L135,143.666027 C135.259117,143.666027 135.518234,143.637236 135.777351,143.608445 L135.777351,135.37428 C135.777351,136.583493 135.287908,137.648752 134.510557,138.454894 Z" id="Shape" fill="#2A8ABC"></path>
                        <path d="M143.06142,22.7159309 C143.06142,21.5067179 142.571977,20.4414587 141.794626,19.6353167 C141.190019,19.0307102 140.383877,18.5988484 139.491363,18.4261036 C139.491363,18.5412668 139.491363,18.6276392 139.491363,18.7428023 L139.491363,18.8867562 L139.491363,44.3090211 C139.491363,44.7408829 139.491363,45.1727447 139.462572,45.6046065 L139.491363,45.6046065 L143.06142,45.6046065 L143.06142,22.831094 L143.06142,22.7159309 Z" id="Shape" fill="#DD1372"></path>
                        <path d="M48.8579655,123.65643 L48.8579655,121.756238 C48.4261036,121.46833 48.0230326,121.122841 47.6775432,120.777351 C46.353167,119.452975 45.4894434,117.696737 45.2879079,115.738964 L45.2879079,119.712092 L45.2591171,119.712092 L45.2591171,136.554702 L48.8291747,136.554702 L48.8579655,123.65643 Z" id="Shape" fill="#DD1372"></path>
                        <path d="M53.4644914,104.769674 C53.4932821,105.201536 53.4932821,105.633397 53.4932821,106.065259 L53.4932821,108.426104 L53.4932821,123.166987 C52.024952,123.166987 50.6429942,122.792706 49.4337812,122.101727 C49.865643,123.080614 50.4414587,123.944338 51.1900192,124.692898 C52.6871401,126.190019 54.7600768,127.111324 57.0345489,127.111324 L57.0345489,112.370441 L57.0345489,110.009597 C57.0345489,109.577735 57.0345489,109.145873 57.0057582,108.714012 C56.9193858,107.360845 56.7178503,106.036468 56.4011516,104.740883 L53.4932821,104.740883 L53.4644914,104.769674 Z" id="Shape" fill="#DD1372"></path>
                        <path d="M45.4318618,53.6948177 C45,53.7236084 44.5681382,53.7236084 44.1362764,53.7236084 L41.7466411,53.7236084 L31.5834933,53.7236084 C30.950096,54.9040307 30.5758157,56.2571977 30.5758157,57.696737 L45.3166987,57.696737 L45.4318618,57.696737 L45.4318618,53.6948177 Z" id="Shape" fill="#2A8ABC"></path>
                        <path d="M17.2168906,49.4337812 L28.1861804,49.4337812 C28.5316699,48.8579655 28.9347409,48.3397313 29.4241843,47.8790787 C30.7485605,46.5547025 32.5047985,45.6909789 34.462572,45.4894434 L30.4894434,45.4894434 L30.4894434,45.4606526 L13.646833,45.4606526 L13.646833,48.3109405 C14.4241843,49.0019194 15.4318618,49.4337812 16.5547025,49.4337812 L17.2168906,49.4337812 Z" id="Shape" fill="#2A8ABC"></path>
                        <g id="Group" transform="translate(0.000000, 95.585413)" fill="#066695">
                            <path d="M10.4798464,10.0479846 L0.921305182,10.0479846 C0.460652591,10.0479846 0.0575815739,9.67370441 0.0575815739,9.18426104 C0.0575815739,8.69481766 0.431861804,8.32053743 0.921305182,8.32053743 L10.4798464,8.32053743 C10.940499,8.32053743 11.3435701,8.69481766 11.3435701,9.18426104 C11.3435701,9.67370441 10.940499,10.0479846 10.4798464,10.0479846 Z" id="Shape"></path>
                            <path d="M14.8272553,41.2859885 L0.921305182,41.2859885 C0.460652591,41.2859885 0.0575815739,40.9117083 0.0575815739,40.4222649 C0.0575815739,39.9328215 0.431861804,39.5585413 0.921305182,39.5585413 L14.8272553,39.5585413 C15.2879079,39.5585413 15.6909789,39.9328215 15.6909789,40.4222649 C15.6909789,40.9117083 15.2879079,41.2859885 14.8272553,41.2859885 Z" id="Shape"></path>
                            <g transform="translate(44.337812, 0.000000)" id="Shape">
                                <path d="M29.5105566,41.8042226 L0.921305182,41.8042226 C0.460652591,41.8042226 0.0575815739,41.4299424 0.0575815739,40.940499 C0.0575815739,40.4798464 0.431861804,40.0767754 0.921305182,40.0767754 L28.646833,40.0767754 L28.646833,10.0479846 L9.15547025,10.0479846 C8.69481766,10.0479846 8.29174664,9.67370441 8.29174664,9.18426104 C8.29174664,8.72360845 8.66602687,8.32053743 9.15547025,8.32053743 C9.15547025,8.32053743 9.15547025,8.32053743 9.15547025,8.32053743 L29.5105566,8.32053743 C29.9712092,8.32053743 30.3742802,8.69481766 30.3742802,9.18426104 L30.3742802,40.940499 C30.3742802,41.4299424 30,41.8042226 29.5105566,41.8042226 Z"></path>
                                <path d="M45.0863724,37.3416507 L29.5393474,37.3416507 C29.0786948,37.3416507 28.6756238,36.9673704 28.6756238,36.4779271 C28.6756238,36.0172745 29.049904,35.6142035 29.5393474,35.6142035 L45.0863724,35.6142035 C45.547025,35.6142035 45.950096,35.9884837 45.950096,36.4779271 C45.9213052,36.9673704 45.547025,37.3416507 45.0863724,37.3416507 Z"></path>
                                <path d="M41.9481766,14.5105566 C41.9481766,14.5105566 41.9481766,14.5105566 41.9481766,14.5105566 L29.5105566,14.5105566 C29.049904,14.5105566 28.646833,14.1362764 28.646833,13.646833 C28.646833,13.1861804 29.0211132,12.7831094 29.5105566,12.7831094 C29.5105566,12.7831094 29.5105566,12.7831094 29.5105566,12.7831094 L41.9481766,12.7831094 C42.4088292,12.7831094 42.8119002,13.1573896 42.8119002,13.646833 C42.8119002,14.1362764 42.43762,14.5105566 41.9481766,14.5105566 Z"></path>
                                <g transform="translate(40.882917, 0.000000)">
                                    <path d="M51.7658349,18.915547 C51.7658349,18.915547 51.7658349,18.915547 51.7658349,18.915547 L30.1727447,18.915547 C29.7120921,18.915547 29.3090211,18.5412668 29.3090211,18.0518234 C29.3090211,17.56238 29.6833013,17.1880998 30.1727447,17.1880998 C30.1727447,17.1880998 30.1727447,17.1880998 30.1727447,17.1880998 L51.7658349,17.1880998 C52.2264875,17.1880998 52.6295585,17.56238 52.6295585,18.0518234 C52.6295585,18.5412668 52.2264875,18.915547 51.7658349,18.915547 Z"></path>
                                    <path d="M55.3358925,27.6103647 C55.3358925,27.6103647 55.3358925,27.6103647 55.3358925,27.6103647 L28.5892514,27.6103647 C28.1285988,27.6103647 27.7255278,27.2360845 27.7255278,26.7466411 C27.7255278,26.2859885 28.0998081,25.8829175 28.5892514,25.8829175 C28.5892514,25.8829175 28.5892514,25.8829175 28.5892514,25.8829175 L55.3358925,25.8829175 C55.7965451,25.8829175 56.1996161,26.2571977 56.1996161,26.7466411 C56.1996161,27.2072937 55.8253359,27.6103647 55.3358925,27.6103647 Z"></path>
                                    <path d="M46.2092131,36.3051823 C46.2092131,36.3051823 46.2092131,36.3051823 46.2092131,36.3051823 L26.2859885,36.3051823 C25.8253359,36.3051823 25.4222649,35.9309021 25.4222649,35.4414587 C25.4222649,34.9520154 25.7965451,34.5777351 26.2859885,34.5777351 C26.2859885,34.5777351 26.2859885,34.5777351 26.2859885,34.5777351 L46.2092131,34.5777351 C46.6698656,34.5777351 47.0729367,34.9520154 47.0729367,35.4414587 C47.0729367,35.9021113 46.6986564,36.3051823 46.2092131,36.3051823 Z"></path>
                                    <path d="M1.06525912,14.5105566 C0.950095969,14.5105566 0.834932821,14.4817658 0.719769674,14.4241843 C0.287907869,14.2226488 0.0863723608,13.7044146 0.287907869,13.2725528 C0.460652591,12.8982726 0.633397313,12.5239923 0.834932821,12.1785029 C4.72168906,4.80806142 12.3224568,0.201535509 20.6429942,0.201535509 L37.7447217,0.201535509 C38.2053743,0.201535509 38.6084453,0.575815739 38.6084453,1.06525912 C38.6084453,6.10364683 34.5201536,10.2207294 29.452975,10.2207294 L28.243762,10.2207294 C27.7831094,10.2207294 27.3800384,9.84644914 27.3800384,9.35700576 C27.3800384,8.86756238 27.7543186,8.49328215 28.243762,8.49328215 L29.452975,8.49328215 C33.2533589,8.49328215 36.3915547,5.61420345 36.8234165,1.92898273 L20.6142035,1.92898273 C12.9270633,1.92898273 5.90211132,6.16122841 2.33205374,12.9846449 C2.15930902,13.3301344 1.9865643,13.646833 1.84261036,13.9923225 C1.69865643,14.3378119 1.41074856,14.5105566 1.06525912,14.5105566 Z"></path>
                                    <path d="M46.2092131,45 C46.2092131,45 46.2092131,45 46.2092131,45 L20.6429942,45 C14.0211132,45 7.80230326,42.0921305 3.54126679,37.0537428 C3.22456814,36.6794626 3.28214971,36.1612284 3.65642994,35.8445298 C4.03071017,35.5278311 4.54894434,35.5854127 4.86564299,35.9596929 C8.80998081,40.6238004 14.5681382,43.3013436 20.671785,43.3013436 L46.2380038,43.3013436 C47.159309,43.3013436 48.0518234,42.9270633 48.7140115,42.293666 C49.3761996,41.6314779 49.7216891,40.7677543 49.7216891,39.8176583 C49.7216891,37.8886756 48.1669866,36.3339731 46.2380038,36.3339731 C45.7773512,36.3339731 45.3742802,35.9596929 45.3742802,35.4702495 C45.3742802,35.0095969 45.7485605,34.6065259 46.2380038,34.6065259 C46.2380038,34.6065259 46.2380038,34.6065259 46.2380038,34.6065259 L55.3646833,34.6065259 C56.2859885,34.6065259 57.1785029,34.2322457 57.840691,33.5988484 C58.5028791,32.9366603 58.8483685,32.0729367 58.8483685,31.1228407 C58.8483685,29.193858 57.293666,27.6391555 55.3646833,27.6391555 C54.9040307,27.6391555 54.5009597,27.2648752 54.5009597,26.7754319 C54.5009597,26.3147793 54.8752399,25.9117083 55.3646833,25.9117083 C55.3646833,25.9117083 55.3646833,25.9117083 55.3646833,25.9117083 L59.5105566,25.9117083 C60.4318618,25.9117083 61.3243762,25.537428 61.9865643,24.9040307 C62.6487524,24.2418426 62.9942418,23.378119 62.9942418,22.428023 C62.9942418,20.4990403 61.4395393,18.9443378 59.5105566,18.9443378 L51.7946257,18.9443378 C51.3339731,18.9443378 50.9309021,18.5700576 50.9309021,18.0806142 C50.9309021,17.6199616 51.3051823,17.2168906 51.7946257,17.2168906 C51.7946257,17.2168906 51.7946257,17.2168906 51.7946257,17.2168906 C52.7159309,17.2168906 53.6084453,16.8426104 54.2706334,16.2092131 C54.9328215,15.547025 55.2783109,14.6833013 55.2783109,13.7332054 C55.2783109,12.7831094 54.9040307,11.9193858 54.2706334,11.2571977 C53.6084453,10.5950096 52.7447217,10.2495202 51.7946257,10.2495202 L34.2898273,10.2495202 C34.2322457,10.2495202 34.1746641,10.2495202 34.1170825,10.2207294 L18.6852207,10.2495202 C18.6852207,10.2495202 18.6852207,10.2495202 18.6852207,10.2495202 C18.2245681,10.2495202 17.8214971,9.87523992 17.8214971,9.38579655 C17.8214971,8.92514395 18.1957774,8.52207294 18.6852207,8.52207294 L34.318618,8.49328215 C34.3761996,8.49328215 34.4337812,8.49328215 34.5201536,8.52207294 L51.8234165,8.52207294 C53.2053743,8.52207294 54.5297505,9.06909789 55.5086372,10.0479846 C56.487524,11.0268714 57.0345489,12.3512476 57.0345489,13.7332054 C57.0345489,15.0287908 56.5738964,16.2667946 55.681382,17.2168906 L59.5393474,17.2168906 C60.9213052,17.2168906 62.2456814,17.7639155 63.2245681,18.7428023 C64.2034549,19.7216891 64.7504798,21.0460653 64.7504798,22.428023 C64.7504798,23.8099808 64.2034549,25.134357 63.2245681,26.1132438 C62.2456814,27.0921305 60.9213052,27.6391555 59.5393474,27.6391555 C59.5393474,27.6391555 59.5393474,27.6391555 59.5393474,27.6391555 L59.2514395,27.6391555 C60.0863724,28.5604607 60.6046065,29.7984645 60.6046065,31.1228407 C60.6046065,32.5047985 60.0575816,33.8291747 59.0786948,34.8080614 C58.0998081,35.7869482 56.7754319,36.3339731 55.3934741,36.3339731 C55.3934741,36.3339731 55.3934741,36.3339731 55.3934741,36.3339731 L50.1247601,36.3339731 C50.9596929,37.2552783 51.4779271,38.4932821 51.4779271,39.8176583 C51.4203455,42.6679463 49.0882917,45 46.2092131,45 Z"></path>
                                </g>
                            </g>
                        </g>
                        <g id="Group" transform="translate(95.585413, 0.000000)" fill="#066695">
                            <g id="Shape">
                                <path d="M40.7389635,105.806142 C40.2783109,105.806142 39.8752399,105.431862 39.8752399,104.942418 L39.8752399,77.2168906 L9.84644914,77.2168906 L9.84644914,96.7082534 C9.84644914,97.168906 9.47216891,97.571977 8.98272553,97.571977 C8.98272553,97.571977 8.98272553,97.571977 8.98272553,97.571977 C8.52207294,97.571977 8.11900192,97.1976967 8.11900192,96.7082534 L8.11900192,76.353167 C8.11900192,75.8925144 8.49328215,75.4894434 8.98272553,75.4894434 C8.98272553,75.4894434 8.98272553,75.4894434 8.98272553,75.4894434 L40.7389635,75.4894434 C41.1996161,75.4894434 41.6026871,75.8637236 41.6026871,76.353167 L41.6026871,104.942418 C41.5738964,105.403071 41.1996161,105.806142 40.7389635,105.806142 Z"></path>
                                <path d="M36.2763916,77.1880998 C35.815739,77.1880998 35.4126679,76.8138196 35.4126679,76.3243762 L35.4126679,60.7773512 C35.4126679,60.3166987 35.7869482,59.9136276 36.2763916,59.9136276 C36.7370441,59.9136276 37.1401152,60.2879079 37.1401152,60.7773512 L37.1401152,76.3243762 C37.1113244,76.8138196 36.7370441,77.1880998 36.2763916,77.1880998 Z"></path>
                                <path d="M13.4452975,77.1880998 C13.4452975,77.1880998 13.4452975,77.1880998 13.4452975,77.1880998 C12.9846449,77.1880998 12.5815739,76.8138196 12.5815739,76.3243762 L12.5815739,63.8867562 C12.5815739,63.4261036 12.9558541,63.0230326 13.4452975,63.0230326 C13.4452975,63.0230326 13.4452975,63.0230326 13.4452975,63.0230326 C13.9059501,63.0230326 14.3090211,63.3973129 14.3090211,63.8867562 L14.3090211,76.3243762 C14.2802303,76.8138196 13.9059501,77.1880998 13.4452975,77.1880998 Z"></path>
                                <g>
                                    <path d="M17.8214971,35.671785 C17.8214971,35.671785 17.8214971,35.671785 17.8214971,35.671785 C17.3608445,35.671785 16.9577735,35.2975048 16.9577735,34.8080614 L16.9577735,13.2149712 C16.9577735,12.7543186 17.3320537,12.3512476 17.8214971,12.3512476 C17.8214971,12.3512476 17.8214971,12.3512476 17.8214971,12.3512476 C18.2821497,12.3512476 18.6852207,12.7255278 18.6852207,13.2149712 L18.6852207,34.8080614 C18.6852207,35.2975048 18.3109405,35.671785 17.8214971,35.671785 Z"></path>
                                    <path d="M26.5163148,37.2264875 C26.5163148,37.2264875 26.5163148,37.2264875 26.5163148,37.2264875 C26.0556622,37.2264875 25.6525912,36.8522073 25.6525912,36.3627639 L25.6525912,9.61612284 C25.6525912,9.15547025 26.0268714,8.75239923 26.5163148,8.75239923 C26.5163148,8.75239923 26.5163148,8.75239923 26.5163148,8.75239923 C26.9769674,8.75239923 27.3800384,9.12667946 27.3800384,9.61612284 L27.3800384,36.3627639 C27.3800384,36.8522073 27.0057582,37.2264875 26.5163148,37.2264875 Z"></path>
                                    <path d="M35.2111324,39.5585413 C35.2111324,39.5585413 35.2111324,39.5585413 35.2111324,39.5585413 C34.7504798,39.5585413 34.3474088,39.184261 34.3474088,38.6948177 L34.3474088,18.7715931 C34.3474088,18.3109405 34.7216891,17.9078695 35.2111324,17.9078695 C35.2111324,17.9078695 35.2111324,17.9078695 35.2111324,17.9078695 C35.671785,17.9078695 36.074856,18.2821497 36.074856,18.7715931 L36.074856,38.6948177 C36.074856,39.1554702 35.7005758,39.5585413 35.2111324,39.5585413 Z"></path>
                                    <path d="M13.4452975,64.7504798 C13.3301344,64.7504798 13.2149712,64.7216891 13.0998081,64.6641075 C12.7255278,64.4913628 12.3512476,64.318618 12.0057582,64.1170825 C4.6353167,60.2303263 0.0287907869,52.6295585 0.0287907869,44.3090211 L0.0287907869,27.2072937 C0.0287907869,26.7466411 0.403071017,26.3435701 0.892514395,26.3435701 C5.93090211,26.3435701 10.0479846,30.4318618 10.0479846,35.4990403 L10.0479846,36.7082534 C10.0479846,37.168906 9.67370441,37.571977 9.18426104,37.571977 C8.69481766,37.571977 8.32053743,37.1976967 8.32053743,36.7082534 L8.32053743,35.4990403 C8.32053743,31.6986564 5.44145873,28.5604607 1.756238,28.1285988 L1.756238,44.3378119 C1.756238,52.024952 5.98848369,59.049904 12.8119002,62.6199616 C13.1573896,62.7927063 13.4740883,62.9654511 13.8195777,63.109405 C14.2514395,63.3109405 14.452975,63.8291747 14.2514395,64.2610365 C14.0786948,64.5777351 13.7619962,64.7504798 13.4452975,64.7504798 Z"></path>
                                    <path d="M36.2763916,61.6410749 C36.0460653,61.6410749 35.7869482,61.5259117 35.6142035,61.3243762 C35.2975048,60.950096 35.3550864,60.4318618 35.7293666,60.1151631 C40.3934741,56.1708253 43.0710173,50.4126679 43.0710173,44.3090211 L43.0710173,18.7428023 C43.0710173,17.8214971 42.696737,16.9289827 42.0633397,16.2667946 C41.4011516,15.6046065 40.537428,15.2591171 39.5873321,15.2591171 C37.6583493,15.2591171 36.1036468,16.8138196 36.1036468,18.7428023 C36.1036468,19.2034549 35.7293666,19.6065259 35.2399232,19.6065259 C35.2399232,19.6065259 35.2399232,19.6065259 35.2399232,19.6065259 C34.7792706,19.6065259 34.3761996,19.2322457 34.3761996,18.7428023 L34.3761996,9.61612284 C34.3761996,8.69481766 34.0019194,7.80230326 33.3685221,7.14011516 C32.706334,6.47792706 31.8426104,6.13243762 30.8925144,6.13243762 C30.8925144,6.13243762 30.8925144,6.13243762 30.8925144,6.13243762 C29.9712092,6.13243762 29.0786948,6.50671785 28.4165067,7.14011516 C27.7543186,7.80230326 27.4088292,8.66602687 27.4088292,9.61612284 C27.4088292,10.0767754 27.0345489,10.4798464 26.5451056,10.4798464 C26.5451056,10.4798464 26.5451056,10.4798464 26.5451056,10.4798464 C26.084453,10.4798464 25.681382,10.1055662 25.681382,9.61612284 L25.681382,5.47024952 C25.681382,4.54894434 25.3071017,3.65642994 24.6737044,2.99424184 C24.0115163,2.33205374 23.1477927,1.9865643 22.1976967,1.9865643 C21.2763916,1.9865643 20.3838772,2.36084453 19.7216891,2.99424184 C19.059501,3.65642994 18.7140115,4.52015355 18.7140115,5.47024952 L18.7140115,13.1861804 C18.7140115,13.646833 18.3397313,14.049904 17.8502879,14.049904 C17.8502879,14.049904 17.8502879,14.049904 17.8502879,14.049904 C17.3896353,14.049904 16.9865643,13.6756238 16.9865643,13.1861804 C16.9865643,11.2571977 15.4318618,9.7024952 13.5028791,9.7024952 C12.5815739,9.7024952 11.6890595,10.0767754 11.0268714,10.7101727 C10.3646833,11.3723608 10.0191939,12.2360845 10.0191939,13.1861804 L10.0191939,30.6909789 C10.0191939,30.7485605 10.0191939,30.806142 9.99040307,30.8637236 L10.0191939,46.2955854 C10.0191939,46.756238 9.64491363,47.159309 9.15547025,47.159309 C9.15547025,47.159309 9.15547025,47.159309 9.15547025,47.159309 C8.69481766,47.159309 8.29174664,46.7850288 8.29174664,46.2955854 L8.26295585,30.6621881 C8.26295585,30.6046065 8.26295585,30.547025 8.29174664,30.4606526 L8.29174664,13.1573896 C8.29174664,11.7754319 8.83877159,10.4510557 9.81765835,9.47216891 C10.7965451,8.49328215 12.1209213,7.9462572 13.5028791,7.9462572 C13.5028791,7.9462572 13.5028791,7.9462572 13.5028791,7.9462572 C14.8560461,7.9462572 16.0652591,8.46449136 16.9865643,9.29942418 L16.9865643,5.44145873 C16.9865643,4.05950096 17.5335893,2.73512476 18.512476,1.756238 C19.4913628,0.777351248 20.815739,0.230326296 22.1976967,0.230326296 C22.1976967,0.230326296 22.1976967,0.230326296 22.1976967,0.230326296 C23.5796545,0.230326296 24.9040307,0.777351248 25.8829175,1.756238 C26.8618042,2.73512476 27.4088292,4.05950096 27.4088292,5.44145873 L27.4088292,5.70057582 C28.3589251,4.83685221 29.596929,4.34740883 30.8925144,4.34740883 C30.8925144,4.34740883 30.8925144,4.34740883 30.8925144,4.34740883 C32.2744722,4.34740883 33.5988484,4.89443378 34.5777351,5.87332054 C35.5566219,6.85220729 36.1036468,8.17658349 36.1036468,9.55854127 L36.1036468,14.8272553 C37.024952,13.9923225 38.2629559,13.4740883 39.5873321,13.4740883 C39.5873321,13.4740883 39.5873321,13.4740883 39.5873321,13.4740883 C42.4664107,13.4740883 44.7984645,15.806142 44.7984645,18.6852207 L44.7984645,44.2514395 C44.7984645,50.8733205 41.890595,57.0921305 36.8522073,61.353167 C36.6506718,61.5834933 36.4491363,61.6410749 36.2763916,61.6410749 Z"></path>
                                </g>
                            </g>
                            <path d="M8.98272553,150.115163 C8.52207294,150.115163 8.11900192,149.740883 8.11900192,149.25144 L8.11900192,139.692898 C8.11900192,139.232246 8.49328215,138.829175 8.98272553,138.829175 C9.44337812,138.829175 9.84644914,139.203455 9.84644914,139.692898 L9.84644914,149.25144 C9.81765835,149.740883 9.44337812,150.115163 8.98272553,150.115163 Z" id="Shape"></path>
                            <path d="M40.1919386,150.115163 C39.731286,150.115163 39.328215,149.740883 39.328215,149.25144 L39.328215,135.345489 C39.328215,134.884837 39.7024952,134.481766 40.1919386,134.481766 C40.681382,134.481766 41.0556622,134.856046 41.0556622,135.345489 L41.0556622,149.25144 C41.0556622,149.740883 40.681382,150.115163 40.1919386,150.115163 Z" id="Shape"></path>
                        </g>
                        <g id="Group" transform="translate(9.500960, 0.287908)" fill="#066695">
                            <g transform="translate(0.000000, 44.337812)" id="Shape">
                                <path d="M35.9309021,30.3166987 C35.9309021,30.3166987 35.9309021,30.3166987 35.9309021,30.3166987 L4.17466411,30.3166987 C3.71401152,30.3166987 3.3109405,29.9424184 3.3109405,29.452975 L3.3109405,0.863723608 C3.3109405,0.403071017 3.68522073,0 4.17466411,0 C4.6353167,0 5.03838772,0.37428023 5.03838772,0.863723608 L5.03838772,28.5892514 L35.0671785,28.5892514 L35.0671785,9.06909789 C35.0671785,8.6084453 35.4414587,8.20537428 35.9309021,8.20537428 C35.9309021,8.20537428 35.9309021,8.20537428 35.9309021,8.20537428 C36.3915547,8.20537428 36.7946257,8.57965451 36.7946257,9.06909789 L36.7946257,29.452975 C36.7658349,29.9136276 36.3915547,30.3166987 35.9309021,30.3166987 Z"></path>
                                <path d="M8.63723608,45.8637236 C8.17658349,45.8637236 7.77351248,45.4894434 7.77351248,45 L7.77351248,29.452975 C7.77351248,28.9923225 8.14779271,28.5892514 8.63723608,28.5892514 C9.12667946,28.5892514 9.50095969,28.9635317 9.50095969,29.452975 L9.50095969,45 C9.47216891,45.4894434 9.09788868,45.8637236 8.63723608,45.8637236 Z"></path>
                                <path d="M31.4395393,42.7543186 C31.4395393,42.7543186 31.4395393,42.7543186 31.4395393,42.7543186 C30.9788868,42.7543186 30.5758157,42.3800384 30.5758157,41.890595 L30.5758157,29.452975 C30.5758157,28.9923225 30.950096,28.5892514 31.4395393,28.5892514 C31.4395393,28.5892514 31.4395393,28.5892514 31.4395393,28.5892514 C31.9001919,28.5892514 32.303263,28.9635317 32.303263,29.452975 L32.303263,41.890595 C32.303263,42.3512476 31.9289827,42.7543186 31.4395393,42.7543186 Z"></path>
                                <g transform="translate(0.000000, 40.882917)">
                                    <path d="M27.0633397,52.5431862 C27.0633397,52.5431862 27.0633397,52.5431862 27.0633397,52.5431862 C26.6026871,52.5431862 26.1996161,52.168906 26.1996161,51.6794626 L26.1996161,30.0863724 C26.1996161,29.6257198 26.5738964,29.2226488 27.0633397,29.2226488 C27.0633397,29.2226488 27.0633397,29.2226488 27.0633397,29.2226488 C27.5239923,29.2226488 27.9270633,29.596929 27.9270633,30.0863724 L27.9270633,51.6794626 C27.9270633,52.168906 27.5239923,52.5431862 27.0633397,52.5431862 Z"></path>
                                    <path d="M18.3685221,56.1420345 C18.3685221,56.1420345 18.3685221,56.1420345 18.3685221,56.1420345 C17.9078695,56.1420345 17.5047985,55.7677543 17.5047985,55.2783109 L17.5047985,28.5316699 C17.5047985,28.0710173 17.8790787,27.6679463 18.3685221,27.6679463 C18.3685221,27.6679463 18.3685221,27.6679463 18.3685221,27.6679463 C18.8291747,27.6679463 19.2322457,28.0422265 19.2322457,28.5316699 L19.2322457,55.2783109 C19.2322457,55.7389635 18.8291747,56.1420345 18.3685221,56.1420345 Z"></path>
                                    <path d="M9.67370441,47.0153551 C9.67370441,47.0153551 9.67370441,47.0153551 9.67370441,47.0153551 C9.21305182,47.0153551 8.80998081,46.6410749 8.80998081,46.1516315 L8.80998081,26.2284069 C8.80998081,25.7677543 9.18426104,25.3646833 9.67370441,25.3646833 C9.67370441,25.3646833 9.67370441,25.3646833 9.67370441,25.3646833 C10.134357,25.3646833 10.537428,25.7389635 10.537428,26.2284069 L10.537428,46.1516315 C10.537428,46.6122841 10.134357,47.0153551 9.67370441,47.0153551 Z"></path>
                                    <path d="M44.0211132,38.5508637 C38.9827255,38.5508637 34.865643,34.462572 34.865643,29.3953935 L34.865643,28.1861804 C34.865643,27.7255278 35.2399232,27.3224568 35.7293666,27.3224568 C36.1900192,27.3224568 36.5930902,27.696737 36.5930902,28.1861804 L36.5930902,29.3953935 C36.5930902,33.1957774 39.4721689,36.3339731 43.1573896,36.7658349 L43.1573896,20.5566219 C43.1573896,12.8694818 38.925144,5.84452975 32.1017274,2.27447217 C31.756238,2.10172745 31.4395393,1.92898273 31.0940499,1.78502879 C30.6621881,1.58349328 30.4606526,1.06525912 30.6621881,0.633397313 C30.8637236,0.201535509 31.3819578,-1.13936638e-14 31.8138196,0.201535509 C32.1880998,0.37428023 32.56238,0.547024952 32.9078695,0.748560461 C40.2783109,4.6353167 44.8848369,12.2360845 44.8848369,20.5566219 L44.8848369,37.6583493 C44.8848369,38.1477927 44.4817658,38.5508637 44.0211132,38.5508637 Z"></path>
                                    <path d="M22.7159309,64.6065259 C22.7159309,64.6065259 22.7159309,64.6065259 22.7159309,64.6065259 C21.3339731,64.6065259 20.0095969,64.059501 19.0307102,63.0806142 C18.0518234,62.1017274 17.5047985,60.7773512 17.5047985,59.3953935 L17.5047985,59.1362764 C16.5547025,60 15.3166987,60.4894434 14.0211132,60.4894434 C14.0211132,60.4894434 14.0211132,60.4894434 14.0211132,60.4894434 C11.1420345,60.4894434 8.80998081,58.1573896 8.80998081,55.2783109 L8.80998081,50.0095969 C7.85988484,50.8733205 6.621881,51.3627639 5.32629559,51.3627639 C5.32629559,51.3627639 5.32629559,51.3627639 5.32629559,51.3627639 C2.44721689,51.3627639 0.115163148,49.0307102 0.115163148,46.1516315 L0.115163148,20.5854127 C0.115163148,13.9635317 3.02303263,7.74472169 8.06142035,3.48368522 C8.43570058,3.16698656 8.95393474,3.22456814 9.2706334,3.59884837 C9.58733205,3.9731286 9.52975048,4.49136276 9.15547025,4.80806142 C4.49136276,8.75239923 1.81381958,14.5105566 1.81381958,20.6142035 L1.81381958,46.1804223 C1.81381958,48.109405 3.36852207,49.6641075 5.2975048,49.6641075 C5.2975048,49.6641075 5.2975048,49.6641075 5.2975048,49.6641075 C6.21880998,49.6641075 7.11132438,49.2898273 7.77351248,48.6564299 C8.43570058,47.9942418 8.78119002,47.1305182 8.78119002,46.1804223 C8.78119002,45.7197697 9.15547025,45.3166987 9.64491363,45.3166987 C9.64491363,45.3166987 9.64491363,45.3166987 9.64491363,45.3166987 C10.1055662,45.3166987 10.5086372,45.6909789 10.5086372,46.1804223 L10.5086372,55.3071017 C10.5086372,57.2360845 12.0633397,58.7907869 13.9923225,58.7907869 C13.9923225,58.7907869 13.9923225,58.7907869 13.9923225,58.7907869 C14.9136276,58.7907869 15.806142,58.4165067 16.4683301,57.7831094 C17.1305182,57.1209213 17.4760077,56.2571977 17.4760077,55.3071017 C17.4760077,54.8464491 17.8502879,54.4433781 18.3397313,54.4433781 C18.3397313,54.4433781 18.3397313,54.4433781 18.3397313,54.4433781 C18.8003839,54.4433781 19.2034549,54.8176583 19.2034549,55.3071017 L19.2034549,59.452975 C19.2034549,60.3742802 19.5777351,61.2667946 20.2111324,61.9289827 C20.8733205,62.5911708 21.7370441,62.9366603 22.6871401,62.9366603 C24.6161228,62.9366603 26.1708253,61.3819578 26.1708253,59.452975 L26.1708253,51.7370441 C26.1708253,51.2763916 26.5451056,50.8733205 27.0345489,50.8733205 C27.0345489,50.8733205 27.0345489,50.8733205 27.0345489,50.8733205 C27.4952015,50.8733205 27.8982726,51.2476008 27.8982726,51.7370441 C27.8982726,52.6583493 28.2725528,53.5508637 28.9059501,54.2130518 C29.5681382,54.8752399 30.4318618,55.2207294 31.3819578,55.2207294 C33.3109405,55.2207294 34.865643,53.6660269 34.865643,51.7370441 L34.865643,34.2322457 C34.865643,34.1746641 34.865643,34.1170825 34.8944338,34.059501 L34.865643,18.6276392 C34.865643,18.1669866 35.2399232,17.7639155 35.7293666,17.7639155 C35.7293666,17.7639155 35.7293666,17.7639155 35.7293666,17.7639155 C36.1900192,17.7639155 36.5930902,18.1381958 36.5930902,18.6276392 L36.621881,34.2610365 C36.621881,34.318618 36.621881,34.3761996 36.5930902,34.462572 L36.5930902,51.7658349 C36.5930902,53.1477927 36.0460653,54.4721689 35.0671785,55.4510557 C34.0882917,56.4299424 32.7639155,56.9769674 31.3819578,56.9769674 C31.3819578,56.9769674 31.3819578,56.9769674 31.3819578,56.9769674 C30.0863724,56.9769674 28.8483685,56.5163148 27.8982726,55.6238004 L27.8982726,59.4817658 C27.9270633,62.2744722 25.5950096,64.6065259 22.7159309,64.6065259 Z"></path>
                                </g>
                            </g>
                            <path d="M4.69289827,15.6046065 C4.23224568,15.6046065 3.82917466,15.2303263 3.82917466,14.7408829 L3.82917466,0.863723608 C3.82917466,0.403071017 4.20345489,0 4.69289827,0 C5.15355086,0 5.55662188,0.37428023 5.55662188,0.863723608 L5.55662188,14.7696737 C5.55662188,15.2303263 5.18234165,15.6046065 4.69289827,15.6046065 Z" id="Shape"></path>
                            <path d="M35.9309021,11.2571977 C35.4702495,11.2571977 35.0671785,10.8829175 35.0671785,10.3934741 L35.0671785,0.863723608 C35.0671785,0.403071017 35.4414587,0 35.9309021,0 C36.3915547,0 36.7946257,0.37428023 36.7946257,0.863723608 L36.7946257,10.4222649 C36.7658349,10.8829175 36.3915547,11.2571977 35.9309021,11.2571977 Z" id="Shape"></path>
                        </g>
                        <g id="Group" transform="translate(0.000000, 9.788868)" fill="#066695">
                            <g id="Shape">
                                <path d="M96.4491363,36.7082534 C96.4491363,36.7082534 96.4491363,36.7082534 96.4491363,36.7082534 L76.0940499,36.7082534 C75.6333973,36.7082534 75.2303263,36.3339731 75.2303263,35.8445298 L75.2303263,4.08829175 C75.2303263,3.62763916 75.6046065,3.22456814 76.0940499,3.22456814 L104.683301,3.22456814 C105.143954,3.22456814 105.547025,3.59884837 105.547025,4.08829175 C105.547025,4.57773512 105.172745,4.95201536 104.683301,4.95201536 L76.9577735,4.95201536 L76.9577735,34.9808061 L96.4491363,34.9808061 C96.9097889,34.9808061 97.3128599,35.3550864 97.3128599,35.8445298 C97.3128599,36.3339731 96.9385797,36.7082534 96.4491363,36.7082534 Z"></path>
                                <path d="M76.1228407,9.41458733 L60.5758157,9.41458733 C60.1151631,9.41458733 59.7120921,9.0403071 59.7120921,8.55086372 C59.7120921,8.06142035 60.0863724,7.68714012 60.5758157,7.68714012 L76.1228407,7.68714012 C76.5834933,7.68714012 76.9865643,8.06142035 76.9865643,8.55086372 C76.9865643,9.0403071 76.5834933,9.41458733 76.1228407,9.41458733 Z"></path>
                                <path d="M76.1228407,32.2456814 C76.1228407,32.2456814 76.1228407,32.2456814 76.1228407,32.2456814 L63.6852207,32.2456814 C63.2245681,32.2456814 62.8214971,31.8714012 62.8214971,31.3819578 C62.8214971,30.9213052 63.1957774,30.5182342 63.6852207,30.5182342 C63.6852207,30.5182342 63.6852207,30.5182342 63.6852207,30.5182342 L76.1228407,30.5182342 C76.5834933,30.5182342 76.9865643,30.8925144 76.9865643,31.3819578 C76.9865643,31.8714012 76.5834933,32.2456814 76.1228407,32.2456814 Z"></path>
                                <g>
                                    <path d="M34.5777351,27.840691 C34.5777351,27.840691 34.5777351,27.840691 34.5777351,27.840691 L12.9846449,27.840691 C12.5239923,27.840691 12.1209213,27.4664107 12.1209213,26.9769674 C12.1209213,26.5163148 12.4952015,26.1132438 12.9846449,26.1132438 C12.9846449,26.1132438 12.9846449,26.1132438 12.9846449,26.1132438 L34.5777351,26.1132438 C35.0383877,26.1132438 35.4414587,26.487524 35.4414587,26.9769674 C35.4414587,27.4664107 35.0671785,27.840691 34.5777351,27.840691 Z"></path>
                                    <path d="M36.1612284,19.1458733 C36.1612284,19.1458733 36.1612284,19.1458733 36.1612284,19.1458733 L9.41458733,19.1458733 C8.95393474,19.1458733 8.55086372,18.7715931 8.55086372,18.2821497 C8.55086372,17.8214971 8.92514395,17.4184261 9.41458733,17.4184261 C9.41458733,17.4184261 9.41458733,17.4184261 9.41458733,17.4184261 L36.1612284,17.4184261 C36.621881,17.4184261 37.024952,17.7927063 37.024952,18.2821497 C37.024952,18.7715931 36.621881,19.1458733 36.1612284,19.1458733 Z"></path>
                                    <path d="M38.4644914,10.4510557 C38.4644914,10.4510557 38.4644914,10.4510557 38.4644914,10.4510557 L18.5412668,10.4510557 C18.0806142,10.4510557 17.6775432,10.0767754 17.6775432,9.58733205 C17.6775432,9.09788868 18.0518234,8.72360845 18.5412668,8.72360845 C18.5412668,8.72360845 18.5412668,8.72360845 18.5412668,8.72360845 L38.4644914,8.72360845 C38.925144,8.72360845 39.328215,9.09788868 39.328215,9.58733205 C39.328215,10.0767754 38.9539347,10.4510557 38.4644914,10.4510557 Z"></path>
                                    <path d="M44.1074856,44.7984645 L27.0057582,44.7984645 C26.5451056,44.7984645 26.1420345,44.4241843 26.1420345,43.9347409 C26.1420345,38.8963532 30.2303263,34.7792706 35.2975048,34.7792706 L36.5067179,34.7792706 C36.9673704,34.7792706 37.3704415,35.1535509 37.3704415,35.6429942 C37.3704415,36.1324376 36.9961612,36.5067179 36.5067179,36.5067179 L35.2975048,36.5067179 C31.4971209,36.5067179 28.3589251,39.3857965 27.9270633,43.0710173 L44.1362764,43.0710173 C51.8234165,43.0710173 58.8483685,38.8387716 62.4184261,32.0153551 C62.5911708,31.6698656 62.7639155,31.353167 62.9078695,31.0076775 C63.109405,30.5758157 63.6276392,30.3742802 64.059501,30.5758157 C64.4913628,30.7773512 64.6928983,31.2955854 64.4913628,31.7274472 C64.318618,32.1017274 64.1458733,32.4760077 63.9443378,32.8214971 C60.0287908,40.2207294 52.4568138,44.7984645 44.1074856,44.7984645 Z"></path>
                                    <path d="M30.4894434,36.5642994 C30.4318618,36.5642994 30.3742802,36.5642994 30.3166987,36.5355086 L13.0134357,36.5355086 C11.6314779,36.5355086 10.3071017,35.9884837 9.32821497,35.0095969 C8.34932821,34.0307102 7.80230326,32.706334 7.80230326,31.3243762 C7.80230326,29.9712092 8.32053743,28.7619962 9.15547025,27.840691 L5.2975048,27.840691 C3.91554702,27.840691 2.59117083,27.293666 1.61228407,26.3147793 C0.633397313,25.3358925 0.0863723608,24.0115163 0.0863723608,22.6295585 C0.0863723608,19.7504798 2.4184261,17.4184261 5.2975048,17.4184261 C5.2975048,17.4184261 5.2975048,17.4184261 5.2975048,17.4184261 L5.55662188,17.4184261 C4.69289827,16.4683301 4.20345489,15.2303263 4.20345489,13.9347409 C4.20345489,12.5527831 4.75047985,11.2284069 5.7293666,10.2495202 C6.70825336,9.2706334 8.03262956,8.72360845 9.41458733,8.72360845 C9.41458733,8.72360845 9.41458733,8.72360845 9.41458733,8.72360845 L14.6833013,8.72360845 C13.8483685,7.80230326 13.3301344,6.56429942 13.3301344,5.23992322 C13.3301344,3.85796545 13.8771593,2.53358925 14.8560461,1.5547025 C15.8349328,0.575815739 17.159309,0.0287907869 18.5412668,0.0287907869 C18.5412668,0.0287907869 18.5412668,0.0287907869 18.5412668,0.0287907869 L18.6852207,0.0287907869 L44.1074856,0.0287907869 C50.7293666,0.0287907869 56.9481766,2.93666027 61.2092131,7.97504798 C61.5259117,8.34932821 61.4683301,8.86756238 61.0940499,9.18426104 C60.7197697,9.50095969 60.2015355,9.44337812 59.8848369,9.06909789 C55.940499,4.4049904 50.1823417,1.72744722 44.0786948,1.72744722 L18.6564299,1.72744722 L18.512476,1.72744722 C17.5911708,1.72744722 16.6986564,2.10172745 16.0364683,2.73512476 C15.3742802,3.39731286 15.0287908,4.26103647 15.0287908,5.21113244 C15.0287908,7.14011516 16.5834933,8.69481766 18.512476,8.69481766 C18.9731286,8.69481766 19.3761996,9.06909789 19.3761996,9.55854127 C19.3761996,10.0479846 19.0019194,10.4222649 18.512476,10.4222649 C18.512476,10.4222649 18.512476,10.4222649 18.512476,10.4222649 L9.38579655,10.4222649 C8.46449136,10.4222649 7.57197697,10.7965451 6.90978887,11.4299424 C6.24760077,12.0921305 5.90211132,12.9558541 5.90211132,13.9059501 C5.90211132,14.8272553 6.27639155,15.7197697 6.90978887,16.3819578 C7.57197697,17.0441459 8.43570058,17.3896353 9.38579655,17.3896353 C9.84644914,17.3896353 10.2495202,17.7639155 10.2495202,18.2533589 C10.2495202,18.7428023 9.87523992,19.1170825 9.38579655,19.1170825 C9.38579655,19.1170825 9.38579655,19.1170825 9.38579655,19.1170825 L5.23992322,19.1170825 C3.3109405,19.1170825 1.756238,20.671785 1.756238,22.6007678 C1.756238,23.5220729 2.13051823,24.4145873 2.76391555,25.0767754 C3.42610365,25.7389635 4.28982726,26.084453 5.23992322,26.084453 L12.9558541,26.084453 C13.4165067,26.084453 13.8195777,26.4587332 13.8195777,26.9481766 C13.8195777,27.4088292 13.4452975,27.8119002 12.9558541,27.8119002 C12.9558541,27.8119002 12.9558541,27.8119002 12.9558541,27.8119002 C11.0268714,27.8119002 9.47216891,29.3666027 9.47216891,31.2955854 C9.47216891,32.2168906 9.84644914,33.109405 10.4798464,33.7715931 C11.1132438,34.4337812 12.0057582,34.7792706 12.9558541,34.7792706 L30.4606526,34.7792706 C30.5182342,34.7792706 30.5758157,34.7792706 30.6333973,34.8080614 L46.0652591,34.7792706 C46.0652591,34.7792706 46.0652591,34.7792706 46.0652591,34.7792706 C46.5259117,34.7792706 46.9289827,35.1535509 46.9289827,35.6429942 C46.9289827,36.1036468 46.5547025,36.5067179 46.0652591,36.5067179 L30.4894434,36.5642994 C30.4894434,36.5642994 30.4894434,36.5642994 30.4894434,36.5642994 Z"></path>
                                </g>
                            </g>
                            <path d="M149.049904,36.7082534 L139.491363,36.7082534 C139.03071,36.7082534 138.627639,36.3339731 138.627639,35.8445298 C138.627639,35.3550864 139.001919,34.9808061 139.491363,34.9808061 L149.049904,34.9808061 C149.510557,34.9808061 149.913628,35.3550864 149.913628,35.8445298 C149.913628,36.3339731 149.510557,36.7082534 149.049904,36.7082534 Z" id="Shape"></path>
                            <path d="M149.049904,5.49904031 L135.143954,5.49904031 C134.683301,5.49904031 134.28023,5.12476008 134.28023,4.6353167 C134.28023,4.14587332 134.654511,3.77159309 135.143954,3.77159309 L149.049904,3.77159309 C149.510557,3.77159309 149.913628,4.14587332 149.913628,4.6353167 C149.913628,5.12476008 149.510557,5.49904031 149.049904,5.49904031 Z" id="Shape"></path>
                        </g>
                        <circle id="Oval" fill="#D8EAF3" cx="83.4644914" cy="38.6948177" r="3.02303263"></circle>
                        <circle id="Oval" fill="#D8EAF3" cx="66.7082534" cy="111.679463" r="3.02303263"></circle>
                        <circle id="Oval" fill="#D8EAF3" cx="39.2130518" cy="67.8598848" r="3.02303263"></circle>
                        <circle id="Oval" fill="#D8EAF3" cx="111.449136" cy="84.8752399" r="3.02303263"></circle>
                    </g>
                </g>
            </g>
        </g>
    </g>
</svg>