<?xml version="1.0" encoding="UTF-8" standalone="no"?>
<svg width="11px" height="9px" viewBox="0 0 11 9" version="1.1" xmlns="http://www.w3.org/2000/svg" xmlns:xlink="http://www.w3.org/1999/xlink">
    <!-- Generator: sketchtool 49.3 (51167) - http://www.bohemiancoding.com/sketch -->
    <title>16025EFC-41B1-4ECF-B76F-0594C4855706</title>
    <desc>Created with sketchtool.</desc>
    <defs></defs>
    <g id="Welcome" stroke="none" stroke-width="1" fill="none" fill-rule="evenodd">
        <g id="mobile-menu" transform="translate(-200.000000, -343.000000)">
            <g id="stories" transform="translate(117.000000, 340.000000)">
                <g id="link" transform="translate(81.000000, 0.000000)">
                    <rect id="Rectangle-8" fill-opacity="0" fill="#B79999" x="0" y="0" width="19" height="32.1538462"></rect>
                    <path d="M10.7802198,8.44229425 L10.7802198,10.2280085 C10.7802198,11.1152853 10.0603537,11.8351514 9.17307692,11.8351514 L4.53021978,11.8351514 C3.64294299,11.8351514 2.92307692,11.1152853 2.92307692,10.2280085 L2.92307692,5.58515139 C2.92307692,4.69787461 3.64294299,3.97800854 4.53021978,3.97800854 L8.45879121,3.97800854 C8.55923764,3.97800854 8.63736264,4.05613354 8.63736264,4.15657997 L8.63736264,4.51372282 C8.63736264,4.61416925 8.55923764,4.69229425 8.45879121,4.69229425 L4.53021978,4.69229425 C4.03914835,4.69229425 3.63736264,5.09407997 3.63736264,5.58515139 L3.63736264,10.2280085 C3.63736264,10.71908 4.03914835,11.1208657 4.53021978,11.1208657 L9.17307692,11.1208657 C9.66414835,11.1208657 10.0659341,10.71908 10.0659341,10.2280085 L10.0659341,8.44229425 C10.0659341,8.34184782 10.1440591,8.26372282 10.2445055,8.26372282 L10.6016484,8.26372282 C10.7020948,8.26372282 10.7802198,8.34184782 10.7802198,8.44229425 Z M12.9230769,3.62086568 L12.9230769,6.47800854 C12.9230769,6.67332104 12.7612466,6.83515139 12.5659341,6.83515139 C12.471068,6.83515139 12.3817823,6.79608889 12.314818,6.72912461 L11.3326751,5.74698175 L7.69428228,9.38537461 C7.66080014,9.41885675 7.61057692,9.44117818 7.56593407,9.44117818 C7.52129121,9.44117818 7.47106799,9.41885675 7.43758585,9.38537461 L6.80142514,8.74921389 C6.76794299,8.71573175 6.74562157,8.66550854 6.74562157,8.62086568 C6.74562157,8.57622282 6.76794299,8.52599961 6.80142514,8.49251747 L10.439818,4.85412461 L9.45767514,3.87198175 C9.39071085,3.80501747 9.35164835,3.71573175 9.35164835,3.62086568 C9.35164835,3.42555318 9.51347871,3.26372282 9.70879121,3.26372282 L12.5659341,3.26372282 C12.7612466,3.26372282 12.9230769,3.42555318 12.9230769,3.62086568 Z" id="external-link---FontAwesome" fill="#3C9FD6" opacity="0.800000012"></path>
                </g>
            </g>
        </g>
    </g>
</svg>