<svg xmlns="http://www.w3.org/2000/svg" width="612.388" height="127.048" viewBox="0 332.476 612.388 127.048"><path fill="#19A9B7" d="M69.334 433.185v-13.169h-.387c-6.585 9.684-17.43 14.719-29.051 14.719C17.818 435.121 0 418.466 0 396s18.205-39.122 39.896-39.122c11.621 0 22.466 5.036 29.051 15.106h.387v-13.169h9.684v74.369h-9.684zM39.896 365.4c-17.817 0-30.6 13.17-30.6 30.988 0 17.43 13.169 30.212 30.6 30.212 17.043 0 29.826-13.944 29.826-30.212 0-17.044-12.783-30.988-29.826-30.988"/><path fill="#2C2C2B" d="M134.795 435.121c-11.62 0-22.466-5.422-29.051-14.719h-.387v39.122h-9.684V358.815h9.684v13.169h.387c6.972-9.684 17.431-15.106 29.051-15.106 22.079 0 39.896 16.656 39.896 39.122.388 22.466-17.43 39.121-39.896 39.121m0-69.721c-17.043 0-29.825 13.944-29.825 30.6 0 16.655 12.782 30.213 29.825 30.213 17.43 0 30.6-12.782 30.6-30.213 0-17.43-12.782-30.6-30.6-30.6m89.863 69.721c-20.917 0-38.734-17.43-38.734-38.733 0-21.304 17.043-39.509 38.734-39.509 21.304 0 39.122 17.818 39.122 39.122s-17.431 39.12-39.122 39.12m.387-69.721c-17.043 0-29.438 14.332-29.438 30.988 0 16.268 12.782 30.212 29.438 30.212 17.043 0 29.438-14.331 29.438-30.987 0-16.269-13.169-30.213-29.438-30.213m53.454-32.924h9.684v100.708h-9.684zm29.825 26.339h9.684v74.369h-9.684zm51.129 8.522v65.848h-9.683v-65.848h-15.494v-8.522h15.494v-26.339h9.683v26.339h17.818v8.522zm30.6-8.522h9.684v74.369h-9.684zm63.912 76.306c-22.079 0-39.896-16.655-39.896-39.121 0-22.079 18.205-39.122 39.896-39.122 16.268 0 30.987 9.296 37.185 24.403h-10.458c-5.036-9.684-15.106-15.881-26.34-15.881-17.043 0-30.987 13.17-30.987 30.213 0 17.43 13.558 30.6 30.987 30.6 10.846 0 21.304-5.036 26.34-15.106h10.458c-7.748 15.106-19.755 24.014-37.185 24.014m117.752-1.936v-13.169h-.388c-6.585 9.684-17.431 14.719-29.051 14.719-22.466 0-39.896-16.656-39.896-39.122s18.205-39.122 39.896-39.122c11.62 0 22.466 5.035 29.051 15.106h.388v-12.782h9.684v74.369h-9.684zM542.278 365.4c-17.817 0-30.6 13.17-30.6 30.988 0 17.43 13.169 30.212 30.6 30.212 17.043 0 29.825-13.944 29.825-30.212.001-17.044-12.782-30.988-29.825-30.988m60.426-32.924h9.684v100.708h-9.684zm-284.309 5.423c0 3.099-2.323 5.422-5.423 5.422-3.099 0-5.422-2.324-5.422-5.422 0-3.099 2.711-5.423 5.423-5.423 3.098 0 5.422 2.324 5.422 5.423m81.729 0c0 3.099-2.324 5.422-5.423 5.422s-5.423-2.324-5.423-5.422c0-3.099 2.324-5.423 5.423-5.423s5.423 2.324 5.423 5.423"/></svg>