<?xml version="1.0" encoding="UTF-8" standalone="no"?>
<svg width="10px" height="15px" viewBox="0 0 10 15" version="1.1" xmlns="http://www.w3.org/2000/svg" xmlns:xlink="http://www.w3.org/1999/xlink">
    <!-- Generator: sketchtool 49.3 (51167) - http://www.bohemiancoding.com/sketch -->
    <title>4E03FA25-AE0D-493C-94C4-1266AB02E1E8</title>
    <desc>Created with sketchtool.</desc>
    <defs></defs>
    <g id="Welcome" stroke="none" stroke-width="1" fill="none" fill-rule="evenodd">
        <g id="case-studies-mobile" transform="translate(-23.000000, -791.000000)" fill="#126491">
            <g id="post1" transform="translate(7.000000, 499.000000)">
                <path d="M20.9951923,298.76325 C21.3156186,298.76325 21.6131529,298.683145 21.887804,298.522932 C22.1624551,298.362718 22.379884,298.14815 22.5400971,297.879221 C22.7003103,297.610292 22.7804157,297.315619 22.7804157,296.995192 C22.7804157,296.674766 22.7003103,296.377232 22.5400971,296.102581 C22.379884,295.82793 22.1624551,295.610501 21.887804,295.450287 C21.6131529,295.290074 21.3156186,295.209969 20.9951923,295.209969 C20.674766,295.209969 20.3800927,295.290074 20.1111634,295.450287 C19.8422342,295.610501 19.6276662,295.82793 19.4674531,296.102581 C19.3072399,296.377232 19.2271345,296.674766 19.2271345,296.995192 C19.2271345,297.487276 19.3987889,297.904968 19.7421028,298.248282 C20.0854167,298.591596 20.503109,298.76325 20.9951923,298.76325 Z M20.9951923,292 C21.910696,292 22.7518025,292.223151 23.5185369,292.669459 C24.2738275,293.115767 24.8746178,293.716557 25.3209259,294.471848 C25.7672339,295.238582 25.9903846,296.079689 25.9903846,296.995192 C25.9903846,297.693264 25.8187302,298.494318 25.4754163,299.398378 C25.1778776,300.165112 24.7659071,300.994775 24.2394925,301.887391 C23.8046282,302.596906 23.3068305,303.33502 22.7460845,304.101755 C22.3569954,304.639613 21.9450249,305.16602 21.5101606,305.680991 L20.9951923,306.281787 L20.480224,305.680991 C20.0453598,305.16602 19.6333892,304.639613 19.2443002,304.101755 C18.6835541,303.33502 18.1857564,302.596906 17.7508921,301.887391 C17.2244775,300.994775 16.812507,300.165112 16.5149683,299.398378 C16.1716544,298.494318 16,297.693264 16,296.995192 C16,296.079689 16.2231507,295.238582 16.6694588,294.471848 C17.1157668,293.716557 17.7165572,293.115767 18.4718477,292.669459 C19.2385821,292.223151 20.0796886,292 20.9951923,292 Z" id="location_icn"></path>
            </g>
        </g>
    </g>
</svg>