<?xml version="1.0" encoding="UTF-8" standalone="no"?>
<svg width="10px" height="15px" viewBox="0 0 10 15" version="1.1" xmlns="http://www.w3.org/2000/svg" xmlns:xlink="http://www.w3.org/1999/xlink">
    <!-- Generator: sketchtool 49.3 (51167) - http://www.bohemiancoding.com/sketch -->
    <title>04D0A08B-F0C3-420E-9DB1-25EBB8B808B2</title>
    <desc>Created with sketchtool.</desc>
    <defs></defs>
    <g id="Welcome" stroke="none" stroke-width="1" fill="none" fill-rule="evenodd">
        <g id="case-studies" transform="translate(-984.000000, -1998.000000)" fill="#126491">
            <g id="post6" transform="translate(610.000000, 1601.000000)">
                <g id="meta-info" transform="translate(15.000000, 369.000000)">
                    <path d="M363.995192,34.7632501 C364.315619,34.7632501 364.613153,34.6831447 364.887804,34.5229315 C365.162455,34.3627184 365.379884,34.1481504 365.540097,33.8792212 C365.70031,33.610292 365.780416,33.3156186 365.780416,32.9951923 C365.780416,32.674766 365.70031,32.3772317 365.540097,32.1025806 C365.379884,31.8279295 365.162455,31.6105006 364.887804,31.4502875 C364.613153,31.2900743 364.315619,31.2099689 363.995192,31.2099689 C363.674766,31.2099689 363.380093,31.2900743 363.111163,31.4502875 C362.842234,31.6105006 362.627666,31.8279295 362.467453,32.1025806 C362.30724,32.3772317 362.227135,32.674766 362.227135,32.9951923 C362.227135,33.4872756 362.398789,33.9049679 362.742103,34.2482818 C363.085417,34.5915957 363.503109,34.7632501 363.995192,34.7632501 Z M363.995192,28 C364.910696,28 365.751802,28.2231507 366.518537,28.6694588 C367.273827,29.1157668 367.874618,29.7165572 368.320926,30.4718477 C368.767234,31.2385821 368.990385,32.0796886 368.990385,32.9951923 C368.990385,33.6932639 368.81873,34.4943177 368.475416,35.3983776 C368.177878,36.165112 367.765907,36.9947748 367.239492,37.887391 C366.804628,38.5969064 366.30683,39.3350202 365.746084,40.1017546 C365.356995,40.639613 364.945025,41.1660198 364.510161,41.6809906 L363.995192,42.2817869 L363.480224,41.6809906 C363.04536,41.1660198 362.633389,40.639613 362.2443,40.1017546 C361.683554,39.3350202 361.185756,38.5969064 360.750892,37.887391 C360.224477,36.9947748 359.812507,36.165112 359.514968,35.3983776 C359.171654,34.4943177 359,33.6932639 359,32.9951923 C359,32.0796886 359.223151,31.2385821 359.669459,30.4718477 C360.115767,29.7165572 360.716557,29.1157668 361.471848,28.6694588 C362.238582,28.2231507 363.079689,28 363.995192,28 Z" id="location_icn-copy"></path>
                </g>
            </g>
        </g>
    </g>
</svg>