<?xml version="1.0" encoding="UTF-8" standalone="no"?>
<svg width="23px" height="19px" viewBox="0 0 23 19" version="1.1" xmlns="http://www.w3.org/2000/svg" xmlns:xlink="http://www.w3.org/1999/xlink">
    <!-- Generator: sketchtool 49.3 (51167) - http://www.bohemiancoding.com/sketch -->
    <title>4C95D143-C5AB-484F-A42A-E86D60BF10C1</title>
    <desc>Created with sketchtool.</desc>
    <defs></defs>
    <g id="Welcome" stroke="none" stroke-width="1" fill="none" fill-rule="evenodd">
        <g id="resource-form" transform="translate(-423.000000, -780.000000)" fill="#FFFFFF">
            <g id="send-CTA" transform="translate(354.000000, 769.000000)">
                <g id="Group-3" transform="translate(69.000000, 9.000000)">
                    <path d="M2.86778846,6.95913462 C2.56329976,6.80689026 2.36538507,6.63942399 2.27403846,6.45673077 C2.21314072,6.27403755 2.22075282,6.15224389 2.296875,6.09134615 C2.37299718,6.03044841 2.54807555,6 2.82211538,6 L20.2692308,6 C20.5432706,6 20.718349,6.03044841 20.7944712,6.09134615 C20.8705933,6.15224389 20.8782054,6.27403755 20.8173077,6.45673077 C20.7259611,6.63942399 20.5280464,6.80689026 20.2235577,6.95913462 C15.1994941,9.69953293 12.6266032,11.10016 12.5048077,11.1610577 C12.2612167,11.2828532 11.9415084,11.34375 11.5456731,11.34375 C11.1498378,11.34375 10.8301294,11.2828532 10.5865385,11.1610577 C10.464743,11.10016 7.89185204,9.69953293 2.86778846,6.95913462 Z M20.6346154,7.14182692 C20.8477575,7.11137805 20.961939,7.10376595 20.9771635,7.11899038 C20.9923879,7.13421482 21,7.21794796 21,7.37019231 L21,16.7331731 C21,16.9463152 20.8858184,17.1594541 20.6574519,17.3725962 C20.4290854,17.5857382 20.2083344,17.6923077 19.9951923,17.6923077 L3.09615385,17.6923077 C2.85256288,17.6923077 2.60897558,17.5857382 2.36538462,17.3725962 C2.12179365,17.1594541 2,16.9463152 2,16.7331731 L2,7.37019231 C2,7.09615248 2.13701786,7.02003144 2.41105769,7.14182692 C2.5024043,7.20272466 2.88300947,7.45392407 3.55288462,7.89543269 C4.22275976,8.33694131 5.05247903,8.89262486 6.04206731,9.5625 C7.03165559,10.2323751 7.83092644,10.7652224 8.43990385,11.1610577 L4.64903846,15.4086538 C4.55769185,15.5000005 4.54246764,15.5761215 4.60336538,15.6370192 C4.63381425,15.6674681 4.67948687,15.6750802 4.74038462,15.6598558 C4.80128236,15.6446313 4.84695498,15.621795 4.87740385,15.5913462 L9.35336538,11.8004808 C9.99279166,12.226765 10.4038452,12.4855765 10.5865385,12.5769231 C10.8301294,12.6987186 11.1498378,12.7596154 11.5456731,12.7596154 C11.9415084,12.7596154 12.2612167,12.6987186 12.5048077,12.5769231 C12.6875009,12.4855765 13.0985545,12.226765 13.7379808,11.8004808 L18.2139423,15.5913462 C18.2443912,15.621795 18.2900638,15.6446313 18.3509615,15.6598558 C18.4118593,15.6750802 18.4575319,15.6674681 18.4879808,15.6370192 C18.5184296,15.6065704 18.4879812,15.5304493 18.3966346,15.4086538 L14.6514423,11.1610577 C15.2604197,10.7652224 16.0520785,10.2323751 17.0264423,9.5625 C18.0008062,8.89262486 18.8229133,8.33694131 19.4927885,7.89543269 C20.1626636,7.45392407 20.5432688,7.20272466 20.6346154,7.14182692 Z" id="email_icn" transform="translate(11.500000, 11.846154) rotate(23.000000) translate(-11.500000, -11.846154) "></path>
                </g>
            </g>
        </g>
    </g>
</svg>