<?xml version="1.0" encoding="UTF-8" standalone="no"?>
<svg width="28px" height="28px" viewBox="0 0 28 28" version="1.1" xmlns="http://www.w3.org/2000/svg" xmlns:xlink="http://www.w3.org/1999/xlink">
    <!-- Generator: sketchtool 49.3 (51167) - http://www.bohemiancoding.com/sketch -->
    <title>ED6449BA-E531-4FD0-85D7-60D498D385C9</title>
    <desc>Created with sketchtool.</desc>
    <defs></defs>
    <g id="Welcome" stroke="none" stroke-width="1" fill="none" fill-rule="evenodd">
        <g id="resources" transform="translate(-787.000000, -3507.000000)" fill="#FFFFFF" fill-rule="nonzero">
            <g id="bottom-CTA" transform="translate(1.000000, 3458.000000)">
                <g id="propose_CTA" transform="translate(770.000000, 42.000000)">
                    <path d="M42.2765667,12.46875 L42.2765188,10.03275 C42.2765188,9.3244375 41.7113583,8.75 41.0135229,8.75 L18.9860464,8.75 C18.2886417,8.75 17.7230504,9.3244375 17.7230504,10.03275 L17.7230504,12.46875 L42.2765667,12.46875 Z M42.2765838,13.34375 L17.7230504,13.34375 L17.7230504,31.96725 C17.7230504,32.676 18.2886417,33.25 18.9860464,33.25 L41.0135229,33.25 C41.7109275,33.25 42.2769496,32.676 42.2769496,31.96725 L42.2765838,13.34375 Z M43.9995692,31.96725 C43.9995692,33.642 42.6624821,35.0004375 41.0135229,35.0004375 L18.9860464,35.0004375 C17.3370871,35 16,33.642 16,31.96725 L16,10.03275 C16,8.358 17.3370871,7 18.9860464,7 L41.0135229,7 C42.6624821,7 44,8.358 44,10.03275 L43.9995692,31.96725 Z M22.6466172,23.5425904 L26.2654399,28.0791226 C26.4904506,28.3608449 26.4482709,28.774012 26.1700727,29.0021494 C26.0551679,29.0980446 25.9120407,29.148265 25.7638181,29.148265 C25.5703031,29.148265 25.3858996,29.0609579 25.2619666,28.9050562 L21.313835,23.9563557 C21.120863,23.7157937 21.120863,23.3702362 21.314197,23.1292218 L25.2621992,18.180244 C25.486647,17.8990735 25.894223,17.8557673 26.1706004,18.0838772 C26.4473021,18.311721 26.4900539,18.7250262 26.2655121,19.0068168 L22.6466172,23.5425904 Z M37.4246241,23.5425904 L33.8057292,19.0068168 C33.5811874,18.7250262 33.6239391,18.311721 33.9006408,18.0838772 C34.1770182,17.8557673 34.5845942,17.8990735 34.8090421,18.180244 L38.7570443,23.1292218 C38.9503782,23.3702362 38.9503782,23.7157937 38.7574062,23.9563557 L34.8092747,28.9050562 C34.6853416,29.0609579 34.5009382,29.148265 34.3074231,29.148265 C34.1592006,29.148265 34.0160733,29.0980446 33.9011685,29.0021494 C33.6229703,28.774012 33.5807906,28.3608449 33.8058013,28.0791226 L37.4246241,23.5425904 Z M28.0610201,26.761 C27.9138463,26.761 27.7709662,26.7106958 27.6543848,26.6145714 C27.3771822,26.3861908 27.3345875,25.9726732 27.5594084,25.691845 L31.5086276,20.7418848 C31.7338022,20.4614203 32.1398765,20.4180497 32.4168871,20.6454911 C32.6940674,20.8738534 32.7366307,21.2876749 32.5118575,21.5690998 L28.5633025,26.5177913 C28.4393891,26.6736683 28.2545867,26.761 28.0610201,26.761 Z M19.6614821,11.375 C19.3046267,11.375 19.0153382,11.0811869 19.0153382,10.71875 C19.0153382,10.3563131 19.3046267,10.0625 19.6614821,10.0625 C20.0183376,10.0625 20.307626,10.3563131 20.307626,10.71875 C20.307626,11.0811869 20.0183376,11.375 19.6614821,11.375 Z M22.2460578,11.375 C21.8892023,11.375 21.5999138,11.0811869 21.5999138,10.71875 C21.5999138,10.3563131 21.8892023,10.0625 22.2460578,10.0625 C22.6029132,10.0625 22.8922017,10.3563131 22.8922017,10.71875 C22.8922017,11.0811869 22.6029132,11.375 22.2460578,11.375 Z M24.8306334,11.375 C24.4737779,11.375 24.1844895,11.0811869 24.1844895,10.71875 C24.1844895,10.3563131 24.4737779,10.0625 24.8306334,10.0625 C25.1874888,10.0625 25.4767773,10.3563131 25.4767773,10.71875 C25.4767773,11.0811869 25.1874888,11.375 24.8306334,11.375 Z" id="code_symbol_icn"></path>
                </g>
            </g>
        </g>
    </g>
</svg>