<svg width="57" height="60" viewBox="0 0 57 60" xmlns="http://www.w3.org/2000/svg"><g fill="#000"><path d="M42.853 28.343c.441-.052.864-.054 1.253 0 .225-.512.264-1.394.061-2.354-.3-1.427-.708-2.291-1.548-2.157-.841.134-.872 1.169-.571 2.596.169.803.47 1.489.806 1.915"/><path d="M35.635 29.473c.602.262.971.435 1.116.284.093-.095.065-.275-.079-.508-.297-.481-.908-.968-1.556-1.242-1.325-.566-2.906-.378-4.125.491-.402.293-.784.698-.729.944.018.08.078.139.219.159.332.038 1.492-.544 2.827-.625.943-.057 1.724.235 2.326.497"/><path d="M34.424 30.158c-.783.123-1.216.379-1.493.617-.237.205-.383.432-.382.592l.06.142.129.049c.177 0 .573-.158.573-.158 1.09-.387 1.81-.34 2.523-.26.394.044.58.068.666-.066.026-.038.057-.122-.022-.248-.184-.295-.975-.795-2.054-.668"/><path d="M40.416 32.672c.532.259 1.118.158 1.308-.227.191-.385-.086-.907-.618-1.166-.532-.259-1.118-.157-1.309.227-.191.385.086.907.618 1.166"/><path d="M43.836 29.708c-.432-.007-.791.464-.801 1.051-.01.588.332 1.07.764 1.078.432.007.791-.464.801-1.051.01-.588-.332-1.07-.764-1.078"/><path d="M14.35 40.256c-.12.028-.255.059-.403.056-.318-.006-.587-.141-.738-.371-.197-.3-.186-.747.032-1.259l.101-.229c.347-.771.927-2.063.275-3.293-.49-.926-1.29-1.503-2.251-1.624-.923-.116-1.873.223-2.479.887-.956 1.046-1.106 2.47-.921 2.973.068.184.174.235.251.246.163.022.403-.096.554-.498l.043-.131c.067-.213.192-.608.397-.926.247-.383.632-.646 1.083-.742.46-.098.93-.011 1.323.245.67.435.928 1.249.642 2.026-.148.402-.388 1.17-.335 1.801.107 1.278.899 1.791 1.611 1.845.692.026 1.176-.359 1.298-.641.072-.166.011-.268-.028-.311-.107-.134-.284-.093-.455-.053"/><path d="M32.624 41.911l.001.001.001.003-.002-.005m22.222.245c-.442 2.657-1.581 4.813-3.494 6.797-1.164 1.244-2.578 2.325-4.196 3.111-.859.448-1.774.835-2.74 1.148-7.213 2.337-14.595-.232-16.975-5.749-.19-.415-.351-.849-.477-1.303-1.014-3.636-.153-7.997 2.538-10.743v-.001c.166-.175.335-.381.335-.64 0-.217-.139-.445-.259-.607-.942-1.355-4.203-3.664-3.549-8.131.47-3.21 3.3-5.47 5.938-5.336l.669.038c1.143.067 2.141.213 3.082.252 1.575.067 2.992-.16 4.669-1.546.566-.468 1.02-.873 1.788-1.003.081-.014.281-.085.683-.066.41.022.799.133 1.15.365 1.345.888 1.536 3.038 1.606 4.611.04.898.149 3.07.186 3.694.086 1.426.463 1.627 1.228 1.877.43.14.829.245 1.417.409 1.781.496 2.836.999 3.501 1.645.397.404.581.833.638 1.242.21 1.519-1.189 3.396-4.893 5.101-4.048 1.864-8.96 2.336-12.353 1.961l-1.189-.133c-2.714-.363-4.263 3.117-2.634 5.501 1.05 1.536 3.91 2.537 6.771 2.537 6.56.001 11.603-2.778 13.478-5.178l.15-.212c.092-.138.016-.214-.099-.136-1.533 1.04-8.339 5.17-15.62 3.927 0 0-.885-.144-1.692-.456-.642-.248-1.985-.86-2.148-2.228 5.876 1.803 9.576.099 9.576.099.067-.028.113-.104.105-.179-.009-.092-.093-.16-.186-.15 0 0-4.817.707-9.367-.945.496-1.598 1.813-1.021 3.805-.861 3.59.212 6.808-.308 9.186-.985 2.061-.587 4.767-1.743 6.869-3.389.709 1.545.959 3.245.959 3.245s.549-.097 1.008.183c.433.265.751.815.534 2.237m-33.463-25.311c2.257-2.587 5.035-4.837 7.524-6.099.086-.044.177.049.131.133-.198.355-.578 1.115-.699 1.692-.019.09.08.157.156.106 1.548-1.047 4.242-2.169 6.604-2.313.102-.006.151.123.07.184-.359.273-.752.652-1.039 1.034-.049.065-.003.159.079.159 1.659.012 3.998.588 5.522 1.436.103.058.03.256-.086.229-2.306-.524-6.082-.922-10.003.027-3.501.847-6.173 2.155-8.123 3.562-.098.071-.217-.058-.137-.149m-11.725 12.304c-2.043.394-3.844 1.543-4.946 3.13-.658-.545-1.885-1.599-2.101-2.01-1.758-3.312 1.919-9.751 4.488-13.388 6.348-8.987 16.291-15.789 20.894-14.555.748.21 3.226 3.061 3.226 3.061s-4.601 2.532-8.868 6.062c-5.749 4.391-10.092 10.774-12.694 17.7m3.434 15.198c-.309.052-.625.073-.943.066-3.075-.082-6.396-2.828-6.726-6.084-.365-3.599 1.489-6.37 4.772-7.026.392-.078.867-.124 1.378-.097 1.839.1 4.549 1.501 5.169 5.475.548 3.52-.323 7.104-3.65 7.667m41.65-6.373c-.026-.092-.198-.715-.434-1.464-.236-.75-.48-1.278-.48-1.278.946-1.404.962-2.66.837-3.372-.134-.882-.504-1.633-1.25-2.41-.746-.777-2.271-1.572-4.415-2.169l-1.125-.31c-.006-.046-.059-2.631-.108-3.74-.036-.802-.105-2.054-.497-3.288-.467-1.669-1.28-3.13-2.295-4.065 2.801-2.881 4.55-6.054 4.546-8.776-.008-5.235-6.489-6.819-14.476-3.538l-1.692.713c-.007-.007-3.059-2.978-3.105-3.017-9.106-7.879-37.578 23.515-28.475 31.139l1.989 1.672c-.516 1.326-.719 2.845-.553 4.479.213 2.098 1.304 4.11 3.072 5.664 1.679 1.476 3.886 2.409 6.028 2.408 3.542 8.098 11.636 13.066 21.126 13.345 10.18.3 18.725-4.438 22.306-12.95.234-.597 1.228-3.289 1.228-5.665 0-2.388-1.361-3.378-2.228-3.378"/></g></svg>