<?xml version="1.0" encoding="utf-8"?>
<!-- Generator: Adobe Illustrator 22.0.1, SVG Export Plug-In . SVG Version: 6.00 Build 0)  -->
<svg version="1.1" id="Layer_1" xmlns="http://www.w3.org/2000/svg" xmlns:xlink="http://www.w3.org/1999/xlink" x="0px" y="0px"
	 viewBox="0 0 214.7 41.1" enable-background="new 0 0 214.7 41.1" xml:space="preserve">
<g>
	<g>
		<path fill="#FF8300" d="M155.3,20.7c0,2.3-0.4,4.2-1.2,5.9c-0.8,1.7-1.8,3.1-3.1,4.2c-1.3,1.1-2.7,2-4.3,2.5
			c-1.6,0.6-3.2,0.8-4.9,0.8c-1.7,0-3.3-0.3-4.9-0.8c-1.6-0.6-3-1.4-4.3-2.5c-1.3-1.1-2.3-2.5-3.1-4.2c-0.8-1.7-1.2-3.6-1.2-5.9
			c0-2.2,0.4-4.2,1.2-5.9c0.8-1.7,1.8-3.1,3.1-4.2c1.3-1.1,2.7-2,4.3-2.5c1.6-0.6,3.3-0.8,4.9-0.8c1.7,0,3.3,0.3,4.9,0.8
			c1.6,0.6,3,1.4,4.3,2.5c1.3,1.1,2.3,2.5,3.1,4.2C154.9,16.5,155.3,18.5,155.3,20.7 M135.9,20.7c0,1.4,0.3,2.5,0.9,3.4
			c0.6,0.9,1.3,1.6,2.2,2.1c0.9,0.5,1.8,0.7,2.8,0.7c1,0,2-0.2,2.8-0.7c0.9-0.5,1.6-1.2,2.2-2.1c0.6-0.9,0.9-2.1,0.9-3.4
			c0-1.4-0.3-2.5-0.9-3.5c-0.6-0.9-1.3-1.6-2.2-2.1c-0.9-0.5-1.8-0.7-2.8-0.7c-1,0-2,0.2-2.8,0.7c-0.9,0.5-1.6,1.2-2.2,2.1
			C136.2,18.2,135.9,19.3,135.9,20.7"/>
		<path fill="#FF8300" d="M170.8,34.2c-1.5,0-3.1-0.2-4.5-0.7c-1.5-0.4-2.8-1.1-3.9-2c-1.2-0.9-2.1-2-2.8-3.3c-0.7-1.4-1-2.9-1-4.7
			V7.7h7.8v15.7c0,0.8,0.2,1.4,0.7,2c0.4,0.5,1,0.9,1.7,1.2c0.7,0.3,1.4,0.4,2.2,0.4c0.8,0,1.5-0.1,2.2-0.4c0.7-0.3,1.2-0.7,1.7-1.2
			c0.4-0.5,0.7-1.2,0.7-2V7.7h7.8v15.8c0,1.8-0.4,3.4-1.1,4.7c-0.7,1.4-1.7,2.5-2.8,3.3c-1.2,0.9-2.5,1.5-3.9,2
			C173.9,34,172.4,34.2,170.8,34.2"/>
		<path fill="#FF8300" d="M202,34.2c-1.3,0-2.5-0.2-3.7-0.7c-1.2-0.5-2.2-1.2-3.1-2.2v9.7h-7.5V7.7h7.5v2.6c0.9-1.1,2-1.9,3.2-2.3
			c1.2-0.4,2.4-0.6,3.7-0.6c2.1,0,3.9,0.4,5.4,1.2c1.6,0.8,2.9,1.8,3.9,3.1c1.1,1.3,1.9,2.7,2.4,4.4c0.5,1.7,0.8,3.4,0.8,5.2
			c0,1.8-0.3,3.5-0.8,5.1c-0.5,1.6-1.3,3-2.4,4.1c-1,1.2-2.3,2.1-3.9,2.8C206,33.8,204.2,34.2,202,34.2 M201.2,14.6
			c-0.8,0-1.6,0.2-2.3,0.5c-0.7,0.3-1.3,0.8-1.9,1.4c-0.5,0.6-1,1.2-1.3,2c-0.3,0.8-0.5,1.6-0.5,2.4c0,0.9,0.1,1.7,0.5,2.5
			c0.3,0.8,0.7,1.4,1.3,2c0.6,0.6,1.2,1,1.9,1.3c0.7,0.3,1.5,0.5,2.3,0.5c1,0,1.8-0.2,2.5-0.5c0.7-0.4,1.3-0.8,1.8-1.4
			c0.5-0.6,0.8-1.3,1.1-2c0.3-0.8,0.4-1.5,0.4-2.3c0-0.8-0.1-1.5-0.4-2.3c-0.2-0.8-0.6-1.5-1.1-2c-0.5-0.6-1.1-1.1-1.8-1.4
			C203,14.8,202.2,14.6,201.2,14.6"/>
		<path fill="#FF8300" d="M117.7,18L117.7,18l-4.8,5.2c0.6,0.2,1.1,0.4,1.6,0.6c2.3,0.8,3.2,1.1,3.2,2.6c0,1.2-1.2,2-3.3,2
			c-2,0-3.5-1-4-2.5l-4.7,5.2c1.9,1.9,5,3,8.8,3c6.5,0,10.7-3.2,10.7-8.2C125.3,22,123.1,19.8,117.7,18"/>
	</g>
	<g>
		<path fill="#25272B" d="M12,34.1c-1.7-0.1-3.1-0.5-4.2-1.3c-1.2-0.7-2.1-1.7-2.7-3.1c-0.6-1.3-0.9-3-0.9-5.1V14.5H0V8h4.1V2.3
			l7.6,0V8h5.4v6.5h-5.4v10.3c0,0.8,0.2,1.5,0.6,1.9c0.4,0.4,0.8,0.7,1.4,0.9c0.6,0.2,1.2,0.3,1.9,0.2c0.7,0,1.3-0.1,1.9-0.2
			l0.2,6.3C15.5,34.1,13.6,34.3,12,34.1"/>
		<path fill="#25272B" d="M74,22.7c-0.2,2-0.8,3.7-1.7,5.2c-0.9,1.5-2,2.7-3.2,3.6c-1.3,1-2.7,1.6-4.2,2.1c-1.5,0.4-3.1,0.6-4.7,0.5
			c-1.6-0.1-3.1-0.4-4.6-1c-1.5-0.6-2.8-1.4-4-2.6c-1.2-1.1-2.1-2.5-2.8-4.1c-0.7-1.6-1.1-3.5-1.1-5.7c0-2.1,0.4-4,1.1-5.7
			c0.7-1.6,1.6-3,2.8-4.1c1.2-1.1,2.5-2,4-2.6c1.5-0.6,3-0.9,4.6-1c1.6-0.1,3.2,0.1,4.7,0.5c1.5,0.4,3,1.1,4.2,2.1
			c1.3,1,2.3,2.2,3.2,3.6c0.9,1.5,1.4,3.2,1.7,5.2h-7.5c-0.3-1-0.8-1.9-1.4-2.6c-0.7-0.7-1.4-1.1-2.2-1.4c-0.8-0.3-1.7-0.4-2.6-0.2
			c-0.9,0.1-1.7,0.4-2.5,0.9c-0.8,0.5-1.4,1.2-1.9,2c-0.5,0.9-0.7,2-0.7,3.2c0,1.3,0.2,2.3,0.7,3.2c0.5,0.9,1.1,1.6,1.9,2.1
			c0.8,0.5,1.6,0.8,2.5,0.9c0.9,0.1,1.8,0,2.6-0.2c0.8-0.3,1.6-0.7,2.2-1.4c0.7-0.7,1.1-1.5,1.4-2.6H74z"/>
		<path fill="#25272B" d="M76.8,0h7.7v10.3c0.9-1.2,2-1.9,3.3-2.4c1.3-0.4,2.6-0.6,4.1-0.6c1.9,0,3.4,0.4,4.6,1
			c1.2,0.6,2.2,1.5,2.9,2.6c0.7,1.1,1.2,2.4,1.5,3.8c0.3,1.4,0.4,3,0.4,4.6v14.4h-7.7V19.4c0-1.2-0.2-2.2-0.6-3
			c-0.4-0.8-1-1.3-1.6-1.6c-0.6-0.3-1.3-0.4-2.1-0.4c-0.8,0.1-1.5,0.3-2.1,0.8c-0.6,0.4-1.2,1-1.6,1.7c-0.4,0.7-0.7,1.6-0.7,2.6
			v14.2h-8.1V0z"/>
		<path fill="#25272B" d="M44.9,25.4c-1.2,2.8-3,5-5.1,6.4c-2.1,1.5-4.6,2.3-7.2,2.3c-7.2,0-13.3-5.8-13.3-13.3
			c0-7,5.5-13.5,13.2-13.5c7.7,0,13.3,6.1,13.3,13.7c0,1-0.1,1.4-0.2,2H26.7c0.5,3,2.9,4.8,5.9,4.8c2.3,0,3.5-1,4.6-2.4H44.9z
			 M38.2,17.9c-0.3-1.5-1.8-4.3-5.7-4.3c-3.9,0-5.4,2.8-5.7,4.3H38.2z"/>
		<path fill="#25272B" d="M115.6,7.2c-6.3,0-10.5,3.3-10.5,8.3c0,3.8,2.7,5.6,7.2,7.4c0.2,0.1,0.4,0.2,0.6,0.2c0,0,0.1,0,0.1,0
			l4.7-5.2l-0.7-0.2l-0.1,0c-3.1-1-4.5-1.5-4.5-3c0-1.2,1.2-1.9,3.1-1.9c1.9,0,3.2,0.9,3.7,2.5l0,0l4.5-5
			C121.8,8.3,119,7.2,115.6,7.2"/>
	</g>
</g>
</svg>
