<?xml version="1.0" encoding="utf-8"?>
<!-- Generator: Adobe Illustrator 22.1.0, SVG Export Plug-In . SVG Version: 6.00 Build 0)  -->
<svg version="1.1" id="Layer_1" xmlns="http://www.w3.org/2000/svg" xmlns:xlink="http://www.w3.org/1999/xlink" x="0px" y="0px"
	 viewBox="0 0 454.54 106.93" enable-background="new 0 0 454.54 106.93" xml:space="preserve">
<g>
	<path d="M123.26,86.244V72.858h-2.864v-3.519h2.864v-4.726h3.898v4.726h4.45v3.519h-4.45v9.66h4.243v3.726H123.26z"/>
	<path d="M139.095,80.517v2.243h8.453v3.484H135.23V75.48c0-4.14,2.933-6.555,6.417-6.555c3.623,0,6.417,2.587,6.417,6.072
		s-2.932,6.038-6.417,6.038C140.647,81.035,139.819,80.862,139.095,80.517z M144.235,74.997c0-1.311-1.035-2.484-2.588-2.484
		c-1.552,0-2.587,1.173-2.587,2.484s1.035,2.45,2.587,2.45C143.2,77.447,144.235,76.308,144.235,74.997z"/>
	<path d="M155.585,77.792c0,3.071,1.966,5.279,4.623,5.279c2.104,0,3.209-1.035,4.347-2.622l2.691,2.519
		c-1.345,1.966-3.691,3.657-7.176,3.657c-4.658,0-8.487-3.76-8.487-8.832c0-5.071,3.83-8.866,8.487-8.866
		c3.07,0,5.244,1.276,6.865,3.381l-2.725,2.622c-1.07-1.415-2.243-2.415-4.037-2.415C157.517,72.513,155.585,74.721,155.585,77.792z
		"/>
	<path d="M185.531,69.339v16.905h-3.933V73.065h-6.693v13.179h-3.933v-24.15h3.933v7.245H185.531z"/>
	<path d="M194.811,86.244h-3.933V69.339h3.864v1.38c0.863-0.966,2.415-1.794,4.381-1.794c4.14,0,6.693,2.691,6.693,7.486v9.833
		h-3.933v-9.833c0-2.346-1.173-3.933-3.347-3.933c-2.449,0-3.726,1.76-3.726,4.416V86.244z"/>
	<path d="M218.063,68.925c4.864,0,8.729,3.795,8.729,8.866c0,5.072-3.864,8.832-8.729,8.832c-4.899,0-8.729-3.76-8.729-8.832
		C209.335,72.72,213.164,68.925,218.063,68.925z M218.063,83.07c2.725,0,4.692-2.208,4.692-5.279c0-3.07-1.967-5.278-4.692-5.278
		c-2.76,0-4.727,2.208-4.727,5.278C213.337,80.862,215.303,83.07,218.063,83.07z"/>
	<path d="M230.759,62.06h3.933v24.185h-3.933V62.06z"/>
	<path d="M247.388,68.925c4.864,0,8.729,3.795,8.729,8.866c0,5.072-3.864,8.832-8.729,8.832c-4.899,0-8.729-3.76-8.729-8.832
		C238.66,72.72,242.489,68.925,247.388,68.925z M247.388,83.07c2.725,0,4.692-2.208,4.692-5.279c0-3.07-1.967-5.278-4.692-5.278
		c-2.76,0-4.727,2.208-4.727,5.278C242.662,80.862,244.628,83.07,247.388,83.07z"/>
	<path d="M263.016,86.865c0.725,1.311,2.139,2.933,4.692,2.933c2.587,0,4.485-1.518,4.485-4.727v-0.863
		c-1,0.932-2.449,1.656-4.52,1.656c-4.761,0-8.073-3.588-8.073-8.453c0-4.899,3.381-8.487,8.073-8.487
		c2.139,0,3.485,0.69,4.589,1.794v-1.38h3.864v15.525c0,5.106-3.312,8.452-8.349,8.452c-4.347,0-6.728-2.553-7.59-3.76
		L263.016,86.865z M267.915,82.277c2.622,0,4.347-2.036,4.347-4.865c0-2.863-1.725-4.899-4.347-4.899
		c-2.657,0-4.312,2.036-4.312,4.899C263.603,80.241,265.258,82.277,267.915,82.277z"/>
	<path d="M283.129,92.938l2.622-6.486l-6.693-17.112h4.485l4.416,12.213l4.485-12.213h4.278l-9.453,23.599H283.129z"/>
	<path d="M322.321,84.381c-1.967,1.552-4.105,2.242-6.555,2.242c-5.693,0-8.073-3.657-8.073-6.865c0-3.312,2.001-5.589,4.934-7.211
		l0.345-0.172c-1.725-2.415-2.139-3.795-2.139-5.417c0-2.967,2.483-5.244,6.141-5.244s6.176,2.588,6.176,5.589
		c0,2.76-2.208,4.83-4.037,5.899l-0.345,0.207l3.761,4.795c0.828-1.449,1.173-2.312,1.621-4.14h4.175
		c-0.587,2.726-1.656,5.209-3.347,7.452l3.691,4.727h-4.83L322.321,84.381z M319.976,81.414l-4.727-6.106l-0.139,0.069
		c-2.242,1.104-3.381,2.45-3.381,4.244c0,2.036,1.829,3.45,3.934,3.45C317.111,83.07,318.595,82.69,319.976,81.414z M314.938,67.304
		c0,0.966,0.518,1.828,1.311,2.898l0.241,0.311l0.207-0.104c1.415-0.793,2.45-1.76,2.45-3.036c0-1.346-0.967-2.104-2.208-2.104
		C316.008,65.268,314.938,65.993,314.938,67.304z"/>
	<path d="M345.264,79.31c-3.175-0.725-5.141-2.415-5.141-5.348c0-3.139,2.622-5.037,6.175-5.037c2.864,0,4.83,1.208,6.383,2.829
		l-2.519,2.691c-0.759-1.035-2.069-2.139-3.968-2.139c-1.448,0-2.312,0.725-2.312,1.587c0,0.828,0.725,1.346,1.656,1.587
		l2.657,0.621c3.035,0.69,5.175,2.312,5.175,5.278c0,2.933-2.277,5.244-6.693,5.244c-3.519,0-5.692-1.622-7.004-3.277l2.484-2.553
		c1.242,1.622,2.829,2.45,4.83,2.45s2.588-0.897,2.588-1.725c0-0.725-0.449-1.208-2.07-1.656L345.264,79.31z"/>
	<path d="M364.652,68.925c4.864,0,8.729,3.795,8.729,8.866c0,5.072-3.864,8.832-8.729,8.832c-4.899,0-8.729-3.76-8.729-8.832
		C355.924,72.72,359.753,68.925,364.652,68.925z M364.652,83.07c2.726,0,4.691-2.208,4.691-5.279c0-3.07-1.966-5.278-4.691-5.278
		c-2.76,0-4.727,2.208-4.727,5.278C359.926,80.862,361.893,83.07,364.652,83.07z"/>
	<path d="M381.108,77.792c0,3.071,1.966,5.279,4.623,5.279c2.104,0,3.208-1.035,4.347-2.622l2.691,2.519
		c-1.346,1.966-3.691,3.657-7.177,3.657c-4.657,0-8.486-3.76-8.486-8.832c0-5.071,3.829-8.866,8.486-8.866
		c3.071,0,5.244,1.276,6.866,3.381l-2.726,2.622c-1.069-1.415-2.243-2.415-4.037-2.415C383.04,72.513,381.108,74.721,381.108,77.792
		z"/>
	<path d="M398.116,61.749c1.38,0,2.483,1.069,2.483,2.45c0,1.38-1.104,2.484-2.483,2.484s-2.484-1.104-2.484-2.484
		C395.632,62.818,396.736,61.749,398.116,61.749z M396.115,69.339h3.933v16.905h-3.933V69.339z"/>
	<path d="M408.432,80.517v2.243h8.453v3.484h-12.316V75.48c0-4.14,2.933-6.555,6.417-6.555c3.622,0,6.417,2.587,6.417,6.072
		s-2.933,6.038-6.417,6.038C409.984,81.035,409.156,80.862,408.432,80.517z M413.572,74.997c0-1.311-1.035-2.484-2.587-2.484
		c-1.553,0-2.588,1.173-2.588,2.484s1.035,2.45,2.588,2.45C412.537,77.447,413.572,76.308,413.572,74.997z"/>
	<path d="M422.611,86.244V72.858h-2.863v-3.519h2.863v-4.726h3.898v4.726h4.45v3.519h-4.45v9.66h4.243v3.726H422.611z"/>
	<path d="M437.169,92.938l2.622-6.486l-6.692-17.112h4.484l4.416,12.213l4.485-12.213h4.278l-9.453,23.599H437.169z"/>
</g>
<g>
	<path d="M240.736,19.768v2.171c-1.737-1.737-3.854-2.822-7.218-2.822c-7.381,0-12.701,5.645-12.701,13.351
		c0,7.653,5.21,13.298,12.701,13.298c3.256,0,5.535-1.14,7.109-2.605v1.357c0,5.048-2.985,7.436-7.056,7.436
		c-4.017,0-6.242-2.551-7.382-4.613l-4.451,4.233c1.357,1.899,5.102,5.916,11.941,5.916c7.924,0,13.134-5.265,13.134-13.298V19.768
		H240.736z M233.898,40.121c-4.18,0-6.784-3.202-6.784-7.653c0-4.505,2.604-7.707,6.784-7.707c4.124,0,6.838,3.201,6.838,7.707
		C240.736,36.919,238.022,40.121,233.898,40.121z"/>
	<path d="M204.106,19.117c-4.071,0-8.412,1.791-10.529,5.536l4.179,3.907c1.682-3.039,4.234-3.853,6.296-3.853
		c2.877,0,5.211,1.683,5.211,4.397v1.791c-1.14-0.38-3.365-0.922-5.374-0.922c-6.133,0-11.072,2.822-11.072,8.901
		c0,5.101,4.125,8.086,8.955,8.086c3.42,0,5.916-1.193,7.598-2.659v2.063h6.079V29.157
		C215.449,22.373,210.727,19.117,204.106,19.117z M209.262,39.253c-1.357,1.303-3.854,2.279-6.242,2.279
		c-2.714,0-4.016-1.411-4.016-3.094c0-2.17,1.9-3.31,4.722-3.31c2.225,0,3.962,0.489,5.536,1.085V39.253z"/>
	<path d="M176.079,19.117c-4.071,0-8.413,1.791-10.529,5.536l4.179,3.907c1.682-3.039,4.233-3.853,6.296-3.853
		c2.877,0,5.21,1.683,5.21,4.397v1.791c-1.14-0.38-3.365-0.922-5.373-0.922c-6.133,0-11.072,2.822-11.072,8.901
		c0,5.101,4.125,8.086,8.955,8.086c3.419,0,5.916-1.193,7.598-2.659v2.063h6.079V29.157
		C187.423,22.373,182.701,19.117,176.079,19.117z M181.235,39.253c-1.357,1.303-3.853,2.279-6.242,2.279
		c-2.714,0-4.016-1.411-4.016-3.094c0-2.17,1.9-3.31,4.722-3.31c2.225,0,3.962,0.489,5.536,1.085V39.253z"/>
	<polygon points="128.778,19.768 122.048,19.768 129.376,46.363 136.865,46.363 142.076,27.475 147.232,46.363 154.722,46.363 
		162.049,19.768 155.373,19.768 150.868,38.113 146.038,19.768 138.114,19.768 133.283,38.113 	"/>
</g>
<path d="M53.464,101.93c26.766,0,48.465-21.699,48.465-48.465c0-26.766-21.699-48.464-48.465-48.464
	c-26.767,0-48.465,21.699-48.465,48.464C4.999,80.231,26.697,101.93,53.464,101.93"/>
<path fill="#FFFFFF" d="M69.504,27.237l8.984,18.638l3.096,30.451H63.505l-0.096-15.33c-0.11-5.698-4.397-10.465-9.994-10.465
	c-5.597,0-9.896,4.768-9.896,10.465v15.33H25.344l3.096-30.451l8.888-18.638l3.801,15.329l12.287-20.722l12.482,20.722
	L69.504,27.237z"/>
</svg>
