<?xml version="1.0" encoding="UTF-8" standalone="no"?>
<svg width="127px" height="113px" viewBox="0 0 127 113" version="1.1" xmlns="http://www.w3.org/2000/svg" xmlns:xlink="http://www.w3.org/1999/xlink">
    <!-- Generator: sketchtool 49.3 (51167) - http://www.bohemiancoding.com/sketch -->
    <title>BD9FF9F3-1182-4F82-9B18-F52050A11A2A</title>
    <desc>Created with sketchtool.</desc>
    <defs></defs>
    <g id="Welcome" stroke="none" stroke-width="1" fill="none" fill-rule="evenodd">
        <g id="homepage-mobile" transform="translate(-96.000000, -1474.000000)" fill-rule="nonzero">
            <g id="how-section" transform="translate(8.000000, 865.000000)">
                <g id="Group-3" transform="translate(46.000000, 582.000000)">
                    <g id="Co-creation-symbol" transform="translate(42.000000, 27.000000)">
                        <polygon id="Shape" fill="#2E96D3" points="125.622523 28.4143688 125.622523 59.3851927 113.699384 59.3851927 113.699384 55.8857829 113.699384 31.9137786 113.699384 28.4143688"></polygon>
                        <polygon id="Shape" fill="#F5F6FA" points="75.9811957 58.2117379 66.0696939 62.0464204 66.9288304 56.2001012 67.5574669 51.8415549"></polygon>
                        <path d="M92.0114259,18.3771397 L75.876423,40.4422801 C75.876423,40.4422801 75.876423,40.4422801 75.876423,40.4422801 C72.6494224,44.63319 66.4678303,45.3246901 62.2769205,42.1186441 L72.6075133,28.6239143 L82.7285606,15.4015937 C82.9800152,15.0663209 83.2733789,14.8148663 83.6086517,14.6053209 C84.7821064,13.8719116 86.3327431,13.8928662 87.4642887,14.7939118 L92.0114259,18.3771397 Z" id="Shape" fill="#D8EAF3"></path>
                        <path d="M94.6936082,32.6471878 C99.2407454,38.0534615 95.4060629,46.3095539 88.3234252,46.3095539 L84.6773337,46.3095539 L94.6936082,32.6471878 Z" id="Shape" fill="#C7DCE0"></path>
                        <path d="M105.149928,18.3352306 L96.6004722,12.0698204 C97.6481997,10.644911 99.2407454,9.89054726 100.8752,9.89054726 C101.964837,9.89054726 103.075428,10.2258201 104.039337,10.9382747 C104.311746,11.1268657 104.542246,11.3573657 104.772746,11.5878658 C106.470065,13.4318661 106.67961,16.2607302 105.149928,18.3352306 Z" id="Shape" fill="#066695"></path>
                        <polygon id="Shape" fill="#D8EAF3" points="104.772746 18.8800489 104.772746 28.2467324 104.709883 28.3095961 100.351337 24.8940046"></polygon>
                        <path d="M113.699384,31.9137786 L113.699384,55.9067375 L104.772746,55.9067375 L82.2046969,55.9067375 C80.8426512,55.9067375 79.6063327,55.3409647 78.7471962,54.439919 C77.9299688,53.5807825 77.4061051,52.4073278 77.4061051,51.1291003 C77.4061051,49.8089637 77.9509233,48.6145543 78.8100599,47.7344633 C79.6691964,46.8753268 80.8845602,46.3305085 82.2046969,46.3305085 L84.6773337,46.3305085 L88.3234252,46.3305085 C95.3851084,46.3305085 99.2407454,38.0744161 94.6936082,32.6681423 L100.372291,24.9359137 L104.730837,28.3515052 L109.319884,31.9556877 L113.699384,31.9556877 L113.699384,31.9137786 Z" id="Shape" fill="#D8EAF3"></path>
                        <path d="M105.149928,18.3352306 L104.751792,18.8590944 L100.330382,24.8940046 L94.6516991,32.6262332 L84.6563791,46.2885994 L82.1837423,46.2885994 C80.8636057,46.2885994 79.6691964,46.8334177 78.7891053,47.6925542 C77.9299688,48.5516907 77.3851505,49.7670546 77.3851505,51.0871912 C77.3851505,52.3654187 77.8880597,53.5388734 78.7262417,54.39801 L75.9602412,58.1907834 L67.5365124,51.8415549 L75.8554684,40.4422801 C75.8554684,40.4422801 75.8554684,40.4422801 75.8554684,40.4422801 L91.9904714,18.3771397 L96.5795177,12.0907749 L105.149928,18.3352306 Z" id="Shape" fill="#ED1E7A"></path>
                        <polygon id="Shape" fill="#2E96D3" points="12.740366 90.7960621 12.740366 94.2954718 0.817227422 94.2954718 0.817227422 63.3246479 12.740366 63.3246479 12.740366 66.8240577"></polygon>
                        <polygon id="Shape" fill="#F5F6FA" points="58.8822835 86.7518341 60.3700565 96.9566996 50.4795092 93.122017"></polygon>
                        <path d="M58.9451471,70.1977401 L48.2164179,56.1791466 L66.9288304,56.1791466 L66.0696939,62.0254659 L75.9811957,58.1907834 L78.7471962,54.39801 C79.6272873,55.2990556 80.8426512,55.8648284 82.2046969,55.8648284 L104.772746,55.8648284 L104.772746,111.897293 L21.2898221,111.897293 L21.2898221,90.7960621 L44.2350535,90.7960621 C45.5970992,90.7960621 46.8334177,90.2302892 47.6925542,89.3292436 L50.4585547,93.122017 L60.3700565,96.9566996 L58.8822835,86.7518341 L56.9335104,84.0906063 L50.5423729,75.3525592 C53.7693735,79.5434691 59.9509655,80.2349692 64.1418754,77.0289232 L58.9451471,70.1977401 Z" id="Shape" fill="#D8EAF3"></path>
                        <path d="M31.7461422,67.5574669 L41.7414622,81.219833 L38.0953706,81.219833 C31.054642,81.219833 27.199005,72.9637406 31.7461422,67.5574669 Z" id="Shape" fill="#C7DCE0"></path>
                        <path d="M47.6296905,82.6237878 C48.4888271,83.4829244 49.0336453,84.6982882 49.0336453,86.0184248 C49.0336453,87.2966523 48.5307361,88.4701071 47.6925542,89.3292436 C46.8124631,90.2302892 45.5970992,90.7960621 44.2350535,90.7960621 L21.2898221,90.7960621 L12.7613205,90.7960621 L12.7613205,66.8240577 L17.1408213,66.8240577 L21.2898221,63.5761025 L26.0884139,59.8252382 L31.7461422,67.5574669 C27.199005,72.9637406 31.0336875,81.219833 38.1163252,81.219833 L41.7624167,81.219833 L44.2350535,81.219833 C45.5551902,81.219833 46.7495995,81.7436968 47.6296905,82.6237878 Z" id="Shape" fill="#D8EAF3"></path>
                        <path d="M48.2164179,56.2001012 L58.9451471,70.2186947 L64.1837845,77.0498777 C59.9719201,80.2768783 53.790328,79.5853782 50.584282,75.3735138 C50.584282,75.3735138 50.584282,75.3735138 50.584282,75.3735138 L34.449279,53.3083734 L38.9964162,49.7461 C40.4632347,48.5935998 42.6005987,48.8660089 43.7321444,50.3537819 L48.2164179,56.2001012 Z" id="Shape" fill="#D8EAF3"></path>
                        <path d="M29.8392782,47.0010541 L21.2898221,53.2664643 C19.8858673,51.3596003 19.9487309,48.8240998 21.2898221,47.0010541 C21.6041403,46.5819631 21.9603677,46.2047812 22.4004132,45.8695084 C23.3433679,45.1570537 24.453959,44.8217809 25.5645501,44.8217809 C27.1780504,44.8217809 28.7915507,45.5761447 29.8392782,47.0010541 Z" id="Shape" fill="#066695"></path>
                        <path d="M56.954465,84.1115608 L58.903238,86.7727886 L50.4795092,93.122017 L47.7135087,89.3292436 C48.5307361,88.4701071 49.0545999,87.2966523 49.0545999,86.0184248 C49.0545999,84.6982882 48.5097816,83.5038789 47.6506451,82.6237878 C46.7915086,81.7646513 45.5761447,81.219833 44.2560081,81.219833 L41.7833713,81.219833 L31.7880513,67.5574669 L26.130323,59.8252382 L21.3317312,53.2664643 L29.8811873,47.0010541 L34.4702336,53.2874188 L50.6052365,75.3525592 C50.6052365,75.3525592 50.6052365,75.3525592 50.6052365,75.3525592 L56.954465,84.1115608 Z" id="Shape" fill="#ED1E7A"></path>
                        <polygon id="Shape" fill="#D8EAF3" points="26.0884139 59.8042837 21.2898221 63.5761025 21.2898221 53.2455097"></polygon>
                        <rect id="Rectangle-path" fill="#ED1E7A" x="28.3305506" y="7.66936504" width="13.9976389" height="13.9976389"></rect>
                        <path d="M83.5876971,14.6262754 C83.2524243,14.8358209 82.9590606,15.10823 82.707606,15.4225483 L72.5865587,28.6448689 L62.2559659,42.1395986 C66.4678303,45.3665992 72.6494224,44.6750991 75.8554684,40.4632347 L67.5365124,51.8625095 L66.9078759,56.2001012 L48.1954634,56.2001012 L43.7111898,50.3328274 C42.5796442,48.8450544 40.4422801,48.5726452 38.9754617,49.7251455 L34.4283245,53.2874188 L29.8392782,47.0010541 C28.7915507,45.5761447 27.1780504,44.8217809 25.5645501,44.8217809 C24.4749136,44.8217809 23.3643225,45.1570537 22.4004132,45.8695084 C21.9603677,46.1838266 21.5831858,46.5819631 21.2898221,47.0010541 L21.2898221,0.733409225 L104.772746,0.733409225 L104.772746,11.6088203 C104.563201,11.3783203 104.311746,11.1478202 104.039337,10.9592293 C103.096382,10.2467746 101.985791,9.91150181 100.8752,9.91150181 C99.2407454,9.91150181 97.6272451,10.6658656 96.6004722,12.0907749 L92.0114259,18.3771397 L87.4642887,14.8148663 C86.3117885,13.9138207 84.7611519,13.8928662 83.5876971,14.6262754 Z M42.3491441,21.6879585 L42.3491441,7.69031959 L28.3515052,7.69031959 L28.3515052,21.6879585 L42.3491441,21.6879585 Z" id="Shape" fill="#D8EAF3"></path>
                        <path d="M67.4317396,44.1093263 L66.0487394,45.9114175 C67.3898305,46.9381904 68.9195126,47.5668269 70.5120584,47.8182815 L75.876423,40.4632347 C73.8228771,43.1244624 70.5958765,44.3817354 67.4317396,44.1093263 Z" id="Shape" fill="#C7DCE0"></path>
                        <path d="M82.2046969,55.8857829 C81.8903786,55.8857829 81.5760604,55.8438739 81.2826967,55.8019648 C81.4712876,56.7239649 81.9113332,57.5411923 82.5190151,58.1907834 C83.3991062,59.091829 84.61447,59.6576018 85.9765157,59.6576018 L104.751792,59.6576018 L104.751792,55.8857829 L82.2046969,55.8857829 Z" id="Shape" fill="#C7DCE0"></path>
                        <path d="M48.0068724,94.5888355 C49.2222363,94.5888355 50.3328274,94.1278354 51.1710094,93.3944262 L50.4585547,93.122017 L47.6925542,89.3292436 C46.8124631,90.2302892 45.5970992,90.7960621 44.2350535,90.7960621 L21.2898221,90.7960621 L21.2898221,94.5678809 L25.0616409,94.5678809 L48.0068724,94.5678809 L48.0068724,94.5888355 Z" id="Shape" fill="#C7DCE0"></path>
                        <path d="M58.9451471,70.1977401 L64.1837845,77.0289232 C60.998693,79.4596509 56.6820558,79.6691964 53.371237,77.783287 L54.3561009,79.1243781 C54.3561009,79.1243781 54.3561009,79.1243781 54.3561009,79.1243781 C57.5831014,83.315288 63.7646935,84.0067881 67.9556033,80.8007421 L62.716966,73.969559 L51.9882368,59.9509655 L49.096509,56.1791466 L48.2164179,56.1791466 L58.9451471,70.1977401 Z" id="Shape" fill="#C7DCE0"></path>
                        <g id="Group" transform="translate(12.572730, 24.726368)" fill="#C7DCE0">
                            <path d="M92.1581078,3.58322793 L82.9590606,17.434185 C84.5935155,14.6053209 84.5935155,10.833502 82.1418332,7.89986508 L87.8205161,0.167636394 L92.1581078,3.58322793 Z" id="Shape"></path>
                            <path d="M21.8555949,28.5610507 L48.1535543,54.0836917 C43.5435534,55.1523737 39.8555527,53.0778733 37.9905979,50.6471456 C37.9905979,50.6471456 37.9905979,50.6471456 37.9905979,50.6471456 L21.8555949,28.5610507 Z" id="Shape"></path>
                            <polygon id="Shape" points="0.167636394 42.0976895 8.7170925 66.0696939 0.167636394 66.0696939"></polygon>
                        </g>
                        <polygon id="Shape" fill="#2E96D3" points="71.7693313 59.8252382 66.9288304 56.2001012 66.0696939 62.0464204"></polygon>
                        <polygon id="Shape" fill="#2E96D3" points="55.4247829 95.028881 59.6366473 91.8647441 60.3700565 96.9566996"></polygon>
                        <path d="M92.0114259,18.3771397 L89.6226073,21.6460494 L86.3536976,19.5296399 C85.8926975,19.2362762 85.2640611,19.341049 84.9287883,19.76014 L66.0487394,43.8997808 C64.7076482,43.5854625 63.4084661,42.9987351 62.2769205,42.1395986 L72.6075133,28.6448689 L82.7285606,15.4225483 C82.9800152,15.0872755 83.2733789,14.8358209 83.6086517,14.6262754 C84.7821064,13.8928662 86.3327431,13.9138207 87.4642887,14.8148663 L92.0114259,18.3771397 Z" id="Shape" fill="#F5F6FA"></path>
                        <polygon id="Shape" fill="#F5F6FA" points="28.3305506 62.8846024 23.0500042 66.8240577 17.1198668 66.8240577 21.2898221 63.5761025 26.0884139 59.8042837"></polygon>
                        <path d="M54.209419,64.0371026 L43.6692807,50.3747365 L43.7321444,50.3328274 L43.5854625,50.2490092 L43.2711443,49.8299182 L43.145417,49.9766001 L41.5109621,49.0336453 L38.3258706,50.1232819 L34.449279,53.2874188 L36.356143,55.8857829 L39.3945527,53.6017371 C40.4213256,52.8264188 41.8671895,52.8892824 42.8101442,53.7484189 L54.209419,64.0371026 Z" id="Shape" fill="#F5F6FA"></path>
                        <g id="Group" transform="translate(0.000000, 44.004554)" fill="#066695">
                            <path d="M60.3700565,53.5807825 C60.2862383,53.5807825 60.2233747,53.559828 60.1395565,53.5388734 L50.2280546,49.7041909 C49.9137364,49.5784636 49.7461,49.2222363 49.8718273,48.8869635 C49.9975546,48.5726452 50.3537819,48.4050089 50.6890547,48.5307361 L59.5947382,51.9882368 L58.2955561,43.0196897 L29.336369,3.35272789 C28.6029598,2.34690952 27.5133232,1.67636394 26.2560503,1.487773 C25.0197318,1.29918206 23.7834134,1.6135003 22.7775951,2.34690952 C20.7240492,3.87659162 20.2840037,6.78927397 21.7927313,8.86377435 C22.0022768,9.13618349 21.9394131,9.53431993 21.667004,9.74386542 C21.3945948,9.95341091 20.9964584,9.89054726 20.7869129,9.61813812 C18.8590944,6.99881946 19.4248672,3.28986424 22.0441859,1.3620457 C23.3224134,0.419090986 24.8940046,0.0209545493 26.4655958,0.251454591 C28.0371869,0.481954634 29.4201872,1.32013661 30.3631419,2.61931866 L59.4061472,42.3910532 C59.4690109,42.4748714 59.51092,42.5586896 59.51092,42.6634623 L60.998693,52.8473733 C61.0406021,53.0778733 60.9358293,53.2874188 60.7681929,53.4341007 C60.6424656,53.5179189 60.5167383,53.5807825 60.3700565,53.5807825 Z" id="Shape"></path>
                            <path d="M50.4795092,49.7251455 C50.2909183,49.7251455 50.1023273,49.6413273 49.9766001,49.4736909 C49.7670546,49.2012817 49.8299182,48.8031453 50.1023273,48.5935998 L58.5260562,42.2443714 C58.7984653,42.0348259 59.1966017,42.0976895 59.4061472,42.3700987 C59.6156927,42.6425078 59.5528291,43.0406442 59.2804199,43.2501897 L50.8566911,49.5994182 C50.7309638,49.6832364 50.6052365,49.7251455 50.4795092,49.7251455 Z" id="Shape"></path>
                            <path d="M21.2898221,9.86959271 C21.1012311,9.86959271 20.9126402,9.78577452 20.7869129,9.61813812 C20.5773674,9.34572898 20.640231,8.94759255 20.9126402,8.73804705 L29.4620963,2.47263682 C29.7345054,2.26309132 30.1326419,2.32595497 30.3421874,2.59836411 C30.5517329,2.87077325 30.4888692,3.26890969 30.2164601,3.47845518 L21.667004,9.74386542 C21.5412767,9.82768362 21.4155494,9.86959271 21.2898221,9.86959271 Z" id="Shape"></path>
                            <g transform="translate(11.944093, 4.190910)" id="Shape">
                                <path d="M5.17577367,19.2362762 L0.796272873,19.2362762 C0.461000084,19.2362762 0.167636394,18.9638671 0.167636394,18.6076398 C0.167636394,18.272367 0.440045535,17.9790033 0.796272873,17.9790033 L4.96622818,17.9790033 L13.7461843,11.1059111 C14.0185935,10.8963656 14.4167299,10.9382747 14.6262754,11.2106839 C14.8358209,11.483093 14.7939118,11.8812294 14.5215027,12.0907749 L5.55295556,19.0895944 C5.44818281,19.1943671 5.32245552,19.2362762 5.17577367,19.2362762 Z"></path>
                                <path d="M46.2676448,31.4946876 C45.8485538,31.4946876 45.4085083,31.473733 44.9894173,31.4108694 C42.2234168,31.0755966 39.7926891,29.7135509 38.1372797,27.5552323 C37.9277342,27.2828232 37.9696433,26.8846867 38.263007,26.6751412 C38.5354161,26.4655958 38.9335526,26.5075048 39.1430981,26.8008685 C40.588962,28.686778 42.726326,29.9021418 45.1570537,30.174551 C47.3782359,30.4469601 49.5575091,29.9230964 51.3596003,28.7077325 L31.3060966,2.51454591 C30.8660511,1.92781853 30.2164601,1.55063665 29.4830508,1.46681845 C28.7496416,1.38300025 28.0371869,1.5715912 27.4504596,2.03259128 L22.9033224,5.59486466 C22.6309132,5.80441015 22.2327768,5.76250105 22.0232313,5.49009191 C21.8136858,5.21768277 21.8555949,4.81954634 22.128004,4.61000084 L26.6751412,1.04772746 C27.5133232,0.377181887 28.5820052,0.104772746 29.6297327,0.230500042 C30.6984147,0.356227338 31.6413694,0.901045619 32.2909605,1.76018214 L52.7426006,28.4562779 C52.8473733,28.5820052 52.8892824,28.7496416 52.8683279,28.917278 C52.8473733,29.0849144 52.7635551,29.2315963 52.6378278,29.336369 C50.7728729,30.7403238 48.5516907,31.4946876 46.2676448,31.4946876 Z"></path>
                                <path d="M32.2909605,43.2292352 L0.796272873,43.2292352 C0.461000084,43.2292352 0.167636394,42.956826 0.167636394,42.6005987 C0.167636394,42.2653259 0.440045535,41.9719622 0.796272873,41.9719622 L32.2909605,41.9719622 C34.5959609,41.9719622 36.4609158,40.1070073 36.4609158,37.8020069 C36.4609158,35.4970065 34.5959609,33.6320516 32.2909605,33.6320516 L26.1722321,33.6320516 C23.1338224,33.6320516 20.409731,32.1861877 18.7333671,29.6716418 C17.0570031,27.1361413 16.7426849,24.0139135 17.8951851,21.2688675 C18.0209124,20.9545493 18.3980943,20.8078674 18.7124125,20.9335947 C19.0267308,21.059322 19.1734126,21.4365039 19.0476853,21.7508222 C18.0628215,24.0977317 18.3352306,26.8008685 19.7810945,28.9801417 C21.2269584,31.1384602 23.5529134,32.3747786 26.1722321,32.3747786 L32.2909605,32.3747786 C35.287461,32.3747786 37.7181887,34.8055064 37.7181887,37.8020069 C37.7181887,40.7985075 35.287461,43.2292352 32.2909605,43.2292352 Z"></path>
                            </g>
                            <path d="M41.7624167,37.843916 C41.5738258,37.843916 41.3852348,37.7600978 41.2595075,37.5924614 L20.7869129,9.63909267 C20.5773674,9.36668353 20.640231,8.9685471 20.9126402,8.7590016 C21.1850493,8.54945611 21.5831858,8.61231976 21.7927313,8.8847289 L42.2653259,36.8380976 C42.4748714,37.1105068 42.4120078,37.5086432 42.1395986,37.7181887 C42.0138713,37.8020069 41.888144,37.843916 41.7624167,37.843916 Z" id="Shape"></path>
                            <path d="M50.4795092,49.7251455 C50.2909183,49.7251455 50.1023273,49.6413273 49.9766001,49.4736909 L47.2105995,45.6809174 C47.0010541,45.4085083 47.0639177,45.0103719 47.3363268,44.8008264 C47.608736,44.5912809 48.0068724,44.6541445 48.2164179,44.9265537 L50.9824184,48.7193271 C51.1919639,48.9917362 51.1291003,49.3898727 50.8566911,49.5994182 C50.7309638,49.7041909 50.6052365,49.7251455 50.4795092,49.7251455 Z" id="Shape"></path>
                            <path d="M12.740366,50.9195548 L0.817227422,50.9195548 C0.481954634,50.9195548 0.188590944,50.6471456 0.188590944,50.2909183 C0.188590944,49.9556455 0.461000084,49.6622818 0.817227422,49.6622818 L12.1117295,49.6622818 L12.1117295,19.9277764 L0.817227422,19.9277764 C0.481954634,19.9277764 0.188590944,19.6553672 0.188590944,19.2991399 C0.188590944,18.9638671 0.461000084,18.6705034 0.817227422,18.6705034 L12.740366,18.6705034 C13.0756388,18.6705034 13.3690024,18.9429126 13.3690024,19.2991399 L13.3690024,50.2909183 C13.3690024,50.6471456 13.0965933,50.9195548 12.740366,50.9195548 Z" id="Shape"></path>
                        </g>
                        <g id="Group" transform="translate(61.606375, 9.220002)" fill="#066695">
                            <path d="M4.463319,53.4550552 C4.31663715,53.4550552 4.19090986,53.4131461 4.06518256,53.3083734 C3.89754617,53.1616915 3.81372797,52.952146 3.83468252,52.721646 L5.32245552,42.5377351 C5.34341007,42.4329623 5.38531917,42.3491441 5.42722827,42.2653259 L34.4702336,2.49359137 C35.4131883,1.21536386 36.7961885,0.377181887 38.3677797,0.125727296 C39.9393709,-0.104772746 41.5109621,0.272409141 42.7891896,1.23631841 C45.3875538,3.16413694 45.9533266,6.87309217 44.0464626,9.49241083 C43.8369171,9.76481997 43.4597352,9.82768362 43.1663715,9.61813812 C42.8939624,9.40859263 42.8310987,9.03141074 43.0406442,8.73804705 C44.5493718,6.66354667 44.1093263,3.75086432 42.0557804,2.22118222 C41.0499621,1.46681845 39.8136436,1.17345476 38.5773252,1.3620457 C37.3410068,1.55063665 36.2513703,2.22118222 35.4970065,3.22700059 L6.53781938,42.8730078 L5.23863732,51.8415549 L14.1443208,48.3840543 C14.458639,48.258327 14.8358209,48.4259634 14.9615482,48.7402816 C15.0872755,49.0545999 14.9196391,49.4317818 14.6053209,49.5575091 L4.69381904,53.3921916 C4.61000084,53.4341007 4.52618265,53.4550552 4.463319,53.4550552 Z" id="Shape"></path>
                            <path d="M14.3748208,49.5994182 C14.2490935,49.5994182 14.1024117,49.5575091 13.9976389,49.4736909 L5.57391011,43.1244624 C5.30150097,42.9149169 5.23863732,42.5167805 5.44818281,42.2443714 C5.65772831,41.9719622 6.05586474,41.9090986 6.32827388,42.1186441 L14.7520027,48.4678725 C15.0244118,48.677418 15.0872755,49.0755544 14.87773,49.3479636 C14.7520027,49.5156 14.5634118,49.5994182 14.3748208,49.5994182 Z" id="Shape"></path>
                            <path d="M43.5435534,9.74386542 C43.4178261,9.74386542 43.2920988,9.70195632 43.1663715,9.61813812 L34.6169154,3.35272789 C34.3445063,3.14318239 34.2816426,2.76600051 34.4911881,2.47263682 C34.7007336,2.20022768 35.0779155,2.13736403 35.3712792,2.34690952 L43.9207353,8.61231976 C44.1931444,8.82186525 44.2560081,9.19904714 44.0464626,9.49241083 C43.9416899,9.66004722 43.7530989,9.74386542 43.5435534,9.74386542 Z" id="Shape"></path>
                            <g transform="translate(0.000000, 4.190910)" id="Shape">
                                <path d="M52.0930095,19.110549 L47.7135087,19.110549 C47.5668269,19.110549 47.4410996,19.0686399 47.3363268,18.9848217 L38.3677797,11.9860022 C38.0953706,11.7764567 38.0534615,11.3783203 38.263007,11.1059111 C38.4725525,10.833502 38.8706889,10.7915929 39.1430981,11.0011384 L47.9230542,17.8742305 L52.0930095,17.8742305 C52.4282823,17.8742305 52.721646,18.1466397 52.721646,18.502867 C52.721646,18.8381398 52.4282823,19.110549 52.0930095,19.110549 Z"></path>
                                <path d="M6.62163757,31.3689603 C4.31663715,31.3689603 2.11640948,30.6355511 0.272409141,29.2315963 C-9.88376048e-14,29.0220508 -0.0628636479,28.6239143 0.146681845,28.3515052 L20.5983219,1.65540939 C21.247913,0.796272873 22.1908677,0.251454591 23.2595497,0.125727296 C24.3282317,5.52335955e-15 25.3759592,0.272409141 26.2141412,0.942954718 L30.7612784,4.5052281 C31.0336875,4.71477359 31.0755966,5.11291003 30.8660511,5.38531917 C30.6565056,5.65772831 30.2583692,5.69963741 29.98596,5.49009191 L25.4388228,1.92781853 C24.8520955,1.46681845 24.1396408,1.27822751 23.4062316,1.3620457 C22.6728223,1.4458639 22.0232313,1.82304579 21.5831858,2.40977317 L1.5296821,28.6029598 C3.35272789,29.8183236 5.53200101,30.3212328 7.73222869,30.0697782 C10.1629564,29.7764145 12.3003204,28.5820052 13.7461843,26.6960958 C13.9557298,26.4236867 14.3538663,26.360823 14.6262754,26.5703685 C14.8986845,26.779914 14.9615482,27.1780504 14.7520027,27.4504596 C13.0965933,29.6087781 10.6658656,30.9917784 7.89986508,31.3060966 C7.4807741,31.3270512 7.06168311,31.3689603 6.62163757,31.3689603 Z"></path>
                                <path d="M52.0930095,43.1035079 L20.5983219,43.1035079 C17.6018214,43.1035079 15.1710937,40.6727802 15.1710937,37.6762796 C15.1710937,34.6797791 17.6018214,32.2490514 20.5983219,32.2490514 L26.7170503,32.2490514 C29.3154145,32.2490514 31.6413694,31.0336875 33.0662788,28.8963235 C34.5121427,26.7380049 34.8264609,24.0767771 33.8835062,21.7298676 C33.7577789,21.4155494 33.9044607,21.0383675 34.2397335,20.9126402 C34.5540518,20.7869129 34.9312337,20.9335947 35.056961,21.2688675 C36.1465975,23.9929589 35.8113247,27.1151868 34.1349608,29.6087781 C32.4585968,32.1023695 29.75546,33.5063243 26.7380049,33.5063243 L20.6192765,33.5063243 C18.3142761,33.5063243 16.4493212,35.3712792 16.4493212,37.6762796 C16.4493212,39.98128 18.3142761,41.8462349 20.6192765,41.8462349 L52.1139641,41.8462349 C52.4492369,41.8462349 52.7426006,42.1186441 52.7426006,42.4748714 C52.7426006,42.8310987 52.4282823,43.1035079 52.0930095,43.1035079 Z"></path>
                            </g>
                            <path d="M23.0709588,37.7181887 C22.9452315,37.7181887 22.8195042,37.6762796 22.6937769,37.5924614 C22.4213677,37.3829159 22.3585041,37.005734 22.5680496,36.7123704 L43.0406442,8.7590016 C43.2501897,8.48659246 43.6273716,8.42372881 43.9207353,8.63327431 C44.1931444,8.8428198 44.2560081,9.22000169 44.0464626,9.51336538 L23.5738679,37.4667341 C23.4690952,37.613416 23.2805043,37.7181887 23.0709588,37.7181887 Z" id="Shape"></path>
                            <path d="M14.3748208,49.5994182 C14.2490935,49.5994182 14.1233662,49.5575091 13.9976389,49.4736909 C13.7252298,49.2641454 13.6623661,48.8869635 13.8719116,48.5935998 L16.6379121,44.8008264 C16.8474576,44.5284172 17.2246395,44.4655536 17.5180032,44.6750991 C17.7904123,44.8846446 17.853276,45.2618265 17.6437305,45.5551902 L14.87773,49.3479636 C14.7520027,49.5156 14.5634118,49.5994182 14.3748208,49.5994182 Z" id="Shape"></path>
                            <path d="M64.0161481,50.7938275 L52.0930095,50.7938275 C51.7577367,50.7938275 51.4643731,50.5214183 51.4643731,50.165191 L51.4643731,19.1943671 C51.4643731,18.8590944 51.7367822,18.5657307 52.0930095,18.5657307 L64.0161481,18.5657307 C64.3514209,18.5657307 64.6447846,18.8381398 64.6447846,19.1943671 C64.6447846,19.5505945 64.3723754,19.8230036 64.0161481,19.8230036 L52.721646,19.8230036 L52.721646,49.5575091 L64.0161481,49.5575091 C64.3514209,49.5575091 64.6447846,49.8299182 64.6447846,50.1861455 C64.62383,50.5214183 64.3514209,50.7938275 64.0161481,50.7938275 Z" id="Shape"></path>
                        </g>
                        <path d="M21.2898221,47.6296905 C20.9545493,47.6296905 20.6611856,47.3572814 20.6611856,47.0010541 L20.6611856,0.733409225 C20.6611856,0.398136436 20.9335947,0.104772746 21.2898221,0.104772746 L104.772746,0.104772746 C105.108019,0.104772746 105.401383,0.377181887 105.401383,0.733409225 L105.401383,11.6088203 C105.401383,11.9440931 105.128974,12.2374568 104.772746,12.2374568 C104.416519,12.2374568 104.14411,11.9650476 104.14411,11.6088203 L104.14411,1.34109115 L21.897504,1.34109115 L21.897504,46.9800995 C21.897504,47.3363268 21.6250949,47.6296905 21.2898221,47.6296905 Z" id="Shape" fill="#066695"></path>
                        <path d="M104.772746,112.52593 L21.2898221,112.52593 C20.9545493,112.52593 20.6611856,112.253521 20.6611856,111.897293 L20.6611856,90.7960621 C20.6611856,90.4607893 20.9335947,90.1674256 21.2898221,90.1674256 C21.6460494,90.1674256 21.9184586,90.4398347 21.9184586,90.7960621 L21.9184586,111.268657 L104.14411,111.268657 L104.14411,55.8857829 C104.14411,55.5505102 104.416519,55.2571465 104.772746,55.2571465 C105.128974,55.2571465 105.401383,55.5295556 105.401383,55.8857829 L105.401383,111.897293 C105.401383,112.232566 105.108019,112.52593 104.772746,112.52593 Z" id="Shape" fill="#066695"></path>
                        <path d="M42.3491441,22.2956404 L28.3515052,22.2956404 C28.0162324,22.2956404 27.7228687,22.0232313 27.7228687,21.667004 L27.7228687,7.66936504 C27.7228687,7.33409225 27.9952778,7.04072856 28.3515052,7.04072856 L42.3491441,7.04072856 C42.6844169,7.04072856 42.9777806,7.3131377 42.9777806,7.66936504 L42.9777806,21.667004 C42.9777806,22.0232313 42.6844169,22.2956404 42.3491441,22.2956404 Z M28.9591871,21.059322 L41.7205076,21.059322 L41.7205076,8.29800152 L28.9591871,8.29800152 L28.9591871,21.059322 Z" id="Shape" fill="#066695"></path>
                        <path d="M21.2898221,64.1837845 C20.9545493,64.1837845 20.6611856,63.9113753 20.6611856,63.555148 L20.6611856,53.2455097 C20.6611856,52.910237 20.9335947,52.6168733 21.2898221,52.6168733 C21.6460494,52.6168733 21.9184586,52.8892824 21.9184586,53.2455097 L21.9184586,63.555148 C21.897504,63.9113753 21.6250949,64.1837845 21.2898221,64.1837845 Z" id="Shape" fill="#066695"></path>
                        <path d="M104.772746,28.8753689 C104.437474,28.8753689 104.14411,28.6029598 104.14411,28.2467324 L104.14411,18.8800489 C104.14411,18.5447761 104.416519,18.2514124 104.772746,18.2514124 C105.128974,18.2514124 105.401383,18.5238216 105.401383,18.8800489 L105.401383,28.2467324 C105.401383,28.5820052 105.108019,28.8753689 104.772746,28.8753689 Z" id="Shape" fill="#066695"></path>
                        <path d="M83.5876971,15.2549119 L49.3060545,15.2549119 C48.9707817,15.2549119 48.677418,14.9825027 48.677418,14.6262754 C48.677418,14.2910026 48.9498271,13.9976389 49.3060545,13.9976389 L83.5876971,13.9976389 C83.9229699,13.9976389 84.2163336,14.2700481 84.2163336,14.6262754 C84.2163336,14.9615482 83.9439244,15.2549119 83.5876971,15.2549119 Z" id="Shape" fill="#066695"></path>
                        <path d="M97.8158361,98.6330635 L28.3305506,98.6330635 C27.9952778,98.6330635 27.7019142,98.3606544 27.7019142,98.004427 C27.7019142,97.6481997 27.9743233,97.3757905 28.3305506,97.3757905 L97.8158361,97.3757905 C98.1511089,97.3757905 98.4444726,97.6481997 98.4444726,98.004427 C98.4444726,98.3606544 98.1720634,98.6330635 97.8158361,98.6330635 Z" id="Shape" fill="#066695"></path>
                        <path d="M72.6075133,29.2525508 L28.3515052,29.2525508 C28.0162324,29.2525508 27.7228687,28.9801417 27.7228687,28.6239143 C27.7228687,28.267687 27.9952778,27.9952778 28.3515052,27.9952778 L72.6075133,27.9952778 C72.9427861,27.9952778 73.2361498,28.267687 73.2361498,28.6239143 C73.2361498,28.9801417 72.9427861,29.2525508 72.6075133,29.2525508 Z" id="Shape" fill="#066695"></path>
                        <path d="M62.2769205,43.0406442 L28.3515052,43.0406442 C28.0162324,43.0406442 27.7228687,42.7682351 27.7228687,42.4120078 C27.7228687,42.076735 27.9952778,41.7833713 28.3515052,41.7833713 L62.2769205,41.7833713 C62.6121933,41.7833713 62.905557,42.0557804 62.905557,42.4120078 C62.905557,42.7682351 62.6121933,43.0406442 62.2769205,43.0406442 Z" id="Shape" fill="#066695"></path>
                        <path d="M66.9288304,56.8287377 L48.2164179,56.8287377 C47.8811451,56.8287377 47.5877814,56.5563285 47.5877814,56.2001012 C47.5877814,55.8648284 47.8601906,55.5714647 48.2164179,55.5714647 L66.9288304,55.5714647 C67.2641032,55.5714647 67.5574669,55.8438739 67.5574669,56.2001012 C67.5365124,56.535374 67.2641032,56.8287377 66.9288304,56.8287377 Z" id="Shape" fill="#066695"></path>
                        <path d="M97.8158361,70.8263766 L58.9241926,70.8263766 C58.5889198,70.8263766 58.2955561,70.5539675 58.2955561,70.1977401 C58.2955561,69.8624673 58.5679653,69.5691036 58.9241926,69.5691036 L97.8158361,69.5691036 C98.1511089,69.5691036 98.4444726,69.8415128 98.4444726,70.1977401 C98.4444726,70.5539675 98.1720634,70.8263766 97.8158361,70.8263766 Z" id="Shape" fill="#066695"></path>
                        <path d="M97.8158361,84.7192428 L56.7868286,84.7192428 C56.4515558,84.7192428 56.1581921,84.4468336 56.1581921,84.0906063 C56.1581921,83.7553335 56.4306012,83.4619698 56.7868286,83.4619698 L97.8158361,83.4619698 C98.1511089,83.4619698 98.4444726,83.734379 98.4444726,84.0906063 C98.4444726,84.4468336 98.1720634,84.7192428 97.8158361,84.7192428 Z" id="Shape" fill="#066695"></path>
                    </g>
                </g>
            </g>
        </g>
    </g>
</svg>