<?xml version="1.0" encoding="UTF-8" standalone="no"?>
<svg width="10px" height="8px" viewBox="0 0 10 8" version="1.1" xmlns="http://www.w3.org/2000/svg" xmlns:xlink="http://www.w3.org/1999/xlink">
    <!-- Generator: sketchtool 49.3 (51167) - http://www.bohemiancoding.com/sketch -->
    <title>D40C1312-3245-4C89-BBF6-C19F897D9E15</title>
    <desc>Created with sketchtool.</desc>
    <defs></defs>
    <g id="Welcome" stroke="none" stroke-width="1" fill="none" fill-rule="evenodd">
        <g id="homepage" transform="translate(-742.000000, -33.000000)">
            <g id="header">
                <g id="stories" transform="translate(686.819672, 29.000000)">
                    <g id="link" transform="translate(54.000000, 0.000000)">
                        <rect id="Rectangle-8" fill-opacity="0" fill="#B79999" x="0" y="0" width="13" height="22"></rect>
                        <path d="M9.071437,8.94642493 L9.071437,10.5535697 C9.071437,11.3521198 8.42355676,12 7.62500671,12 L3.4464303,12 C2.64788024,12 2,11.3521198 2,10.5535697 L2,6.37499329 C2,5.57644324 2.64788024,4.928563 3.4464303,4.928563 L6.9821488,4.928563 C7.07255069,4.928563 7.14286327,4.99887558 7.14286327,5.08927748 L7.14286327,5.41070643 C7.14286327,5.50110832 7.07255069,5.57142091 6.9821488,5.57142091 L3.4464303,5.57142091 C3.00446548,5.57142091 2.64285791,5.93302848 2.64285791,6.37499329 L2.64285791,10.5535697 C2.64285791,10.9955345 3.00446548,11.3571421 3.4464303,11.3571421 L7.62500671,11.3571421 C8.06697152,11.3571421 8.42857909,10.9955345 8.42857909,10.5535697 L8.42857909,8.94642493 C8.42857909,8.85602304 8.49889168,8.78571045 8.58929357,8.78571045 L8.91072252,8.78571045 C9.00112442,8.78571045 9.071437,8.85602304 9.071437,8.94642493 Z M11.0000107,4.60713404 L11.0000107,7.17856568 C11.0000107,7.35434714 10.8543632,7.49999464 10.6785818,7.49999464 C10.5932022,7.49999464 10.512845,7.46483834 10.452577,7.40457041 L9.56864742,6.52064079 L6.29408994,9.79519826 C6.26395598,9.82533223 6.21875503,9.84542154 6.17857641,9.84542154 C6.13839779,9.84542154 6.09319684,9.82533223 6.06306288,9.79519826 L5.49051755,9.22265294 C5.46038359,9.19251897 5.44029428,9.14731803 5.44029428,9.10713941 C5.44029428,9.06696079 5.46038359,9.02175984 5.49051755,8.99162588 L8.76507503,5.7170684 L7.8811454,4.83313878 C7.82087747,4.77287085 7.78572118,4.69251361 7.78572118,4.60713404 C7.78572118,4.43135258 7.93136868,4.28570509 8.10715014,4.28570509 L10.6785818,4.28570509 C10.8543632,4.28570509 11.0000107,4.43135258 11.0000107,4.60713404 Z" id="external-link---FontAwesome" fill="#3C9FD6" opacity="0.800000012"></path>
                    </g>
                </g>
            </g>
        </g>
    </g>
</svg>