<?xml version="1.0" encoding="UTF-8" standalone="no"?>
<svg width="136px" height="136px" viewBox="0 0 136 136" version="1.1" xmlns="http://www.w3.org/2000/svg" xmlns:xlink="http://www.w3.org/1999/xlink">
    <!-- Generator: sketchtool 49.3 (51167) - http://www.bohemiancoding.com/sketch -->
    <title>7961EEBF-3A3B-4814-90C8-FD8B9DD9E925</title>
    <desc>Created with sketchtool.</desc>
    <defs></defs>
    <g id="Welcome" stroke="none" stroke-width="1" fill="none" fill-rule="evenodd">
        <g id="homepage-mobile" transform="translate(-92.000000, -1684.000000)" fill-rule="nonzero">
            <g id="how-section" transform="translate(8.000000, 865.000000)">
                <g id="Group-4" transform="translate(46.000000, 805.000000)">
                    <g id="Offline-Mentorships-symbol" transform="translate(38.000000, 14.000000)">
                        <path d="M67.6300594,14.7505059 C36.8156463,14.7505059 11.8206109,39.7455414 11.8206109,70.5599545 C11.8206109,101.374368 36.8156463,126.369403 67.6300594,126.369403 C98.4444726,126.369403 123.439508,101.374368 123.439508,70.5599545 C123.439508,39.7455414 98.4646787,14.7505059 67.6300594,14.7505059 Z M67.6300594,117.660543 C41.6247154,117.660543 20.5294713,96.5652985 20.5294713,70.5599545 C20.5294713,44.5546104 41.6247154,23.4593663 67.6300594,23.4593663 C93.6354035,23.4593663 114.730648,44.5546104 114.730648,70.5599545 C114.730648,96.5855047 93.6556097,117.660543 67.6300594,117.660543 Z" id="Shape" fill="#ED1E7A"></path>
                        <circle id="Oval" fill="#2E96D3" cx="67.6300594" cy="70.5599545" r="32.0267835"></circle>
                        <path d="M81.6531432,74.6416013 L95.5954022,94.3426195 L79.3698457,81.7339679 C76.0560334,79.0465469 75.0861371,74.5405705 76.7228371,70.8226347 L81.6531432,74.6416013 Z" id="Shape" fill="#D8EAF3"></path>
                        <path d="M83.6535543,60.7397546 L86.4622122,65.1649064 L76.8844865,55.5265621 C73.2877878,51.9096572 73.3079939,46.0498672 76.9248988,42.4531685 L84.320358,49.9092461 C81.8349987,52.8997597 81.4510815,57.2844991 83.6535543,60.7397546 Z" id="Shape" fill="#D8EAF3"></path>
                        <path d="M64.7809891,107.880755 C64.7809891,105.334777 65.8115039,103.011068 67.4886162,101.333955 C69.1657286,99.6568429 71.4692322,98.6263281 74.0354161,98.6263281 L86.5834493,98.6263281 C90.3620035,98.6263281 93.5343726,96.9088034 95.6156084,94.3224134 C98.5455034,90.6650961 99.2729256,85.3306666 96.4036491,80.7842778 L88.3413863,68.0948014 L86.4824184,65.1447002 L83.6737604,60.7195484 C81.4712876,57.2440868 81.8754111,52.8795535 84.3607703,49.8688338 C84.9669555,49.1414116 85.6943777,48.4948141 86.5430369,47.9492474 L124.550847,107.840343 L134.67414,117.013945 L129.966102,126.355932 L124.975177,134.694346 L108.264672,119.034562 L105.011479,119.034562 C96.0197318,119.074975 88.0989122,114.649823 83.269637,107.880755 L64.7809891,107.880755 Z" id="Shape" fill="#D8EAF3"></path>
                        <path d="M96.383443,80.8044839 C99.2527195,85.3306666 98.5455034,90.6853023 95.5954022,94.3426195 L81.6531432,74.6416013 L76.7430433,70.8226347 L75.1467556,69.569852 C71.1055211,66.4378953 70.3780989,60.6185176 73.5100557,56.5974892 L88.3211801,68.1150076 L96.383443,80.8044839 Z" id="Shape" fill="#D8EAF3"></path>
                        <path d="M52.1319251,40.9377055 L54.8597584,54.6374905 L64.1748039,75.6317038 C65.7104731,79.1071654 65.0436694,83.0271629 62.7603719,85.7752024 L62.7401657,85.7752024 C62.5583101,89.3314887 60.436662,92.645301 56.9612004,94.1809701 L52.0713066,83.1079876 L47.3026499,81.5723185 L39.9071907,74.2374779 L36.2902859,74.2374779 L20.2263787,58.3150139 L16.4074121,30.6123514 L11.6387554,26.1669934 L26.9146218,11.1538072 C35.0375032,19.2766886 39.4020364,16.8317417 39.4020364,16.8317417 L53.3645016,30.7942069 L63.5080003,40.9377055 C60.3760435,44.0898685 55.284088,44.0898685 52.1319251,40.9377055 Z" id="Shape" fill="#D8EAF3"></path>
                        <polygon id="Shape" fill="#2E96D3" points="21.2973058 0.727422211 29.2989502 8.83009739 26.9146218 11.1538072 11.6589615 26.1871996 9.31504554 28.4907033 0.626391348 19.8020491"></polygon>
                        <path d="M127.709746,129.966102 L124.954971,134.734758 L108.244466,119.074975 L104.991272,119.074975 C96.039938,119.074975 88.1191184,114.649823 83.269637,107.880755 C91.7158171,116.185492 108.305085,114.973122 110.729825,114.023432 L127.709746,129.966102 Z" id="Shape" fill="#C7DCE0"></path>
                        <path d="M100.283234,87.1694283 C103.394985,92.1603529 99.7982861,98.6263281 93.8980837,98.6263281 L86.5632431,98.6263281 C86.6440678,98.6263281 86.7046863,98.6263281 86.785511,98.6263281 C86.8259233,98.6263281 86.8663357,98.6263281 86.906748,98.6263281 C86.9673666,98.6263281 87.0481912,98.6263281 87.1088098,98.6263281 C87.1492221,98.6263281 87.1896345,98.6263281 87.2300468,98.6263281 C87.2906653,98.6263281 87.3512838,98.6263281 87.4119024,98.6061219 C87.4523147,98.6061219 87.5129332,98.6061219 87.5533456,98.5859158 C87.8564381,98.5657096 88.1393246,98.5252972 88.422211,98.4848849 C88.4626233,98.4848849 88.5232418,98.4646787 88.5636542,98.4646787 C88.6040665,98.4646787 88.6444789,98.4444726 88.6848912,98.4444726 C88.7253036,98.4444726 88.7859221,98.4242664 88.8263344,98.4242664 C88.8667468,98.4242664 88.9071591,98.4040602 88.9475715,98.4040602 C88.9879838,98.4040602 89.0283962,98.383854 89.0486023,98.383854 C89.0688085,98.383854 89.1092208,98.3636479 89.129427,98.3636479 C89.1698394,98.3636479 89.2304579,98.3434417 89.2708702,98.3232355 C89.6143752,98.2424108 89.9578801,98.14138 90.2811789,98.0403491 C90.3215912,98.0201429 90.3620035,98.0201429 90.4024159,97.9999368 C90.4428282,97.9797306 90.4630344,97.9797306 90.5034467,97.9595244 C90.5438591,97.9393182 90.5842714,97.9393182 90.6246838,97.9191121 C90.7863332,97.8584935 90.9479825,97.797875 91.0894258,97.7372565 C91.1298381,97.7170503 91.1500443,97.7170503 91.1904566,97.6968442 C91.2914875,97.6564318 91.3925183,97.5958133 91.4935492,97.555401 C91.5339615,97.5351948 91.5743739,97.5149886 91.6147862,97.4947824 C91.6551986,97.4745763 91.6956109,97.4543701 91.7360233,97.4341639 C91.7966418,97.4139578 91.8572603,97.3735454 91.9178788,97.3533392 C91.9784973,97.3129269 92.059322,97.2725145 92.1199406,97.2321022 C92.2007652,97.1916899 92.3017961,97.1310713 92.3826208,97.090659 C92.4230331,97.0704528 92.4634455,97.0502466 92.5038578,97.0098343 C92.5846825,96.969422 92.6655072,96.9088034 92.7463319,96.8683911 C92.7867442,96.8481849 92.8271566,96.8279788 92.8675689,96.7875664 C92.9079813,96.7673602 92.9483936,96.7269479 92.988806,96.7067417 C93.0494245,96.6663294 93.110043,96.625917 93.1908677,96.5652985 C93.2110739,96.5652985 93.2110739,96.5450923 93.23128,96.5450923 C93.3121047,96.4844738 93.3727232,96.4440615 93.4535479,96.383443 C93.4535479,96.383443 93.4535479,96.383443 93.4535479,96.383443 C93.5343726,96.3228244 93.5949911,96.2622059 93.6758158,96.2217936 C93.696022,96.2015874 93.7364344,96.1813812 93.7566405,96.1611751 C93.7970529,96.1207627 93.8374652,96.1005565 93.8778776,96.0601442 C93.9182899,96.039938 93.9587023,95.9995257 93.9789084,95.9793195 C94.0193208,95.9591133 94.0597331,95.918701 94.0799393,95.8782886 C94.1203516,95.8378763 94.1405578,95.8176701 94.1809701,95.7772578 C94.5042689,95.4943714 94.7871553,95.2114849 95.0700417,94.8881862 C95.1104541,94.8477738 95.1306603,94.8275677 95.1710726,94.7871553 C95.2316911,94.7265368 95.2923096,94.6457121 95.3529282,94.5850936 C95.4135467,94.5042689 95.4943714,94.4234442 95.5549899,94.3426195 C96.1409689,93.6151973 96.625917,92.8473628 97.0300405,91.9987035 C97.0502466,91.9582912 97.0704528,91.9178788 97.090659,91.8774665 C97.211896,91.5945801 97.3331331,91.3116937 97.4543701,91.0288072 C97.4745763,90.9883949 97.4745763,90.9479825 97.4947824,90.9075702 C97.5351948,90.8065393 97.5756071,90.6853023 97.5958133,90.5842714 C97.6362257,90.4630344 97.676638,90.3215912 97.7170503,90.2003542 C97.7574627,90.058911 97.797875,89.9174677 97.8382874,89.7760245 C97.8584935,89.7356122 97.8584935,89.6951998 97.8786997,89.6345813 C97.9191121,89.4527258 97.9595244,89.2708702 97.9999368,89.0890147 C98.0201429,89.00819 98.0201429,88.9273653 98.0403491,88.8667468 C98.0403491,88.8263344 98.0605553,88.7859221 98.0605553,88.7455097 C98.0605553,88.7050974 98.0807614,88.664685 98.0807614,88.6242727 C98.0807614,88.6040665 98.0807614,88.5636542 98.1009676,88.543448 C98.1009676,88.5030357 98.1211738,88.4424172 98.1211738,88.4020048 C98.1211738,88.3817986 98.1211738,88.3615925 98.1211738,88.3413863 C98.1211738,88.3211801 98.1211738,88.2807678 98.1211738,88.2605616 C98.1211738,88.1797369 98.14138,88.078706 98.14138,87.9978814 C98.14138,87.957469 98.14138,87.8968505 98.1615861,87.8564381 C98.1615861,87.8160258 98.1615861,87.7554073 98.1615861,87.7149949 C98.1615861,87.6139641 98.1817923,87.5331394 98.1817923,87.4321085 C98.1817923,87.3916962 98.1817923,87.3512838 98.1817923,87.3108715 C98.2222047,85.4519036 97.8180812,83.5323172 96.8683911,81.7137617 L100.283234,87.1694283 Z" id="Shape" fill="#C7DCE0"></path>
                        <path d="M96.8885973,81.6935555 C97.8382874,83.5121111 98.2424108,85.4316974 98.2019985,87.2906653 C98.2019985,87.3310777 98.2019985,87.37149 98.2019985,87.4119024 C98.2019985,87.5129332 98.2019985,87.5937579 98.1817923,87.6947888 C98.1817923,87.7352011 98.1817923,87.7958196 98.1817923,87.836232 C98.1817923,87.8766443 98.1817923,87.9372628 98.1615861,87.9776752 C98.1615861,88.0584999 98.14138,88.1595307 98.14138,88.2403554 C98.14138,88.2605616 98.14138,88.3009739 98.14138,88.3211801 C98.14138,88.3413863 98.14138,88.3615925 98.14138,88.3817986 C98.14138,88.422211 98.1211738,88.4828295 98.1211738,88.5232418 C98.1211738,88.543448 98.1211738,88.5838604 98.1009676,88.6040665 C98.1009676,88.6444789 98.0807614,88.6848912 98.0807614,88.7253036 C98.0807614,88.7657159 98.0605553,88.8061283 98.0605553,88.8465406 C98.0403491,88.9273653 98.0403491,89.00819 98.0201429,89.0688085 C97.9797306,89.2506641 97.9393182,89.4325196 97.8989059,89.6143752 C97.8786997,89.6547875 97.8786997,89.6951998 97.8584935,89.7558184 C97.8180812,89.8972616 97.7776689,90.0387048 97.7372565,90.180148 C97.6968442,90.301385 97.6564318,90.4428282 97.6160195,90.5640653 C97.5756071,90.6650961 97.5351948,90.7863332 97.5149886,90.887364 C97.4947824,90.9277764 97.4947824,90.9681887 97.4745763,91.0086011 C97.3735454,91.2914875 97.2523084,91.5945801 97.1108652,91.8572603 C97.090659,91.8976727 97.0704528,91.938085 97.0502466,91.9784973 C96.6461232,92.8069504 96.1611751,93.5949911 95.5751961,94.3224134 L90.5842714,87.2704591 C97.2927207,86.0580888 90.4630344,73.8737668 88.3009739,68.0948014 L94.5042689,77.8543827 L94.5244751,77.8947951 L96.8885973,81.6935555 Z" id="Shape" fill="#C7DCE0"></path>
                        <path d="M90.6044776,87.2906653 L95.5954022,94.3426195 L83.4110802,84.8659246 C82.4209777,82.7442765 77.066342,71.3682014 76.7430433,70.8226347 L81.6531432,74.6416013 L90.6044776,87.2906653 Z" id="Shape" fill="#C7DCE0"></path>
                        <path d="M64.1950101,75.6923223 C65.7104731,79.167784 65.0234632,83.0271629 62.7603719,85.7752024 L62.7401657,85.7752024 C62.8209904,84.3001518 62.5583101,82.804895 61.9117126,81.3702568 L55.9104794,67.7310903 L51.7480078,58.2543954 L55.1426448,59.7496522 L62.7199595,76.9653112 C62.7199595,76.9653112 63.1038768,77.6321148 63.710062,77.3492284 C64.3364533,77.0865482 64.5587212,76.5813939 64.1950101,75.6923223 Z" id="Shape" fill="#C7DCE0"></path>
                        <path d="M61.9319188,81.3702568 C62.5583101,82.804895 62.8209904,84.3001518 62.7603719,85.7752024 C62.7603719,85.7752024 62.7603719,85.7752024 62.7603719,85.7752024 C62.7603719,85.8156147 62.7603719,85.8762332 62.7603719,85.9166456 C62.7603719,85.9570579 62.7603719,85.9772641 62.7603719,86.0176764 C62.7603719,86.0580888 62.7603719,86.1187073 62.7401657,86.1591197 C62.7401657,86.199532 62.7401657,86.2601505 62.7199595,86.3005629 C62.7199595,86.3409752 62.6997534,86.4015937 62.6997534,86.4420061 C62.6997534,86.4824184 62.6795472,86.5430369 62.6795472,86.5834493 C62.6795472,86.5834493 62.6795472,86.5834493 62.6795472,86.5834493 C62.6795472,86.6238616 62.659341,86.664274 62.659341,86.7046863 C62.659341,86.7248925 62.659341,86.7450987 62.659341,86.7653048 C62.659341,86.8057172 62.6391348,86.8461295 62.6391348,86.8865419 C62.6391348,86.8865419 62.6391348,86.8865419 62.6391348,86.906748 C62.6391348,86.9673666 62.6189287,87.0077789 62.6189287,87.0683974 C62.6189287,87.1290159 62.5987225,87.1694283 62.5785163,87.2300468 C62.5583101,87.2906653 62.5583101,87.3310777 62.538104,87.3916962 C62.5178978,87.4523147 62.5178978,87.492727 62.4976916,87.5533456 C62.4774855,87.6139641 62.4774855,87.6543764 62.4572793,87.7149949 C62.4370731,87.7756135 62.4370731,87.8160258 62.4168669,87.8766443 C62.3966608,87.9372628 62.3966608,87.9776752 62.3764546,88.0382937 C62.3360422,88.1393246 62.3158361,88.2403554 62.2754237,88.3615925 C62.2350114,88.4626233 62.2148052,88.543448 62.1743929,88.6444789 C62.073362,88.9071591 61.9723311,89.1698394 61.8510941,89.4325196 C61.8308879,89.472932 61.8106818,89.5133443 61.7904756,89.5335505 C61.7702694,89.5739628 61.7500632,89.594169 61.7500632,89.6345813 C61.7298571,89.6749937 61.7096509,89.715406 61.6894447,89.7558184 C61.6894447,89.7558184 61.6894447,89.7760245 61.6894447,89.7760245 C61.6692386,89.8164369 61.6490324,89.8770554 61.60862,89.9174677 C61.5884139,89.9578801 61.5480015,90.0184986 61.5277953,90.058911 C61.5277953,90.058911 61.5277953,90.0791171 61.5075892,90.0791171 C61.487383,90.1195295 61.4671768,90.1599418 61.4267645,90.2003542 C61.4267645,90.2003542 61.4267645,90.2205603 61.4065583,90.2205603 C61.3863521,90.2609727 61.366146,90.301385 61.3257336,90.3417974 C61.2651151,90.4630344 61.1842904,90.5640653 61.1236719,90.6650961 C61.1034657,90.7055085 61.0832595,90.7257146 61.0630534,90.766127 C61.0630534,90.7863332 61.0428472,90.7863332 61.0428472,90.8065393 C61.022641,90.8469517 61.0024349,90.8671579 60.9822287,90.9075702 C60.901404,91.0086011 60.8205793,91.1096319 60.7599608,91.230869 C60.7195484,91.2712813 60.6791361,91.3318998 60.6589299,91.3723122 C60.5781052,91.4531369 60.5174867,91.5541677 60.436662,91.6349924 C60.3962497,91.6754048 60.3558373,91.7158171 60.315425,91.7562294 C60.1133633,91.9784973 59.8910954,92.2007652 59.6688275,92.4230331 C59.6486213,92.4432393 59.608209,92.4836517 59.5677966,92.5038578 C59.5273843,92.524064 59.5071781,92.5644763 59.4667657,92.5846825 C59.4263534,92.6048887 59.4061472,92.645301 59.3657349,92.6655072 C59.2849102,92.7261257 59.2040855,92.8069504 59.1232608,92.8675689 C59.0828485,92.8877751 59.0626423,92.9079813 59.02223,92.9483936 C59.02223,92.9483936 59.02223,92.9483936 59.0020238,92.9685998 C58.9616114,93.0090121 58.9211991,93.0292183 58.8605806,93.0696307 C58.8201682,93.110043 58.7595497,93.1302492 58.7191374,93.1706615 C58.678725,93.2110739 58.6383127,93.23128 58.5776942,93.2716924 C58.4766633,93.3525171 58.3756324,93.4131356 58.2746016,93.4737541 C58.2341892,93.4939603 58.1937769,93.5141665 58.1533645,93.5545788 C57.9917152,93.6556097 57.8098596,93.7566405 57.6482102,93.8576714 C57.5875917,93.8778776 57.5471794,93.9182899 57.4865608,93.9384961 C57.3249115,94.0193208 57.1632621,94.1001455 56.9814065,94.1809701 L52.0915128,83.1079876 L58.5776942,85.1892234 L58.6383127,85.0073678 C59.0828485,83.6333481 59.2040855,82.218916 59.02223,80.8651025 C59.1030546,78.1978877 57.7492411,71.8733557 55.9306856,67.7108841 L61.9319188,81.3702568 Z" id="Shape" fill="#C7DCE0"></path>
                        <path d="M59.02223,80.8853086 C59.2040855,82.2391222 59.0828485,83.6333481 58.6383127,85.027574 L58.5776942,85.2094295 C58.6181065,82.683658 56.1731596,78.7434543 53.3645016,78.2180939 L43.9080129,78.2180939 L39.9071907,74.257684 L50.3941943,74.257684 C50.3941943,73.5706742 50.3133696,72.8836643 50.1921326,72.2370668 L52.5158424,73.0655199 C56.1327473,74.2172717 58.5776942,77.3492284 59.02223,80.8853086 Z" id="Shape" fill="#C7DCE0"></path>
                        <path d="M51.303472,40.1092525 L52.1319251,40.9377055 C41.2407981,43.3018277 29.2585378,37.7451303 25.298128,29.399981 C30.7942069,34.89606 38.6948204,36.5125538 45.6053314,34.2696686 L51.303472,40.1092525 Z" id="Shape" fill="#C7DCE0"></path>
                        <path d="M43.0593537,61.9319188 L44.5748166,65.346762 C43.3826524,64.8214015 42.0692512,64.5385151 40.6952315,64.5385151 L40.3113142,64.5385151 L31.2791551,55.5871806 L43.0593537,61.9319188 Z" id="Shape" fill="#C7DCE0"></path>
                        <polygon id="Shape" fill="#C7DCE0" points="26.9146218 11.1740134 16.4276183 30.6325576 11.6589615 26.1871996"></polygon>
                        <path d="M88.0584999,113.013123 C86.2399443,113.881988 84.3607703,114.649823 82.4209777,115.29642 C84.8659246,117.801986 87.7756135,119.842809 91.0490134,121.237035 C93.1706615,120.246933 95.2316911,119.135593 97.1916899,117.903017 C93.817259,116.892708 90.7257146,115.215596 88.0584999,113.013123 Z" id="Shape" fill="#DD1372"></path>
                        <path d="M20.731533,66.2560397 C20.9335947,64.0737731 21.2770997,61.9319188 21.7620478,59.8304769 L20.2465849,58.3150139 L18.3269985,44.392961 C16.8721541,47.1207943 15.6395775,49.9900708 14.6494751,52.9603782 L15.8012269,61.366146 L20.731533,66.2560397 Z" id="Shape" fill="#DD1372"></path>
                        <g id="Group" transform="translate(16.367000, 11.113395)" fill="#F5F6FA">
                            <path d="M70.1962434,87.5331394 C73.9747976,87.5331394 77.1471667,85.8156147 79.2284025,83.2292246 C79.4708765,82.9261321 79.7133506,82.5826271 79.9356185,82.2593284 C75.7933531,90.0993233 61.1640842,90.4024159 59.5880028,90.4024159 C58.0119213,90.4024159 51.1216165,90.2407665 49.1818239,93.1504554 L49.1616178,93.1504554 C49.6263597,92.059322 50.2931634,91.0692196 51.1216165,90.2407665 C52.7987288,88.5636542 55.1022325,87.5331394 57.6684164,87.5331394 L70.1962434,87.5331394 Z" id="Shape"></path>
                            <path d="M61.9117126,60.901404 L60.3760435,59.7092398 L58.7797559,58.4564571 C54.7385214,55.3245004 54.0110992,49.5051227 57.1430559,45.4840944 L59.5880028,47.3834746 C56.5974892,50.3739881 58.2948077,57.4057361 61.9117126,60.901404 Z" id="Shape"></path>
                            <path d="M70.1356248,36.8762649 L71.9541804,39.7455414 C69.7719137,41.1397673 66.7814002,47.4845054 69.0040792,52.354193 L67.2865545,49.6465659 C65.0840817,46.1711042 65.4882052,41.806571 67.9735644,38.7958513 C68.5595434,38.068429 69.2869656,37.4016253 70.1356248,36.8762649 Z" id="Shape"></path>
                            <path d="M64.7001644,48.6160511 L60.5174867,44.392961 C56.920788,40.7760562 56.9409942,34.9162661 60.5578991,31.3195674 L62.9422274,33.7241019 C59.8304769,36.1690488 60.7397546,44.6152289 64.7001644,48.6160511 Z" id="Shape"></path>
                            <path d="M8.93112826,18.3067923 C12.3661776,21.2366873 28.8544144,21.8226663 33.3199785,21.3377182 C25.6214268,25.9245194 15.5385467,24.9142107 8.93112826,18.3067923 Z" id="Shape"></path>
                            <path d="M37.0177081,19.7010182 L47.1612067,29.8445168 C46.7368771,30.2688464 46.2721351,30.6325576 45.7871869,30.9356501 L25.0152416,10.5678282 C20.0849355,10.3657665 14.2655578,4.04123451 10.5476221,0.0606185176 C18.6705034,8.18349987 23.0350367,5.738553 23.0350367,5.738553 L37.0177081,19.7010182 Z" id="Shape"></path>
                            <polygon id="Shape" points="10.5476221 47.1410005 25.7426638 63.1442891 23.540191 63.1442891 19.9434923 63.1442891 3.87958513 47.2218252 0.0606185176 19.5191627 6.89030483 25.2577157"></polygon>
                        </g>
                        <g id="Group" fill="#066695">
                            <path d="M9.31504554,29.0766823 C9.15339615,29.0766823 9.01195295,29.0160637 8.89071591,28.8948267 L0.202061725,20.2061725 C-0.0404123451,19.9636985 -0.0404123451,19.5797812 0.202061725,19.3575133 C0.444535796,19.1150392 0.828453074,19.1150392 1.05072097,19.3575133 L9.31504554,27.6218378 L28.4300847,8.80989122 L20.85277,1.15175183 C20.610296,0.909277764 20.6305022,0.525360486 20.85277,0.303092588 C21.0952441,0.0606185176 21.4791614,0.0808246901 21.7014293,0.303092588 L29.7030736,8.3855616 C29.8243107,8.50679863 29.8849292,8.64824184 29.8849292,8.80989122 C29.8849292,8.9715406 29.8243107,9.13318998 29.7030736,9.23422084 L9.71916899,28.8948267 C9.61813812,29.0362699 9.47669492,29.0766823 9.31504554,29.0766823 Z" id="Shape"></path>
                            <path d="M57.8300658,43.9080129 C55.5265621,43.9080129 53.3442955,42.9987351 51.7075955,41.3822413 L50.8791424,40.5537883 L45.3628573,34.9364723 C45.1203833,34.6939982 45.1405894,34.310081 45.3628573,34.0878131 C45.6053314,33.845339 45.9892487,33.8655452 46.2115166,34.0878131 L51.7075955,39.705129 L52.5360486,40.5335821 C53.9504806,41.9480142 55.8094485,42.7158487 57.8098596,42.7158487 C59.5880028,42.7158487 61.2853213,42.0894574 62.6391348,40.9377055 L39.2605932,17.5591639 C37.9067797,18.0036997 33.4816279,18.6098849 26.4902922,11.598343 C26.2478181,11.355869 26.2478181,10.9719517 26.4902922,10.7496838 C26.7327663,10.5072097 27.1166835,10.5072097 27.3389514,10.7496838 C29.5616304,12.9723628 32.8956489,15.7406084 36.189255,16.4478244 C38.0482229,16.8317417 39.0585315,16.3669997 39.11915,16.3265874 C39.3616241,16.1851442 39.6445105,16.2255565 39.8465722,16.4276183 L63.952536,40.5335821 C64.1950101,40.7760562 64.1950101,41.1599734 63.952536,41.3822413 C62.3158361,42.9987351 60.1335694,43.9080129 57.8300658,43.9080129 Z" id="Shape"></path>
                            <path d="M50.4144005,74.8638692 L36.310492,74.8638692 C36.1488427,74.8638692 36.0073994,74.8032507 35.8861624,74.6820137 L19.8222552,58.7595497 C19.7212244,58.6585188 19.6606059,58.5372818 19.6403997,58.4160448 L15.8416393,30.9356501 L11.2346319,26.6317354 C10.9921579,26.4094675 10.9719517,26.0255502 11.2144258,25.7830761 C11.4366937,25.5406021 11.8206109,25.5203959 12.063085,25.76287 L16.8317417,30.2082279 C16.9327726,30.3092588 16.9933911,30.4304958 17.0135973,30.571939 L20.8123577,58.0725398 L36.5529661,73.671705 L49.7880091,73.671705 C49.4849165,68.9232545 45.5245067,65.1649064 40.6952315,65.1649064 L40.3113142,65.1649064 C40.1496648,65.1649064 40.0082216,65.1042879 39.8869846,64.9830508 L30.8548254,56.0317164 C30.6123514,55.7892423 30.6123514,55.4053251 30.8548254,55.1830572 C31.0972995,54.9405831 31.4812168,54.9405831 31.7034847,55.1830572 L40.5537883,63.952536 L40.6952315,63.952536 C46.3933721,63.952536 51.0205856,68.5797496 51.0205856,74.2778902 C51.0205856,74.5809828 50.7376992,74.8638692 50.4144005,74.8638692 Z" id="Shape"></path>
                            <path d="M58.5776942,85.8156147 C58.5170756,85.8156147 58.4564571,85.8156147 58.3958386,85.7954086 L47.1410005,82.1785037 C47.0601758,82.1582975 46.959145,82.097679 46.8985264,82.0370605 L39.5030673,74.7022198 C39.2605932,74.4597458 39.2605932,74.0758285 39.5030673,73.8535606 C39.7455414,73.6312927 40.1092525,73.6110865 40.3517265,73.8535606 L47.6461548,81.0873704 L58.1735707,84.4820073 C58.7797559,82.340153 58.5372818,80.0770617 57.5269732,78.0766506 C56.4358399,75.9550025 54.5970782,74.3991272 52.3339868,73.671705 C52.0106881,73.5706742 51.8490387,73.2271692 51.9500696,72.9038705 C52.0511004,72.5805717 52.3946054,72.4189223 52.7179041,72.5199532 C55.284088,73.3484063 57.38553,75.1265495 58.6181065,77.531084 C59.850683,79.9356185 60.0729509,82.6634518 59.2242917,85.2296357 L59.1636732,85.4114913 C59.0626423,85.6539653 58.8201682,85.8156147 58.5776942,85.8156147 Z" id="Shape"></path>
                            <path d="M56.9612004,94.7871553 C56.7389325,94.7871553 56.5166646,94.6457121 56.4156337,94.4234442 L51.5257399,83.3504617 C51.3842967,83.0473691 51.5257399,82.683658 51.8288325,82.5624209 C52.1319251,82.4209777 52.4956362,82.5624209 52.6168733,82.8655135 L57.2642929,93.3525171 C61.487383,91.1500443 63.3261447,85.9974703 61.366146,81.5925247 L51.2024412,58.4766633 C51.060998,58.1735707 51.2024412,57.8098596 51.5055338,57.6886226 C51.8086264,57.5471794 52.1723375,57.6886226 52.2935745,57.9917152 L62.4572793,81.1075765 C64.7607829,86.3005629 62.3966608,92.4230331 57.1834683,94.7063306 C57.1430559,94.7669492 57.0622312,94.7871553 56.9612004,94.7871553 Z" id="Shape"></path>
                            <path d="M62.7603719,86.3813876 C62.6189287,86.3813876 62.4976916,86.3409752 62.3764546,86.2399443 C62.1137743,86.0176764 62.0935682,85.6539653 62.2956299,85.3912851 C63.366557,84.0980901 64.0535669,82.5422148 64.296041,80.9055148 C64.5385151,79.2081963 64.3162472,77.4704655 63.6090311,75.894384 L54.2939856,54.9001708 C54.2737794,54.8597584 54.2535732,54.8193461 54.2535732,54.7789337 L51.5257399,41.0791487 C51.4651214,40.75585 51.6671832,40.4325512 51.9904819,40.3719327 C52.3137807,40.3113142 52.6370794,40.5133759 52.697698,40.8366747 L55.4053251,54.455635 L64.6799583,75.3892297 C65.467999,77.1875791 65.7306792,79.1475778 65.4477928,81.0671642 C65.1649064,82.9463382 64.3768657,84.7042752 63.1847015,86.1591197 C63.1038768,86.3005629 62.9422274,86.3813876 62.7603719,86.3813876 Z" id="Shape"></path>
                            <path d="M39.4020364,35.8659562 C38.6139957,35.8659562 37.8057488,35.8255439 37.0177081,35.724513 C34.7748229,35.4618328 32.5925563,34.8354414 30.5517329,33.8655452 C28.4502909,32.8552365 26.5307045,31.501423 24.8737984,29.8445168 C24.6313243,29.6020428 24.6313243,29.2181255 24.8737984,28.9958576 C25.1162725,28.7533835 25.5001897,28.7533835 25.7224576,28.9958576 C27.2985391,30.571939 29.0968884,31.8449279 31.0770933,32.794618 C32.9966797,33.7038958 35.0375032,34.2898748 37.1591513,34.552555 C41.4024475,35.0577093 45.7265684,34.1282254 49.3636795,31.9459588 C49.6465659,31.7843094 50.010277,31.8651341 50.1921326,32.1480205 C50.3537819,32.4309069 50.2729572,32.794618 49.9900708,32.9764736 C46.7974956,34.8556476 43.099766,35.8659562 39.4020364,35.8659562 Z" id="Shape"></path>
                            <path d="M44.5748166,65.9529471 C44.3525487,65.9529471 44.1302808,65.8115039 44.0292499,65.589236 L41.5640969,60.0123324 C41.4226537,59.7092398 41.5640969,59.3455287 41.8671895,59.2242917 C42.1702821,59.0828485 42.5339932,59.2242917 42.6552302,59.5273843 L45.1203833,65.1042879 C45.2618265,65.4073805 45.1203833,65.7710916 44.8172907,65.8923286 C44.736466,65.932741 44.6556413,65.9529471 44.5748166,65.9529471 Z" id="Shape"></path>
                        </g>
                        <g id="Group" transform="translate(64.053567, 41.826777)" fill="#066695">
                            <path d="M70.5801606,75.8337655 C70.4387174,75.8337655 70.2972742,75.773147 70.1760372,75.6721161 L60.0527448,66.4985138 C60.0123324,66.4581014 59.9719201,66.4176891 59.9517139,66.3772768 L22.2874083,7.01154187 C20.610296,8.24411839 19.438338,10.0222616 18.973596,12.0832912 C18.4684417,14.3463825 18.8725651,16.6498862 20.1051417,18.6098849 L32.8350304,38.6746142 C34.0676069,40.6144068 34.7344106,42.8168796 34.7546167,45.0395586 C34.7748229,47.1410005 34.2494624,49.2424424 33.2189476,51.1014103 C32.1884328,52.9603782 30.7133822,54.5364597 28.9150329,55.6477991 C27.0156527,56.8197571 24.8131799,57.4461485 22.5096762,57.4461485 L9.96164306,57.4461485 C5.39504806,57.4461485 1.65690615,61.0024349 1.33360739,65.4882052 L19.1958639,65.4882052 C19.5191627,65.4882052 19.8020491,65.7508854 19.8020491,66.0943903 C19.8020491,66.4378953 19.5393688,66.7005755 19.1958639,66.7005755 L0.707216038,66.7005755 C0.383917278,66.7005755 0.101030863,66.4378953 0.101030863,66.0943903 C0.101030863,60.6589299 4.52618265,56.2539843 9.94143688,56.2539843 L22.48947,56.2539843 C26.5711169,56.2539843 30.1678156,54.11213 32.1278143,50.5558437 C34.0878131,46.9793511 33.966576,42.7966734 31.7843094,39.3616241 L19.0544207,19.2968948 C17.6399886,17.0742158 17.1752466,14.4474134 17.7612257,11.8610233 C18.3269985,9.29483936 19.8828738,7.11257273 22.1055527,5.69814065 C22.3884392,5.5162851 22.7521503,5.59710979 22.9340058,5.87999621 L60.901404,65.7104731 L70.9640779,74.8234569 C71.206552,75.0457248 71.2267582,75.429642 71.0044903,75.6721161 C70.9034594,75.7529408 70.74181,75.8337655 70.5801606,75.8337655 Z" id="Shape"></path>
                            <path d="M60.8811978,93.5141665 C60.7397546,93.5141665 60.5781052,93.4535479 60.4770744,93.3525171 L43.9484252,77.8543827 L40.9377055,77.8543827 C36.5125538,77.8543827 32.1278143,76.7834556 28.2482292,74.722426 C24.4898811,72.7422211 21.196275,69.8729446 18.7311219,66.3974829 C18.5290602,66.1348027 18.6098849,65.7508854 18.8725651,65.5488237 C19.1352454,65.346762 19.5191627,65.4275866 19.7212244,65.6902669 C22.0853466,69.0040792 25.2375095,71.7521186 28.8342082,73.6514989 C32.5521439,75.6114976 36.7348217,76.6420124 40.9579117,76.6420124 L44.2111055,76.6420124 C44.3727549,76.6420124 44.5141981,76.7026309 44.6152289,76.8036618 L61.3257336,92.4634455 C61.5682077,92.6857134 61.5884139,93.0696307 61.3459398,93.3121047 C61.2044966,93.4535479 61.0428472,93.5141665 60.8811978,93.5141665 Z" id="Shape"></path>
                            <path d="M22.4086453,23.9443144 C22.246996,23.9443144 22.1055527,23.8836959 21.9843157,23.7624589 L12.4065899,14.1241146 C10.5476221,12.2651467 9.53731343,9.7797875 9.53731343,7.15298507 C9.53731343,4.52618265 10.5880344,2.0610296 12.4470023,0.202061725 C12.6894763,-0.0404123451 13.0733936,-0.0404123451 13.2956615,0.202061725 L20.6911207,7.65813939 C20.9335947,7.90061346 20.9335947,8.28453074 20.6911207,8.50679863 C20.4486466,8.7492727 20.0647293,8.7492727 19.8424614,8.50679863 L12.8915381,1.49525677 C11.5175183,3.07133822 10.7496838,5.05154313 10.7496838,7.15298507 C10.7496838,9.45648874 11.6387554,11.6387554 13.2552492,13.2754554 L22.832975,22.9137996 C23.075449,23.1562737 23.075449,23.540191 22.832975,23.7624589 C22.7117379,23.8836959 22.5500885,23.9443144 22.4086453,23.9443144 Z" id="Shape"></path>
                            <path d="M31.5418353,53.1220276 C31.3599798,53.1220276 31.157918,53.0412029 31.0568872,52.8593473 L17.1550405,33.2189476 L10.7092714,28.2078168 C8.62803567,26.591323 7.31463445,24.2676132 6.97112952,21.6610169 C6.64783076,19.0544207 7.3550468,16.4680306 8.9715406,14.3867948 C9.17360233,14.1241146 9.55751961,14.0837023 9.82019985,14.285764 L24.6313243,25.8032823 C24.8940046,26.005344 24.9344169,26.3892613 24.7323552,26.6519416 C24.5302934,26.9146218 24.1463762,26.9550342 23.8836959,26.7529724 L9.55751961,15.6193714 C8.3855616,17.3571022 7.90061346,19.4181318 8.1632937,21.5195737 C8.44618012,23.8028712 9.61813812,25.8436947 11.4366937,27.2783329 L17.9632874,32.3500822 C18.0036997,32.3904946 18.0441121,32.4309069 18.0845244,32.4713193 L32.0267835,52.1723375 C32.2288452,52.4350177 32.1480205,52.818935 31.8853402,53.0209967 C31.7843094,53.0816152 31.6630724,53.1220276 31.5418353,53.1220276 Z" id="Shape"></path>
                            <path d="M31.5418353,53.1220276 C31.4205983,53.1220276 31.2791551,53.0816152 31.1781242,53.0007905 L14.9525677,40.3921389 C14.9525677,40.3921389 14.9525677,40.3921389 14.9525677,40.3921389 C11.4973122,37.6036871 10.3455603,32.8148242 12.1237035,28.7735897 C12.2651467,28.4704971 12.6086517,28.3290539 12.9117442,28.4704971 C13.2148368,28.6119403 13.35628,28.9554452 13.2148368,29.2585378 C11.6387554,32.8148242 12.6692702,37.0177081 15.6799899,39.4626549 L31.8853402,52.0713066 C32.1480205,52.2733683 32.1884328,52.6572856 31.9863711,52.9199658 C31.9055464,53.0412029 31.7236909,53.1220276 31.5418353,53.1220276 Z" id="Shape"></path>
                        </g>
                    </g>
                </g>
            </g>
        </g>
    </g>
</svg>