<?xml version="1.0" encoding="UTF-8" standalone="no"?>
<svg width="118px" height="118px" viewBox="0 0 118 118" version="1.1" xmlns="http://www.w3.org/2000/svg" xmlns:xlink="http://www.w3.org/1999/xlink">
    <!-- Generator: sketchtool 49.3 (51167) - http://www.bohemiancoding.com/sketch -->
    <title>7568512A-F628-4647-A76E-E606AE9705A9</title>
    <desc>Created with sketchtool.</desc>
    <defs></defs>
    <g id="Welcome" stroke="none" stroke-width="1" fill="none" fill-rule="evenodd">
        <g id="homepage-mobile" transform="translate(-101.000000, -1917.000000)" fill-rule="nonzero">
            <g id="how-section" transform="translate(8.000000, 865.000000)">
                <g id="Group-5" transform="translate(46.000000, 1028.000000)">
                    <g id="Online-Workshops-symbol" transform="translate(47.000000, 24.000000)">
                        <polygon id="Shape" fill="#2E96D3" points="117.041335 109.70435 117.041335 116.975631 0.832255003 116.975631 0.832255003 109.70435 44.4161354 109.70435 62.0468006 109.70435 63.9522265 109.70435 66.2080756 109.70435 70.4131535 109.70435 73.4574547 109.70435"></polygon>
                        <polygon id="Shape" fill="#D8EAF3" points="66.2080756 91.7451633 73.4574547 109.70435 70.4131535 109.70435 66.2080756 109.70435 63.9522265 109.70435 62.0468006 109.70435 44.4161354 109.70435 51.687416 91.7451633"></polygon>
                        <path d="M58.6739777,47.088112 C58.6739777,49.584877 56.6590445,51.5998102 54.1622795,51.5998102 L51.687416,51.5998102 L51.687416,44.3285296 L61.2145456,44.3285296 C61.2145456,45.0950803 60.9079253,45.7740252 60.404192,46.2777584 C59.9442616,46.7376888 59.3529226,47.0443091 58.6739777,47.088112 Z" id="Shape" fill="#D8EAF3"></path>
                        <path d="M95.2493949,22.5584909 L95.2493949,66.1423713 L34.0567508,66.1423713 L34.0567508,51.6217116 L51.6655145,51.6217116 L54.1622795,51.6217116 C56.6590445,51.6217116 58.6739777,49.6067785 58.6739777,47.1100134 C59.3529226,47.0443091 59.9442616,46.7595903 60.404192,46.3215613 C60.9079253,45.817828 61.2145456,45.1388832 61.2145456,44.3723325 L51.687416,44.3723325 L27.8148383,44.3723325 C27.8148383,44.2847267 27.8148383,44.2190224 27.8148383,44.1314166 L27.8148383,40.8461995 L27.8148383,40.824298 C29.0413193,40.3643676 30.1363917,39.6416199 31.034351,38.7436605 C32.698861,37.0791505 33.7282291,34.7794985 33.7282291,32.2608321 L33.7282291,25.7999051 L33.7282291,25.6246935 L33.7282291,22.5584909 L95.2493949,22.5584909 Z M87.9781144,37.0791505 L87.9781144,29.80787 L66.1861742,29.80787 L66.1861742,37.0791505 L87.9781144,37.0791505 Z M58.9367951,37.0791505 L58.9367951,29.80787 L44.4161354,29.80787 L44.4161354,37.0791505 L58.9367951,37.0791505 Z" id="Shape" fill="#F5F6FA"></path>
                        <rect id="Rectangle-path" fill="#D8EAF3" x="44.4161354" y="29.8297714" width="14.5206597" height="7.27128055"></rect>
                        <path d="M34.0567508,51.5998102 L34.0567508,66.1204698 L34.0567508,80.6411295 L15.3529147,80.6411295 L15.3091118,80.6411295 C11.3230483,80.6411295 8.08163411,77.3997153 8.08163411,73.4136518 L8.08163411,61.6306731 L8.08163411,56.3962272 C8.08163411,49.7381871 13.4912916,44.3285296 20.1493316,44.3285296 L21.244404,44.3285296 C21.3101084,45.1388832 21.6605315,45.8616309 22.1861663,46.3872657 C22.7775053,46.9786048 23.5878589,47.3509294 24.5077197,47.3509294 C26.237934,47.3509294 27.6396267,46.0149411 27.7710354,44.3285296 L51.687416,44.3285296 L51.687416,51.5998102 L34.0567508,51.5998102 Z" id="Shape" fill="#ED1E7A"></path>
                        <path d="M27.8148383,40.824298 L27.8148383,44.1095151 C27.8148383,44.1971209 27.8148383,44.2847267 27.8148383,44.3504311 C27.6834296,46.0368425 26.2817369,47.3728308 24.5515226,47.3728308 C23.6535632,47.3728308 22.8213082,47.0005062 22.2299692,46.4091671 C21.682433,45.8616309 21.3320098,45.1388832 21.2882069,44.3504311 C21.2882069,44.2628253 21.2882069,44.1971209 21.2882069,44.1095151 L21.2882069,40.824298 L21.2882069,40.8023966 C22.2956735,41.1966226 23.4126473,41.3937357 24.5515226,41.3937357 C25.6903978,41.3937357 26.8073717,41.1966226 27.8148383,40.824298 Z" id="Shape" fill="#D8EAF3"></path>
                        <path d="M33.7282291,25.7561022 L33.7282291,32.2170292 C33.7282291,34.7575971 32.698861,37.0572491 31.034351,38.6998576 C30.1363917,39.597817 29.0194179,40.3205647 27.8148383,40.7804951 C26.8073717,41.1747212 25.6903978,41.3718342 24.5515226,41.3718342 C23.3907459,41.3718342 22.2956735,41.1528197 21.2882069,40.7804951 C17.8277782,39.4664083 15.3748161,36.1154868 15.3748161,32.1951277 L15.3748161,25.7342007 C15.3748161,27.0044847 15.8785494,28.14336 16.688903,28.9975164 C17.4992565,29.8516729 18.6381318,30.3773076 19.9084157,30.399209 C22.4708851,30.4211105 24.5515226,28.3623744 24.5515226,25.7999051 C24.5515226,28.3623744 26.6321601,30.4211105 29.1946294,30.399209 C31.7132959,30.3773076 33.7282291,28.2747686 33.7282291,25.7561022 Z" id="Shape" fill="#D8EAF3"></path>
                        <path d="M33.7282291,25.5808906 L33.7282291,25.7561022 C33.7282291,28.2747686 31.7132959,30.3773076 29.1946294,30.4211105 C26.6321601,30.4430119 24.5515226,28.3842759 24.5515226,25.8218065 C24.5515226,28.3842759 22.4708851,30.4430119 19.9084157,30.4211105 C18.6381318,30.399209 17.521158,29.8735743 16.688903,29.0194179 C15.8785494,28.1652614 15.3748161,27.0263861 15.3748161,25.7561022 C15.3748161,22.2080677 18.2439057,19.3389781 21.7919402,19.3389781 L33.7501305,19.3389781 L33.7501305,22.5584909 L33.7501305,25.5808906 L33.7282291,25.5808906 Z" id="Shape" fill="#2E96D3"></path>
                        <path d="M15.3748161,25.7561022 L15.3748161,32.2170292 C15.3748161,36.1373883 17.8277782,39.4883097 21.2882069,40.8023966 L21.2882069,40.824298 L21.2882069,44.1095151 C21.2882069,44.1971209 21.2882069,44.2847267 21.2882069,44.3504311 L20.1931345,44.3504311 C13.5350945,44.3504311 8.125437,49.7600886 8.125437,56.4181286 L8.125437,15.2653089 C8.125437,11.2792454 11.3668512,8.03783121 15.3529147,8.03783121 L102.58638,8.03783121 C106.572443,8.03783121 109.813857,11.2792454 109.813857,15.2653089 L109.813857,73.4574547 C109.813857,77.4435182 106.572443,80.6849324 102.58638,80.6849324 L34.1005537,80.6849324 L34.1005537,66.1423713 L95.2931978,66.1423713 L95.2931978,22.5584909 L33.7282291,22.5584909 L33.7282291,19.3389781 L21.7700388,19.3389781 C18.2439057,19.3389781 15.3748161,22.2080677 15.3748161,25.7561022 Z" id="Shape" fill="#D8EAF3"></path>
                        <path d="M117.041335,12.8999525 L117.041335,79.6117614 C117.041335,86.3136044 111.434565,91.7451633 104.513707,91.7451633 L73.9392866,91.7451633 L66.2080756,91.7451633 L51.687416,91.7451633 L43.956205,91.7451633 L13.3598829,91.7451633 C6.43902555,91.7451633 0.832255003,86.3136044 0.832255003,79.6117614 L0.832255003,12.8999525 C0.832255003,6.19810963 6.43902555,0.76655066 13.3598829,0.76655066 L104.491806,0.76655066 C111.434565,0.788452108 117.041335,6.22001107 117.041335,12.8999525 Z M109.770055,73.4355533 L109.770055,15.2434074 C109.770055,11.257344 106.52864,8.01592976 102.542577,8.01592976 L15.3310132,8.01592976 C11.3449498,8.01592976 8.10353555,11.257344 8.10353555,15.2434074 L8.10353555,56.3962272 L8.10353555,61.6306731 L8.10353555,73.4136518 C8.10353555,77.3997153 11.3449498,80.6411295 15.3310132,80.6411295 L15.3748161,80.6411295 L34.0786522,80.6411295 L102.564478,80.6411295 C106.550542,80.6630309 109.770055,77.4216167 109.770055,73.4355533 Z" id="Shape" fill="#2E96D3"></path>
                        <rect id="Rectangle-path" fill="#ED1E7A" x="66.2080756" y="29.8297714" width="21.7919402" height="7.27128055"></rect>
                        <path d="M102.564478,81.3200743 L15.3310132,81.3200743 C10.9945266,81.3200743 7.46839358,77.7939413 7.46839358,73.4574547 L7.46839358,15.2653089 C7.46839358,10.9288223 10.9945266,7.40268924 15.3310132,7.40268924 L102.564478,7.40268924 C106.900965,7.40268924 110.427098,10.9288223 110.427098,15.2653089 L110.427098,73.4574547 C110.427098,77.7720399 106.900965,81.3200743 102.564478,81.3200743 Z M15.3310132,8.69487463 C11.7172744,8.69487463 8.76057898,11.6296686 8.76057898,15.2653089 L8.76057898,73.4574547 C8.76057898,77.0711935 11.6953729,80.027889 15.3310132,80.027889 L102.564478,80.027889 C106.178217,80.027889 109.134913,77.093095 109.134913,73.4574547 L109.134913,15.2653089 C109.134913,11.65157 106.200119,8.69487463 102.564478,8.69487463 L15.3310132,8.69487463 Z" id="Shape" fill="#066695"></path>
                        <path d="M24.5515226,42.0507791 C24.2010994,42.0507791 23.8944792,41.7660603 23.8944792,41.3937357 C23.8944792,41.0214111 24.179198,40.7366922 24.5515226,40.7366922 C29.2603338,40.7366922 33.0711856,36.9039389 33.0711856,32.2170292 L33.0711856,25.5808906 C33.0711856,25.2304675 33.3559045,24.9238472 33.7282291,24.9238472 C34.1005537,24.9238472 34.3852725,25.208566 34.3852725,25.5808906 L34.3852725,32.2170292 C34.3852725,37.6485882 29.9611801,42.0507791 24.5515226,42.0507791 Z" id="Shape" fill="#066695"></path>
                        <path d="M22.4270822,41.8098632 C22.3832793,41.8098632 22.3175749,41.8098632 22.273772,41.7879617 C20.1493316,41.2842284 18.2439057,40.0577474 16.8641145,38.3494345 C15.4843233,36.6192201 14.7177727,34.4290754 14.7177727,32.2170292 L14.7177727,25.5808906 C14.7177727,25.2304675 15.0024915,24.9238472 15.3748161,24.9238472 C15.7471407,24.9238472 16.0318595,25.208566 16.0318595,25.5808906 L16.0318595,32.2170292 C16.0318595,34.166258 16.6670015,36.0059796 17.8934826,37.5390809 C19.0761607,39.0283793 20.7406707,40.0796488 22.5803923,40.5176778 C22.9308155,40.6052836 23.1498299,40.9557067 23.0622242,41.3061299 C22.9746184,41.6127501 22.711801,41.8098632 22.4270822,41.8098632 Z" id="Shape" fill="#066695"></path>
                        <path d="M19.9522186,31.0562525 C19.9303172,31.0562525 19.9084157,31.0562525 19.8865143,31.0562525 C17.0393261,31.0124496 14.7177727,28.6251918 14.7177727,25.7342007 C14.7177727,21.8357431 17.8934826,18.6600332 21.7919402,18.6600332 L33.7501305,18.6600332 C34.1005537,18.6600332 34.4071739,18.944752 34.4071739,19.3170766 L34.4071739,25.7342007 C34.4071739,28.6251918 32.0856205,31.0124496 29.2384323,31.0562525 C29.2165309,31.0562525 29.1946294,31.0562525 29.172728,31.0562525 C27.7929368,31.0562525 26.47885,30.5306177 25.4932848,29.5450526 C25.1209602,29.1946294 24.8362414,28.7785019 24.5953255,28.3623744 C24.3544096,28.8004034 24.0477893,29.1946294 23.6973661,29.5450526 C22.6460967,30.5306177 21.3539113,31.0562525 19.9522186,31.0562525 Z M21.7919402,19.9960215 C18.6162303,19.9960215 16.0318595,22.5803923 16.0318595,25.7561022 C16.0318595,27.9462469 17.7839753,29.7421656 19.9084157,29.7640671 C20.9596852,29.7859685 21.9671518,29.369841 22.7337024,28.6251918 C23.4783517,27.8805426 23.8944792,26.8949775 23.8944792,25.8218065 C23.8944792,25.4713834 24.179198,25.1647631 24.5515226,25.1647631 C24.9238472,25.1647631 25.208566,25.4494819 25.208566,25.8218065 C25.208566,26.873076 25.6246935,27.8805426 26.3693427,28.6251918 C27.1139919,29.369841 28.1214585,29.7640671 29.1946294,29.7640671 C31.3409713,29.7421656 33.0711856,27.9462469 33.0711856,25.7561022 L33.0711856,19.9960215 L21.7919402,19.9960215 Z" id="Shape" fill="#066695"></path>
                        <path d="M8.10353555,62.309618 C7.75311239,62.309618 7.44649213,62.0248992 7.44649213,61.6525745 L7.44649213,56.4181286 C7.44649213,49.4096654 13.1627699,43.6933876 20.1712331,43.6933876 L21.2663055,43.6933876 C21.6167286,43.6933876 21.9233489,43.9781065 21.9233489,44.3504311 C21.9233489,44.7008542 21.6386301,45.0074745 21.2663055,45.0074745 L20.1712331,45.0074745 C13.8855177,45.0074745 8.76057898,50.1324132 8.76057898,56.4181286 L8.76057898,61.6525745 C8.76057898,62.0029977 8.45395871,62.309618 8.10353555,62.309618 Z" id="Shape" fill="#066695"></path>
                        <path d="M51.687416,52.2568536 L30.7496322,52.2568536 C30.399209,52.2568536 30.0925888,51.9721348 30.0925888,51.5998102 C30.0925888,51.249387 30.3773076,50.9427667 30.7496322,50.9427667 L51.0303725,50.9427667 L51.0303725,44.985573 L27.8148383,44.985573 C27.4644151,44.985573 27.1577948,44.7008542 27.1577948,44.3285296 C27.1577948,43.9781065 27.4425136,43.6714862 27.8148383,43.6714862 L51.687416,43.6714862 C52.0378391,43.6714862 52.3444594,43.956205 52.3444594,44.3285296 L52.3444594,51.5998102 C52.3225579,51.9721348 52.0378391,52.2568536 51.687416,52.2568536 Z" id="Shape" fill="#066695"></path>
                        <path d="M15.3748161,81.3200743 C15.0243929,81.3200743 14.7177727,81.0353555 14.7177727,80.6630309 L14.7177727,58.8710907 C14.7177727,58.5206676 15.0024915,58.2140473 15.3748161,58.2140473 C15.7471407,58.2140473 16.0318595,58.4987661 16.0318595,58.8710907 L16.0318595,80.6630309 C16.0099581,81.0134541 15.7252393,81.3200743 15.3748161,81.3200743 Z" id="Shape" fill="#066695"></path>
                        <path d="M34.0567508,81.3200743 C33.7063276,81.3200743 33.3997073,81.0353555 33.3997073,80.6630309 L33.3997073,54.4908012 C33.3997073,54.1403781 33.6844262,53.8337578 34.0567508,53.8337578 C34.4290754,53.8337578 34.7137942,54.1184766 34.7137942,54.4908012 L34.7137942,80.6630309 C34.7137942,81.0134541 34.4290754,81.3200743 34.0567508,81.3200743 Z" id="Shape" fill="#066695"></path>
                        <path d="M58.4549632,47.7670569 L55.2573519,47.7670569 C54.9069287,47.7670569 54.6003085,47.4823381 54.6003085,47.1100134 C54.6003085,46.7376888 54.8850273,46.45297 55.2573519,46.45297 L58.4549632,46.45297 C59.3967255,46.45297 60.1851776,45.8397295 60.4479949,45.0074745 L51.687416,45.0074745 C51.3369928,45.0074745 51.0303725,44.7227557 51.0303725,44.3504311 C51.0303725,44.0000079 51.3150914,43.6933876 51.687416,43.6933876 L61.2145456,43.6933876 C61.5649688,43.6933876 61.871589,43.9781065 61.871589,44.3504311 C61.8496876,46.2339555 60.3165863,47.7670569 58.4549632,47.7670569 Z" id="Shape" fill="#066695"></path>
                        <path d="M54.1622795,52.2568536 L51.687416,52.2568536 C51.3369928,52.2568536 51.0303725,51.9721348 51.0303725,51.5998102 C51.0303725,51.249387 51.3150914,50.9427667 51.687416,50.9427667 L54.184181,50.9427667 C56.3086214,50.9427667 58.0388357,49.2125524 58.0388357,47.088112 C58.0388357,46.7376888 58.3235545,46.4310686 58.6958791,46.4310686 C59.0463023,46.4310686 59.3529226,46.7157874 59.3529226,47.088112 C59.3310211,49.9572016 57.0094677,52.2568536 54.1622795,52.2568536 Z" id="Shape" fill="#066695"></path>
                        <path d="M24.5515226,48.0298742 C22.3832793,48.0298742 20.6311635,46.2777584 20.6311635,44.1095151 L20.6311635,40.8461995 C20.6311635,40.4957763 20.9158823,40.1891561 21.2882069,40.1891561 C21.6605315,40.1891561 21.9452503,40.4738749 21.9452503,40.8461995 L21.9452503,44.1095151 C21.9452503,45.5550107 23.1279285,46.7376888 24.573424,46.7376888 C26.0189196,46.7376888 27.2015977,45.5550107 27.2015977,44.1095151 L27.2015977,40.8461995 C27.2015977,40.4957763 27.4863165,40.1891561 27.8586411,40.1891561 C28.2309658,40.1891561 28.5156846,40.4738749 28.5156846,40.8461995 L28.5156846,44.1095151 C28.4718817,46.255857 26.7197659,48.0298742 24.5515226,48.0298742 Z" id="Shape" fill="#066695"></path>
                        <path d="M95.2493949,66.7775132 L37.6485882,66.7775132 C37.298165,66.7775132 36.9915447,66.4927944 36.9915447,66.1204698 C36.9915447,65.7481452 37.2762635,65.4634264 37.6485882,65.4634264 L94.5923515,65.4634264 L94.5923515,23.1936328 L33.7282291,23.1936328 C33.3778059,23.1936328 33.0711856,22.908914 33.0711856,22.5365894 C33.0711856,22.1642648 33.3559045,21.879546 33.7282291,21.879546 L95.2493949,21.879546 C95.5998181,21.879546 95.9064383,22.1642648 95.9064383,22.5365894 L95.9064383,66.1204698 C95.9064383,66.4927944 95.6217195,66.7775132 95.2493949,66.7775132 Z" id="Shape" fill="#066695"></path>
                        <g id="Group" transform="translate(43.583880, 29.128925)">
                            <rect id="Rectangle-path" fill="#ED1E7A" x="0.832255003" y="0.700846318" width="14.5206597" height="7.27128055"></rect>
                            <path d="M15.3529147,8.60726884 L0.832255003,8.60726884 C0.481831844,8.60726884 0.17521158,8.32255003 0.17521158,7.95022542 L0.17521158,0.678944871 C0.17521158,0.328521712 0.459930396,0.0219014474 0.832255003,0.0219014474 L15.3529147,0.0219014474 C15.7033378,0.0219014474 16.0099581,0.306620264 16.0099581,0.678944871 L16.0099581,7.95022542 C16.0099581,8.32255003 15.7252393,8.60726884 15.3529147,8.60726884 Z M1.48929843,7.293182 L14.6958712,7.293182 L14.6958712,1.33598829 L1.48929843,1.33598829 L1.48929843,7.293182 Z" id="Shape" fill="#066695"></path>
                        </g>
                        <path d="M87.9781144,37.7361939 L66.1861742,37.7361939 C65.835751,37.7361939 65.5291307,37.4514751 65.5291307,37.0791505 L65.5291307,29.80787 C65.5291307,29.4574468 65.8138496,29.1508265 66.1861742,29.1508265 L87.9781144,29.1508265 C88.3285375,29.1508265 88.6351578,29.4355454 88.6351578,29.80787 L88.6351578,37.0791505 C88.6351578,37.4514751 88.350439,37.7361939 87.9781144,37.7361939 Z M66.865119,36.4221071 L87.3429724,36.4221071 L87.3429724,30.4649134 L66.865119,30.4649134 L66.865119,36.4221071 Z" id="Shape" fill="#066695"></path>
                        <path d="M87.9781144,52.2568536 L66.1861742,52.2568536 C65.835751,52.2568536 65.5291307,51.9721348 65.5291307,51.5998102 C65.5291307,51.249387 65.8138496,50.9427667 66.1861742,50.9427667 L87.9781144,50.9427667 C88.3285375,50.9427667 88.6351578,51.2274856 88.6351578,51.5998102 C88.6351578,51.9721348 88.350439,52.2568536 87.9781144,52.2568536 Z" id="Shape" fill="#066695"></path>
                        <path d="M87.9781144,59.5281341 L80.7068338,59.5281341 C80.3564107,59.5281341 80.0497904,59.2434153 80.0497904,58.8710907 C80.0497904,58.5206676 80.3345092,58.2140473 80.7068338,58.2140473 L87.9781144,58.2140473 C88.3285375,58.2140473 88.6351578,58.4987661 88.6351578,58.8710907 C88.6351578,59.2215139 88.350439,59.5281341 87.9781144,59.5281341 Z" id="Shape" fill="#066695"></path>
                        <path d="M76.655066,59.5281341 L73.6107649,59.5281341 C73.2603417,59.5281341 72.9537214,59.2434153 72.9537214,58.8710907 C72.9537214,58.5206676 73.2384402,58.2140473 73.6107649,58.2140473 L76.655066,58.2140473 C77.0054892,58.2140473 77.3121095,58.4987661 77.3121095,58.8710907 C77.290208,59.2215139 77.0054892,59.5281341 76.655066,59.5281341 Z" id="Shape" fill="#066695"></path>
                        <path d="M70.4131535,59.5281341 C70.3693506,59.5281341 70.3255477,59.5281341 70.2817448,59.5062327 C70.2379419,59.5062327 70.194139,59.4843313 70.1503362,59.4624298 C70.1065333,59.4405284 70.0627304,59.4186269 70.0408289,59.3967255 C69.997026,59.374824 69.9751246,59.3529226 69.9313217,59.3091197 C69.9094202,59.2872182 69.8656173,59.2434153 69.8437159,59.1996124 C69.8218144,59.1558095 69.799913,59.1339081 69.7780115,59.0901052 C69.7561101,59.0463023 69.7561101,59.0024994 69.7342087,58.9586965 C69.7342087,58.9148936 69.7123072,58.8710907 69.7123072,58.8272878 C69.7123072,58.7834849 69.7123072,58.739682 69.7342087,58.6958791 C69.7342087,58.6520762 69.7561101,58.6082734 69.7780115,58.5644705 C69.799913,58.5206676 69.8218144,58.4768647 69.8437159,58.4549632 C69.8656173,58.4111603 69.8875188,58.3892589 69.9313217,58.345456 C69.9532231,58.3235545 69.997026,58.2797516 70.0408289,58.2578502 C70.0846318,58.2359487 70.1065333,58.2140473 70.1503362,58.1921459 C70.194139,58.1702444 70.2379419,58.1702444 70.2817448,58.148343 C70.3693506,58.1264415 70.4569564,58.1264415 70.5445622,58.148343 C70.5883651,58.148343 70.632168,58.1702444 70.6759709,58.1921459 C70.7197738,58.2140473 70.7635767,58.2359487 70.7854781,58.2578502 C70.829281,58.2797516 70.8511825,58.3016531 70.8949854,58.345456 C70.9168868,58.3673574 70.9606897,58.4111603 70.9825912,58.4549632 C71.0044926,58.4987661 71.0263941,58.5206676 71.0482955,58.5644705 C71.0701969,58.6082734 71.0701969,58.6520762 71.0920984,58.6958791 C71.0920984,58.739682 71.1139998,58.7834849 71.1139998,58.8272878 C71.1139998,58.8710907 71.1139998,58.9148936 71.0920984,58.9586965 C71.0920984,59.0024994 71.0701969,59.0463023 71.0482955,59.0901052 C71.0263941,59.1339081 71.0044926,59.177711 70.9825912,59.1996124 C70.9606897,59.2434153 70.9387883,59.2653168 70.8949854,59.3091197 C70.7635767,59.4624298 70.5883651,59.5281341 70.4131535,59.5281341 Z" id="Shape" fill="#066695"></path>
                        <path d="M104.513707,92.4022068 L13.3598829,92.4022068 C6.08860239,92.4022068 0.17521158,86.6640275 0.17521158,79.6117614 L0.17521158,12.8999525 C0.17521158,5.84768647 6.08860239,0.109507237 13.3598829,0.109507237 L104.491806,0.109507237 C111.763086,0.109507237 117.676477,5.84768647 117.676477,12.8999525 L117.676477,79.6117614 C117.698379,86.6640275 111.784988,92.4022068 104.513707,92.4022068 Z M13.3598829,1.44549553 C6.81135015,1.44549553 1.48929843,6.59233568 1.48929843,12.921854 L1.48929843,79.6336629 C1.48929843,85.9631812 6.81135015,91.1100214 13.3598829,91.1100214 L104.491806,91.1100214 C111.040339,91.1100214 116.36239,85.9631812 116.36239,79.6336629 L116.36239,12.921854 C116.36239,6.59233568 111.040339,1.44549553 104.491806,1.44549553 L13.3598829,1.44549553 Z" id="Shape" fill="#066695"></path>
                        <path d="M73.4574547,110.361394 C73.1946373,110.361394 72.9537214,110.208084 72.8442142,109.945266 L65.7481452,92.4022068 L52.1254449,92.4022068 L45.0293759,109.945266 C44.8979673,110.273788 44.5037412,110.448999 44.1752195,110.295689 C43.8466978,110.164281 43.6714862,109.770055 43.8247963,109.441533 L51.0960769,91.482346 C51.2055841,91.24143 51.4465,91.0662185 51.7093174,91.0662185 L66.2299771,91.0662185 C66.4927944,91.0662185 66.7337104,91.2195286 66.8432176,91.482346 L74.1144981,109.441533 C74.2459068,109.770055 74.0925967,110.164281 73.764075,110.295689 C73.6326663,110.339492 73.5450605,110.361394 73.4574547,110.361394 Z" id="Shape" fill="#066695"></path>
                        <path d="M51.687416,110.361394 L0.85415645,110.361394 C0.503733291,110.361394 0.197113027,110.076675 0.197113027,109.70435 C0.197113027,109.332026 0.481831844,109.047307 0.85415645,109.047307 L51.687416,109.047307 C52.0378391,109.047307 52.3444594,109.332026 52.3444594,109.70435 C52.3444594,110.076675 52.0378391,110.361394 51.687416,110.361394 Z" id="Shape" fill="#066695"></path>
                        <path d="M63.2294788,110.361394 L61.3021514,110.361394 C60.9517282,110.361394 60.645108,110.076675 60.645108,109.70435 C60.645108,109.332026 60.9298268,109.047307 61.3021514,109.047307 L63.2294788,109.047307 C63.5799019,109.047307 63.8865222,109.332026 63.8865222,109.70435 C63.8865222,110.076675 63.5799019,110.361394 63.2294788,110.361394 Z" id="Shape" fill="#066695"></path>
                        <path d="M58.4768647,110.361394 C58.3016531,110.361394 58.1264415,110.295689 58.0169343,110.164281 C57.9950328,110.142379 57.9512299,110.098576 57.9293285,110.054773 C57.907427,110.01097 57.8855256,109.989069 57.8636241,109.945266 C57.8417227,109.901463 57.8417227,109.85766 57.8198212,109.813857 C57.8198212,109.770055 57.7979198,109.726252 57.7979198,109.682449 C57.7979198,109.638646 57.7979198,109.594843 57.8198212,109.55104 C57.8198212,109.507237 57.8417227,109.463434 57.8636241,109.419631 C57.8855256,109.375829 57.907427,109.332026 57.9293285,109.310124 C57.9512299,109.266321 57.9731314,109.24442 58.0169343,109.200617 C58.1702444,109.047307 58.3892589,108.981602 58.6082734,109.025405 C58.6520762,109.025405 58.6958791,109.047307 58.739682,109.069208 C58.7834849,109.09111 58.8272878,109.113011 58.8491893,109.134913 C58.8929922,109.156814 58.9148936,109.178715 58.9586965,109.222518 C58.980598,109.24442 59.0244009,109.288223 59.0463023,109.332026 C59.0682037,109.375829 59.0901052,109.39773 59.1120066,109.441533 C59.1339081,109.485336 59.1339081,109.529139 59.1558095,109.572942 C59.1558095,109.616744 59.177711,109.660547 59.177711,109.70435 C59.177711,109.748153 59.177711,109.791956 59.1558095,109.835759 C59.1558095,109.879562 59.1339081,109.923365 59.1120066,109.967168 C59.0901052,110.01097 59.0682037,110.054773 59.0463023,110.076675 C59.0244009,110.120478 59.0024994,110.142379 58.9586965,110.186182 C58.8272878,110.295689 58.6520762,110.361394 58.4768647,110.361394 Z" id="Shape" fill="#066695"></path>
                        <path d="M117.041335,110.361394 L66.2080756,110.361394 C65.8576525,110.361394 65.5510322,110.076675 65.5510322,109.70435 C65.5510322,109.332026 65.835751,109.047307 66.2080756,109.047307 L117.041335,109.047307 C117.391758,109.047307 117.698379,109.332026 117.698379,109.70435 C117.698379,110.076675 117.391758,110.361394 117.041335,110.361394 Z" id="Shape" fill="#066695"></path>
                        <path d="M117.041335,117.632674 L0.85415645,117.632674 C0.503733291,117.632674 0.197113027,117.347955 0.197113027,116.975631 C0.197113027,116.603306 0.481831844,116.318587 0.85415645,116.318587 L117.041335,116.318587 C117.391758,116.318587 117.698379,116.603306 117.698379,116.975631 C117.698379,117.347955 117.391758,117.632674 117.041335,117.632674 Z" id="Shape" fill="#066695"></path>
                        <circle id="Oval" fill="#F5F6FA" cx="58.6739777" cy="86.2040971" r="2.51866646"></circle>
                    </g>
                </g>
            </g>
        </g>
    </g>
</svg>