<?xml version="1.0" encoding="UTF-8" standalone="no"?>
<svg width="165px" height="125px" viewBox="0 0 165 125" version="1.1" xmlns="http://www.w3.org/2000/svg" xmlns:xlink="http://www.w3.org/1999/xlink">
    <!-- Generator: sketchtool 49.3 (51167) - http://www.bohemiancoding.com/sketch -->
    <title>BBDD184E-6380-4E62-B3DE-A1CCD07E0AE5</title>
    <desc>Created with sketchtool.</desc>
    <defs></defs>
    <g id="Welcome" stroke="none" stroke-width="1" fill="none" fill-rule="evenodd">
        <g id="homepage-mobile" transform="translate(-78.000000, -1034.000000)" fill-rule="nonzero">
            <g id="how-section" transform="translate(8.000000, 865.000000)">
                <g id="Group-1" transform="translate(46.000000, 136.000000)">
                    <g id="Peer-Learning-symbol" transform="translate(24.000000, 33.000000)">
                        <polygon id="Shape" fill="#ED1E7A" points="75.8365385 27.2884615 67.1634615 36.0408654 67.1634615 27.2884615 58.3052885 27.2884615 58.3052885 0.978365385 110.925481 0.978365385 110.925481 27.2884615"></polygon>
                        <polygon id="Shape" fill="#2E96D3" points="75.8365385 97.4399038 110.925481 97.4399038 110.925481 123.723558 58.3052885 123.723558 58.3052885 97.4399038 67.1634615 97.4399038 67.1634615 88.6610577"></polygon>
                        <path d="M128.192308,93.6322115 C127.399038,93.7115385 126.579327,93.7644231 125.759615,93.7644231 L121.793269,93.7644231 C119.175481,93.7644231 117.060096,91.6490385 117.060096,89.03125 L117.060096,78.4807692 C113.834135,77.8197115 109.629808,74.59375 109.629808,71.4471154 L117.060096,63.4350962 L117.060096,46.7235577 C113.992788,46.7235577 111.480769,44.2379808 111.480769,41.1442308 C111.480769,39.6105769 112.115385,38.2091346 113.120192,37.2043269 C114.125,36.1995192 115.526442,35.5649038 117.060096,35.5649038 L141.466346,35.5649038 C153.973558,35.5649038 164.100962,45.6923077 164.100962,58.1995192 L164.100962,69.5432692 L154.34375,78.6129808 C154.317308,78.6394231 154.290865,78.6658654 154.264423,78.6923077 C153.259615,79.5913462 151.9375,80.1730769 150.483173,80.1730769 L150.483173,103.521635 L128.192308,117.298077 L128.192308,93.7644231 L128.192308,93.6322115 Z M124.834135,63.3293269 C124.834135,61.5048077 124.225962,60.0240385 123.459135,60.0240385 C122.692308,60.0240385 122.084135,61.5048077 122.084135,63.3293269 C122.084135,65.1538462 122.71875,66.6346154 123.459135,66.6346154 C124.225962,66.6346154 124.834135,65.1538462 124.834135,63.3293269 Z" id="Shape" fill="#D8EAF3"></path>
                        <polygon id="Shape" fill="#D8EAF3" points="89.0048077 62.4302885 67.1634615 62.4302885 67.1634615 44.8197115 102.146635 44.8197115 102.146635 62.4302885 95.5096154 62.4302885 95.5096154 69.0144231"></polygon>
                        <path d="M14.3581731,31.5985577 C14.3581731,33.2379808 13.7764423,34.7451923 12.7980769,35.9086538 L10.3918269,37.7331731 C9.54567308,38.1298077 8.59375,38.3413462 7.61538462,38.3413462 C3.88701923,38.3413462 0.872596154,35.3269231 0.872596154,31.5985577 C0.872596154,27.8701923 3.88701923,24.8557692 7.61538462,24.8557692 C11.34375,24.8557692 14.3581731,27.8701923 14.3581731,31.5985577 Z" id="Shape" fill="#ED1E7A"></path>
                        <path d="M29.3774038,36.2524038 C30.9639423,35.8822115 32.6298077,35.6971154 34.3485577,35.6971154 L56.7451923,35.6971154 L56.7451923,39.3725962 C56.7451923,45.8509615 54.6826923,51.8269231 51.1658654,56.71875 C45.7716346,64.2548077 36.9399038,69.1466346 26.9711538,69.1466346 L25.9927885,69.1466346 L17.7956731,69.1466346 C14.7283654,69.1466346 12.1634615,71.6057692 12.1634615,74.6730769 C12.1370192,77.7668269 14.6490385,80.2788462 17.7427885,80.2788462 L17.7427885,80.3846154 L17.7163462,80.3846154 C11.2644231,79.4591346 6.29326923,73.90625 6.29326923,67.2163462 L6.29326923,48.6538462 C6.29326923,40.4831731 12.8509615,33.7932692 21.0216346,33.7403846 C24.1153846,33.7139423 26.9975962,34.6394231 29.3774038,36.2524038 Z" id="Shape" fill="#ED1E7A"></path>
                        <path d="M40.0336538,93.7644231 L40.0336538,93.8966346 L40.0336538,117.271635 L17.7427885,103.495192 L17.7427885,80.4110577 L17.7427885,80.3052885 C14.6490385,80.3052885 12.1370192,77.7932692 12.1634615,74.6995192 C12.1899038,71.6322115 14.7283654,69.1730769 17.7956731,69.1730769 L25.9927885,69.1730769 L26.9711538,69.1730769 C36.9399038,69.1730769 45.7716346,64.28125 51.1658654,56.7451923 L51.1658654,59.4158654 C51.1658654,65.4447115 54.2860577,70.7331731 58.9134615,72.0817308 C58.9134615,72.0817308 57.0096154,77.6610577 51.1658654,78.6658654 L51.1658654,89.2163462 C51.1658654,91.8341346 49.0504808,93.9495192 46.4326923,93.9495192 L42.4663462,93.9495192 C41.6466346,93.8966346 40.8533654,93.84375 40.0336538,93.7644231 Z M48.1778846,66.4495192 C48.1778846,64.625 47.5697115,63.1442308 46.8028846,63.1442308 C46.0360577,63.1442308 45.4278846,64.625 45.4278846,66.4495192 C45.4278846,68.2740385 46.0625,69.7548077 46.8028846,69.7548077 C47.5697115,69.7548077 48.1778846,68.2740385 48.1778846,66.4495192 Z" id="Shape" fill="#D8EAF3"></path>
                        <path d="M123.459135,60.0240385 C124.225962,60.0240385 124.834135,61.5048077 124.834135,63.3293269 C124.834135,65.1538462 124.225962,66.6346154 123.459135,66.6346154 C122.692308,66.6346154 122.084135,65.1538462 122.084135,63.3293269 C122.057692,61.5048077 122.692308,60.0240385 123.459135,60.0240385 Z" id="Shape" fill="#D8EAF3"></path>
                        <ellipse id="Oval" fill="#D8EAF3" cx="46.8028846" cy="66.4495192" rx="1.375" ry="3.30528846"></ellipse>
                        <path d="M141.466346,35.5649038 L117.060096,35.5649038 C115.526442,35.5649038 114.125,36.1995192 113.120192,37.2043269 C112.115385,38.2091346 111.480769,39.6105769 111.480769,41.1442308 C111.480769,42.3076923 111.824519,43.3653846 112.432692,44.2644231 C113.040865,45.1634615 113.887019,45.8509615 114.891827,46.2740385 C115.552885,46.5649038 116.293269,46.7235577 117.060096,46.7235577 C117.060096,46.7235577 117.060096,46.7235577 117.060096,46.7235577 L126.182692,46.7235577 C136.521635,46.7235577 144.930288,55.1057692 144.930288,65.4711538 L144.930288,69.0408654 L150.509615,69.0408654 C153.576923,69.0408654 156.088942,71.5264423 156.088942,74.6201923 C156.088942,76.2596154 155.401442,77.7139423 154.264423,78.7451923 C154.264423,78.7451923 154.264423,78.7451923 154.264423,78.7451923 C154.290865,78.71875 154.317308,78.6923077 154.34375,78.6658654 L164.100962,69.5961538 L154.290865,78.71875 L164.100962,69.5961538 L164.100962,58.2524038 C164.100962,45.6923077 153.947115,35.5649038 141.466346,35.5649038 Z" id="Shape" fill="#2E96D3"></path>
                        <g id="Group" transform="translate(24.062500, 85.673077)" fill="#C7DCE0">
                            <path d="M119.942308,0.0528846154 C118.25,4.70673077 112.274038,13.0625 104.15625,16.1826923 L104.15625,8.06490385 L104.15625,7.93269231 C110.370192,7.35096154 115.923077,4.41586538 119.942308,0.0528846154 Z" id="Shape"></path>
                            <path d="M15.9711538,8.09134615 L15.9711538,8.22355769 L15.9711538,16.2091346 C12.6658654,15.0456731 2.27403846,7.45673077 0.185096154,0.211538462 C4.17788462,4.54807692 9.73076923,7.48317308 15.9711538,8.09134615 Z" id="Shape"></path>
                        </g>
                        <path d="M164.100962,69.0144231 L164.100962,69.5697115 L154.34375,78.6394231 C155.401442,77.6346154 156.0625,76.1802885 156.0625,74.59375 C156.0625,71.5264423 153.576923,69.0144231 150.483173,69.0144231 L164.100962,69.0144231 Z" id="Shape" fill="#2A8ABC"></path>
                        <path d="M139.350962,46.6971154 C148.552885,46.5120192 146.014423,56.7980769 143.925481,59.3629808 C141.413462,51.9855769 134.40625,46.6971154 126.182692,46.6971154 L139.350962,46.6971154 Z" id="Shape" fill="#2A8ABC"></path>
                        <path d="M29.3774038,36.2524038 C26.2307692,36.9663462 23.3221154,38.3677885 20.8365385,40.2716346 C16.7379808,37.8125 11.3173077,37.9182692 8.14423077,41.4350962 C10.65625,36.8605769 15.46875,33.7668269 21.0216346,33.7139423 C24.1153846,33.7139423 26.9975962,34.6394231 29.3774038,36.2524038 Z" id="Shape" fill="#DD1372"></path>
                        <path d="M27.5264423,56.5336538 C25.3052885,54.8942308 22.5817308,53.9158654 19.6201923,53.9158654 C12.2692308,53.9158654 6.31971154,59.8653846 6.31971154,67.2163462 L6.31971154,56.2427885 C8.88461538,51.4302885 21.5240385,48.4951923 27.5264423,56.5336538 Z" id="Shape" fill="#DD1372"></path>
                        <g id="Group" transform="translate(108.677885, 34.639423)" fill="#066695">
                            <path d="M17.0817308,59.8918269 L13.1153846,59.8918269 C10.0745192,59.8918269 7.58894231,57.40625 7.58894231,54.3653846 L7.58894231,44.4495192 C6.00240385,44 4.31009615,43.0480769 2.93509615,41.8317308 C1.16346154,40.2451923 0.158653846,38.4735577 0.158653846,36.8076923 C0.158653846,36.5961538 0.237980769,36.4110577 0.370192308,36.2788462 L7.58894231,28.4783654 L7.58894231,12.0576923 C7.58894231,11.6346154 7.93269231,11.2644231 8.38221154,11.2644231 L30.6730769,11.2644231 C31.0961538,11.2644231 31.4663462,11.6081731 31.4663462,12.0576923 C31.4663462,12.5072115 31.1225962,12.8509615 30.6730769,12.8509615 L9.17548077,12.8509615 L9.17548077,28.7956731 C9.17548077,29.0072115 9.09615385,29.1923077 8.96394231,29.3245192 L1.77163462,37.0985577 C1.90384615,38.2091346 2.69711538,39.5048077 3.99278846,40.6418269 C5.34134615,41.8317308 7.08653846,42.7572115 8.56730769,43.0480769 C8.9375,43.1274038 9.20192308,43.4447115 9.20192308,43.8149038 L9.20192308,54.3653846 C9.20192308,56.5336538 10.9735577,58.3052885 13.1418269,58.3052885 L17.1081731,58.3052885 C20.5192308,58.3052885 23.8245192,57.5913462 26.9182692,56.2163462 C29.90625,54.8677885 32.5504808,52.9639423 34.7716346,50.53125 C35.0625,50.2139423 35.5649038,50.1875 35.8822115,50.4783654 C36.1995192,50.7692308 36.2259615,51.2716346 35.9350962,51.5889423 C33.5552885,54.1802885 30.7524038,56.2163462 27.5793269,57.6442308 C24.2475962,59.1514423 20.7307692,59.8918269 17.0817308,59.8918269 Z" id="Shape"></path>
                            <path d="M19.5408654,83.4254808 C19.4086538,83.4254808 19.2764423,83.3990385 19.1442308,83.3197115 C18.90625,83.1875 18.7475962,82.9230769 18.7475962,82.6322115 L18.7475962,59.0985577 C18.7475962,58.6754808 19.0913462,58.3052885 19.5408654,58.3052885 C19.9903846,58.3052885 20.3341346,58.6490385 20.3341346,59.0985577 L20.3341346,81.2043269 L41.0649038,68.40625 L41.0649038,45.5072115 C41.0649038,45.0841346 41.4086538,44.7139423 41.8581731,44.7139423 C42.28125,44.7139423 42.6514423,45.0576923 42.6514423,45.5072115 L42.6514423,68.8557692 C42.6514423,69.1201923 42.5192308,69.3846154 42.28125,69.5168269 L19.9903846,83.2932692 C19.8052885,83.3725962 19.6730769,83.4254808 19.5408654,83.4254808 Z" id="Shape"></path>
                            <ellipse id="Oval" cx="14.78125" cy="28.6899038" rx="1.375" ry="3.30528846"></ellipse>
                            <path d="M45.5865385,44.8197115 C45.375,44.8197115 45.1634615,44.7403846 45.0048077,44.5552885 C44.7139423,44.2379808 44.7139423,43.7355769 45.0576923,43.4447115 L54.6298077,34.5600962 L54.6298077,23.5600962 C54.6298077,17.7163462 52.3557692,12.2427885 48.2307692,8.11778846 C44.1057692,3.99278846 38.6057692,1.71875 32.7884615,1.71875 L8.38221154,1.71875 C5.73798077,1.71875 3.59615385,3.86057692 3.59615385,6.50480769 C3.59615385,9.14903846 5.73798077,11.2908654 8.38221154,11.2908654 L17.5048077,11.2908654 C25.8605769,11.2908654 33.2908654,16.6057692 35.9879808,24.4855769 C36.1201923,24.9086538 35.9086538,25.3581731 35.4855769,25.4903846 C35.0625,25.6225962 34.6129808,25.4110577 34.4807692,24.9879808 C31.9951923,17.7163462 25.1730769,12.8509615 17.5048077,12.8509615 L8.38221154,12.8509615 C4.86538462,12.8509615 2.00961538,9.99519231 2.00961538,6.47836538 C2.00961538,2.96153846 4.86538462,0.105769231 8.38221154,0.105769231 L32.7884615,0.105769231 C39.0552885,0.105769231 44.9254808,2.53846154 49.3413462,6.95432692 C53.7572115,11.3701923 56.1899038,17.2668269 56.1899038,23.5072115 L56.1899038,34.8509615 C56.1899038,35.0625 56.1105769,35.2740385 55.9254808,35.4326923 L46.1153846,44.5552885 C45.9831731,44.7668269 45.7980769,44.8197115 45.5865385,44.8197115 Z" id="Shape"></path>
                            <path d="M35.8822115,27.8966346 C35.6706731,27.8966346 35.4591346,27.8173077 35.3269231,27.6586538 C35.3004808,27.6322115 35.2475962,27.5793269 35.2211538,27.5264423 C35.1947115,27.4735577 35.1682692,27.4471154 35.1418269,27.3942308 C35.1153846,27.3413462 35.1153846,27.2884615 35.0889423,27.2355769 C35.0889423,27.1826923 35.0625,27.1298077 35.0625,27.0769231 C35.0625,27.0240385 35.0625,26.9711538 35.0889423,26.9182692 C35.0889423,26.8653846 35.1153846,26.8125 35.1418269,26.7596154 C35.1682692,26.7067308 35.1947115,26.6538462 35.2211538,26.6274038 C35.2475962,26.5745192 35.2740385,26.5480769 35.3269231,26.4951923 C35.5120192,26.3100962 35.7764423,26.2307692 36.0408654,26.2836538 C36.09375,26.2836538 36.1466346,26.3100962 36.1995192,26.3365385 C36.2524038,26.3629808 36.3052885,26.3894231 36.3317308,26.4158654 C36.3846154,26.4423077 36.4110577,26.46875 36.4639423,26.5216346 C36.4903846,26.5480769 36.5432692,26.6009615 36.5697115,26.6538462 C36.5961538,26.7067308 36.6225962,26.7331731 36.6490385,26.7860577 C36.6754808,26.8389423 36.6754808,26.8918269 36.7019231,26.9447115 C36.7019231,26.9975962 36.7283654,27.0504808 36.7283654,27.1033654 C36.7283654,27.15625 36.7283654,27.2091346 36.7019231,27.2620192 C36.7019231,27.3149038 36.6754808,27.3677885 36.6490385,27.4206731 C36.6225962,27.4735577 36.5961538,27.5264423 36.5697115,27.5528846 C36.5432692,27.6057692 36.5168269,27.6322115 36.4639423,27.6850962 C36.3052885,27.8173077 36.09375,27.8966346 35.8822115,27.8966346 Z" id="Shape"></path>
                            <path d="M36.2524038,31.5985577 C35.8293269,31.5985577 35.4591346,31.2548077 35.4591346,30.8052885 C35.4591346,30.3822115 35.4326923,29.9855769 35.40625,29.5625 C35.3798077,29.1394231 35.6971154,28.7427885 36.1466346,28.7163462 C36.5961538,28.6899038 36.9663462,29.0072115 36.9927885,29.4567308 C37.0192308,29.90625 37.0456731,30.3557692 37.0456731,30.8052885 C37.0456731,31.2548077 36.6754808,31.5985577 36.2524038,31.5985577 Z" id="Shape"></path>
                            <path d="M41.8317308,46.3004808 L39.1875,46.3004808 C38.7644231,46.3004808 38.3942308,45.9567308 38.3942308,45.5072115 C38.3942308,45.0576923 38.7379808,44.7139423 39.1875,44.7139423 L41.8317308,44.7139423 C44.4759615,44.7139423 46.6177885,42.5721154 46.6177885,39.9278846 C46.6177885,37.2836538 44.4759615,35.1418269 41.8317308,35.1418269 L33.5817308,35.1418269 C33.1586538,35.1418269 32.7884615,34.7980769 32.7884615,34.3485577 C32.7884615,33.8990385 33.1322115,33.5552885 33.5817308,33.5552885 L41.8317308,33.5552885 C45.3485577,33.5552885 48.2043269,36.4110577 48.2043269,39.9278846 C48.2043269,43.4447115 45.3221154,46.3004808 41.8317308,46.3004808 Z" id="Shape"></path>
                            <path d="M44.3701923,40.7211538 L41.8317308,40.7211538 C41.4086538,40.7211538 41.0384615,40.3774038 41.0384615,39.9278846 C41.0384615,39.4783654 41.3822115,39.1346154 41.8317308,39.1346154 L44.3701923,39.1346154 C44.7932692,39.1346154 45.1634615,39.4783654 45.1634615,39.9278846 C45.1634615,40.3774038 44.7932692,40.7211538 44.3701923,40.7211538 Z" id="Shape"></path>
                        </g>
                        <g id="Group" transform="translate(0.000000, 23.798077)" fill="#066695">
                            <g id="Shape">
                                <path d="M17.7427885,57.2740385 C17.6899038,57.2740385 17.6370192,57.2740385 17.5841346,57.2475962 C17.53125,57.2475962 17.4783654,57.2211538 17.4254808,57.1947115 C17.3725962,57.1682692 17.3197115,57.1418269 17.2932692,57.1153846 C17.2403846,57.0889423 17.2139423,57.0625 17.1610577,57.0096154 C17.0024038,56.8509615 16.9230769,56.6658654 16.9230769,56.4543269 C16.9230769,56.2427885 17.0024038,56.03125 17.1610577,55.8990385 C17.3197115,55.7403846 17.5048077,55.6610577 17.7163462,55.6610577 C17.9278846,55.6610577 18.1394231,55.7403846 18.2716346,55.8990385 C18.2980769,55.9254808 18.3509615,55.9783654 18.3774038,56.03125 C18.4038462,56.0841346 18.4302885,56.1105769 18.4567308,56.1634615 C18.4831731,56.2163462 18.4831731,56.2692308 18.5096154,56.3221154 C18.5096154,56.375 18.5360577,56.4278846 18.5360577,56.4807692 C18.5360577,56.5336538 18.5360577,56.5865385 18.5096154,56.6394231 C18.5096154,56.6923077 18.4831731,56.7451923 18.4567308,56.7980769 C18.4302885,56.8509615 18.4038462,56.9038462 18.3774038,56.9302885 C18.3509615,56.9831731 18.3245192,57.0096154 18.2716346,57.0625 C18.2451923,57.0889423 18.1923077,57.1418269 18.1394231,57.1682692 C18.0865385,57.1947115 18.0600962,57.2211538 18.0072115,57.2475962 C17.9543269,57.2740385 17.9014423,57.2740385 17.8485577,57.3004808 C17.7956731,57.3269231 17.7956731,57.2740385 17.7427885,57.2740385 Z"></path>
                                <path d="M6.29326923,44.2115385 C5.87019231,44.2115385 5.5,43.8677885 5.5,43.4182692 L5.5,24.8557692 C5.5,16.2355769 12.4543269,9.20192308 20.9951923,9.14903846 C21.0216346,9.14903846 21.0480769,9.14903846 21.0745192,9.14903846 C24.1947115,9.14903846 27.2091346,10.0745192 29.8004808,11.8197115 C30.1706731,12.0576923 30.25,12.5600962 30.0120192,12.9038462 C29.7740385,13.2740385 29.2716346,13.3533654 28.9278846,13.1153846 C26.6009615,11.5552885 23.9038462,10.7091346 21.1009615,10.7091346 C21.0745192,10.7091346 21.0480769,10.7091346 21.0216346,10.7091346 C13.3269231,10.7620192 7.08653846,17.0817308 7.08653846,24.8293269 L7.08653846,43.4182692 C7.08653846,43.8677885 6.74278846,44.2115385 6.29326923,44.2115385 Z"></path>
                                <path d="M7.61538462,15.3100962 C3.46394231,15.3100962 0.0793269231,11.9254808 0.0793269231,7.77403846 C0.0793269231,3.62259615 3.46394231,0.237980769 7.61538462,0.237980769 C11.7668269,0.237980769 15.1514423,3.62259615 15.1514423,7.77403846 C15.1514423,11.9254808 11.7668269,15.3100962 7.61538462,15.3100962 Z M7.61538462,1.85096154 C4.33653846,1.85096154 1.66586538,4.52163462 1.66586538,7.80048077 C1.66586538,11.0793269 4.33653846,13.75 7.61538462,13.75 C10.8942308,13.75 13.5649038,11.0793269 13.5649038,7.80048077 C13.5649038,4.52163462 10.8942308,1.85096154 7.61538462,1.85096154 Z"></path>
                                <path d="M3.14663462,20.2283654 C2.90865385,20.2283654 2.67067308,20.1225962 2.51201923,19.9110577 C2.24759615,19.5673077 2.32692308,19.0649038 2.67067308,18.8004808 L19.9110577,5.65865385 C20.2548077,5.39423077 20.7572115,5.47355769 21.0216346,5.81730769 C21.2860577,6.16105769 21.2067308,6.66346154 20.8629808,6.92788462 L3.62259615,20.0697115 C3.49038462,20.1754808 3.33173077,20.2283654 3.14663462,20.2283654 Z"></path>
                            </g>
                            <g transform="translate(11.370192, 11.105769)">
                                <path d="M35.0625,59.7596154 L31.0961538,59.7596154 C27.4471154,59.7596154 23.9302885,59.0192308 20.6514423,57.5384615 C17.4783654,56.1105769 14.6490385,54.0745192 12.2956731,51.4831731 C12.0048077,51.1658654 12.03125,50.6634615 12.3485577,50.3725962 C12.6658654,50.0817308 13.1682692,50.1081731 13.4591346,50.4254808 C15.6802885,52.8581731 18.3245192,54.7620192 21.3125,56.1105769 C24.40625,57.5120192 27.7115385,58.1995192 31.1225962,58.1995192 L35.0889423,58.1995192 C37.2572115,58.1995192 39.0288462,56.4278846 39.0288462,54.2596154 L39.0288462,43.7091346 C39.0288462,43.3125 39.2932692,42.9951923 39.6899038,42.9423077 C43.8149038,42.2283654 45.8245192,38.9759615 46.5120192,37.6274038 C46.5120192,37.6009615 46.5120192,37.6009615 46.5120192,37.6009615 C42.0432692,35.8293269 39.0552885,30.5408654 39.0552885,24.4855769 L39.0552885,21.8149038 C39.0552885,21.3918269 39.3990385,21.0216346 39.8485577,21.0216346 C40.2980769,21.0216346 40.6418269,21.3653846 40.6418269,21.8149038 L40.6418269,24.4855769 C40.6418269,27.15625 41.2764423,29.6682692 42.4399038,31.7836538 C43.6033654,33.8725962 45.2163462,35.3798077 47.09375,36.1201923 C47.5168269,36.2788462 47.8341346,36.6225962 47.9927885,37.0192308 C48.1514423,37.4423077 48.125,37.8918269 47.9399038,38.2884615 C47.1995192,39.7956731 45.03125,43.2860577 40.6418269,44.34375 L40.6418269,54.2331731 C40.5889423,57.3004808 38.1298077,59.7596154 35.0625,59.7596154 Z" id="Shape"></path>
                                <path d="M28.6634615,83.1610577 C28.53125,83.1610577 28.3725962,83.1346154 28.2403846,83.0552885 L5.94951923,69.2788462 C5.71153846,69.1466346 5.57932692,68.8822115 5.57932692,68.6177885 L5.57932692,45.4278846 C5.57932692,45.0048077 5.92307692,44.6346154 6.37259615,44.6346154 C6.82211538,44.6346154 7.16586538,44.9783654 7.16586538,45.4278846 L7.16586538,68.1947115 L27.8966346,80.9927885 L27.8966346,59.0192308 C27.8966346,58.5961538 28.2403846,58.2259615 28.6899038,58.2259615 C29.1129808,58.2259615 29.4831731,58.5697115 29.4831731,59.0192308 L29.4831731,82.3942308 C29.4831731,82.6850962 29.3245192,82.9495192 29.0865385,83.0817308 C28.9278846,83.1346154 28.7956731,83.1610577 28.6634615,83.1610577 Z" id="Shape"></path>
                                <ellipse id="Oval" cx="35.4326923" cy="31.5456731" rx="1.375" ry="3.30528846"></ellipse>
                                <path d="M8.99038462,46.1682692 L6.37259615,46.1682692 C4.65384615,46.1682692 3.06730769,45.5072115 1.85096154,44.2908654 C0.634615385,43.0745192 0,41.4615385 0,39.7692308 C0.0264423077,36.2788462 2.90865385,33.4495192 6.42548077,33.4495192 L15.6009615,33.4495192 C16.0240385,33.4495192 16.3942308,33.7932692 16.3942308,34.2427885 C16.3942308,34.6923077 16.0504808,35.0360577 15.6009615,35.0360577 L6.42548077,35.0360577 C3.78125,35.0360577 1.58653846,37.1778846 1.56009615,39.7956731 C1.56009615,41.0913462 2.03605769,42.28125 2.96153846,43.2067308 C3.86057692,44.1057692 5.07692308,44.6081731 6.34615385,44.6081731 L8.96394231,44.6081731 C9.38701923,44.6081731 9.75721154,44.9519231 9.75721154,45.4014423 C9.75721154,45.8509615 9.41346154,46.1682692 8.99038462,46.1682692 Z" id="Shape"></path>
                                <path d="M22.4495192,34.2427885 C22.0793269,34.2427885 21.7620192,34.0048077 21.6826923,33.6346154 C21.5769231,33.2115385 21.8413462,32.7884615 22.2644231,32.6826923 C22.7139423,32.5769231 23.1370192,32.4711538 23.5865385,32.3389423 C24.0096154,32.2067308 24.4326923,32.4711538 24.5649038,32.8677885 C24.6971154,33.2908654 24.4326923,33.7139423 24.0360577,33.8461538 C23.5865385,33.9783654 23.1105769,34.1105769 22.6610577,34.2163462 C22.5817308,34.2163462 22.5288462,34.2427885 22.4495192,34.2427885 Z" id="Shape"></path>
                                <path d="M19.7788462,34.6923077 C19.4350962,34.6923077 19.1442308,34.4543269 19.0384615,34.1634615 C18.90625,33.7932692 19.0384615,33.3173077 19.5144231,33.1586538 C19.5144231,33.1586538 19.5144231,33.1586538 19.5144231,33.1586538 C19.9903846,33 20.4134615,33.2644231 20.5456731,33.6346154 C20.6778846,34.0048077 20.5456731,34.4807692 20.0697115,34.6394231 C19.9639423,34.6923077 19.8846154,34.6923077 19.7788462,34.6923077 Z" id="Shape"></path>
                                <path d="M28.2139423,32.2331731 C27.9230769,32.2331731 27.6322115,32.0745192 27.5,31.7836538 C27.3149038,31.3870192 27.4735577,30.9110577 27.8701923,30.7259615 C32.7884615,28.4254808 36.9663462,24.7764423 39.9278846,20.2283654 C42.96875,15.5480769 44.5817308,10.0745192 44.5817308,4.46875 L44.5817308,1.58653846 L22.9783654,1.58653846 C18.21875,1.58653846 13.7235577,3.12019231 9.94230769,6.00240385 C9.59855769,6.26682692 9.09615385,6.21394231 8.83173077,5.84375 C8.56730769,5.5 8.62019231,4.99759615 8.99038462,4.73317308 C13.0360577,1.63942308 17.875,0 22.9783654,0 L45.375,0 C45.7980769,0 46.1682692,0.34375 46.1682692,0.793269231 L46.1682692,4.46875 C46.1682692,10.3918269 44.4759615,16.1298077 41.25,21.1009615 C38.1298077,25.9134615 33.7139423,29.7475962 28.53125,32.1802885 C28.4254808,32.2067308 28.3197115,32.2331731 28.2139423,32.2331731 Z" id="Shape"></path>
                                <path d="M6.37259615,40.6153846 L3.83413462,40.6153846 C3.41105769,40.6153846 3.04086538,40.2716346 3.04086538,39.8221154 C3.04086538,39.3990385 3.38461538,39.0288462 3.83413462,39.0288462 L6.37259615,39.0288462 C6.79567308,39.0288462 7.16586538,39.3725962 7.16586538,39.8221154 C7.13942308,40.2451923 6.79567308,40.6153846 6.37259615,40.6153846 Z" id="Shape"></path>
                            </g>
                            <path d="M17.7163462,57.40625 C17.6899038,57.40625 17.6370192,57.40625 17.6105769,57.40625 C14.2788462,56.9302885 11.2379808,55.2644231 8.99038462,52.7259615 C6.74278846,50.1610577 5.5,46.8557692 5.5,43.4447115 C5.5,35.6706731 11.8197115,29.3509615 19.59375,29.3509615 C22.6346154,29.3509615 25.5432692,30.3028846 27.9759615,32.1274038 C28.3197115,32.3918269 28.3990385,32.8942308 28.1346154,33.2379808 C27.8701923,33.5817308 27.3677885,33.6610577 27.0240385,33.3966346 C24.8557692,31.7836538 22.2908654,30.9375 19.5673077,30.9375 C12.6658654,30.9375 7.03365385,36.5432692 7.03365385,43.4711538 C7.03365385,46.5120192 8.14423077,49.4206731 10.1274038,51.7211538 C12.1105769,53.96875 14.8076923,55.4495192 17.7692308,55.8725962 C18.1923077,55.9254808 18.5096154,56.3221154 18.4302885,56.7716346 C18.4302885,57.1153846 18.1129808,57.40625 17.7163462,57.40625 Z" id="Shape"></path>
                        </g>
                        <g id="Group" transform="translate(57.379808, 0.000000)">
                            <path d="M53.5456731,28.0817308 L14.1201923,28.0817308 C13.6971154,28.0817308 13.3269231,27.7379808 13.3269231,27.2884615 C13.3269231,26.8389423 13.6706731,26.4951923 14.1201923,26.4951923 L52.7524038,26.4951923 L52.7524038,1.77163462 L1.71875,1.77163462 L1.71875,26.4951923 L9.78365385,26.4951923 C10.2067308,26.4951923 10.5769231,26.8389423 10.5769231,27.2884615 C10.5769231,27.7379808 10.2331731,28.0817308 9.78365385,28.0817308 L0.951923077,28.0817308 C0.528846154,28.0817308 0.158653846,27.7379808 0.158653846,27.2884615 L0.158653846,0.978365385 C0.158653846,0.555288462 0.502403846,0.185096154 0.951923077,0.185096154 L53.5721154,0.185096154 C53.9951923,0.185096154 54.3653846,0.528846154 54.3653846,0.978365385 L54.3653846,27.2884615 C54.3125,27.7115385 53.96875,28.0817308 53.5456731,28.0817308 Z" id="Shape" fill="#066695"></path>
                            <path d="M9.78365385,36.8341346 C9.67788462,36.8341346 9.57211538,36.8076923 9.49278846,36.78125 C9.20192308,36.6490385 9.01682692,36.3581731 9.01682692,36.0408654 L9.01682692,27.2620192 C9.01682692,26.8389423 9.36057692,26.46875 9.81009615,26.46875 C10.2331731,26.46875 10.6033654,26.8125 10.6033654,27.2620192 L10.6033654,34.1105769 L17.9543269,26.7067308 C18.2716346,26.3894231 18.7475962,26.3894231 19.0649038,26.7067308 C19.3822115,27.0240385 19.3822115,27.5 19.0649038,27.8173077 L10.3653846,36.5961538 C10.1802885,36.7548077 9.96875,36.8341346 9.78365385,36.8341346 Z" id="Shape" fill="#066695"></path>
                            <path d="M44.7668269,10.5504808 L9.70432692,10.5504808 C9.28125,10.5504808 8.91105769,10.2067308 8.91105769,9.75721154 C8.91105769,9.30769231 9.25480769,8.96394231 9.70432692,8.96394231 L44.7668269,8.96394231 C45.1899038,8.96394231 45.5600962,9.30769231 45.5600962,9.75721154 C45.5600962,10.2067308 45.1899038,10.5504808 44.7668269,10.5504808 Z" id="Shape" fill="#F5F6FA"></path>
                            <path d="M44.7668269,19.3028846 L9.70432692,19.3028846 C9.28125,19.3028846 8.91105769,18.9591346 8.91105769,18.5096154 C8.91105769,18.0600962 9.25480769,17.7163462 9.70432692,17.7163462 L44.7668269,17.7163462 C45.1899038,17.7163462 45.5600962,18.0600962 45.5600962,18.5096154 C45.5600962,18.9591346 45.1899038,19.3028846 44.7668269,19.3028846 Z" id="Shape" fill="#F5F6FA"></path>
                        </g>
                        <g id="Group" transform="translate(66.105769, 43.894231)" fill="#066695">
                            <path d="M36.0408654,19.3293269 L29.4038462,19.3293269 C28.9807692,19.3293269 28.6105769,18.9855769 28.6105769,18.5360577 C28.6105769,18.0865385 28.9543269,17.7427885 29.4038462,17.7427885 L35.2475962,17.7427885 L35.2475962,1.71875 L1.82451923,1.71875 L1.82451923,17.7427885 L26.1514423,17.7427885 C26.5745192,17.7427885 26.9447115,18.0865385 26.9447115,18.5360577 C26.9447115,18.9855769 26.6009615,19.3293269 26.1514423,19.3293269 L1.03125,19.3293269 C0.608173077,19.3293269 0.237980769,18.9855769 0.237980769,18.5360577 L0.237980769,0.925480769 C0.237980769,0.502403846 0.581730769,0.132211538 1.03125,0.132211538 L36.0144231,0.132211538 C36.4375,0.132211538 36.8076923,0.475961538 36.8076923,0.925480769 L36.8076923,18.5360577 C36.8341346,18.9855769 36.4639423,19.3293269 36.0408654,19.3293269 Z" id="Shape"></path>
                            <path d="M29.4038462,25.8870192 C29.1923077,25.8870192 29.0072115,25.8076923 28.8485577,25.6490385 L22.34375,19.0913462 C22.0264423,18.7740385 22.0264423,18.2716346 22.34375,17.9807692 C22.6610577,17.6634615 23.1634615,17.6634615 23.4543269,17.9807692 L28.6105769,23.1899038 L28.6105769,18.5360577 C28.6105769,18.1129808 28.9543269,17.7427885 29.4038462,17.7427885 C29.8533654,17.7427885 30.1971154,18.0865385 30.1971154,18.5360577 L30.1971154,25.09375 C30.1971154,25.4110577 30.0120192,25.7019231 29.7211538,25.8341346 C29.6153846,25.8870192 29.5096154,25.8870192 29.4038462,25.8870192 Z" id="Shape"></path>
                        </g>
                        <path d="M93.3677885,54.3653846 L75.8365385,54.3653846 C75.4134615,54.3653846 75.0432692,54.0216346 75.0432692,53.5721154 C75.0432692,53.1490385 75.3870192,52.7788462 75.8365385,52.7788462 L93.3677885,52.7788462 C93.7908654,52.7788462 94.1610577,53.1225962 94.1610577,53.5721154 C94.1610577,54.0216346 93.8173077,54.3653846 93.3677885,54.3653846 Z" id="Shape" fill="#066695"></path>
                        <path d="M110.925481,124.516827 L58.3052885,124.516827 C57.8822115,124.516827 57.5120192,124.173077 57.5120192,123.723558 L57.5120192,97.4134615 C57.5120192,96.9903846 57.8557692,96.6201923 58.3052885,96.6201923 L67.1370192,96.6201923 C67.5600962,96.6201923 67.9302885,96.9639423 67.9302885,97.4134615 C67.9302885,97.8629808 67.5865385,98.2067308 67.1370192,98.2067308 L59.0721154,98.2067308 L59.0721154,122.930288 L110.105769,122.930288 L110.105769,98.2067308 L71.4735577,98.2067308 C71.0504808,98.2067308 70.6802885,97.8629808 70.6802885,97.4134615 C70.6802885,96.9639423 71.0240385,96.6201923 71.4735577,96.6201923 L110.899038,96.6201923 C111.322115,96.6201923 111.692308,96.9639423 111.692308,97.4134615 L111.692308,123.723558 C111.692308,124.173077 111.348558,124.516827 110.925481,124.516827 Z" id="Shape" fill="#066695"></path>
                        <path d="M75.8365385,98.2067308 C75.625,98.2067308 75.4399038,98.1274038 75.28125,97.96875 L67.9302885,90.5649038 L67.9302885,97.4134615 C67.9302885,97.8365385 67.5865385,98.2067308 67.1370192,98.2067308 C66.7139423,98.2067308 66.34375,97.8629808 66.34375,97.4134615 L66.34375,88.6346154 C66.34375,88.3173077 66.5288462,88.0264423 66.8197115,87.8942308 C67.1105769,87.7620192 67.4543269,87.8413462 67.6923077,88.0793269 L76.3918269,96.8581731 C76.7091346,97.1754808 76.7091346,97.6778846 76.3918269,97.96875 C76.2331731,98.1274038 76.0480769,98.2067308 75.8365385,98.2067308 Z" id="Shape" fill="#066695"></path>
                        <path d="M102.146635,115.764423 L67.0841346,115.764423 C66.6610577,115.764423 66.2908654,115.420673 66.2908654,114.971154 C66.2908654,114.521635 66.6346154,114.177885 67.0841346,114.177885 L102.146635,114.177885 C102.569712,114.177885 102.939904,114.521635 102.939904,114.971154 C102.939904,115.420673 102.569712,115.764423 102.146635,115.764423 Z" id="Shape" fill="#F5F6FA"></path>
                        <path d="M102.146635,106.985577 L67.0841346,106.985577 C66.6610577,106.985577 66.2908654,106.641827 66.2908654,106.192308 C66.2908654,105.742788 66.6346154,105.399038 67.0841346,105.399038 L102.146635,105.399038 C102.569712,105.399038 102.939904,105.742788 102.939904,106.192308 C102.939904,106.641827 102.569712,106.985577 102.146635,106.985577 Z" id="Shape" fill="#F5F6FA"></path>
                        <path d="M73.2451923,80.9663462 C73.1658654,80.9663462 73.1129808,80.9663462 73.0336538,80.9399038 C72.9543269,80.9399038 72.9014423,80.9134615 72.8221154,80.8870192 C72.7692308,80.8605769 72.6899038,80.8341346 72.6370192,80.78125 C72.5841346,80.7548077 72.53125,80.7019231 72.4783654,80.6490385 C72.2668269,80.4375 72.1610577,80.1730769 72.1610577,79.8822115 C72.1610577,79.8028846 72.1610577,79.75 72.1875,79.6706731 C72.1875,79.5913462 72.2139423,79.5384615 72.2403846,79.4591346 C72.2668269,79.40625 72.2932692,79.3269231 72.3461538,79.2740385 C72.3725962,79.2211538 72.4254808,79.1682692 72.4783654,79.1153846 C72.53125,79.0625 72.5841346,79.0096154 72.6370192,78.9831731 C72.6899038,78.9567308 72.7692308,78.9038462 72.8221154,78.8774038 C72.875,78.8509615 72.9543269,78.8245192 73.0336538,78.8245192 C73.1658654,78.7980769 73.3245192,78.7980769 73.4567308,78.8245192 C73.5360577,78.8509615 73.5889423,78.8509615 73.6682692,78.8774038 C73.7211538,78.9038462 73.8004808,78.9302885 73.8533654,78.9831731 C73.90625,79.0096154 73.9591346,79.0625 74.0120192,79.1153846 C74.0649038,79.1682692 74.1177885,79.2211538 74.1442308,79.2740385 C74.1706731,79.3269231 74.2235577,79.40625 74.25,79.4591346 C74.2764423,79.5120192 74.3028846,79.5913462 74.3028846,79.6706731 C74.3028846,79.75 74.3293269,79.8028846 74.3293269,79.8822115 C74.3293269,80.1730769 74.2235577,80.4375 74.0120192,80.6490385 C73.9591346,80.7019231 73.90625,80.7548077 73.8533654,80.78125 C73.8004808,80.8076923 73.7211538,80.8605769 73.6682692,80.8870192 C73.6153846,80.9134615 73.5360577,80.9399038 73.4567308,80.9399038 C73.3774038,80.9663462 73.2980769,80.9663462 73.2451923,80.9663462 Z" id="Shape" fill="#066695"></path>
                        <path d="M85.25,80.9663462 C85.1706731,80.9663462 85.1177885,80.9663462 85.0384615,80.9399038 C84.9591346,80.9399038 84.90625,80.9134615 84.8269231,80.8870192 C84.7740385,80.8605769 84.6947115,80.8341346 84.6418269,80.78125 C84.5889423,80.7548077 84.5360577,80.7019231 84.4831731,80.6490385 C84.2716346,80.4375 84.1658654,80.1730769 84.1658654,79.8822115 C84.1658654,79.8028846 84.1658654,79.75 84.1923077,79.6706731 C84.21875,79.5913462 84.21875,79.5384615 84.2451923,79.4591346 C84.2716346,79.40625 84.2980769,79.3269231 84.3509615,79.2740385 C84.3774038,79.2211538 84.4302885,79.1682692 84.4831731,79.1153846 C84.5360577,79.0625 84.5889423,79.0096154 84.6418269,78.9831731 C84.6947115,78.9567308 84.7740385,78.9038462 84.8269231,78.8774038 C84.8798077,78.8509615 84.9591346,78.8245192 85.0384615,78.8245192 C85.1706731,78.7980769 85.3293269,78.7980769 85.4615385,78.8245192 C85.5408654,78.8509615 85.59375,78.8509615 85.6730769,78.8774038 C85.7259615,78.9038462 85.8052885,78.9302885 85.8581731,78.9831731 C85.9110577,79.0096154 85.9639423,79.0625 86.0168269,79.1153846 C86.0697115,79.1682692 86.1225962,79.2211538 86.1490385,79.2740385 C86.1754808,79.3269231 86.2283654,79.40625 86.2548077,79.4591346 C86.28125,79.5120192 86.3076923,79.5913462 86.3076923,79.6706731 C86.3341346,79.75 86.3341346,79.8028846 86.3341346,79.8822115 C86.3341346,80.1730769 86.2283654,80.4375 86.0168269,80.6490385 C85.9639423,80.7019231 85.9110577,80.7548077 85.8581731,80.78125 C85.8052885,80.8076923 85.7259615,80.8605769 85.6730769,80.8870192 C85.6201923,80.9134615 85.5408654,80.9399038 85.4615385,80.9399038 C85.4086538,80.9663462 85.3293269,80.9663462 85.25,80.9663462 Z" id="Shape" fill="#066695"></path>
                        <path d="M97.28125,80.9663462 C97.2019231,80.9663462 97.1490385,80.9663462 97.0697115,80.9399038 C96.9903846,80.9399038 96.9375,80.9134615 96.8581731,80.8870192 C96.8052885,80.8605769 96.7259615,80.8341346 96.6730769,80.78125 C96.6201923,80.7548077 96.5673077,80.7019231 96.5144231,80.6490385 C96.3028846,80.4375 96.1971154,80.1730769 96.1971154,79.8822115 C96.1971154,79.8028846 96.1971154,79.75 96.2235577,79.6706731 C96.25,79.5913462 96.25,79.5384615 96.2764423,79.4591346 C96.3028846,79.40625 96.3293269,79.3269231 96.3822115,79.2740385 C96.4086538,79.2211538 96.4615385,79.1682692 96.5144231,79.1153846 C96.5673077,79.0625 96.6201923,79.0096154 96.6730769,78.9831731 C96.7259615,78.9567308 96.8052885,78.9038462 96.8581731,78.8774038 C96.9110577,78.8509615 96.9903846,78.8245192 97.0697115,78.8245192 C97.2019231,78.7980769 97.3605769,78.7980769 97.4927885,78.8245192 C97.5721154,78.8509615 97.625,78.8509615 97.7043269,78.8774038 C97.7572115,78.9038462 97.8365385,78.9302885 97.8894231,78.9831731 C97.9423077,79.0096154 97.9951923,79.0625 98.0480769,79.1153846 C98.1009615,79.1682692 98.1538462,79.2211538 98.1802885,79.2740385 C98.2067308,79.3269231 98.2596154,79.40625 98.2860577,79.4591346 C98.3125,79.5120192 98.3389423,79.5913462 98.3389423,79.6706731 C98.3389423,79.75 98.3653846,79.8028846 98.3653846,79.8822115 C98.3653846,79.9615385 98.3653846,80.0144231 98.3389423,80.09375 C98.3125,80.1730769 98.3125,80.2259615 98.2860577,80.3052885 C98.2596154,80.3581731 98.2331731,80.4375 98.1802885,80.4903846 C98.1538462,80.5432692 98.1009615,80.5961538 98.0480769,80.6490385 C97.9951923,80.7019231 97.9423077,80.7548077 97.8894231,80.78125 C97.8365385,80.8076923 97.7572115,80.8605769 97.7043269,80.8870192 C97.6514423,80.9134615 97.5721154,80.9399038 97.4927885,80.9399038 C97.4399038,80.9663462 97.3605769,80.9663462 97.28125,80.9663462 Z" id="Shape" fill="#066695"></path>
                    </g>
                </g>
            </g>
        </g>
    </g>
</svg>