<?xml version="1.0" encoding="UTF-8" standalone="no"?>
<svg width="121px" height="130px" viewBox="0 0 121 130" version="1.1" xmlns="http://www.w3.org/2000/svg" xmlns:xlink="http://www.w3.org/1999/xlink">
    <!-- Generator: sketchtool 49.3 (51167) - http://www.bohemiancoding.com/sketch -->
    <title>C4C30C9D-8AC8-442D-B9B4-2C3725E48386</title>
    <desc>Created with sketchtool.</desc>
    <defs></defs>
    <g id="Welcome" stroke="none" stroke-width="1" fill="none" fill-rule="evenodd">
        <g id="homepage-mobile" transform="translate(-100.000000, -1241.000000)" fill-rule="nonzero">
            <g id="how-section" transform="translate(8.000000, 865.000000)">
                <g id="Group-2" transform="translate(46.000000, 359.000000)">
                    <g id="Redeploying-Tools-symbol" transform="translate(46.000000, 17.000000)">
                        <polygon id="Shape" fill="#D8EAF3" points="119.94138 26.3917157 94.4464701 26.3917157 94.4464701 0.896805875"></polygon>
                        <path d="M60.3678469,12.5809053 C62.6739191,12.5809053 64.570023,14.4513861 64.570023,16.7830814 C64.570023,19.0891536 62.6995422,20.9852575 60.3678469,20.9852575 C58.0617746,20.9852575 56.1656708,19.1147766 56.1656708,16.7830814 C56.1912938,14.4513861 58.0617746,12.5809053 60.3678469,12.5809053 Z" id="Shape" fill="#2E96D3"></path>
                        <path d="M18.0386096,38.7676368 C20.3446818,38.7676368 22.2407857,40.6381176 22.2407857,42.9698129 C22.2407857,45.2758852 20.3703049,47.171989 18.0386096,47.171989 C15.7325373,47.171989 13.8364335,45.3015082 13.8364335,42.9698129 C13.8364335,40.6381176 15.7325373,38.7676368 18.0386096,38.7676368 Z" id="Shape" fill="#ED1E7A"></path>
                        <path d="M77.4584046,102.850822 L77.4584046,122.196206 C77.4584046,125.604069 74.6911179,128.345732 71.3088786,128.345732 L29.722709,128.345732 L16.2193748,128.345732 L6.94383977,128.345732 C3.66409257,128.345732 0.97367495,125.680938 0.97367495,122.375567 L0.97367495,32.3362575 C0.97367495,29.0565103 3.63846955,26.3660927 6.94383977,26.3660927 L43.4566504,26.3660927 L43.4566504,96.8806575 C43.4566504,100.160405 46.121445,102.850822 49.4268152,102.850822 L54.7307814,102.850822 C52.3990861,106.848014 49.0424698,110.179007 44.9940319,112.459457 C52.7578085,112.177603 59.6760252,108.462265 64.2369237,102.799576 L64.2881697,102.850822 L77.4584046,102.850822 Z M22.2151627,42.9441899 C22.2151627,40.6381176 20.3446818,38.7420138 18.0129866,38.7420138 C15.7069143,38.7420138 13.8108105,40.6124946 13.8108105,42.9441899 C13.8108105,45.2502621 15.6812913,47.146366 18.0129866,47.146366 C20.3446818,47.146366 22.2151627,45.2758852 22.2151627,42.9441899 Z" id="Shape" fill="#ED1E7A"></path>
                        <path d="M119.94138,26.3917157 L119.94138,96.7012963 C119.94138,100.109159 117.174093,102.850822 113.791854,102.850822 L100.262897,102.850822 L88.5275514,102.850822 L77.4327815,102.850822 L64.2881697,102.850822 L64.2369237,102.799576 C67.7985241,98.3667929 69.9252352,92.7297274 69.9252352,86.6058245 C69.9252352,86.0421179 69.8996122,85.5040344 69.8739892,84.9403279 L75.7416619,84.9403279 L63.6732171,69.5665129 L51.6047723,84.9403279 L57.7286753,84.9403279 C58.0361516,86.5545784 58.2155128,88.194452 58.2155128,89.8855717 C58.2155128,94.6002083 56.9599846,99.0329916 54.7307814,102.850822 L49.4268152,102.850822 C46.147068,102.850822 43.4566504,100.186028 43.4566504,96.8806575 L43.4566504,26.3917157 L43.4566504,6.8669707 C43.4566504,3.5872235 46.121445,0.896805875 49.4268152,0.896805875 L94.4464701,0.896805875 L94.4464701,26.3917157 L119.94138,26.3917157 Z M64.570023,16.7830814 C64.570023,14.4770091 62.6995422,12.5809053 60.3678469,12.5809053 C58.0617746,12.5809053 56.1656708,14.4513861 56.1656708,16.7830814 C56.1656708,19.0891536 58.0361516,20.9852575 60.3678469,20.9852575 C62.6995422,20.9596344 64.570023,19.0891536 64.570023,16.7830814 Z" id="Shape" fill="#2E96D3"></path>
                        <path d="M54.7307814,102.850822 C56.9343615,99.0329916 58.2155128,94.6258313 58.2155128,89.8855717 C58.2155128,88.194452 58.0617746,86.5289554 57.7286753,84.9403279 L51.6047723,84.9403279 L63.6732171,69.5665129 L75.7416619,84.9403279 L69.8739892,84.9403279 C69.8996122,85.4784114 69.9252352,86.0421179 69.9252352,86.6058245 C69.9252352,92.7297274 67.7985241,98.3667929 64.2369237,102.799576 C59.6760252,108.462265 52.7834315,112.177603 44.9940319,112.459457 C49.0424698,110.20463 52.3990861,106.873637 54.7307814,102.850822 Z" id="Shape" fill="#D8EAF3"></path>
                        <path d="M49.4268152,102.850822 L54.7307814,102.850822 C53.8083525,104.465073 52.7065624,105.951208 51.4510342,107.334852 L45.4296233,101.313441 C46.4801673,102.287116 47.8894337,102.850822 49.4268152,102.850822 Z" id="Shape" fill="#DD1372"></path>
                        <path d="M77.4584046,102.850822 L77.4584046,122.196206 C77.4584046,125.219723 75.2548244,127.756403 72.3850456,128.268863 L54.4489281,110.332746 C58.2923819,108.641626 61.6489981,106.0537 64.2625467,102.825199 L64.3137927,102.876445 L77.4584046,102.876445 L77.4584046,102.850822 Z" id="Shape" fill="#DD1372"></path>
                        <g id="Group" fill="#066695">
                            <path d="M54.7307814,103.619513 L49.4268152,103.619513 C45.7114766,103.619513 42.7135827,100.595996 42.7135827,96.9062805 L42.7135827,6.8669707 C42.7135827,3.15163207 45.7370996,0.15373815 49.4268152,0.15373815 L94.4464701,0.15373815 C94.8564385,0.15373815 95.2151609,0.486837475 95.2151609,0.9224289 C95.2151609,1.35802032 94.8820615,1.69111965 94.4464701,1.69111965 L49.4268152,1.69111965 C46.5570364,1.69111965 44.2253411,4.02281492 44.2253411,6.89259372 L44.2253411,96.9319035 C44.2253411,99.8016823 46.5570364,102.133378 49.4268152,102.133378 L54.7307814,102.133378 C55.1407498,102.133378 55.4994721,102.466477 55.4994721,102.902068 C55.4994721,103.33766 55.1663728,103.619513 54.7307814,103.619513 Z" id="Shape"></path>
                            <path d="M113.766231,103.619513 L64.2881697,103.619513 C63.8782013,103.619513 63.519479,103.286414 63.519479,102.850822 C63.519479,102.415231 63.8525783,102.082132 64.2881697,102.082132 L113.766231,102.082132 C116.738502,102.082132 119.147066,99.6735672 119.147066,96.7012963 L119.147066,26.3917157 C119.147066,25.9817473 119.480166,25.623025 119.915757,25.623025 C120.351348,25.623025 120.684448,25.9561243 120.684448,26.3917157 L120.684448,96.7012963 C120.684448,100.519127 117.584062,103.619513 113.766231,103.619513 Z" id="Shape"></path>
                            <path d="M119.94138,27.1604065 L94.4464701,27.1604065 C94.0365017,27.1604065 93.6777794,26.8273072 93.6777794,26.3917157 L93.6777794,0.896805875 C93.6777794,0.589329575 93.8571405,0.3074763 94.1389938,0.179361175 C94.4208471,0.05124605 94.7539464,0.128115125 94.9845536,0.333099325 L120.479464,25.8280092 C120.710071,26.0586164 120.761317,26.3660927 120.633202,26.673569 C120.53071,26.9810453 120.248856,27.1604065 119.94138,27.1604065 Z M95.2151609,25.623025 L118.096522,25.623025 L95.2151609,2.74166367 L95.2151609,25.623025 Z" id="Shape"></path>
                            <path d="M71.2832555,129.114423 L6.94383977,129.114423 C3.22850115,129.114423 0.230607225,126.090906 0.230607225,122.40119 L0.230607225,32.3618806 C0.230607225,28.6465419 3.25412417,25.648648 6.94383977,25.648648 L43.4566504,25.648648 C43.8666188,25.648648 44.2253411,25.9817473 44.2253411,26.4173388 C44.2253411,26.8529302 43.8922418,27.1860295 43.4566504,27.1860295 L6.94383977,27.1860295 C4.07406097,27.1860295 1.7423657,29.5177248 1.7423657,32.3875036 L1.7423657,122.426813 C1.7423657,125.296592 4.07406097,127.628287 6.94383977,127.628287 L71.2832555,127.628287 C74.2555264,127.628287 76.6640908,125.219723 76.6640908,122.247452 L76.6640908,102.902068 C76.6640908,102.4921 76.9971901,102.133378 77.4327815,102.133378 C77.868373,102.133378 78.2014723,102.466477 78.2014723,102.902068 L78.2014723,122.247452 C78.2270953,126.014037 75.1010863,129.114423 71.2832555,129.114423 Z" id="Shape"></path>
                        </g>
                        <g id="Group" transform="translate(12.811512, 37.922077)" fill="#F5F6FA">
                            <path d="M5.2270971,9.99297975 C2.48543342,9.99297975 0.281853275,7.76377657 0.281853275,5.04773592 C0.281853275,2.30607225 2.51105645,0.1024921 5.2270971,0.1024921 C7.96876077,0.1024921 10.1723409,2.33169527 10.1723409,5.04773592 C10.1723409,7.76377657 7.94313775,9.99297975 5.2270971,9.99297975 Z M5.2270971,1.61425057 C3.33099325,1.61425057 1.79361175,3.15163207 1.79361175,5.04773592 C1.79361175,6.94383977 3.33099325,8.48122127 5.2270971,8.48122127 C7.12320095,8.48122127 8.66058245,6.94383977 8.66058245,5.04773592 C8.66058245,3.15163207 7.12320095,1.61425057 5.2270971,1.61425057 Z" id="Shape"></path>
                            <path d="M9.40365017,26.9810453 C9.19866597,26.9810453 9.0193048,26.9041762 8.86556665,26.7504381 L0.486837475,18.3717089 C0.179361175,18.0642326 0.179361175,17.5773951 0.486837475,17.2955419 C0.794313775,16.9880656 1.28115125,16.9880656 1.56300452,17.2955419 L9.9417337,25.674271 C10.24921,25.9817473 10.24921,26.4685848 9.9417337,26.7504381 C9.81361857,26.9041762 9.60863437,26.9810453 9.40365017,26.9810453 Z" id="Shape"></path>
                            <path d="M1.024921,26.9810453 C0.8199368,26.9810453 0.640575625,26.9041762 0.486837475,26.7504381 C0.179361175,26.4429618 0.179361175,25.9561243 0.486837475,25.674271 L8.86556665,17.2955419 C9.17304295,16.9880656 9.65988042,16.9880656 9.9417337,17.2955419 C10.24921,17.6030182 10.24921,18.0898556 9.9417337,18.3717089 L1.56300452,26.7504381 C1.4348894,26.9041762 1.2299052,26.9810453 1.024921,26.9810453 Z" id="Shape"></path>
                            <path d="M1.024921,35.7953659 C0.97367495,35.7953659 0.9224289,35.7953659 0.87118285,35.7697429 C0.8199368,35.7697429 0.76869075,35.7441199 0.7174447,35.7184968 C0.66619865,35.6928738 0.6149526,35.6672508 0.589329575,35.6416278 C0.538083525,35.6160047 0.5124605,35.5903817 0.46121445,35.5391357 C0.435591425,35.5135126 0.384345375,35.4622666 0.35872235,35.4110205 C0.333099325,35.3597745 0.3074763,35.3341515 0.281853275,35.2829054 C0.25623025,35.2316594 0.25623025,35.1804133 0.230607225,35.1291673 C0.230607225,35.0779212 0.2049842,35.0266752 0.2049842,34.9754291 C0.2049842,34.9241831 0.2049842,34.872937 0.230607225,34.821691 C0.230607225,34.7704449 0.25623025,34.7191989 0.281853275,34.6679528 C0.3074763,34.6167068 0.333099325,34.5654607 0.35872235,34.5398377 C0.384345375,34.4885916 0.4099684,34.4629686 0.46121445,34.4117226 C0.486837475,34.3860995 0.538083525,34.3348535 0.589329575,34.3092305 C0.640575625,34.2836074 0.66619865,34.2579844 0.7174447,34.2323614 C0.76869075,34.2067384 0.8199368,34.2067384 0.87118285,34.1811153 C0.97367495,34.1554923 1.07616705,34.1554923 1.17865915,34.1811153 C1.2299052,34.1811153 1.28115125,34.2067384 1.3323973,34.2323614 C1.38364335,34.2579844 1.4348894,34.2836074 1.46051242,34.3092305 C1.51175847,34.3348535 1.5373815,34.3604765 1.58862755,34.4117226 C1.61425057,34.4373456 1.66549662,34.4885916 1.69111965,34.5398377 C1.71674267,34.5910837 1.7423657,34.6167068 1.76798872,34.6679528 C1.79361175,34.7191989 1.79361175,34.7704449 1.81923477,34.821691 C1.81923477,34.872937 1.8448578,34.9241831 1.8448578,34.9754291 C1.8448578,35.0266752 1.8448578,35.0779212 1.81923477,35.1291673 C1.81923477,35.1804133 1.79361175,35.2316594 1.76798872,35.2829054 C1.7423657,35.3341515 1.71674267,35.3853975 1.69111965,35.4110205 C1.66549662,35.4622666 1.6398736,35.4878896 1.58862755,35.5391357 C1.56300452,35.5647587 1.51175847,35.6160047 1.46051242,35.6416278 C1.40926637,35.6672508 1.38364335,35.6928738 1.3323973,35.7184968 C1.28115125,35.7441199 1.2299052,35.7441199 1.17865915,35.7697429 C1.1274131,35.7697429 1.07616705,35.7953659 1.024921,35.7953659 Z" id="Shape"></path>
                            <path d="M9.40365017,35.7953659 C9.19866597,35.7953659 8.99368177,35.7184968 8.86556665,35.5647587 C8.83994362,35.5391357 8.78869757,35.4878896 8.76307455,35.4366436 C8.73745152,35.3853975 8.7118285,35.3597745 8.68620547,35.3085284 C8.66058245,35.2572824 8.66058245,35.2060363 8.63495942,35.1547903 C8.63495942,35.1035442 8.6093364,35.0522982 8.6093364,35.0010521 C8.6093364,34.9498061 8.6093364,34.89856 8.63495942,34.847314 C8.63495942,34.7960679 8.66058245,34.7448219 8.68620547,34.6935758 C8.7118285,34.6423298 8.73745152,34.5910837 8.76307455,34.5654607 C8.78869757,34.5142147 8.8143206,34.4885916 8.86556665,34.4373456 C9.0193048,34.2836074 9.19866597,34.2067384 9.40365017,34.2067384 C9.60863437,34.2067384 9.81361857,34.2836074 9.9417337,34.4373456 C9.96735672,34.4629686 10.0186028,34.5142147 10.0442258,34.5654607 C10.0698488,34.6167068 10.0954718,34.6423298 10.1210949,34.6935758 C10.1467179,34.7448219 10.1467179,34.7960679 10.1723409,34.847314 C10.1723409,34.89856 10.1979639,34.9498061 10.1979639,35.0010521 C10.1979639,35.0522982 10.1979639,35.1035442 10.1723409,35.1547903 C10.1723409,35.2060363 10.1467179,35.2572824 10.1210949,35.3085284 C10.0954718,35.3597745 10.0698488,35.4110205 10.0442258,35.4366436 C10.0186028,35.4878896 9.99297975,35.5135126 9.9417337,35.5647587 C9.91611067,35.5903817 9.86486462,35.6416278 9.81361857,35.6672508 C9.76237252,35.6928738 9.7367495,35.7184968 9.68550345,35.7441199 C9.6342574,35.7697429 9.58301135,35.7697429 9.5317653,35.7953659 C9.50614227,35.7697429 9.45489622,35.7953659 9.40365017,35.7953659 Z" id="Shape"></path>
                            <path d="M5.2270971,39.971919 C5.17585105,39.971919 5.124605,39.971919 5.07335895,39.946296 C5.0221129,39.946296 4.97086685,39.9206729 4.9196208,39.8950499 C4.86837475,39.8694269 4.8171287,39.8438039 4.79150567,39.8181808 C4.74025962,39.7925578 4.7146366,39.7669348 4.66339055,39.7156887 C4.63776752,39.6900657 4.58652147,39.6388197 4.56089845,39.5875736 C4.53527542,39.5363276 4.5096524,39.5107045 4.48402937,39.4594585 C4.45840635,39.4082124 4.45840635,39.3569664 4.43278332,39.3057203 C4.43278332,39.2544743 4.4071603,39.2032282 4.4071603,39.1519822 C4.4071603,39.1007361 4.4071603,39.0494901 4.43278332,38.998244 C4.43278332,38.946998 4.45840635,38.8957519 4.48402937,38.8445059 C4.5096524,38.7932598 4.53527542,38.7420138 4.56089845,38.7163908 C4.58652147,38.6651447 4.6121445,38.6395217 4.66339055,38.5882756 C4.68901357,38.5626526 4.74025962,38.5114066 4.79150567,38.4857835 C4.84275172,38.4601605 4.86837475,38.4345375 4.9196208,38.4089145 C4.97086685,38.3832914 5.0221129,38.3832914 5.07335895,38.3576684 C5.17585105,38.3320454 5.27834315,38.3320454 5.38083525,38.3576684 C5.4320813,38.3576684 5.48332735,38.3832914 5.5345734,38.4089145 C5.58581945,38.4345375 5.6370655,38.4601605 5.66268852,38.4857835 C5.71393457,38.5114066 5.7395576,38.5370296 5.79080365,38.5882756 C5.81642667,38.6138987 5.86767272,38.6651447 5.89329575,38.7163908 C5.91891877,38.7676368 5.9445418,38.7932598 5.97016482,38.8445059 C5.99578785,38.8957519 5.99578785,38.946998 6.02141087,38.998244 C6.02141087,39.0494901 6.0470339,39.1007361 6.0470339,39.1519822 C6.0470339,39.2032282 6.0470339,39.2544743 6.02141087,39.3057203 C6.02141087,39.3569664 5.99578785,39.4082124 5.97016482,39.4594585 C5.9445418,39.5107045 5.91891877,39.5619506 5.89329575,39.5875736 C5.86767272,39.6388197 5.8420497,39.6644427 5.79080365,39.7156887 C5.76518062,39.7413118 5.71393457,39.7925578 5.66268852,39.8181808 C5.61144247,39.8438039 5.58581945,39.8694269 5.5345734,39.8950499 C5.48332735,39.9206729 5.4320813,39.9206729 5.38083525,39.946296 C5.3295892,39.971919 5.27834315,39.971919 5.2270971,39.971919 Z" id="Shape"></path>
                            <g transform="translate(0.000000, 42.534221)" id="Shape">
                                <path d="M1.024921,1.61425057 C0.97367495,1.61425057 0.9224289,1.61425057 0.87118285,1.58862755 C0.8199368,1.58862755 0.76869075,1.56300452 0.7174447,1.5373815 C0.66619865,1.51175847 0.6149526,1.48613545 0.589329575,1.46051242 C0.538083525,1.4348894 0.5124605,1.40926637 0.46121445,1.35802032 C0.435591425,1.3323973 0.384345375,1.28115125 0.35872235,1.2299052 C0.333099325,1.17865915 0.3074763,1.15303612 0.281853275,1.10179007 C0.25623025,1.05054402 0.25623025,0.999297975 0.230607225,0.948051925 C0.230607225,0.896805875 0.2049842,0.845559825 0.2049842,0.794313775 C0.2049842,0.743067725 0.2049842,0.691821675 0.230607225,0.640575625 C0.230607225,0.589329575 0.25623025,0.538083525 0.281853275,0.486837475 C0.3074763,0.435591425 0.333099325,0.384345375 0.35872235,0.35872235 C0.384345375,0.3074763 0.4099684,0.281853275 0.46121445,0.230607225 C0.640575625,0.05124605 0.896805875,-0.025623025 1.15303612,0.025623025 C1.20428217,0.025623025 1.25552822,0.05124605 1.30677427,0.076869075 C1.35802032,0.1024921 1.40926637,0.128115125 1.4348894,0.15373815 C1.48613545,0.179361175 1.51175847,0.2049842 1.56300452,0.25623025 C1.58862755,0.281853275 1.6398736,0.333099325 1.66549662,0.384345375 C1.69111965,0.435591425 1.71674267,0.46121445 1.7423657,0.5124605 C1.76798872,0.56370655 1.76798872,0.6149526 1.79361175,0.66619865 C1.79361175,0.7174447 1.81923477,0.76869075 1.81923477,0.8199368 C1.81923477,0.87118285 1.81923477,0.9224289 1.79361175,0.97367495 C1.79361175,1.024921 1.76798872,1.07616705 1.7423657,1.1274131 C1.71674267,1.17865915 1.69111965,1.2299052 1.66549662,1.25552822 C1.6398736,1.30677427 1.61425057,1.3323973 1.56300452,1.38364335 C1.5373815,1.40926637 1.48613545,1.46051242 1.4348894,1.48613545 C1.38364335,1.51175847 1.35802032,1.5373815 1.30677427,1.56300452 C1.25552822,1.58862755 1.20428217,1.58862755 1.15303612,1.61425057 C1.1274131,1.61425057 1.07616705,1.61425057 1.024921,1.61425057 Z"></path>
                                <path d="M9.40365017,1.61425057 C9.19866597,1.61425057 8.99368177,1.5373815 8.86556665,1.38364335 C8.7118285,1.2299052 8.63495942,1.05054402 8.63495942,0.845559825 C8.63495942,0.640575625 8.7118285,0.435591425 8.86556665,0.3074763 C9.0193048,0.15373815 9.19866597,0.076869075 9.40365017,0.076869075 C9.60863437,0.076869075 9.81361857,0.15373815 9.9417337,0.3074763 C10.0954718,0.46121445 10.1723409,0.640575625 10.1723409,0.845559825 C10.1723409,1.05054402 10.0954718,1.25552822 9.9417337,1.38364335 C9.81361857,1.5373815 9.60863437,1.61425057 9.40365017,1.61425057 Z"></path>
                            </g>
                            <path d="M17.9104945,44.1484721 C17.5005261,44.1484721 17.1418037,43.8153727 17.1418037,43.3797813 L17.1418037,0.845559825 C17.1418037,0.435591425 17.474903,0.076869075 17.9104945,0.076869075 C18.3460859,0.076869075 18.6791852,0.4099684 18.6791852,0.845559825 L18.6791852,43.3797813 C18.6791852,43.8153727 18.3204629,44.1484721 17.9104945,44.1484721 Z" id="Shape"></path>
                        </g>
                        <g id="Group" transform="translate(55.345734, 11.786591)" fill="#F5F6FA">
                            <path d="M5.0221129,9.9417337 C2.28044922,9.9417337 0.076869075,7.71253052 0.076869075,4.99648987 C0.076869075,2.2548262 2.30607225,0.05124605 5.0221129,0.05124605 C7.76377657,0.05124605 9.96735672,2.28044922 9.96735672,4.99648987 C9.99297975,7.71253052 7.76377657,9.9417337 5.0221129,9.9417337 Z M5.0221129,1.56300452 C3.12600905,1.56300452 1.58862755,3.10038602 1.58862755,4.99648987 C1.58862755,6.89259372 3.12600905,8.42997522 5.0221129,8.42997522 C6.91821675,8.42997522 8.45559825,6.89259372 8.45559825,4.99648987 C8.45559825,3.10038602 6.91821675,1.56300452 5.0221129,1.56300452 Z" id="Shape"></path>
                            <path d="M9.224289,26.9297993 C9.0193048,26.9297993 8.83994362,26.8529302 8.68620547,26.699192 L0.3074763,18.3204629 C-1.47937218e-14,18.0129866 -1.47937218e-14,17.5261491 0.3074763,17.2442958 C0.6149526,16.9368195 1.10179007,16.9368195 1.38364335,17.2442958 L9.76237252,25.623025 C10.0698488,25.9305013 10.0698488,26.4173388 9.76237252,26.699192 C9.60863437,26.8529302 9.4292732,26.9297993 9.224289,26.9297993 Z" id="Shape"></path>
                            <path d="M0.845559825,26.9297993 C0.640575625,26.9297993 0.46121445,26.8529302 0.3074763,26.699192 C-1.47937218e-14,26.3917157 -1.47937218e-14,25.9048783 0.3074763,25.623025 L8.68620547,17.2442958 C8.99368177,16.9368195 9.48051925,16.9368195 9.76237252,17.2442958 C10.0698488,17.5517721 10.0698488,18.0386096 9.76237252,18.3204629 L1.38364335,26.699192 C1.2299052,26.8529302 1.024921,26.9297993 0.845559825,26.9297993 Z" id="Shape"></path>
                            <path d="M0.845559825,35.7441199 C0.794313775,35.7441199 0.743067725,35.7441199 0.691821675,35.7184968 C0.640575625,35.7184968 0.589329575,35.6928738 0.538083525,35.6672508 C0.486837475,35.6416278 0.435591425,35.6160047 0.4099684,35.5903817 C0.35872235,35.5647587 0.333099325,35.5391357 0.281853275,35.4878896 C0.25623025,35.4622666 0.2049842,35.4110205 0.179361175,35.3597745 C0.15373815,35.3085284 0.128115125,35.2829054 0.1024921,35.2316594 C0.076869075,35.1804133 0.076869075,35.1291673 0.05124605,35.0779212 C0.05124605,35.0266752 0.025623025,34.9754291 0.025623025,34.9241831 C0.025623025,34.872937 0.025623025,34.821691 0.05124605,34.7704449 C0.05124605,34.7191989 0.076869075,34.6679528 0.1024921,34.6167068 C0.128115125,34.5654607 0.15373815,34.5142147 0.179361175,34.4885916 C0.2049842,34.4373456 0.230607225,34.4117226 0.281853275,34.3604765 C0.3074763,34.3348535 0.35872235,34.2836074 0.4099684,34.2579844 C0.46121445,34.2323614 0.486837475,34.2067384 0.538083525,34.1811153 C0.589329575,34.1554923 0.640575625,34.1554923 0.691821675,34.1298693 C0.794313775,34.1042463 0.896805875,34.1042463 0.999297975,34.1298693 C1.05054402,34.1298693 1.10179007,34.1554923 1.15303612,34.1811153 C1.20428217,34.2067384 1.25552822,34.2323614 1.28115125,34.2579844 C1.3323973,34.2836074 1.35802032,34.3092305 1.40926637,34.3604765 C1.4348894,34.3860995 1.48613545,34.4373456 1.51175847,34.4885916 C1.5373815,34.5398377 1.56300452,34.5654607 1.58862755,34.6167068 C1.61425057,34.6679528 1.61425057,34.7191989 1.6398736,34.7704449 C1.6398736,34.821691 1.66549662,34.872937 1.66549662,34.9241831 C1.66549662,34.9754291 1.66549662,35.0266752 1.6398736,35.0779212 C1.6398736,35.1291673 1.61425057,35.1804133 1.58862755,35.2316594 C1.56300452,35.2829054 1.5373815,35.3341515 1.51175847,35.3597745 C1.48613545,35.4110205 1.46051242,35.4366436 1.40926637,35.4878896 C1.38364335,35.5135126 1.3323973,35.5647587 1.28115125,35.5903817 C1.2299052,35.6160047 1.20428217,35.6416278 1.15303612,35.6672508 C1.10179007,35.6928738 1.05054402,35.6928738 0.999297975,35.7184968 C0.948051925,35.7441199 0.896805875,35.7441199 0.845559825,35.7441199 Z" id="Shape"></path>
                            <path d="M9.224289,35.7441199 C9.17304295,35.7441199 9.1217969,35.7441199 9.07055085,35.7184968 C9.0193048,35.7184968 8.96805875,35.6928738 8.9168127,35.6672508 C8.86556665,35.6416278 8.8143206,35.6160047 8.78869757,35.5903817 C8.73745152,35.5647587 8.7118285,35.5391357 8.66058245,35.4878896 C8.63495942,35.4622666 8.58371337,35.4110205 8.55809035,35.3597745 C8.53246732,35.3085284 8.5068443,35.2829054 8.48122127,35.2316594 C8.45559825,35.1804133 8.45559825,35.1291673 8.42997522,35.0779212 C8.42997522,35.0266752 8.4043522,34.9754291 8.4043522,34.9241831 C8.4043522,34.872937 8.4043522,34.821691 8.42997522,34.7704449 C8.42997522,34.7191989 8.45559825,34.6679528 8.48122127,34.6167068 C8.5068443,34.5654607 8.53246732,34.5142147 8.55809035,34.4885916 C8.58371337,34.4373456 8.6093364,34.4117226 8.66058245,34.3604765 C8.68620547,34.3348535 8.73745152,34.2836074 8.78869757,34.2579844 C8.83994362,34.2323614 8.86556665,34.2067384 8.9168127,34.1811153 C8.96805875,34.1554923 9.0193048,34.1554923 9.07055085,34.1298693 C9.17304295,34.1042463 9.27553505,34.1042463 9.37802715,34.1298693 C9.4292732,34.1298693 9.48051925,34.1554923 9.5317653,34.1811153 C9.58301135,34.2067384 9.6342574,34.2323614 9.65988042,34.2579844 C9.71112647,34.2836074 9.7367495,34.3092305 9.78799555,34.3604765 C9.81361857,34.3860995 9.86486462,34.4373456 9.89048765,34.4885916 C9.91611067,34.5398377 9.9417337,34.5654607 9.96735672,34.6167068 C9.99297975,34.6679528 9.99297975,34.7191989 10.0186028,34.7704449 C10.0186028,34.821691 10.0442258,34.872937 10.0442258,34.9241831 C10.0442258,35.1291673 9.96735672,35.3341515 9.81361857,35.4622666 C9.78799555,35.4878896 9.7367495,35.5391357 9.68550345,35.5647587 C9.6342574,35.5903817 9.60863437,35.6160047 9.55738832,35.6416278 C9.50614227,35.6672508 9.45489622,35.6672508 9.40365017,35.6928738 C9.3267811,35.7441199 9.27553505,35.7441199 9.224289,35.7441199 Z" id="Shape"></path>
                            <path d="M5.0221129,39.9206729 C4.97086685,39.9206729 4.9196208,39.9206729 4.86837475,39.8950499 C4.8171287,39.8950499 4.76588265,39.8694269 4.7146366,39.8438039 C4.66339055,39.8181808 4.6121445,39.7925578 4.58652147,39.7669348 C4.53527542,39.7413118 4.5096524,39.7156887 4.45840635,39.6644427 C4.3046682,39.5107045 4.22779912,39.3313434 4.22779912,39.1263592 C4.22779912,39.0751131 4.22779912,39.0238671 4.25342215,38.972621 C4.25342215,38.921375 4.27904517,38.8701289 4.3046682,38.8188829 C4.33029122,38.7676368 4.35591425,38.7163908 4.38153727,38.6907677 C4.4071603,38.6395217 4.43278332,38.6138987 4.48402937,38.5626526 C4.5096524,38.5370296 4.56089845,38.4857835 4.6121445,38.4601605 C4.66339055,38.4345375 4.68901357,38.4089145 4.74025962,38.3832914 C4.79150567,38.3576684 4.84275172,38.3576684 4.89399777,38.3320454 C5.15022802,38.2807993 5.40645827,38.3576684 5.58581945,38.5370296 C5.61144247,38.5626526 5.66268852,38.6138987 5.68831155,38.6651447 C5.71393457,38.7163908 5.7395576,38.7420138 5.76518062,38.7932598 C5.79080365,38.8445059 5.79080365,38.8957519 5.81642667,38.946998 C5.81642667,38.998244 5.8420497,39.0494901 5.8420497,39.1007361 C5.8420497,39.1519822 5.8420497,39.2032282 5.81642667,39.2544743 C5.81642667,39.3057203 5.79080365,39.3569664 5.76518062,39.4082124 C5.7395576,39.4594585 5.71393457,39.5107045 5.68831155,39.5363276 C5.66268852,39.5875736 5.6370655,39.6131966 5.58581945,39.6644427 C5.4320813,39.8438039 5.2270971,39.9206729 5.0221129,39.9206729 Z" id="Shape"></path>
                            <g transform="translate(0.000000, 42.277991)" id="Shape">
                                <path d="M0.845559825,1.81923477 C0.794313775,1.81923477 0.743067725,1.81923477 0.691821675,1.79361175 C0.640575625,1.79361175 0.589329575,1.76798872 0.538083525,1.7423657 C0.486837475,1.71674267 0.435591425,1.69111965 0.4099684,1.66549662 C0.35872235,1.6398736 0.333099325,1.61425057 0.281853275,1.56300452 C0.25623025,1.5373815 0.2049842,1.48613545 0.179361175,1.4348894 C0.15373815,1.38364335 0.128115125,1.35802032 0.1024921,1.30677427 C0.076869075,1.25552822 0.076869075,1.20428217 0.05124605,1.15303612 C0.05124605,1.10179007 0.025623025,1.05054402 0.025623025,0.999297975 C0.025623025,0.948051925 0.025623025,0.896805875 0.05124605,0.845559825 C0.05124605,0.794313775 0.076869075,0.743067725 0.1024921,0.691821675 C0.128115125,0.640575625 0.15373815,0.589329575 0.179361175,0.56370655 C0.2049842,0.5124605 0.230607225,0.486837475 0.281853275,0.435591425 C0.3074763,0.4099684 0.35872235,0.35872235 0.4099684,0.333099325 C0.46121445,0.3074763 0.486837475,0.281853275 0.538083525,0.25623025 C0.589329575,0.230607225 0.640575625,0.230607225 0.691821675,0.2049842 C0.794313775,0.179361175 0.896805875,0.179361175 0.999297975,0.2049842 C1.05054402,0.2049842 1.10179007,0.230607225 1.15303612,0.25623025 C1.20428217,0.281853275 1.25552822,0.3074763 1.28115125,0.333099325 C1.3323973,0.35872235 1.35802032,0.384345375 1.40926637,0.435591425 C1.4348894,0.46121445 1.48613545,0.5124605 1.51175847,0.56370655 C1.5373815,0.6149526 1.56300452,0.640575625 1.58862755,0.691821675 C1.61425057,0.743067725 1.61425057,0.794313775 1.6398736,0.845559825 C1.6398736,0.896805875 1.66549662,0.948051925 1.66549662,0.999297975 C1.66549662,1.05054402 1.66549662,1.10179007 1.6398736,1.15303612 C1.6398736,1.20428217 1.61425057,1.25552822 1.58862755,1.30677427 C1.56300452,1.35802032 1.5373815,1.40926637 1.51175847,1.4348894 C1.48613545,1.48613545 1.46051242,1.51175847 1.40926637,1.56300452 C1.38364335,1.58862755 1.3323973,1.6398736 1.28115125,1.66549662 C1.2299052,1.69111965 1.20428217,1.71674267 1.15303612,1.7423657 C1.10179007,1.76798872 1.05054402,1.76798872 0.999297975,1.79361175 C0.948051925,1.81923477 0.896805875,1.81923477 0.845559825,1.81923477 Z"></path>
                                <path d="M9.224289,1.81923477 C9.17304295,1.81923477 9.1217969,1.81923477 9.07055085,1.79361175 C9.0193048,1.79361175 8.96805875,1.76798872 8.9168127,1.7423657 C8.86556665,1.71674267 8.8143206,1.69111965 8.78869757,1.66549662 C8.73745152,1.6398736 8.7118285,1.61425057 8.66058245,1.56300452 C8.63495942,1.5373815 8.58371337,1.48613545 8.55809035,1.4348894 C8.53246732,1.38364335 8.5068443,1.35802032 8.48122127,1.30677427 C8.45559825,1.25552822 8.45559825,1.20428217 8.42997522,1.15303612 C8.42997522,1.10179007 8.4043522,1.05054402 8.4043522,0.999297975 C8.4043522,0.948051925 8.4043522,0.896805875 8.42997522,0.845559825 C8.42997522,0.794313775 8.45559825,0.743067725 8.48122127,0.691821675 C8.5068443,0.640575625 8.53246732,0.589329575 8.55809035,0.56370655 C8.58371337,0.5124605 8.6093364,0.486837475 8.66058245,0.435591425 C8.68620547,0.4099684 8.73745152,0.35872235 8.78869757,0.333099325 C8.83994362,0.3074763 8.86556665,0.281853275 8.9168127,0.25623025 C8.96805875,0.230607225 9.0193048,0.230607225 9.07055085,0.2049842 C9.17304295,0.179361175 9.27553505,0.179361175 9.37802715,0.2049842 C9.4292732,0.2049842 9.48051925,0.230607225 9.5317653,0.25623025 C9.58301135,0.281853275 9.6342574,0.3074763 9.65988042,0.333099325 C9.71112647,0.35872235 9.7367495,0.384345375 9.78799555,0.435591425 C9.81361857,0.46121445 9.86486462,0.5124605 9.89048765,0.56370655 C9.91611067,0.6149526 9.9417337,0.640575625 9.96735672,0.691821675 C9.99297975,0.743067725 9.99297975,0.794313775 10.0186028,0.845559825 C10.0186028,0.896805875 10.0442258,0.948051925 10.0442258,0.999297975 C10.0442258,1.05054402 10.0442258,1.10179007 10.0186028,1.15303612 C10.0186028,1.20428217 9.99297975,1.25552822 9.96735672,1.30677427 C9.9417337,1.35802032 9.91611067,1.40926637 9.89048765,1.4348894 C9.86486462,1.48613545 9.8392416,1.51175847 9.78799555,1.56300452 C9.76237252,1.58862755 9.71112647,1.6398736 9.65988042,1.66549662 C9.60863437,1.69111965 9.58301135,1.71674267 9.5317653,1.7423657 C9.48051925,1.76798872 9.4292732,1.76798872 9.37802715,1.79361175 C9.3267811,1.81923477 9.27553505,1.81923477 9.224289,1.81923477 Z"></path>
                            </g>
                            <path d="M17.7055103,44.097226 C17.2955419,44.097226 16.9368195,43.7641267 16.9368195,43.3285353 L16.9368195,0.794313775 C16.9368195,0.384345375 17.2699188,0.025623025 17.7055103,0.025623025 C18.1411017,0.025623025 18.474201,0.35872235 18.474201,0.794313775 L18.474201,43.3285353 C18.474201,43.7641267 18.1411017,44.097226 17.7055103,44.097226 Z" id="Shape"></path>
                        </g>
                        <path d="M44.9940319,113.228147 C44.6609326,113.228147 44.3534563,112.99754 44.2509642,112.664441 C44.1484721,112.331342 44.3022102,111.972619 44.6096865,111.793258 C48.4275172,109.640924 51.6303954,106.514915 53.8852216,102.74833 C56.1912938,98.8792534 57.421199,94.4208471 57.421199,89.8855717 C57.421199,88.4763053 57.2930839,87.0670389 57.0624767,85.6833956 L51.5791493,85.6833956 C51.297296,85.6833956 51.0154428,85.5040344 50.8873276,85.2478042 C50.7592125,84.9915739 50.7848355,84.6584746 50.9641967,84.4534904 L63.0326415,69.0796754 C63.1863796,68.9003142 63.3913638,68.7978221 63.6219711,68.7978221 C63.8525783,68.7978221 64.0831855,68.9003142 64.2113006,69.0796754 L76.2797454,84.4534904 C76.4591066,84.6840976 76.4847296,84.9915739 76.3566145,85.2478042 C76.2284994,85.5040344 75.9722691,85.6833956 75.6647928,85.6833956 L70.5914339,85.6833956 C70.5914339,85.9908719 70.6170569,86.2983482 70.6170569,86.5802015 C70.6170569,93.5240412 67.9522623,100.109159 63.1351336,105.105649 C58.3180049,110.076515 51.8610026,112.971917 44.9427858,113.202524 C45.0196549,113.228147 45.0196549,113.228147 44.9940319,113.228147 Z M53.1677769,84.1716371 L57.7286753,84.1716371 C58.0873977,84.1716371 58.420497,84.4278674 58.471743,84.7865897 C58.8048424,86.4520863 58.9585805,88.168829 58.9585805,89.8855717 C58.9585805,94.7027004 57.6518062,99.417337 55.1919958,103.517021 C53.347138,106.591784 50.9129507,109.256579 48.0431719,111.38329 C53.3727611,110.53773 58.2923819,107.975427 62.0845896,104.029481 C66.645488,99.3148449 69.1309214,93.1396958 69.1309214,86.5802015 C69.1309214,86.067741 69.1052984,85.5296574 69.0796754,84.9659509 C69.0540524,84.7609667 69.1309214,84.5559825 69.2846596,84.4022443 C69.4383977,84.2485062 69.6433819,84.1716371 69.8483661,84.1716371 L74.1530343,84.1716371 L63.6475941,70.8220411 L53.1677769,84.1716371 Z" id="Shape" fill="#066695"></path>
                        <path d="M37.7170928,113.510001 C37.6658467,113.510001 37.5889777,113.510001 37.5377316,113.484378 C32.9255871,112.382588 28.7746571,109.69217 25.8536322,105.925585 C25.597402,105.592486 25.648648,105.105649 25.9817473,104.849418 C26.3148467,104.593188 26.8016841,104.644434 27.0579144,104.977533 C29.773955,108.462265 33.6174088,110.947698 37.8708309,111.972619 C38.2807993,112.075111 38.5370296,112.48508 38.4345375,112.895048 C38.3832914,113.279393 38.0758151,113.510001 37.7170928,113.510001 Z" id="Shape" fill="#066695"></path>
                        <path d="M24.4187428,102.953314 C24.3674968,102.953314 24.3162507,102.953314 24.2650047,102.927691 C24.2137586,102.927691 24.1625126,102.902068 24.1112665,102.876445 C24.0600205,102.850822 24.0087744,102.825199 23.9831514,102.799576 C23.9319053,102.773953 23.9062823,102.74833 23.8550363,102.697084 C23.7012981,102.543346 23.624429,102.363985 23.624429,102.159001 C23.624429,101.954016 23.7012981,101.749032 23.8550363,101.620917 C23.8806593,101.595294 23.9319053,101.544048 23.9831514,101.518425 C24.0343974,101.492802 24.0600205,101.467179 24.1112665,101.441556 C24.1625126,101.415933 24.2137586,101.415933 24.2650047,101.39031 C24.5212349,101.339064 24.7774652,101.415933 24.9568263,101.595294 C25.1105645,101.749032 25.1874336,101.928393 25.1874336,102.133378 C25.1874336,102.184624 25.1874336,102.23587 25.1618105,102.287116 C25.1618105,102.338362 25.1361875,102.389608 25.1105645,102.440854 C25.0849415,102.4921 25.0593184,102.543346 25.0336954,102.568969 C25.0080724,102.620215 24.9824494,102.645838 24.9312033,102.697084 C24.8030882,102.876445 24.598104,102.953314 24.4187428,102.953314 Z" id="Shape" fill="#066695"></path>
                        <path d="M41.1762012,113.612493 C41.1249551,113.612493 41.0737091,113.612493 41.022463,113.58687 C40.971217,113.58687 40.9199709,113.561247 40.8687249,113.535624 C40.8174788,113.510001 40.7662328,113.484378 40.7406097,113.458755 C40.6893637,113.433132 40.6637407,113.407509 40.6124946,113.356263 C40.4587565,113.202524 40.3818874,113.023163 40.3818874,112.818179 C40.3818874,112.766933 40.3818874,112.715687 40.4075104,112.664441 C40.4075104,112.613195 40.4331334,112.561949 40.4587565,112.510703 C40.4843795,112.459457 40.5100025,112.408211 40.5356255,112.382588 C40.5612486,112.331342 40.5868716,112.305719 40.6381176,112.254472 C40.6637407,112.228849 40.7149867,112.177603 40.7662328,112.15198 C40.8174788,112.126357 40.8431018,112.100734 40.8943479,112.075111 C40.9455939,112.049488 40.99684,112.049488 41.048086,112.023865 C41.1505781,111.998242 41.2530702,111.998242 41.3555623,112.023865 C41.4068084,112.023865 41.4580544,112.049488 41.5093005,112.075111 C41.5605465,112.100734 41.6117926,112.126357 41.6374156,112.15198 C41.6886617,112.177603 41.7142847,112.203226 41.7655307,112.254472 C41.7911538,112.280096 41.8423998,112.331342 41.8680228,112.382588 C41.8936459,112.433834 41.9192689,112.459457 41.9448919,112.510703 C41.9705149,112.561949 41.9705149,112.613195 41.996138,112.664441 C41.996138,112.715687 42.021761,112.766933 42.021761,112.818179 C42.021761,113.023163 41.9448919,113.228147 41.7911538,113.356263 C41.7655307,113.381886 41.7142847,113.433132 41.6630386,113.458755 C41.6117926,113.484378 41.5861696,113.510001 41.5349235,113.535624 C41.4836775,113.561247 41.4324314,113.561247 41.3811854,113.58687 C41.2786933,113.612493 41.2274472,113.612493 41.1762012,113.612493 Z" id="Shape" fill="#066695"></path>
                        <path d="M23.1119685,99.9041744 C23.0607225,99.9041744 23.0094764,99.9041744 22.9582304,99.8785514 C22.9069843,99.8785514 22.8557383,99.8529284 22.8044922,99.8273054 C22.7532462,99.8016823 22.7020001,99.7760593 22.6763771,99.7504363 C22.6251311,99.7248133 22.599508,99.6991902 22.548262,99.6479442 C22.522639,99.6223212 22.4713929,99.5710751 22.4457699,99.5198291 C22.4201469,99.468583 22.3945238,99.44296 22.3689008,99.3917139 C22.3432778,99.3404679 22.3432778,99.2892218 22.3176548,99.2379758 C22.3176548,99.1867297 22.2920317,99.1354837 22.2920317,99.0842376 C22.2920317,98.8792534 22.3689008,98.6742692 22.522639,98.5461541 C22.7020001,98.3667929 22.9582304,98.2899239 23.2144606,98.3411699 C23.2657067,98.3411699 23.3169527,98.3667929 23.3681988,98.392416 C23.4194448,98.418039 23.4706909,98.443662 23.4963139,98.469285 C23.54756,98.4949081 23.573183,98.5205311 23.624429,98.5717771 C23.6500521,98.5974002 23.7012981,98.6486462 23.7269211,98.6998923 C23.7525442,98.7511383 23.7781672,98.7767613 23.8037902,98.8280074 C23.8294132,98.8792534 23.8294132,98.9304995 23.8550363,98.9817455 C23.8550363,99.0329916 23.8806593,99.0842376 23.8806593,99.1354837 C23.8806593,99.3404679 23.8037902,99.5454521 23.6500521,99.6735672 C23.624429,99.6991902 23.573183,99.7504363 23.5219369,99.7760593 C23.4706909,99.8016823 23.4450679,99.8273054 23.3938218,99.8529284 C23.3425758,99.8785514 23.2913297,99.8785514 23.2400837,99.9041744 C23.2144606,99.9041744 23.1632146,99.9041744 23.1119685,99.9041744 Z" id="Shape" fill="#066695"></path>
                        <path d="M22.2407857,96.6244272 C22.1895396,96.6244272 22.1382936,96.6244272 22.0870475,96.5988042 C22.0358015,96.5988042 21.9845554,96.5731812 21.9333094,96.5475582 C21.8820633,96.5219351 21.8308173,96.4963121 21.8051943,96.4706891 C21.7539482,96.4450661 21.7283252,96.419443 21.6770791,96.368197 C21.6514561,96.342574 21.6002101,96.2913279 21.574587,96.2400819 C21.548964,96.1888358 21.523341,96.1632128 21.497718,96.1119667 C21.4720949,96.0607207 21.4720949,96.0094746 21.4464719,95.9582286 C21.4464719,95.9069825 21.4208489,95.8557365 21.4208489,95.8044904 C21.4208489,95.7532444 21.4208489,95.7019983 21.4464719,95.6507523 C21.4464719,95.5995062 21.4720949,95.5482602 21.497718,95.4970141 C21.523341,95.4457681 21.548964,95.394522 21.574587,95.368899 C21.6002101,95.317653 21.6258331,95.2920299 21.6770791,95.2407839 C21.7027022,95.2151609 21.7539482,95.1639148 21.8051943,95.1382918 C21.8564403,95.1126688 21.8820633,95.0870457 21.9333094,95.0614227 C21.9845554,95.0357997 22.0358015,95.0357997 22.0870475,95.0101767 C22.3432778,94.9589306 22.599508,95.0357997 22.7788692,95.2151609 C22.8044922,95.2407839 22.8557383,95.2920299 22.8813613,95.343276 C22.9069843,95.394522 22.9326074,95.4201451 22.9582304,95.4713911 C22.9838534,95.5226372 22.9838534,95.5738832 23.0094764,95.6251293 C23.0094764,95.6763753 23.0350995,95.7276214 23.0350995,95.7788674 C23.0350995,95.8301135 23.0350995,95.8813595 23.0094764,95.9326056 C23.0094764,95.9838516 22.9838534,96.0350977 22.9582304,96.0863437 C22.9326074,96.1375898 22.9069843,96.1888358 22.8813613,96.2144588 C22.8557383,96.2657049 22.8301153,96.2913279 22.7788692,96.342574 C22.6251311,96.5219351 22.4457699,96.6244272 22.2407857,96.6244272 Z" id="Shape" fill="#066695"></path>
                    </g>
                </g>
            </g>
        </g>
    </g>
</svg>