<?xml version="1.0" encoding="UTF-8" standalone="no"?>
<svg width="22px" height="22px" viewBox="0 0 22 22" version="1.1" xmlns="http://www.w3.org/2000/svg" xmlns:xlink="http://www.w3.org/1999/xlink">
    <!-- Generator: sketchtool 49.3 (51167) - http://www.bohemiancoding.com/sketch -->
    <title>8D6D4370-1A42-4BC0-BF73-71E12D6AB25B</title>
    <desc>Created with sketchtool.</desc>
    <defs></defs>
    <g id="Welcome" stroke="none" stroke-width="1" fill="none" fill-rule="evenodd">
        <g id="homepage" transform="translate(-656.000000, -3171.000000)" fill="#FFFFFF">
            <g id="bottomCTA-section" transform="translate(0.000000, 3118.000000)">
                <g id="chat-slack-CTA" transform="translate(620.000000, 42.000000)">
                    <path d="M56.0829327,21.2596154 C57.1670673,21.2596154 58,22.0528846 58,23.1370192 C58,23.9831731 57.5637019,24.578125 56.7704327,24.8557692 L54.4963942,25.6358173 L55.2367788,27.84375 C55.3028846,28.0420673 55.3293269,28.2536058 55.3293269,28.4651442 C55.3293269,29.5096154 54.4831731,30.3822115 53.4387019,30.3822115 C52.6057692,30.3822115 51.8653846,29.8665865 51.6009615,29.0733173 L50.8737981,26.8918269 L46.7752404,28.2932692 L47.5024038,30.4615385 C47.5685096,30.6598558 47.6081731,30.8713942 47.6081731,31.0829327 C47.6081731,32.1141827 46.7620192,33 45.7043269,33 C44.8713942,33 44.1442308,32.484375 43.8798077,31.6911058 L43.1526442,29.5360577 L41.1298077,30.2367788 C40.9182692,30.3028846 40.6935096,30.3557692 40.46875,30.3557692 C39.3978365,30.3557692 38.5913462,29.5625 38.5913462,28.4915865 C38.5913462,27.671875 39.1201923,26.9314904 39.9002404,26.6670673 L41.9627404,25.9663462 L40.5745192,21.828125 L38.5120192,22.5420673 C38.3004808,22.6081731 38.0889423,22.6478365 37.8774038,22.6478365 C36.8197115,22.6478365 36,21.8413462 36,20.7836538 C36,19.9639423 36.5288462,19.2235577 37.3088942,18.9591346 L39.3846154,18.2584135 L38.6838942,16.15625 C38.6177885,15.9579327 38.578125,15.7463942 38.578125,15.5348558 C38.578125,14.4903846 39.4242788,13.6177885 40.4819712,13.6177885 C41.3149038,13.6177885 42.0420673,14.1334135 42.3064904,14.9266827 L43.0204327,17.0420673 L47.1189904,15.6538462 L46.4050481,13.5384615 C46.3389423,13.3401442 46.2992788,13.1286058 46.2992788,12.9170673 C46.2992788,11.8725962 47.1586538,11 48.203125,11 C49.0360577,11 49.7764423,11.5288462 50.0408654,12.3088942 L50.7415865,14.4375 L52.8834135,13.7103365 C53.0685096,13.6574519 53.2536058,13.6310096 53.4519231,13.6310096 C54.4831731,13.6310096 55.3689904,14.3978365 55.3689904,15.4555288 C55.3689904,16.2752404 54.734375,16.9627404 53.9939904,17.2139423 L51.9182692,17.9278846 L53.3064904,22.1057692 L55.4747596,21.3653846 C55.6730769,21.2992788 55.8846154,21.2596154 56.0829327,21.2596154 Z M45.5853365,24.7235577 L49.6838942,23.3353365 L48.2956731,19.1706731 L44.1971154,20.5853365 L45.5853365,24.7235577 Z" id="slack_icn"></path>
                </g>
            </g>
        </g>
    </g>
</svg>