<?xml version="1.0" encoding="UTF-8" standalone="no"?>
<svg width="21px" height="17px" viewBox="0 0 21 17" version="1.1" xmlns="http://www.w3.org/2000/svg" xmlns:xlink="http://www.w3.org/1999/xlink">
    <!-- Generator: sketchtool 49.3 (51167) - http://www.bohemiancoding.com/sketch -->
    <title>DC056B68-1D00-4963-B392-3C4F39877662</title>
    <desc>Created with sketchtool.</desc>
    <defs></defs>
    <g id="Symbols" stroke="none" stroke-width="1" fill="none" fill-rule="evenodd">
        <g id="footer" transform="translate(-605.000000, -115.000000)">
            <g id="footer-links" transform="translate(391.000000, 60.000000)">
                <g id="right-group" transform="translate(210.000000, 0.000000)">
                    <g id="twitter_footer_icn" transform="translate(0.000000, 42.000000)">
                        <rect id="Path" fill="#FFFFFF" opacity="0" x="0" y="0" width="28" height="42"></rect>
                        <path d="M24.4375,14.9917903 C23.9178999,15.800057 23.2251103,16.5217129 22.3591102,17.1567797 L22.3591102,17.6763771 C22.3591102,20.7073774 21.2694097,23.4568865 19.0899762,25.9249868 C16.9105426,28.393087 14.0167024,29.6271186 10.4083686,29.6271186 C8.09903506,29.6271186 5.96293354,28.9920614 4,27.721928 C4.46186672,27.7796613 4.79382844,27.8085275 4.99589513,27.8085275 C6.929962,27.8085275 8.66193621,27.2023366 10.1918697,25.9899364 C9.29700294,25.9610698 8.48874831,25.679624 7.76708157,25.1455906 C7.04541482,24.6115572 6.5546888,23.9259841 6.29488877,23.0888506 C6.64128881,23.146584 6.90108494,23.1754502 7.07428496,23.1754502 C7.36295166,23.1754502 7.73821273,23.1177177 8.20007945,23.0022511 C7.24747935,22.8001844 6.44644128,22.3166749 5.79694121,21.5517082 C5.14744114,20.7867414 4.82269597,19.8991046 4.82269597,18.8887712 L4.82269597,18.8454714 C5.45776271,19.1918714 6.09281992,19.3650689 6.72788665,19.3650689 C5.48661985,18.5568021 4.86599576,17.3877195 4.86599576,15.857786 C4.86599576,15.1361193 5.0536263,14.4433296 5.42889301,13.7793962 C7.65162658,16.5217298 10.5238171,17.9794748 14.0455508,18.1526748 C13.9878175,17.9506081 13.9589513,17.6330795 13.9589513,17.2000794 C13.9589513,16.016546 14.3630786,15.0206608 15.1713453,14.2123941 C15.9796121,13.4041273 16.9754973,13 18.1590307,13 C19.3425642,13 20.3528825,13.4474267 21.1900159,14.3422934 C22.056016,14.1979601 22.9508693,13.8515652 23.8746028,13.3030985 C23.5859361,14.313432 22.965312,15.0928204 22.0127119,15.6412871 C22.9075786,15.5546871 23.7158333,15.3381903 24.4375,14.9917903 Z" id="twitter" fill="#ED1879"></path>
                    </g>
                </g>
            </g>
        </g>
    </g>
</svg>