<?xml version="1.0" encoding="UTF-8" standalone="no"?>
<svg width="150px" height="126px" viewBox="0 0 150 126" version="1.1" xmlns="http://www.w3.org/2000/svg" xmlns:xlink="http://www.w3.org/1999/xlink">
    <!-- Generator: sketchtool 49.3 (51167) - http://www.bohemiancoding.com/sketch -->
    <title>709C21DF-D947-47B4-AD47-C2F58825DC53</title>
    <desc>Created with sketchtool.</desc>
    <defs></defs>
    <g id="Welcome" stroke="none" stroke-width="1" fill="none" fill-rule="evenodd">
        <g id="about-mobile" transform="translate(-86.000000, -1413.000000)" fill-rule="nonzero">
            <g id="values-section" transform="translate(54.000000, 1022.000000)">
                <g id="Collaboration-group" transform="translate(0.000000, 366.000000)">
                    <g id="Collaboration-symbol" transform="translate(32.000000, 25.000000)">
                        <circle id="Oval" fill="#ED1E7A" cx="75" cy="63.3084948" r="61.7436662"></circle>
                        <polygon id="Shape" fill="#2E96D3" points="129.165425 60.3800298 110.052161 34.2921013 107.682563 31.0506706 149.128167 0.715350224 149.128167 50.2533532 131.311475 63.3084948"></polygon>
                        <path d="M68.2041729,93.5543964 C70.976155,93.5543964 73.2339791,95.8122206 73.2339791,98.5842027 C73.2339791,99.9701937 72.6751118,101.244411 71.7585693,102.138599 C70.8420268,103.032787 69.5901639,103.591654 68.2265276,103.591654 C65.4545455,103.591654 63.1967213,101.33383 63.1967213,98.561848 C63.1967213,97.242921 63.7108793,96.0134128 64.5603577,95.119225 L65.1415797,94.6050671 C65.9687034,93.9567809 67.0417288,93.5543964 68.2041729,93.5543964 Z" id="Shape" fill="#D8EAF3"></path>
                        <path d="M66.3263785,86.7362146 C67.1982116,87.6974665 67.6229508,88.90462 67.6229508,90.1117735 C67.6229508,91.4754098 67.0640835,92.8390462 65.9910581,93.8226528 L65.119225,94.6274218 C64.9180328,94.7839046 64.7168405,94.9627422 64.538003,95.1415797 L61.9448584,97.5111773 C59.8882265,99.366617 56.7362146,99.2324888 54.8584203,97.1758569 C53.0029806,95.119225 53.1371088,91.9672131 55.1937407,90.0894188 L58.4798808,87.071535 L59.2399404,86.3785395 C61.2742176,84.5454545 64.4485842,84.6795827 66.3263785,86.7362146 Z" id="Shape" fill="#D8EAF3"></path>
                        <path d="M59.1728763,84.1877794 C59.1728763,85.171386 58.8822653,86.1549925 58.3010432,87.0044709 C58.0774963,87.3174367 57.8315946,87.6080477 57.5409836,87.876304 L54.3442623,90.7824143 C52.2876304,92.6378539 49.1356185,92.5037258 47.2578241,90.4470939 C45.4918033,88.5022355 45.5365127,85.5514158 47.2801788,83.6512668 L47.9061103,83.04769 L50.7675112,80.4321908 C52.8241431,78.5767511 55.976155,78.7108793 57.8539493,80.7675112 C58.7257824,81.7734724 59.1728763,82.9806259 59.1728763,84.1877794 Z" id="Shape" fill="#D8EAF3"></path>
                        <path d="M48.7555887,75.5365127 C49.6274218,76.4977645 50.052161,77.704918 50.052161,78.9120715 C50.052161,80.2757079 49.4932936,81.6393443 48.4202683,82.6229508 L47.9061103,83.1147541 L47.5707899,83.4053651 C47.4590164,83.4947839 47.3695976,83.6065574 47.2801788,83.6959762 L45.9612519,84.947839 C43.90462,86.8032787 40.752608,86.6691505 38.8748137,84.6125186 C37.0193741,82.5558867 37.1535022,79.4038748 39.2101341,77.5260805 L40.3949329,76.3859911 L41.6691505,75.1788376 C43.7257824,73.3457526 46.900149,73.5022355 48.7555887,75.5365127 Z" id="Shape" fill="#D8EAF3"></path>
                        <polygon id="Shape" fill="#2E96D3" points="42.3397914 31.0506706 39.9701937 34.2921013 39.947839 34.2697466 20.8792846 60.3800298 20.85693 60.3800298 18.7108793 63.3084948 0.894187779 50.2533532 0.894187779 0.715350224"></polygon>
                        <polygon id="Shape" fill="#D8EAF3" points="39.9701937 34.2921013 39.9701937 34.2921013 20.8792846 60.3800298 39.947839 34.2697466"></polygon>
                        <path d="M101.043219,80.4321908 C100.819672,80.7451565 100.551416,81.0357675 100.23845,81.2816692 C100.23845,81.2816692 100.23845,81.2816692 100.23845,81.2816692 C98.7183308,82.466468 96.5946349,82.5111773 95.0298063,81.3710879 L75.0894188,66.7734724 C74.7988077,66.5499255 74.3740686,66.6169896 74.1505216,66.9076006 C74.0611028,67.0193741 74.0163934,67.1758569 74.0163934,67.3099851 C74.0163934,67.5111773 74.1058122,67.7123696 74.2846498,67.8464978 L94.2250373,82.4441133 C94.2250373,82.4441133 94.2250373,82.4441133 94.2250373,82.4441133 L101.356185,87.6751118 C102.451565,88.4798808 103.122206,89.7764531 103.122206,91.1624441 C103.122206,92.0789866 102.831595,92.9508197 102.295082,93.7108793 C101.624441,94.6497765 100.61848,95.2533532 99.4783905,95.4321908 C98.338301,95.6110283 97.1982116,95.3204173 96.2816692,94.6497765 L92.4590164,91.8554396 L67.7794337,73.7704918 C67.4888227,73.5469449 67.0640835,73.6140089 66.8405365,73.90462 C66.7511177,74.0163934 66.7064083,74.1728763 66.7064083,74.3070045 C66.7064083,74.5081967 66.7958271,74.709389 66.9746647,74.8435171 L91.6542474,92.928465 C92.7496274,93.733234 93.4202683,95.0298063 93.4202683,96.4157973 C93.4202683,97.3323398 93.1296572,98.2041729 92.5931446,98.9642325 C91.1847988,100.886736 88.4798808,101.289121 86.5797317,99.9031297 L72.4515648,89.5529061 C72.1609538,89.3293592 71.7362146,89.3964232 71.5126677,89.6870343 C71.4232489,89.7988077 71.3785395,89.9552906 71.3785395,90.0894188 C71.3785395,90.290611 71.4679583,90.4918033 71.6467958,90.6259314 L77.3472429,94.8062593 C78.442623,95.6110283 79.1132638,96.9076006 79.1132638,98.2935917 C79.1132638,99.2101341 78.8226528,100.081967 78.2861401,100.842027 C76.9895678,102.608048 74.5976155,103.099851 72.7421759,102.071535 C73.4798808,101.087928 73.8822653,99.9031297 73.8822653,98.6512668 C73.8822653,95.5216095 71.3338301,92.9508197 68.1818182,92.9508197 C67.9582712,92.9508197 67.7347243,92.9731744 67.533532,92.9955291 C68.0253353,92.1460507 68.2935917,91.1624441 68.2935917,90.1788376 C68.2935917,88.7704918 67.757079,87.4068554 66.8181818,86.3561848 C64.9850969,84.3442623 62.0119225,83.9418778 59.7540984,85.2831595 C59.8211624,84.947839 59.8435171,84.6125186 59.8435171,84.2771982 C59.8435171,82.8688525 59.3070045,81.5052161 58.3681073,80.4545455 C57.3397914,79.3368107 55.9538003,78.6661699 54.4336811,78.5991058 C53.0700447,78.5320417 51.7511177,78.9567809 50.6780924,79.7839046 C50.7228018,79.5156483 50.7451565,79.247392 50.7451565,78.9791356 C50.7451565,77.5707899 50.2086438,76.2071535 49.2697466,75.1564829 C47.1684054,72.8315946 43.5692996,72.6751118 41.2444113,74.7764531 C41.2444113,74.7764531 41.2444113,74.7764531 41.2444113,74.7764531 L39.9254844,76.0506706 L21.3263785,60.804769 L40.1490313,35.2757079 L52.4441133,44.2846498 C52.6229508,44.4187779 52.8241431,44.4411326 53.0253353,44.3964232 C53.1594635,44.4411326 53.3159463,44.4411326 53.4500745,44.3740686 L60.3800298,42.3174367 C64.828614,40.9985097 69.6125186,41.4456036 73.7257824,43.5692996 L56.266766,54.0312966 C56.1102832,54.1207154 55.9985097,54.2771982 55.9538003,54.4560358 C55.9314456,54.5007452 55.9314456,54.5678092 55.9314456,54.6125186 C55.9314456,54.7466468 55.976155,54.8584203 56.0432191,54.9701937 C57.4292101,57.1385991 59.5752608,58.6587183 62.1013413,59.2399404 C64.6050671,59.8211624 67.1982116,59.4187779 69.4113264,58.0774963 L73.9940387,55.3055142 L83.8971684,62.5037258 C83.9418778,62.5484352 83.9865872,62.5931446 84.0312966,62.6154993 L100.193741,74.4411326 C101.289121,75.2459016 101.959762,76.5424739 101.959762,77.928465 C101.892697,78.8002981 101.602086,79.6944858 101.043219,80.4321908 Z" id="Shape" fill="#D8EAF3"></path>
                        <path d="M76.2295082,43.5692996 C80.342772,41.4008942 85.1937407,40.9090909 89.6870343,42.2503726 L96.6169896,44.3070045 C96.7511177,44.3517139 96.8852459,44.3517139 97.0193741,44.3293592 C97.2205663,44.3740686 97.4217586,44.3517139 97.6005961,44.2175857 L109.895678,35.2086438 L129.14307,60.3800298 L102.697466,80.0968703 C103.14456,78.733234 103.211624,78.3084948 103.211624,77.8837556 C103.211624,76.09538 102.339791,74.3964232 100.909091,73.3233979 L84.9031297,61.5871833 C84.8584203,61.5424739 84.8137109,61.4977645 83.0029806,62.5484352 L73.4128167,55.5737705 L82.7794337,49.8956781 C82.9806259,49.7615499 83.0923994,49.5603577 83.0923994,49.314456 C83.0923994,49.2026826 83.0700447,49.0685544 83.0029806,48.9791356 C82.8017884,48.6661699 82.3994039,48.5543964 82.0864382,48.7555887 L73.6363636,53.852459 C73.6140089,53.852459 73.6140089,53.8748137 73.5916542,53.8748137 L68.6512668,56.8479881 C66.7511177,58.0104322 64.4932936,58.3457526 62.3248882,57.8539493 C60.3800298,57.4068554 58.681073,56.3114754 57.4962742,54.7242921 L74.9776453,44.2399404" id="Shape" fill="#D8EAF3"></path>
                        <g id="Group" transform="translate(20.789866, 34.202683)" fill="#C7DCE0">
                            <path d="M45.5365127,52.533532 C45.290611,52.2652757 45.0223547,52.0417288 44.7540984,51.8405365 L51.2816692,55.8420268 L56.9821162,60.0223547 C58.3233979,61.0059613 59.0163934,62.5037258 59.0163934,64.0461997 C59.0163934,65.0745156 58.7034277,66.1028316 58.0551416,66.9746647 C56.4232489,69.1877794 53.3159463,69.6795827 51.1028316,68.04769 L50.9687034,67.9359165 C51.8852459,67.0193741 52.4441133,65.7675112 52.4441133,64.3815201 C52.4441133,61.609538 50.1862891,59.3517139 47.414307,59.3517139 C46.2518629,59.3517139 45.1788376,59.7540984 44.3293592,60.4247392 L45.2011923,59.6199702 C46.2965723,58.6363636 46.8330849,57.2727273 46.8330849,55.9090909 C46.8330849,54.7019374 46.4083458,53.4947839 45.5365127,52.533532 Z" id="Shape"></path>
                            <path d="M35.7675112,45.5365127 L35.7451565,45.5812221 C33.9344262,44.5976155 31.609538,44.8211624 30,46.2965723 L27.1385991,48.9120715 L27.6527571,48.4202683 C28.7481371,47.4366617 29.2846498,46.0730253 29.2846498,44.709389 C29.2846498,43.5022355 28.8599106,42.295082 27.9880775,41.3338301 C27.6527571,40.9538003 27.2727273,40.6408346 26.8479881,40.3949329 L35.7675112,45.5365127 Z" id="Shape"></path>
                            <path d="M44.1281669,51.4605067 C42.3174367,50.5216095 40.0372578,50.7451565 38.4500745,52.1982116 L36.7734724,53.7406855 L36.7511177,53.6959762 C37.8464978,52.7123696 38.3830104,51.3487332 38.3830104,49.9850969 C38.3830104,48.7779434 37.9582712,47.5707899 37.0864382,46.609538 L44.1281669,51.4605067 Z" id="Shape"></path>
                            <polygon id="Shape" points="61.6318927 15.1341282 79.7168405 39.6795827 63.5767511 27.8315946 63.5767511 27.8092399 57.585693 23.4500745 53.4053651 20.119225"></polygon>
                            <polygon id="Shape" points="19.1803279 0.0894187779 7.95827124 32.6378539 0.0670640835 26.1773472"></polygon>
                        </g>
                        <polygon id="Shape" fill="#2A8ABC" points="149.128167 37.3323398 149.128167 50.2533532 131.311475 63.3084948 129.165425 60.3800298 124.694486 54.2771982"></polygon>
                        <polygon id="Shape" fill="#2A8ABC" points="42.3397914 31.0506706 39.9701937 34.2921013 39.947839 34.2697466 20.8792846 60.3800298 20.85693 60.3800298 18.7108793 63.3084948 10.9985097 57.6527571 35.1639344 25.7973174"></polygon>
                        <path d="M77.0119225,47.3472429 C81.1251863,45.1788376 85.976155,44.6870343 90.4694486,46.0283159 L97.3994039,48.0849478 C97.533532,48.1296572 97.6676602,48.1296572 97.8017884,48.1073025 C97.9806259,48.1520119 98.2041729,48.1296572 98.3830104,47.9955291 L112.265276,38.2935917 L109.895678,35.1862891 L97.6005961,44.195231 C97.4217586,44.3293592 97.2205663,44.3517139 97.0193741,44.3070045 C96.8852459,44.3517139 96.7511177,44.3517139 96.6169896,44.2846498 L89.6870343,42.2280179 C85.1937407,40.8867362 80.342772,41.3785395 76.2295082,43.5469449 L75,44.2622951 L57.5186289,54.7466468 C58.3681073,55.8643815 59.4634873,56.7362146 60.7153502,57.3174367 L75.7824143,48.0625931 L77.0119225,47.3472429 Z" id="Shape" fill="#F5F6FA"></path>
                        <g id="Group" fill="#066695">
                            <g transform="translate(96.348733, 0.000000)" id="Shape">
                                <path d="M34.9627422,63.9791356 C34.7615499,63.9791356 34.5603577,63.8897168 34.4262295,63.7108793 L10.7973174,31.4530551 C10.685544,31.318927 10.6408346,31.1400894 10.685544,30.9612519 C10.7078987,30.7824143 10.7973174,30.6259314 10.9538003,30.514158 L52.1758569,0.335320417 C52.466468,0.111773472 52.8912072,0.178837556 53.1147541,0.469448584 C53.338301,0.760059613 53.271237,1.18479881 52.9806259,1.40834575 L12.3174367,31.1847988 L35.1415797,62.3695976 L52.4441133,49.7168405 C52.7347243,49.4932936 53.1594635,49.5603577 53.3830104,49.8509687 C53.6065574,50.1415797 53.5394933,50.5663189 53.2488823,50.7898659 L35.4098361,63.8450075 C35.2309985,63.9344262 35.0968703,63.9791356 34.9627422,63.9791356 Z"></path>
                                <path d="M9.05365127,78.8897168 C8.85245902,78.8897168 8.65126677,78.8002981 8.5171386,78.6214605 C8.29359165,78.3308495 8.36065574,77.9061103 8.65126677,77.6825633 L31.8777943,60.2235469 L13.5469449,35.1862891 L1.25186289,44.195231 C0.961251863,44.4187779 0.536512668,44.3517139 0.312965723,44.0611028 C0.0894187779,43.7704918 0.156482861,43.3457526 0.44709389,43.1222057 L13.2786885,33.7108793 C13.4128167,33.5991058 13.5916542,33.5543964 13.7704918,33.5991058 C13.9493294,33.6214605 14.1058122,33.7108793 14.2175857,33.8673621 L33.3308495,59.9552906 C33.5543964,60.2459016 33.4873323,60.6706408 33.1967213,60.8718331 L9.45603577,78.7108793 C9.3442623,78.8450075 9.18777943,78.8897168 9.05365127,78.8897168 Z"></path>
                            </g>
                            <path d="M64.2921013,59.4411326 C63.5543964,59.4411326 62.7943368,59.3517139 62.0566319,59.1728763 C59.5529061,58.5916542 57.4068554,57.071535 55.9985097,54.9031297 C55.9090909,54.7466468 55.8643815,54.5678092 55.9090909,54.3889717 C55.9538003,54.2101341 56.0655738,54.0536513 56.2220566,53.9642325 L74.6870343,42.8986587 C79.314456,40.1266766 84.9254844,39.4336811 90.0670641,40.9538003 L97.0417288,43.0327869 C97.2876304,43.099851 97.466468,43.3010432 97.5111773,43.5692996 C97.5558867,43.8152012 97.4441133,44.0611028 97.242921,44.2175857 C97.0640835,44.3517139 96.8405365,44.3740686 96.6393443,44.3070045 L89.6870343,42.2280179 C84.880775,40.7973174 79.6721311,41.4456036 75.3576751,44.0387481 L57.5186289,54.7466468 C58.7257824,56.3114754 60.4023845,57.4292101 62.3472429,57.876304 C64.5156483,58.390462 66.7511177,58.0327869 68.6736215,56.8703428 L82.0864382,48.7555887 C82.3994039,48.5543964 82.8017884,48.6661699 83.0029806,48.9791356 C83.2041729,49.2921013 83.0923994,49.6944858 82.7794337,49.8956781 L69.366617,58.0104322 C67.8017884,58.9493294 66.0581222,59.4411326 64.2921013,59.4411326 Z" id="Shape"></path>
                            <path d="M68.2041729,104.262295 C65.0745156,104.262295 62.5037258,101.71386 62.5037258,98.561848 C62.5037258,95.4321908 65.052161,92.8614009 68.2041729,92.8614009 C71.3561848,92.8614009 73.90462,95.4098361 73.90462,98.561848 C73.8822653,101.71386 71.3338301,104.262295 68.2041729,104.262295 Z M68.2041729,94.2250373 C65.8122206,94.2250373 63.8450075,96.1698957 63.8450075,98.5842027 C63.8450075,100.99851 65.7898659,102.943368 68.2041729,102.943368 C70.6184799,102.943368 72.5633383,100.99851 72.5633383,98.5842027 C72.5633383,96.1698957 70.5961252,94.2250373 68.2041729,94.2250373 Z" id="Shape"></path>
                            <path d="M42.585693,86.9150522 C41.0432191,86.9150522 39.5007452,86.2891207 38.3830104,85.0596125 C37.3546945,83.9418778 36.8405365,82.4888227 36.9076006,80.9687034 C36.9746647,79.4485842 37.6229508,78.0625931 38.7406855,77.0342772 L41.1997019,74.709389 C41.1997019,74.709389 41.1997019,74.709389 41.1997019,74.709389 C42.3174367,73.681073 43.7704918,73.1669151 45.290611,73.2339791 C46.8107303,73.3010432 48.1967213,73.9716841 49.2250373,75.0894188 C51.3263785,77.3919523 51.1698957,80.9910581 48.8673621,83.1147541 L46.4083458,85.4396423 C46.4083458,85.4396423 46.4083458,85.4396423 46.4083458,85.4396423 C45.3353204,86.4456036 43.9493294,86.9150522 42.585693,86.9150522 Z M42.1385991,75.6929955 L39.6795827,78.0178838 C39.6795827,78.0178838 39.6795827,78.0178838 39.6795827,78.0178838 C37.9135618,79.6274218 37.7794337,82.3770492 39.3889717,84.1654247 C40.9985097,85.9314456 43.7481371,86.0655738 45.514158,84.4560358 L47.9731744,82.1311475 C47.9731744,82.1311475 47.9731744,82.1311475 47.9731744,82.1311475 C48.8226528,81.3487332 49.3368107,80.2757079 49.3815201,79.1132638 C49.4262295,77.9508197 49.023845,76.8330849 48.2637854,75.9836066 C47.4813711,75.1341282 46.4083458,74.6199702 45.2459016,74.5752608 C44.0834575,74.5081967 42.9880775,74.9105812 42.1385991,75.6929955 Z" id="Shape"></path>
                            <path d="M50.9687034,92.7943368 C50.8792846,92.7943368 50.7898659,92.7943368 50.7004471,92.7943368 C49.1803279,92.7272727 47.7943368,92.0566319 46.7660209,90.9388972 C44.6646796,88.6140089 44.8211624,85.0149031 47.1460507,82.9135618 L50.342772,80.0074516 C51.4605067,78.9791356 52.9135618,78.4649776 54.4336811,78.5320417 C55.9538003,78.5991058 57.3397914,79.2697466 58.3681073,80.3874814 C59.3964232,81.5052161 59.9105812,82.9582712 59.8435171,84.4783905 C59.7764531,85.9985097 59.1058122,87.3845007 57.9880775,88.4128167 L54.7913562,91.318927 C53.7183308,92.2578241 52.3770492,92.7943368 50.9687034,92.7943368 Z M54.14307,79.8509687 C53.0700447,79.8509687 52.0193741,80.2533532 51.2146051,80.9910581 L48.0178838,83.8971684 C47.1684054,84.6795827 46.6542474,85.752608 46.609538,86.9150522 C46.5648286,88.0774963 46.9672131,89.195231 47.7272727,90.0447094 C48.509687,90.8941878 49.5827124,91.4083458 50.7451565,91.4530551 C51.9076006,91.4977645 53.0253353,91.09538 53.8748137,90.3353204 L57.071535,87.4292101 C57.9210134,86.6467958 58.4351714,85.5737705 58.4798808,84.4113264 C58.5245902,83.2488823 58.1222057,82.1311475 57.3621461,81.2816692 C56.5797317,80.4321908 55.5067064,79.9180328 54.3442623,79.8733234 C54.2771982,79.8509687 54.2101341,79.8509687 54.14307,79.8509687 Z" id="Shape"></path>
                            <path d="M58.5692996,99.4783905 C58.4798808,99.4783905 58.390462,99.4783905 58.3010432,99.4783905 C56.780924,99.4113264 55.3949329,98.7406855 54.366617,97.6229508 C52.2652757,95.2980626 52.4217586,91.6989568 54.7466468,89.5976155 L58.7928465,85.8867362 C61.1177347,83.7853949 64.7168405,83.9418778 66.8181818,86.266766 C68.9195231,88.5916542 68.7630402,92.1907601 66.438152,94.2921013 L62.3919523,98.0029806 C61.3412817,98.9642325 59.9776453,99.4783905 58.5692996,99.4783905 Z M62.6154993,85.752608 C61.5424739,85.752608 60.4918033,86.1549925 59.6870343,86.8926975 L55.6408346,90.6035768 C53.8748137,92.2131148 53.7406855,94.9627422 55.3502235,96.7511177 C56.1997019,97.6900149 57.3845007,98.1594635 58.5692996,98.1594635 C59.6199702,98.1594635 60.6706408,97.7794337 61.4977645,97.0193741 L65.5439642,93.3084948 C66.3934426,92.5260805 66.9076006,91.4530551 66.95231,90.290611 C66.9970194,89.1281669 66.5946349,88.0104322 65.8345753,87.1609538 C65.052161,86.3114754 63.9791356,85.7973174 62.8166915,85.752608 C62.7496274,85.752608 62.6825633,85.752608 62.6154993,85.752608 Z" id="Shape"></path>
                            <g id="Shape">
                                <path d="M18.7108793,63.9791356 C18.5767511,63.9791356 18.442623,63.9344262 18.3084948,63.8450075 L0.469448584,50.7898659 C0.178837556,50.5663189 0.111773472,50.1639344 0.335320417,49.8509687 C0.558867362,49.5603577 0.961251863,49.4932936 1.27421759,49.7168405 L18.5767511,62.3695976 L41.4008942,31.1847988 L0.491803279,1.2295082 C0.20119225,1.00596125 0.134128167,0.603576751 0.357675112,0.290611028 C0.581222057,-1.86239912e-14 0.983606557,-0.0670640835 1.29657228,0.156482861 L42.7421759,30.514158 C42.876304,30.6259314 42.9880775,30.7824143 43.0104322,30.9612519 C43.0327869,31.1400894 42.9880775,31.318927 42.8986587,31.4530551 L19.247392,63.7108793 C19.1356185,63.8897168 18.9120715,63.9791356 18.7108793,63.9791356 Z"></path>
                                <path d="M94.6274218,82.5782414 C94.4932936,82.5782414 94.3591654,82.533532 94.2250373,82.4441133 L74.2846498,67.8464978 C73.9940387,67.6229508 73.9269747,67.2205663 74.1505216,66.9076006 C74.3740686,66.6169896 74.7764531,66.5499255 75.0894188,66.7734724 L95.0298063,81.3710879 C95.3204173,81.5946349 95.3874814,81.9970194 95.1639344,82.3099851 C95.052161,82.466468 94.8509687,82.5782414 94.6274218,82.5782414 Z"></path>
                                <path d="M92.0789866,93.0178838 C91.9448584,93.0178838 91.8107303,92.9731744 91.6766021,92.8837556 L66.9970194,74.7988077 C66.7064083,74.5752608 66.6393443,74.1728763 66.8628912,73.8599106 C67.0864382,73.5692996 67.4888227,73.5022355 67.8017884,73.7257824 L92.4813711,91.8107303 C92.7719821,92.0342772 92.8390462,92.4366617 92.6154993,92.7496274 C92.4813711,92.928465 92.2801788,93.0178838 92.0789866,93.0178838 Z"></path>
                                <path d="M77.7719821,94.8733234 C77.6378539,94.8733234 77.5037258,94.828614 77.3695976,94.7391952 L71.6691505,90.5588674 C71.3785395,90.3353204 71.3114754,89.9329359 71.5350224,89.6199702 C71.7585693,89.3293592 72.1609538,89.2622951 72.4739195,89.485842 L78.1743666,93.6661699 C78.4649776,93.8897168 78.5320417,94.2921013 78.3084948,94.6050671 C78.1743666,94.7839046 77.9731744,94.8733234 77.7719821,94.8733234 Z"></path>
                                <path d="M37.8017884,74.9552906 C37.6453055,74.9552906 37.5111773,74.9105812 37.3770492,74.7988077 L20.4321908,60.8941878 C20.1639344,60.6706408 20.0968703,60.2682563 20.3204173,59.9776453 L39.4336811,33.8897168 C39.657228,33.5991058 40.0596125,33.5320417 40.3725782,33.7555887 L53.2041729,43.1445604 C53.4947839,43.3681073 53.561848,43.7704918 53.338301,44.0834575 C53.1147541,44.3740686 52.7123696,44.4411326 52.3994039,44.2175857 L40.1043219,35.2086438 L21.7511177,60.2682563 L38.2265276,73.7704918 C38.5171386,73.9940387 38.561848,74.4187779 38.3159463,74.709389 C38.1818182,74.8658718 38.0029806,74.9552906 37.8017884,74.9552906 Z"></path>
                                <path d="M53.1818182,44.3517139 C53.04769,44.3517139 52.9135618,44.3070045 52.7794337,44.2175857 C52.5782414,44.0611028 52.466468,43.8152012 52.5111773,43.5692996 C52.5558867,43.3233979 52.7347243,43.1222057 52.9806259,43.0327869 L59.9329359,40.9538003 C65.0968703,39.4113264 70.7078987,40.1266766 75.3353204,42.8986587 L74.6423249,44.0387481 C70.3502235,41.4679583 65.119225,40.7973174 60.3129657,42.2280179 L53.3830104,44.2846498 C53.338301,44.3517139 53.2488823,44.3517139 53.1818182,44.3517139 Z"></path>
                                <path d="M74.8211624,103.882265 C73.6363636,103.882265 72.4739195,103.502235 71.490313,102.786885 L71.3561848,102.675112 C71.0655738,102.451565 70.9985097,102.04918 71.2220566,101.736215 C71.4456036,101.445604 71.8479881,101.378539 72.1609538,101.602086 L72.295082,101.71386 C74.2175857,103.122206 76.9225037,102.697466 78.3084948,100.774963 C79.7168405,98.852459 79.2921013,96.147541 77.3695976,94.7615499 C77.0789866,94.538003 77.0119225,94.1356185 77.2354694,93.8226528 C77.4590164,93.5320417 77.8614009,93.4649776 78.1743666,93.6885246 L86.6020864,99.8584203 C87.5409836,100.529061 88.6587183,100.819672 89.7988077,100.640835 C90.9388972,100.461997 91.9448584,99.8584203 92.6154993,98.9195231 C94.023845,96.9970194 93.5991058,94.314456 91.6989568,92.9061103 C91.4083458,92.6825633 91.3412817,92.2801788 91.5648286,91.9672131 C91.7883756,91.6766021 92.1907601,91.609538 92.5037258,91.8330849 L96.3263785,94.6274218 C97.2652757,95.2980626 98.3830104,95.5886736 99.5230999,95.4098361 C100.663189,95.2309985 101.669151,94.6274218 102.339791,93.6885246 C103.748137,91.7660209 103.323398,89.0611028 101.400894,87.6751118 L94.2697466,82.4441133 C93.9791356,82.2205663 93.9120715,81.8181818 94.1356185,81.5052161 C94.3591654,81.2146051 94.7615499,81.147541 95.0745156,81.3710879 C96.0134128,82.0417288 97.1311475,82.3323398 98.271237,82.1535022 C99.4113264,81.9746647 100.417288,81.3710879 101.087928,80.4321908 C101.758569,79.4932936 102.04918,78.3755589 101.870343,77.2354694 C101.691505,76.09538 101.087928,75.0894188 100.149031,74.4187779 L83.9865872,62.5931446 C83.9418778,62.5484352 83.8971684,62.5260805 83.852459,62.4813711 L76.0730253,56.8256334 C75.7824143,56.6020864 75.7153502,56.1997019 75.9165425,55.8867362 C76.1400894,55.5961252 76.5424739,55.5290611 76.8554396,55.7302534 L84.7913562,61.4977645 C84.8360656,61.5424739 84.880775,61.5648286 84.9254844,61.6318927 L100.931446,73.3681073 C102.138599,74.2622951 102.943368,75.5588674 103.166915,77.0566319 C103.390462,78.5543964 103.032787,80.0298063 102.138599,81.2593145 C101.110283,82.6453055 99.5678092,83.4500745 97.9806259,83.561848 L102.183308,86.6244411 C103.390462,87.5186289 104.195231,88.8152012 104.418778,90.3129657 C104.642325,91.8107303 104.28465,93.2861401 103.390462,94.5156483 C102.496274,95.7228018 101.199702,96.5275708 99.7019374,96.7511177 C98.2041729,96.9746647 96.728763,96.6169896 95.4992548,95.7228018 L94.6274218,95.0745156 C94.6721311,95.2309985 94.6944858,95.3874814 94.7168405,95.5439642 C94.9403875,97.0417288 94.5827124,98.5171386 93.6885246,99.7466468 C92.7943368,100.9538 91.4977645,101.758569 90,101.982116 C88.5022355,102.205663 87.0268256,101.847988 85.7973174,100.9538 L80.3204173,96.9299553 C80.3651267,97.0864382 80.3874814,97.242921 80.4098361,97.3994039 C80.633383,98.8971684 80.2757079,100.372578 79.3815201,101.602086 C78.4873323,102.80924 77.1907601,103.614009 75.6929955,103.837556 C75.4023845,103.859911 75.0894188,103.882265 74.8211624,103.882265 Z"></path>
                            </g>
                        </g>
                        <circle id="Oval" fill="#D8EAF3" cx="119.508197" cy="32.5037258" r="3.39791356"></circle>
                        <circle id="Oval" fill="#D8EAF3" cx="31.3636364" cy="32.5037258" r="3.39791356"></circle>
                    </g>
                </g>
            </g>
        </g>
    </g>
</svg>