<?xml version="1.0" encoding="UTF-8" standalone="no"?>
<svg width="105px" height="143px" viewBox="0 0 105 143" version="1.1" xmlns="http://www.w3.org/2000/svg" xmlns:xlink="http://www.w3.org/1999/xlink">
    <!-- Generator: sketchtool 49.3 (51167) - http://www.bohemiancoding.com/sketch -->
    <title>F302FA67-F19C-4004-BE0B-91EC40D58778</title>
    <desc>Created with sketchtool.</desc>
    <defs></defs>
    <g id="Welcome" stroke="none" stroke-width="1" fill="none" fill-rule="evenodd">
        <g id="about-mobile" transform="translate(-109.000000, -2003.000000)" fill-rule="nonzero">
            <g id="values-section" transform="translate(54.000000, 1022.000000)">
                <g id="Openness-group" transform="translate(0.000000, 961.000000)">
                    <g id="Openness-symbol" transform="translate(55.000000, 20.000000)">
                        <g id="Group" transform="translate(1.000000, 38.000000)">
                            <polygon id="Shape" fill="#D8EAF3" points="51.9797895 52.0031093 51.9797895 103.796341 8.79155704 77.8880651 8.79155704 38.5475963 8.79155704 26.071514"></polygon>
                            <polygon id="Shape" fill="#2E96D3" points="95.1913418 48.5984214 95.1913418 77.9113848 51.9797895 103.796341 51.9797895 52.0031093 60.6314279 69.5395838"></polygon>
                            <polygon id="Shape" fill="#ED1E7A" points="95.1913418 26.0948338 103.84298 43.3514709 95.1913418 48.5984214 60.6314279 69.5395838 51.9797895 52.0031093"></polygon>
                            <polygon id="Shape" fill="#2E96D3" points="95.1913418 26.0948338 51.9797895 52.0031093 51.9797895 0.20987802"></polygon>
                            <polygon id="Shape" fill="#ED1E7A" points="51.9797895 0.20987802 51.9797895 52.0031093 8.79155704 26.071514"></polygon>
                            <polygon id="Shape" fill="#ED1E7A" points="8.79155704 26.071514 8.79155704 38.5475963 0.13991868 43.3514709"></polygon>
                        </g>
                        <polygon id="Shape" fill="#DD1372" points="53 62 30 76.1288703 53 90"></polygon>
                        <polygon id="Shape" fill="#2A8ABC" points="77 74.9807531 52 90 52 62"></polygon>
                        <polygon id="Shape" fill="#2A8ABC" points="59 104.010667 52 108 52 91"></polygon>
                        <path d="M61,55.1818182 C61,54.6136364 61.0736196,54.0909091 61.2453988,53.5909091 C61.4171779,53.0909091 61.6625767,52.6590909 61.9815951,52.2727273 C62.3006135,51.8863636 62.7177914,51.5681818 63.2576687,51.3409091 C63.7730061,51.1136364 64.3619632,51 65,51 C65.8343558,51 66.5460123,51.1818182 67.1595092,51.5681818 C67.7730061,51.9318182 68.2392638,52.4318182 68.5337423,53.0681818 C68.8527607,53.7045455 69,54.4090909 69,55.1818182 L69,58.5454545 C69,59.1363636 68.9263804,59.7045455 68.7791411,60.2272727 C68.6319018,60.75 68.3865031,61.2045455 68.0920245,61.6363636 C67.7730061,62.0454545 67.3558282,62.3863636 66.8404908,62.6363636 C66.3251534,62.8863636 65.7116564,63 65,63 C64.3128834,63 63.7239264,62.8863636 63.208589,62.6590909 C62.6932515,62.4318182 62.2760736,62.1136364 61.9570552,61.7045455 C61.6380368,61.2954545 61.392638,60.8409091 61.2453988,60.2954545 C61.0981595,59.7727273 61,59.1818182 61,58.5681818 L61,55.1818182 Z M62.7423313,59.3863636 C62.791411,59.6590909 62.8404908,59.9318182 62.9631902,60.2045455 C63.0613497,60.4772727 63.208589,60.7045455 63.3803681,60.8863636 C63.5521472,61.0681818 63.7730061,61.2272727 64.0429448,61.3409091 C64.3128834,61.4545455 64.6564417,61.5227273 65.0245399,61.5227273 C65.392638,61.5227273 65.6871166,61.4772727 65.9570552,61.3636364 C66.2269939,61.25 66.4478528,61.1136364 66.6196319,60.9318182 C66.791411,60.75 66.9386503,60.5227273 67.0368098,60.2727273 C67.1349693,60 67.208589,59.7272727 67.2576687,59.4318182 C67.3067485,59.1363636 67.3312883,58.8181818 67.3312883,58.4545455 L67.3312883,55.4090909 C67.3312883,55.0909091 67.3067485,54.7954545 67.2576687,54.5227273 C67.208589,54.25 67.1349693,53.9772727 67.0122699,53.7272727 C66.8895706,53.4772727 66.7668712,53.25 66.595092,53.0681818 C66.4233129,52.8863636 66.202454,52.75 65.9325153,52.6363636 C65.6625767,52.5227273 65.3680982,52.4772727 65.0245399,52.4772727 C64.607362,52.4772727 64.2638037,52.5454545 63.9447853,52.7045455 C63.6257669,52.8636364 63.404908,53.0681818 63.208589,53.3409091 C63.0122699,53.6136364 62.8895706,53.9318182 62.8159509,54.2727273 C62.7423313,54.6136364 62.6932515,55 62.6932515,55.4090909 L62.6932515,58.4318182 C62.6932515,58.7727273 62.6932515,59.0909091 62.7423313,59.3863636 Z" id="Shape" fill="#F5F6FA"></path>
                        <path d="M57.9570552,86 C57.6380368,85.5787234 57.392638,85.1106383 57.2453988,84.5489362 C57.0981595,84.0106383 57,83.4021277 57,82.7702128 L57,79.306383 C57,78.7212766 57.0736196,78.1829787 57.2453988,77.6680851 C57.4171779,77.1531915 57.6625767,76.7085106 57.9815951,76.3106383 C58.3006135,75.912766 58.7177914,75.5851064 59.2576687,75.3510638 C59.7730061,75.1170213 60.3619632,75 61,75 C61.8343558,75 62.5460123,75.187234 63.1595092,75.5851064 C63.7730061,75.9595745 64.2392638,76.4744681 64.5337423,77.1297872 C64.8282209,77.7851064 65,78.5106383 65,79.306383 L65,82.7702128 M63.3312883,82.6765957 L63.3312883,79.5404255 C63.3312883,79.212766 63.3067485,78.9085106 63.2576687,78.6276596 C63.208589,78.3468085 63.1349693,78.0659574 63.0122699,77.8085106 C62.8895706,77.5510638 62.7668712,77.3170213 62.595092,77.1297872 C62.4233129,76.9425532 62.202454,76.8021277 61.9325153,76.6851064 C61.6625767,76.5680851 61.3680982,76.5212766 61.0245399,76.5212766 C60.607362,76.5212766 60.2638037,76.5914894 59.9447853,76.7553191 C59.6257669,76.9191489 59.404908,77.1297872 59.208589,77.4106383 C59.0122699,77.6914894 58.8895706,78.0191489 58.8159509,78.3702128 C58.7423313,78.7212766 58.6932515,79.1191489 58.6932515,79.5404255 L58.6932515,82.6765957 C58.6932515,83.0276596 58.7177914,83.3553191 58.7423313,83.6361702 C58.791411,83.9170213 58.8404908,84.1978723 58.9631902,84.4787234 L59.2822086,84.9234043" id="Shape" fill="#F5F6FA"></path>
                        <path d="M18,34.1818182 C18,33.6136364 18.0736196,33.0909091 18.2453988,32.5909091 C18.4171779,32.0909091 18.6625767,31.6590909 18.9815951,31.2727273 C19.3006135,30.8863636 19.7177914,30.5681818 20.2576687,30.3409091 C20.7730061,30.1136364 21.3619632,30 22,30 C22.8343558,30 23.5460123,30.1818182 24.1595092,30.5681818 C24.7730061,30.9545455 25.2392638,31.4318182 25.5337423,32.0681818 C25.8282209,32.7045455 26,33.4090909 26,34.1818182 L26,37.5454545 C26,38.1363636 25.9263804,38.7045455 25.7791411,39.2272727 C25.6319018,39.75 25.3865031,40.2045455 25.0920245,40.6363636 C24.7730061,41.0454545 24.3558282,41.3863636 23.8404908,41.6363636 C23.3251534,41.8863636 22.7116564,42 22,42 C21.3128834,42 20.7239264,41.8863636 20.208589,41.6590909 C19.6932515,41.4318182 19.2760736,41.1136364 18.9570552,40.7045455 C18.6380368,40.2954545 18.392638,39.8409091 18.2453988,39.2954545 C18.0981595,38.7727273 18,38.1818182 18,37.5681818 L18,34.1818182 Z M19.7423313,38.3863636 C19.791411,38.6590909 19.8404908,38.9318182 19.9631902,39.2045455 C20.0613497,39.4772727 20.208589,39.7045455 20.3803681,39.8863636 C20.5521472,40.0681818 20.7730061,40.2272727 21.0429448,40.3409091 C21.3128834,40.4545455 21.6564417,40.5227273 22.0245399,40.5227273 C22.392638,40.5227273 22.6871166,40.4772727 22.9570552,40.3636364 C23.2269939,40.25 23.4478528,40.1136364 23.6196319,39.9318182 C23.791411,39.75 23.9386503,39.5227273 24.0368098,39.2727273 C24.1349693,39 24.208589,38.7272727 24.2576687,38.4318182 C24.3067485,38.1363636 24.3312883,37.8181818 24.3312883,37.4545455 L24.3312883,34.4090909 C24.3312883,34.0909091 24.3067485,33.7954545 24.2576687,33.5227273 C24.208589,33.25 24.1349693,32.9772727 24.0122699,32.7272727 C23.8895706,32.4772727 23.7668712,32.25 23.595092,32.0681818 C23.4233129,31.8863636 23.202454,31.75 22.9325153,31.6363636 C22.6625767,31.5227273 22.3680982,31.4772727 22.0245399,31.4772727 C21.607362,31.4772727 21.2638037,31.5454545 20.9447853,31.7045455 C20.6257669,31.8636364 20.404908,32.0681818 20.208589,32.3409091 C20.0368098,32.6136364 19.8895706,32.9318182 19.8159509,33.2727273 C19.7423313,33.6136364 19.6932515,34 19.6932515,34.4090909 L19.6932515,37.4545455 C19.6932515,37.7954545 19.6932515,38.1136364 19.7423313,38.3863636 Z" id="Shape" fill="#066695"></path>
                        <path d="M88,26.1818182 C88,25.6136364 88.0736196,25.0909091 88.2453988,24.5909091 C88.4171779,24.0909091 88.6625767,23.6590909 88.9815951,23.2727273 C89.3006135,22.8863636 89.7177914,22.5681818 90.2576687,22.3409091 C90.7730061,22.1136364 91.3619632,22 92,22 C92.8343558,22 93.5460123,22.1818182 94.1595092,22.5681818 C94.7730061,22.9318182 95.2392638,23.4318182 95.5337423,24.0681818 C95.8282209,24.7045455 96,25.4090909 96,26.1818182 L96,29.5454545 C96,30.1363636 95.9263804,30.7045455 95.7791411,31.2272727 C95.6319018,31.75 95.3865031,32.2045455 95.0920245,32.6363636 C94.7730061,33.0454545 94.3558282,33.3863636 93.8404908,33.6363636 C93.3251534,33.8863636 92.7116564,34 92,34 C91.3128834,34 90.7239264,33.8863636 90.208589,33.6590909 C89.6932515,33.4318182 89.2760736,33.1136364 88.9570552,32.7045455 C88.6380368,32.2954545 88.392638,31.8409091 88.2453988,31.2954545 C88.0981595,30.7727273 88,30.1818182 88,29.5681818 L88,26.1818182 Z M89.7423313,30.3863636 C89.791411,30.6590909 89.8404908,30.9318182 89.9631902,31.2045455 C90.0613497,31.4772727 90.208589,31.7045455 90.3803681,31.8863636 C90.5521472,32.0681818 90.7730061,32.2272727 91.0429448,32.3409091 C91.3128834,32.4545455 91.6564417,32.5227273 92.0245399,32.5227273 C92.392638,32.5227273 92.6871166,32.4772727 92.9570552,32.3636364 C93.2269939,32.25 93.4478528,32.1136364 93.6196319,31.9318182 C93.791411,31.75 93.9386503,31.5227273 94.0368098,31.2727273 C94.1349693,31 94.208589,30.7272727 94.2576687,30.4318182 C94.3067485,30.1363636 94.3312883,29.8181818 94.3312883,29.4545455 L94.3312883,26.4090909 C94.3312883,26.0909091 94.3067485,25.7954545 94.2576687,25.5227273 C94.208589,25.25 94.1349693,24.9772727 94.0122699,24.7272727 C93.8895706,24.4772727 93.7668712,24.25 93.595092,24.0681818 C93.4233129,23.8863636 93.202454,23.75 92.9325153,23.6363636 C92.6625767,23.5227273 92.3680982,23.4772727 92.0245399,23.4772727 C91.607362,23.4772727 91.2638037,23.5454545 90.9447853,23.7045455 C90.6257669,23.8636364 90.404908,24.0681818 90.208589,24.3409091 C90.0122699,24.6136364 89.8895706,24.9318182 89.8159509,25.2727273 C89.7423313,25.6136364 89.6932515,26 89.6932515,26.4090909 L89.6932515,29.4545455 C89.6932515,29.7954545 89.7177914,30.1136364 89.7423313,30.3863636 Z" id="Shape" fill="#ED1E7A"></path>
                        <path d="M63,7.18181818 C63,6.61363636 63.0736196,6.09090909 63.2453988,5.59090909 C63.4171779,5.09090909 63.6625767,4.65909091 63.9815951,4.27272727 C64.3006135,3.88636364 64.7177914,3.56818182 65.2576687,3.34090909 C65.7730061,3.11363636 66.3619632,3 67,3 C67.8343558,3 68.5460123,3.18181818 69.1595092,3.56818182 C69.7730061,3.93181818 70.2392638,4.43181818 70.5337423,5.06818182 C70.8282209,5.70454545 71,6.40909091 71,7.18181818 L71,10.5454545 C71,11.1363636 70.9263804,11.7045455 70.7791411,12.2272727 C70.6319018,12.75 70.3865031,13.2045455 70.0920245,13.6363636 C69.7730061,14.0454545 69.3558282,14.3863636 68.8404908,14.6363636 C68.3251534,14.8863636 67.7116564,15 67,15 C66.3128834,15 65.7239264,14.8863636 65.208589,14.6590909 C64.6932515,14.4318182 64.2760736,14.1136364 63.9570552,13.7045455 C63.6380368,13.2954545 63.392638,12.8409091 63.2453988,12.2954545 C63.0981595,11.7727273 63,11.1818182 63,10.5681818 L63,7.18181818 Z M64.7177914,11.3863636 C64.7668712,11.6590909 64.8159509,11.9318182 64.9386503,12.2045455 C65.0368098,12.4772727 65.1840491,12.7045455 65.3558282,12.8863636 C65.5276074,13.0681818 65.7484663,13.2272727 66.0184049,13.3409091 C66.2883436,13.4545455 66.6319018,13.5227273 67,13.5227273 C67.3680982,13.5227273 67.6625767,13.4772727 67.9325153,13.3636364 C68.202454,13.25 68.4233129,13.1136364 68.595092,12.9318182 C68.7668712,12.75 68.9141104,12.5227273 69.0122699,12.2727273 C69.1104294,12 69.1840491,11.7272727 69.2331288,11.4318182 C69.2822086,11.1363636 69.3067485,10.8181818 69.3067485,10.4545455 L69.3067485,7.38636364 C69.3067485,7.06818182 69.2822086,6.77272727 69.2331288,6.5 C69.1840491,6.22727273 69.1104294,5.95454545 68.9877301,5.70454545 C68.8650307,5.45454545 68.7423313,5.22727273 68.5705521,5.04545455 C68.398773,4.86363636 68.1779141,4.72727273 67.9079755,4.61363636 C67.6380368,4.5 67.3435583,4.45454545 67,4.45454545 C66.5828221,4.45454545 66.2392638,4.52272727 65.9202454,4.68181818 C65.601227,4.84090909 65.3803681,5.04545455 65.1840491,5.31818182 C64.9877301,5.59090909 64.8650307,5.90909091 64.791411,6.25 C64.7177914,6.59090909 64.6687117,6.97727273 64.6687117,7.38636364 L64.6687117,10.4318182 C64.6687117,10.7954545 64.6932515,11.1136364 64.7177914,11.3863636 Z" id="Shape" fill="#2E96D3"></path>
                        <path d="M26,16.1818182 C26,15.6136364 26.0736196,15.0909091 26.2453988,14.5909091 C26.4171779,14.0909091 26.6625767,13.6590909 26.9815951,13.2727273 C27.3006135,12.8863636 27.7177914,12.5681818 28.2576687,12.3409091 C28.7730061,12.1136364 29.3619632,12 30,12 C30.8343558,12 31.5460123,12.1818182 32.1595092,12.5681818 C32.7730061,12.9318182 33.2392638,13.4318182 33.5337423,14.0681818 C33.8527607,14.7045455 34,15.4090909 34,16.1818182 L34,19.5454545 C34,20.1363636 33.9263804,20.7045455 33.7791411,21.2272727 C33.6319018,21.75 33.3865031,22.2045455 33.0920245,22.6363636 C32.7730061,23.0454545 32.3558282,23.3863636 31.8404908,23.6363636 C31.3251534,23.8863636 30.7116564,24 30,24 C29.3128834,24 28.7239264,23.8863636 28.208589,23.6590909 C27.6932515,23.4318182 27.2760736,23.1136364 26.9570552,22.7045455 C26.6380368,22.2954545 26.392638,21.8409091 26.2453988,21.2954545 C26.0981595,20.7727273 26,20.1818182 26,19.5681818 L26,16.1818182 Z M27.7423313,20.3863636 C27.791411,20.6590909 27.8404908,20.9318182 27.9631902,21.2045455 C28.0613497,21.4772727 28.208589,21.7045455 28.3803681,21.8863636 C28.5521472,22.0681818 28.7730061,22.2272727 29.0429448,22.3409091 C29.3128834,22.4545455 29.6564417,22.5227273 30.0245399,22.5227273 C30.392638,22.5227273 30.6871166,22.4772727 30.9570552,22.3636364 C31.2269939,22.25 31.4478528,22.1136364 31.6196319,21.9318182 C31.791411,21.75 31.9386503,21.5227273 32.0368098,21.2727273 C32.1349693,21 32.208589,20.7272727 32.2576687,20.4318182 C32.3067485,20.1363636 32.3312883,19.8181818 32.3312883,19.4545455 L32.3312883,16.4090909 C32.3312883,16.0909091 32.3067485,15.7954545 32.2576687,15.5227273 C32.208589,15.25 32.1349693,14.9772727 32.0122699,14.7272727 C31.8895706,14.4772727 31.7668712,14.25 31.595092,14.0681818 C31.4233129,13.8863636 31.202454,13.75 30.9325153,13.6363636 C30.6625767,13.5227273 30.3680982,13.4772727 30.0245399,13.4772727 C29.607362,13.4772727 29.2638037,13.5454545 28.9447853,13.7045455 C28.6257669,13.8636364 28.404908,14.0681818 28.208589,14.3409091 C28.0122699,14.6136364 27.8895706,14.9318182 27.8159509,15.2727273 C27.7423313,15.6136364 27.6932515,16 27.6932515,16.4090909 L27.6932515,19.4545455 C27.6932515,19.7954545 27.7177914,20.1136364 27.7423313,20.3863636 Z" id="Shape" fill="#ED1E7A"></path>
                        <polygon id="Shape" fill="#F5F6FA" points="36 54 40 54 40 66 38.1935484 66 38.1935484 55.5795678 36 55.5795678"></polygon>
                        <polygon id="Shape" fill="#066695" points="70 30 74 30 74 42 72.1935484 42 72.1935484 31.5795678 70 31.5795678"></polygon>
                        <polygon id="Shape" fill="#2E96D3" points="9 12 13 12 13 24 11.1935484 24 11.1935484 13.5795678 9 13.5795678"></polygon>
                        <polygon id="Shape" fill="#2E96D3" points="49 21 53 21 53 33 51.1935484 33 51.1935484 22.5795678 49 22.5795678"></polygon>
                        <polygon id="Shape" fill="#ED1E7A" points="44 0 48 0 48 12 46.1935484 12 46.1935484 1.57956778 44 1.57956778"></polygon>
                        <circle id="Oval" fill="#ED1E7A" cx="35" cy="38" r="1"></circle>
                        <circle id="Oval" fill="#ED1E7A" cx="61" cy="21" r="1"></circle>
                        <circle id="Oval" fill="#ED1E7A" cx="78" cy="47" r="1"></circle>
                        <circle id="Oval" fill="#ED1E7A" cx="10" cy="30" r="1"></circle>
                        <circle id="Oval" fill="#F5F6FA" cx="28" cy="65" r="1"></circle>
                        <circle id="Oval" fill="#F5F6FA" cx="57" cy="48" r="1"></circle>
                        <circle id="Oval" fill="#F5F6FA" cx="77" cy="69" r="1"></circle>
                        <g id="Group" transform="translate(25.000000, 2.000000)" fill="#066695">
                            <path d="M3.15555556,3.81052632 C2.95555556,3.81052632 2.77777778,3.74736842 2.62222222,3.6 L0.222222222,1.32631579 C-0.0666666667,1.05263158 -0.0666666667,0.610526316 0.222222222,0.336842105 C0.511111111,0.0631578947 0.977777778,0.0631578947 1.26666667,0.336842105 L3.66666667,2.61052632 C3.95555556,2.88421053 3.95555556,3.32631579 3.66666667,3.6 C3.53333333,3.74736842 3.33333333,3.81052632 3.15555556,3.81052632 Z" id="Shape"></path>
                            <path d="M0.755555556,3.81052632 C0.555555556,3.81052632 0.377777778,3.74736842 0.222222222,3.6 C-0.0666666667,3.32631579 -0.0666666667,2.88421053 0.222222222,2.61052632 L2.62222222,0.336842105 C2.91111111,0.0631578947 3.37777778,0.0631578947 3.66666667,0.336842105 C3.95555556,0.610526316 3.95555556,1.05263158 3.66666667,1.32631579 L1.26666667,3.6 C1.13333333,3.74736842 0.933333333,3.81052632 0.755555556,3.81052632 Z" id="Shape"></path>
                        </g>
                        <g id="Group" transform="translate(85.000000, 45.000000)" fill="#2E96D3">
                            <path d="M3.24444444,3.87368421 C3.04444444,3.87368421 2.86666667,3.81052632 2.71111111,3.66315789 L0.311111111,1.38947368 C0.0222222222,1.11578947 0.0222222222,0.673684211 0.311111111,0.4 C0.6,0.126315789 1.06666667,0.126315789 1.35555556,0.4 L3.75555556,2.67368421 C4.04444444,2.94736842 4.04444444,3.38947368 3.75555556,3.66315789 C3.62222222,3.81052632 3.42222222,3.87368421 3.24444444,3.87368421 Z" id="Shape"></path>
                            <path d="M0.844444444,3.87368421 C0.644444444,3.87368421 0.466666667,3.81052632 0.311111111,3.66315789 C0.0222222222,3.38947368 0.0222222222,2.94736842 0.311111111,2.67368421 L2.71111111,0.4 C3,0.126315789 3.46666667,0.126315789 3.75555556,0.4 C4.04444444,0.673684211 4.04444444,1.11578947 3.75555556,1.38947368 L1.35555556,3.66315789 C1.22222222,3.81052632 1.02222222,3.87368421 0.844444444,3.87368421 Z" id="Shape"></path>
                        </g>
                        <g id="Group" transform="translate(76.000000, 15.000000)" fill="#ED1E7A">
                            <path d="M3.22222222,3.88888889 C3.02222222,3.88888889 2.84444444,3.82222222 2.68888889,3.66666667 L0.288888889,1.26666667 C1.31422651e-14,0.977777778 1.31422651e-14,0.511111111 0.288888889,0.222222222 C0.577777778,-0.0666666667 1.04444444,-0.0666666667 1.33333333,0.222222222 L3.73333333,2.62222222 C4.02222222,2.91111111 4.02222222,3.37777778 3.73333333,3.66666667 C3.6,3.82222222 3.42222222,3.88888889 3.22222222,3.88888889 Z" id="Shape"></path>
                            <path d="M0.822222222,3.88888889 C0.622222222,3.88888889 0.444444444,3.82222222 0.288888889,3.66666667 C1.31422651e-14,3.37777778 1.31422651e-14,2.91111111 0.288888889,2.62222222 L2.68888889,0.222222222 C2.97777778,-0.0666666667 3.44444444,-0.0666666667 3.73333333,0.222222222 C4.02222222,0.511111111 4.02222222,0.977777778 3.73333333,1.26666667 L1.33333333,3.66666667 C1.2,3.82222222 1.02222222,3.88888889 0.822222222,3.88888889 Z" id="Shape"></path>
                        </g>
                        <g id="Group" transform="translate(42.000000, 75.000000)" fill="#F5F6FA">
                            <path d="M3.17777778,4 C2.97777778,4 2.8,3.93333333 2.64444444,3.77777778 L0.244444444,1.37777778 C-0.0444444444,1.08888889 -0.0444444444,0.622222222 0.244444444,0.333333333 C0.533333333,0.0444444444 1,0.0444444444 1.28888889,0.333333333 L3.68888889,2.73333333 C3.97777778,3.02222222 3.97777778,3.48888889 3.68888889,3.77777778 C3.55555556,3.93333333 3.35555556,4 3.17777778,4 Z" id="Shape"></path>
                            <path d="M0.777777778,4 C0.577777778,4 0.4,3.93333333 0.244444444,3.77777778 C-0.0444444444,3.48888889 -0.0444444444,3.02222222 0.244444444,2.73333333 L2.64444444,0.333333333 C2.93333333,0.0444444444 3.4,0.0444444444 3.68888889,0.333333333 C3.97777778,0.622222222 3.97777778,1.08888889 3.68888889,1.37777778 L1.28888889,3.77777778 C1.15555556,3.93333333 0.955555556,4 0.777777778,4 Z" id="Shape"></path>
                        </g>
                        <g id="Group" transform="translate(7.000000, 45.000000)" fill="#2E96D3">
                            <path d="M3.17894737,3.87368421 C2.98947368,3.87368421 2.82105263,3.81052632 2.67368421,3.66315789 L0.4,1.38947368 C0.126315789,1.11578947 0.126315789,0.673684211 0.4,0.4 C0.673684211,0.126315789 1.11578947,0.126315789 1.38947368,0.4 L3.66315789,2.67368421 C3.93684211,2.94736842 3.93684211,3.38947368 3.66315789,3.66315789 C3.53684211,3.81052632 3.34736842,3.87368421 3.17894737,3.87368421 Z" id="Shape"></path>
                            <path d="M0.905263158,3.87368421 C0.715789474,3.87368421 0.547368421,3.81052632 0.4,3.66315789 C0.126315789,3.38947368 0.126315789,2.94736842 0.4,2.67368421 L2.67368421,0.4 C2.94736842,0.126315789 3.38947368,0.126315789 3.66315789,0.4 C3.93684211,0.673684211 3.93684211,1.11578947 3.66315789,1.38947368 L1.38947368,3.66315789 C1.26315789,3.81052632 1.07368421,3.87368421 0.905263158,3.87368421 Z" id="Shape"></path>
                        </g>
                        <polygon id="Shape" fill="#D8EAF3" points="52 90 52 62 52.070028 62 52.070028 89.836394 76.9533147 74.9248748 77 74.9949917"></polygon>
                        <g id="XMLID_3_" transform="translate(0.000000, 38.000000)" fill="#066695">
                            <g id="Group">
                                <path d="M52.4767699,53.2665929 C52.3373894,53.2665929 52.1980088,53.2201327 52.0818584,53.1504425 L9.05973451,27.3185841 C8.82743363,27.1792035 8.6880531,26.9236726 8.6880531,26.6449115 C8.6880531,26.3661504 8.82743363,26.1106195 9.05973451,25.9712389 L52.0818584,0.232300885 C52.3373894,0.092920354 52.6393805,0.092920354 52.8716814,0.232300885 L95.9170354,26.0176991 C96.1493363,26.1570796 96.2887168,26.4126106 96.2887168,26.6913717 C96.2887168,26.9701327 96.1493363,27.2256637 95.9170354,27.3650442 L52.8716814,53.1504425 C52.755531,53.2201327 52.6161504,53.2665929 52.4767699,53.2665929 Z M10.9646018,26.6681416 L52.5,51.5940265 L94.0353982,26.7146018 L52.5,1.83517699 L10.9646018,26.6681416 Z" id="Shape"></path>
                                <path d="M52.4767699,104.88385 C52.3373894,104.88385 52.1980088,104.837389 52.0818584,104.767699 L9.05973451,78.9358407 C8.82743363,78.7964602 8.6880531,78.5409292 8.6880531,78.2621681 L8.6880531,40.420354 L1.23119469,44.5553097 C0.92920354,44.7179204 0.557522124,44.6714602 0.325221239,44.4391593 C0.0696902655,44.2068584 0.0232300885,43.835177 0.162610619,43.5331858 L8.78097345,26.3196903 C8.94358407,25.994469 9.2920354,25.8318584 9.64048673,25.9015487 C9.98893805,25.994469 10.244469,26.2964602 10.244469,26.6449115 L10.244469,39.0497788 C10.244469,39.0497788 10.244469,39.0730088 10.244469,39.0730088 L10.244469,77.7975664 L52.5,103.164823 L94.755531,77.8440265 L94.755531,49.1084071 C94.755531,48.6902655 95.1039823,48.3418142 95.5221239,48.3418142 C95.9402655,48.3418142 96.2887168,48.6902655 96.2887168,49.1084071 L96.2887168,78.3318584 C96.2887168,78.6106195 96.1493363,78.8661504 95.9170354,79.005531 L52.8716814,104.790929 C52.755531,104.837389 52.6161504,104.88385 52.4767699,104.88385 Z M8.66482301,29.9435841 L2.64823009,41.9767699 L8.66482301,38.6316372 L8.66482301,29.9435841 Z" id="Shape"></path>
                                <path d="M61.0951327,70.7588496 C61.0254425,70.7588496 60.9557522,70.7588496 60.8860619,70.7356195 C60.6769912,70.6659292 60.5143805,70.5265487 60.3982301,70.340708 L51.7798673,52.8484513 C51.5940265,52.4535398 51.7566372,51.9889381 52.1283186,51.8030973 C52.5232301,51.6172566 52.9878319,51.7798673 53.1736726,52.1515487 L61.3971239,68.8772124 L95.1039823,48.4347345 L103.095133,43.579646 L94.8019912,27.039823 C94.6161504,26.6681416 94.755531,26.1803097 95.1504425,25.994469 C95.5221239,25.8086283 96.0099558,25.9480088 96.1957965,26.3429204 L104.814159,43.5331858 C105,43.9048673 104.860619,44.3230088 104.512168,44.5320796 L95.8938053,49.7588496 L61.4668142,70.6426991 C61.3738938,70.7123894 61.2345133,70.7588496 61.0951327,70.7588496 Z" id="Shape"></path>
                                <path d="M52.4767699,104.88385 C52.0586283,104.88385 51.710177,104.535398 51.710177,104.117257 L51.710177,0.905973451 C51.710177,0.487831858 52.0586283,0.139380531 52.4767699,0.139380531 C52.8949115,0.139380531 53.2433628,0.487831858 53.2433628,0.905973451 L53.2433628,104.094027 C53.2665929,104.535398 52.9181416,104.88385 52.4767699,104.88385 Z" id="Shape"></path>
                            </g>
                        </g>
                    </g>
                </g>
            </g>
        </g>
    </g>
</svg>