<?xml version="1.0" encoding="UTF-8" standalone="no"?>
<svg width="133px" height="133px" viewBox="0 0 133 133" version="1.1" xmlns="http://www.w3.org/2000/svg" xmlns:xlink="http://www.w3.org/1999/xlink">
    <!-- Generator: sketchtool 49.3 (51167) - http://www.bohemiancoding.com/sketch -->
    <title>065A6C77-18A5-452E-A208-960F80BBB052</title>
    <desc>Created with sketchtool.</desc>
    <defs></defs>
    <g id="Welcome" stroke="none" stroke-width="1" fill="none" fill-rule="evenodd">
        <g id="about-mobile" transform="translate(-94.000000, -1694.000000)" fill-rule="nonzero">
            <g id="values-section" transform="translate(54.000000, 1022.000000)">
                <g id="Support-group" transform="translate(0.000000, 652.000000)">
                    <g id="Support-symbol" transform="translate(40.000000, 20.000000)">
                        <path d="M119.591972,119.236949 L119.591972,131.485236 L92.229856,131.485236 L92.0777033,131.485236 L92.0777033,123.066123 L92.0777033,123.040765 C92.4580849,123.066123 92.8384665,123.066123 93.2188481,123.066123 L115.636003,123.066123 L115.762797,123.066123 C116.827865,123.066123 117.76614,122.635024 118.476186,121.950337 C119.160872,121.240292 119.591972,120.302017 119.591972,119.236949 Z" id="Shape" fill="#2E96D3"></path>
                        <path d="M131.282366,12.7047451 L131.282366,40.2190134 L122.863253,40.2190134 L122.837895,40.2190134 C122.863253,39.8386318 122.863253,39.4582502 122.863253,39.0778686 L122.863253,16.6860724 L122.863253,16.5592785 C122.863253,15.4942101 122.432154,14.5559355 121.747467,13.8458898 C121.06278,13.161203 120.099147,12.7301039 119.034079,12.7301039 L131.282366,12.7301039 L131.282366,12.7047451 Z" id="Shape" fill="#ED1E7A"></path>
                        <path d="M40.0161432,1.0143509 L40.0161432,9.43346341 L40.0161432,9.45882218 C39.6357616,9.43346341 39.25538,9.43346341 38.8749984,9.43346341 L16.4832022,9.43346341 L16.3564083,9.43346341 C15.2913399,9.43346341 14.3530653,9.86456255 13.6430197,10.5492494 C12.9583328,11.2339363 12.5272337,12.1975696 12.5272337,13.2626381 L12.5272337,1.0143509 L40.0161432,1.0143509 Z" id="Shape" fill="#2E96D3"></path>
                        <path d="M13.0597679,119.794842 L0.811480724,119.794842 L0.811480724,92.2805735 L9.23059323,92.2805735 L9.255952,92.2805735 C9.23059323,92.6609551 9.23059323,93.0413367 9.23059323,93.4217183 L9.23059323,115.813515 L9.23059323,115.940308 C9.23059323,117.005377 9.66169236,117.943651 10.3463792,118.653697 C11.0310661,119.363743 11.9946994,119.794842 13.0597679,119.794842 Z" id="Shape" fill="#ED1E7A"></path>
                        <path d="M115.762797,115.407774 C117.867575,115.407774 119.591972,117.132171 119.591972,119.236949 C119.591972,120.302017 119.160872,121.240292 118.476186,121.950337 C117.791499,122.635024 116.827865,123.066123 115.762797,123.066123 L115.636003,123.066123 L93.2442069,123.066123 C92.8638253,123.066123 92.4834437,123.066123 92.1030621,123.040765 C89.6179024,122.888612 87.2595366,122.254643 85.1293997,121.240292 C82.6695987,120.073788 80.4887443,118.374751 78.7643477,116.32069 L65.0706105,116.32069 L65.0706105,96.2111833 L76.0256003,96.2111833 C76.1777529,95.906878 76.3299056,95.577214 76.4820582,95.2729087 C79.4997521,89.5671849 85.3069111,85.5858576 92.1030621,85.1801172 C92.4834437,85.1547584 92.8638253,85.1547584 93.2442069,85.1547584 L95.3236262,85.1547584 L108.307318,85.1547584 C108.307318,87.1581015 107.495837,88.9839331 106.177181,90.3025893 C105.010677,91.4690928 103.463792,92.229856 101.739396,92.4073674 L105.238906,92.4073674 L105.238906,92.4327262 L120.073788,92.4327262 L120.65704,92.4327262 C122.761818,92.4327262 124.486215,94.1571227 124.486215,96.2619008 C124.486215,97.3269693 124.055116,98.2652439 123.370429,98.9752895 C122.685742,99.6599764 121.722109,100.091075 120.65704,100.091075 L127.453191,100.091075 C129.557969,100.091075 131.282366,101.815472 131.282366,103.92025 C131.282366,104.985319 130.851267,105.923593 130.16658,106.633639 C129.481893,107.318326 128.51826,107.749425 127.453191,107.749425 L123.801528,107.749425 C125.906306,107.749425 127.630703,109.473821 127.630703,111.578599 C127.630703,112.643668 127.199603,113.581943 126.514917,114.291988 C125.83023,114.976675 124.866596,115.407774 123.801528,115.407774 L115.762797,115.407774 Z" id="Shape" fill="#D8EAF3"></path>
                        <path d="M92.229856,30.557321 L92.229856,27.0578104 L92.2552148,27.0578104 L92.2552148,12.2229284 L92.2552148,11.6396766 C92.2552148,9.5348985 93.9796113,7.81050196 96.0843894,7.81050196 C97.1494579,7.81050196 98.0877325,8.2416011 98.7977781,8.92628796 C99.4824649,9.61097482 99.9135641,10.5746082 99.9135641,11.6396766 L99.9135641,4.84352557 C99.9135641,2.73874744 101.637961,1.0143509 103.742739,1.0143509 C104.807807,1.0143509 105.746082,1.44545004 106.456127,2.1301369 C107.140814,2.81482376 107.571913,3.77845712 107.571913,4.84352557 L107.571913,8.49518882 C107.571913,6.3904107 109.29631,4.66601416 111.401088,4.66601416 C112.466157,4.66601416 113.404431,5.09711329 114.114477,5.78180016 C114.799164,6.46648702 115.230263,7.43012037 115.230263,8.49518882 L115.230263,16.5339197 C115.230263,14.4291416 116.954659,12.7047451 119.059437,12.7047451 C120.124506,12.7047451 121.06278,13.1358442 121.772826,13.8205311 C122.457513,14.5052179 122.888612,15.4688513 122.888612,16.5339197 L122.888612,16.6607136 L122.888612,39.0525098 C122.888612,39.4328914 122.888612,39.813273 122.863253,40.1936546 C122.711101,42.6788143 122.077131,45.0371802 121.06278,47.1673171 C119.896277,49.627118 118.197239,51.8079724 116.143179,53.532369 L116.143179,67.2261062 L96.0336719,67.2261062 L96.0336719,56.2711164 C95.7293666,56.1189638 95.3997026,55.9668112 95.0953973,55.8146585 C89.3896735,52.7969646 85.4083462,46.9898056 85.0026058,40.1936546 C84.977247,39.813273 84.977247,39.4328914 84.977247,39.0525098 L84.977247,36.9730905 L84.977247,23.9893989 C86.9805901,23.9893989 88.8064217,24.8008796 90.1250779,26.1195358 C91.2915814,27.2606806 92.0523446,28.8329245 92.229856,30.557321 Z" id="Shape" fill="#D8EAF3"></path>
                        <path d="M16.3310496,17.066454 C14.2262714,17.066454 12.5018749,15.3420574 12.5018749,13.2372793 C12.5018749,12.1722109 12.932974,11.2339363 13.6176609,10.5238906 C14.3023478,9.83920377 15.2659811,9.40810464 16.3310496,9.40810464 L16.4578434,9.40810464 L38.8496396,9.40810464 C39.2300212,9.40810464 39.6104028,9.40810464 39.9907844,9.43346341 C42.4759441,9.58561605 44.83431,10.2195854 46.9644469,11.2339363 C49.4242478,12.4004398 51.6051023,14.0994776 53.3294988,16.1535382 L67.023236,16.1535382 L67.023236,36.2630448 L56.0682462,36.2630448 C55.9160936,36.5673501 55.763941,36.8970141 55.6117883,37.2013194 C52.6194532,42.9070433 46.7869355,46.8883706 39.9907844,47.2941109 C39.6104028,47.3194697 39.2300212,47.3194697 38.8496396,47.3194697 L36.7702203,47.3194697 L23.7865287,47.3194697 C23.7865287,45.3161267 24.5980094,43.490295 25.9166656,42.1716389 C27.0831691,41.0051353 28.6300543,40.2443721 30.3544508,40.0668607 L26.8549402,40.0668607 L26.8549402,40.041502 L12.0200582,40.041502 L11.4368064,40.041502 C9.33202832,40.041502 7.60763178,38.3171054 7.60763178,36.2123273 C7.60763178,35.1472588 8.03873092,34.2089843 8.72341778,33.4989386 C9.40810464,32.8142518 10.371738,32.3831526 11.4368064,32.3831526 L4.64065539,32.3831526 C2.53587726,32.3831526 0.811480724,30.6587561 0.811480724,28.553978 C0.811480724,27.4889095 1.24257986,26.5506349 1.92726672,25.8405893 C2.61195358,25.1559024 3.57558694,24.7248033 4.64065539,24.7248033 L8.29231864,24.7248033 C6.18754052,24.7248033 4.46314398,23.0004068 4.46314398,20.8956286 C4.46314398,19.8305602 4.89424311,18.8922856 5.57892997,18.18224 C6.26361683,17.4975531 7.22725019,17.066454 8.29231864,17.066454 L16.3310496,17.066454 Z" id="Shape" fill="#D8EAF3"></path>
                        <path d="M39.8639905,101.942266 L39.8639905,105.441777 L39.8386318,105.441777 L39.8386318,120.276658 L39.8386318,120.85991 C39.8386318,122.964688 38.1142352,124.689085 36.0094571,124.689085 C34.9443887,124.689085 34.0061141,124.257986 33.2960684,123.573299 C32.6113816,122.888612 32.1802824,121.924979 32.1802824,120.85991 L32.1802824,127.656061 C32.1802824,129.760839 30.4558859,131.485236 28.3511078,131.485236 C27.2860393,131.485236 26.3477647,131.054137 25.6377191,130.36945 C24.9530322,129.684763 24.5219331,128.72113 24.5219331,127.656061 L24.5219331,124.004398 C24.5219331,126.109176 22.7975366,127.833573 20.6927584,127.833573 C19.62769,127.833573 18.6894154,127.402474 17.9793698,126.717787 C17.2946829,126.0331 16.8635838,125.069467 16.8635838,124.004398 L16.8635838,115.965667 C16.8635838,118.070445 15.1391872,119.794842 13.0344091,119.794842 C11.9693407,119.794842 11.0310661,119.363743 10.3210205,118.679056 C9.63633359,117.994369 9.20523446,117.030736 9.20523446,115.965667 L9.20523446,115.838873 L9.20523446,93.4470771 C9.20523446,93.0666955 9.20523446,92.6863139 9.23059323,92.3059323 C9.38274587,89.8207726 10.0167152,87.4624067 11.0310661,85.3322698 C12.1975696,82.8724689 13.8966074,80.6916144 15.950668,78.9672179 L15.950668,65.2734807 L36.0601747,65.2734807 L36.0601747,76.2284705 C36.3644799,76.3806231 36.694144,76.5327757 36.9984492,76.6849284 C42.7041731,79.7026223 46.6855004,85.5097812 47.0912407,92.3059323 C47.1165995,92.6863139 47.1165995,93.0666955 47.1165995,93.4470771 L47.1165995,95.5264964 L47.1165995,108.510188 C45.1132565,108.510188 43.2874248,107.698707 41.9687687,106.380051 C40.8022651,105.213548 40.041502,103.666662 39.8639905,101.942266 Z" id="Shape" fill="#D8EAF3"></path>
                        <path d="M65.0452517,92.2805735 L65.0452517,96.2111833 L65.0452517,116.32069 L65.0452517,120.2513 L39.8639905,120.2513 L39.8639905,105.416418 L39.8893493,105.416418 L39.8893493,101.916907 C40.0668607,103.641304 40.8276239,105.188189 41.9941274,106.354692 C43.3127836,107.673349 45.1386152,108.484829 47.1419583,108.484829 L47.1419583,95.5011376 L47.1419583,93.4217183 C47.1419583,93.0413367 47.1419583,92.6609551 47.1165995,92.2805735 L47.1419583,92.2805735 L65.0452517,92.2805735 Z" id="Shape" fill="#ED1E7A"></path>
                        <path d="M96.0336719,67.2261062 L116.143179,67.2261062 L120.073788,67.2261062 L120.073788,92.4073674 L105.238906,92.4073674 L105.238906,92.3820086 L101.739396,92.3820086 C103.463792,92.2044972 105.010677,91.443734 106.177181,90.2772305 C107.495837,88.9585743 108.307318,87.1327427 108.307318,85.1293997 L95.3236262,85.1293997 L93.2442069,85.1293997 C92.8638253,85.1293997 92.4834437,85.1293997 92.1030621,85.1547584 L92.1030621,85.1293997 L92.1030621,67.2007474 L96.0336719,67.2007474 L96.0336719,67.2261062 Z" id="Shape" fill="#2E96D3"></path>
                        <path d="M67.0485948,36.2630448 L67.0485948,16.1535382 L67.0485948,12.2229284 L92.229856,12.2229284 L92.229856,27.0578104 L92.2044972,27.0578104 L92.2044972,30.557321 C92.0269858,28.8329245 91.2662226,27.2860393 90.0997191,26.1195358 C88.7810629,24.8008796 86.9552313,23.9893989 84.9518882,23.9893989 L84.9518882,36.9730905 L84.9518882,39.0525098 C84.9518882,39.4328914 84.9518882,39.813273 84.977247,40.1936546 L84.9518882,40.1936546 L67.023236,40.1936546 L67.023236,36.2630448 L67.0485948,36.2630448 Z" id="Shape" fill="#ED1E7A"></path>
                        <path d="M40.0161432,47.2941109 L40.0161432,65.2481219 L36.0855334,65.2481219 L15.9760267,65.2481219 L12.045417,65.2481219 L12.045417,40.0668607 L26.880299,40.0668607 L26.880299,40.0922195 L30.3798096,40.0922195 C28.655413,40.2697309 27.1085279,41.0304941 25.9420244,42.1969976 C24.6233682,43.5156538 23.8118875,45.3414854 23.8118875,47.3448285 L36.7702203,47.3448285 L38.8496396,47.3448285 C39.2300212,47.3194697 39.6357616,47.3194697 40.0161432,47.2941109 Z" id="Shape" fill="#2E96D3"></path>
                        <path d="M118.476186,121.950337 C117.791499,122.635024 116.827865,123.066123 115.762797,123.066123 L115.636003,123.066123 L93.2442069,123.066123 C92.8638253,123.066123 92.4834437,123.066123 92.1030621,123.040765 L92.1030621,123.066123 L92.1030621,126.058459 C93.117413,126.286688 94.1824815,126.43884 95.2475499,126.514917 C95.6279315,126.540275 96.0083131,126.540275 96.3886947,126.540275 L118.780491,126.540275 L118.907285,126.540275 C119.135514,126.540275 119.363743,126.514917 119.591972,126.489558 L119.591972,119.236949 C119.591972,120.302017 119.160872,121.240292 118.476186,121.950337 Z" id="Shape" fill="#2A8ABC"></path>
                        <path d="M126.007741,20.0080716 C126.007741,18.9430031 125.576642,18.0047286 124.891955,17.2946829 C124.359421,16.7621487 123.649375,16.3817671 122.863253,16.2296145 C122.863253,16.3310496 122.863253,16.4071259 122.863253,16.508561 L122.863253,16.6353548 L122.863253,39.027151 C122.863253,39.4075326 122.863253,39.7879142 122.837895,40.1682958 L122.863253,40.1682958 L126.007741,40.1682958 L126.007741,20.1095067 L126.007741,20.0080716 Z" id="Shape" fill="#DD1372"></path>
                        <path d="M43.0338371,108.915928 L43.0338371,107.242249 C42.6534555,106.988662 42.2984327,106.684356 41.9941274,106.380051 C40.8276239,105.213548 40.0668607,103.666662 39.8893493,101.942266 L39.8893493,105.441777 L39.8639905,105.441777 L39.8639905,120.276658 L43.0084783,120.276658 L43.0338371,108.915928 Z" id="Shape" fill="#DD1372"></path>
                        <path d="M47.0912407,92.2805735 C47.1165995,92.6609551 47.1165995,93.0413367 47.1165995,93.4217183 L47.1165995,95.5011376 L47.1165995,108.484829 C45.8233021,108.484829 44.606081,108.155165 43.5410126,107.546555 C43.9213942,108.408753 44.4285696,109.169516 45.0878977,109.828844 C46.4065539,111.1475 48.2323855,111.958981 50.2357285,111.958981 L50.2357285,98.9752895 L50.2357285,96.8958701 C50.2357285,96.5154886 50.2357285,96.135107 50.2103698,95.7547254 C50.1342934,94.5628631 49.956782,93.3963595 49.6778355,92.2552148 L47.1165995,92.2552148 L47.0912407,92.2805735 Z" id="Shape" fill="#DD1372"></path>
                        <path d="M40.0161432,47.2941109 C39.6357616,47.3194697 39.25538,47.3194697 38.8749984,47.3194697 L36.7702203,47.3194697 L27.8185736,47.3194697 C27.2606806,48.3591794 26.9310165,49.5510417 26.9310165,50.8189803 L39.9147081,50.8189803 L40.0161432,50.8189803 L40.0161432,47.2941109 Z" id="Shape" fill="#2A8ABC"></path>
                        <path d="M15.164546,43.5410126 L24.8262384,43.5410126 C25.1305437,43.0338371 25.4855665,42.5773792 25.9166656,42.1716389 C27.0831691,41.0051353 28.6300543,40.2443721 30.3544508,40.0668607 L26.8549402,40.0668607 L26.8549402,40.041502 L12.0200582,40.041502 L12.0200582,42.5520204 C12.7047451,43.160631 13.5923021,43.5410126 14.5812943,43.5410126 L15.164546,43.5410126 Z" id="Shape" fill="#2A8ABC"></path>
                        <g id="Group" transform="translate(0.000000, 84.191125)" fill="#066695">
                            <path d="M9.23059323,8.85021164 L0.811480724,8.85021164 C0.405740362,8.85021164 0.0507175452,8.5205476 0.0507175452,8.08944846 C0.0507175452,7.65834933 0.380381589,7.32868528 0.811480724,7.32868528 L9.23059323,7.32868528 C9.63633359,7.32868528 9.99135641,7.65834933 9.99135641,8.08944846 C9.99135641,8.5205476 9.63633359,8.85021164 9.23059323,8.85021164 Z" id="Shape"></path>
                            <path d="M13.0597679,36.3644799 L0.811480724,36.3644799 C0.405740362,36.3644799 0.0507175452,36.0348159 0.0507175452,35.6037167 C0.0507175452,35.1726176 0.380381589,34.8429536 0.811480724,34.8429536 L13.0597679,34.8429536 C13.4655083,34.8429536 13.8205311,35.1726176 13.8205311,35.6037167 C13.8205311,36.0348159 13.4655083,36.3644799 13.0597679,36.3644799 Z" id="Shape"></path>
                            <g transform="translate(39.052510, 0.000000)" id="Shape">
                                <path d="M25.9927419,36.8209378 L0.811480724,36.8209378 C0.405740362,36.8209378 0.0507175452,36.4912738 0.0507175452,36.0601747 C0.0507175452,35.6544343 0.380381589,35.2994115 0.811480724,35.2994115 L25.2319787,35.2994115 L25.2319787,8.85021164 L8.06408969,8.85021164 C7.65834933,8.85021164 7.30332651,8.5205476 7.30332651,8.08944846 C7.30332651,7.6837081 7.63299056,7.32868528 8.06408969,7.32868528 C8.06408969,7.32868528 8.06408969,7.32868528 8.06408969,7.32868528 L25.9927419,7.32868528 C26.3984823,7.32868528 26.7535051,7.65834933 26.7535051,8.08944846 L26.7535051,36.0601747 C26.7535051,36.4912738 26.4238411,36.8209378 25.9927419,36.8209378 Z"></path>
                                <path d="M39.7118379,32.8903281 L26.0181007,32.8903281 C25.6123603,32.8903281 25.2573375,32.560664 25.2573375,32.1295649 C25.2573375,31.7238245 25.5870016,31.3688017 26.0181007,31.3688017 L39.7118379,31.3688017 C40.1175783,31.3688017 40.4726011,31.6984658 40.4726011,32.1295649 C40.4472423,32.560664 40.1175783,32.8903281 39.7118379,32.8903281 Z"></path>
                                <path d="M36.9477317,12.7808214 C36.9477317,12.7808214 36.9477317,12.7808214 36.9477317,12.7808214 L25.9927419,12.7808214 C25.5870016,12.7808214 25.2319787,12.4511574 25.2319787,12.0200582 C25.2319787,11.6143179 25.5616428,11.259295 25.9927419,11.259295 C25.9927419,11.259295 25.9927419,11.259295 25.9927419,11.259295 L36.9477317,11.259295 C37.3534721,11.259295 37.7084949,11.5889591 37.7084949,12.0200582 C37.7084949,12.4511574 37.3788308,12.7808214 36.9477317,12.7808214 Z"></path>
                                <g transform="translate(36.009457, 0.000000)">
                                    <path d="M45.5950732,16.6607136 C45.5950732,16.6607136 45.5950732,16.6607136 45.5950732,16.6607136 L26.5759937,16.6607136 C26.1702533,16.6607136 25.8152305,16.3310496 25.8152305,15.8999504 C25.8152305,15.4688513 26.1448946,15.1391872 26.5759937,15.1391872 C26.5759937,15.1391872 26.5759937,15.1391872 26.5759937,15.1391872 L45.5950732,15.1391872 C46.0008135,15.1391872 46.3558363,15.4688513 46.3558363,15.8999504 C46.3558363,16.3310496 46.0008135,16.6607136 45.5950732,16.6607136 Z"></path>
                                    <path d="M48.739561,24.3190629 C48.739561,24.3190629 48.739561,24.3190629 48.739561,24.3190629 L25.1812612,24.3190629 C24.7755208,24.3190629 24.420498,23.9893989 24.420498,23.5582998 C24.420498,23.1525594 24.7501621,22.7975366 25.1812612,22.7975366 C25.1812612,22.7975366 25.1812612,22.7975366 25.1812612,22.7975366 L48.739561,22.7975366 C49.1453013,22.7975366 49.5003241,23.1272006 49.5003241,23.5582998 C49.5003241,23.9640401 49.1706601,24.3190629 48.739561,24.3190629 Z"></path>
                                    <path d="M40.70083,31.9774123 C40.70083,31.9774123 40.70083,31.9774123 40.70083,31.9774123 L23.1525594,31.9774123 C22.746819,31.9774123 22.3917962,31.6477482 22.3917962,31.2166491 C22.3917962,30.7855499 22.7214603,30.4558859 23.1525594,30.4558859 C23.1525594,30.4558859 23.1525594,30.4558859 23.1525594,30.4558859 L40.70083,30.4558859 C41.1065704,30.4558859 41.4615932,30.7855499 41.4615932,31.2166491 C41.4615932,31.6223894 41.1319292,31.9774123 40.70083,31.9774123 Z"></path>
                                    <path d="M0.938274587,12.7808214 C0.836839496,12.7808214 0.735404406,12.7554626 0.633969315,12.7047451 C0.253587726,12.5272337 0.0760763178,12.0707758 0.253587726,11.6903942 C0.405740362,11.3607301 0.557892997,11.0310661 0.735404406,10.7267608 C4.15883871,4.23491503 10.8535547,0.177511408 18.18224,0.177511408 L33.2453509,0.177511408 C33.6510913,0.177511408 34.0061141,0.507175452 34.0061141,0.938274587 C34.0061141,5.37605979 30.4051684,9.00236428 25.9420244,9.00236428 L24.8769559,9.00236428 C24.4712156,9.00236428 24.1161928,8.67270023 24.1161928,8.2416011 C24.1161928,7.81050196 24.4458568,7.48083792 24.8769559,7.48083792 L25.9420244,7.48083792 C29.2893824,7.48083792 32.0534886,4.94496066 32.4338702,1.69903776 L18.1568812,1.69903776 C11.3860889,1.69903776 5.19854839,5.42677734 2.05406058,11.4368064 C1.90190795,11.7411117 1.74975531,12.0200582 1.62296145,12.3243635 C1.49616758,12.6286688 1.24257986,12.7808214 0.938274587,12.7808214 Z"></path>
                                    <path d="M40.70083,39.6357616 C40.70083,39.6357616 40.70083,39.6357616 40.70083,39.6357616 L18.18224,39.6357616 C12.3497223,39.6357616 6.87222738,37.0745256 3.11912903,32.6367403 C2.84018253,32.3070763 2.89090008,31.8506184 3.22056412,31.5716719 C3.55022817,31.2927254 4.00668607,31.3434429 4.28563257,31.673107 C7.75978442,35.7812282 12.8315389,38.139594 18.2075987,38.139594 L40.7261888,38.139594 C41.5376695,38.139594 42.3237915,37.80993 42.9070433,37.252037 C43.490295,36.6687852 43.7946003,35.908022 43.7946003,35.0711825 C43.7946003,33.3721448 42.4252266,32.002771 40.7261888,32.002771 C40.3204484,32.002771 39.9654256,31.673107 39.9654256,31.2420079 C39.9654256,30.8362675 40.2950897,30.4812447 40.7261888,30.4812447 C40.7261888,30.4812447 40.7261888,30.4812447 40.7261888,30.4812447 L48.7649197,30.4812447 C49.5764005,30.4812447 50.3625224,30.1515806 50.9457742,29.5936876 C51.5290259,29.0104359 51.8333312,28.2496727 51.8333312,27.4128332 C51.8333312,25.7137954 50.4639575,24.3444217 48.7649197,24.3444217 C48.3591794,24.3444217 48.0041566,24.0147577 48.0041566,23.5836585 C48.0041566,23.1779182 48.3338206,22.8228953 48.7649197,22.8228953 C48.7649197,22.8228953 48.7649197,22.8228953 48.7649197,22.8228953 L52.416583,22.8228953 C53.2280637,22.8228953 54.0141857,22.4932313 54.5974374,21.9353383 C55.1806892,21.3520865 55.4849945,20.5913234 55.4849945,19.7544839 C55.4849945,18.0554461 54.1156207,16.6860724 52.416583,16.6860724 L45.6204319,16.6860724 C45.2146916,16.6860724 44.8596687,16.3564083 44.8596687,15.9253092 C44.8596687,15.5195688 45.1893328,15.164546 45.6204319,15.164546 C45.6204319,15.164546 45.6204319,15.164546 45.6204319,15.164546 C46.4319126,15.164546 47.2180346,14.834882 47.8012864,14.276989 C48.3845381,13.6937372 48.6888434,12.932974 48.6888434,12.0961345 C48.6888434,11.259295 48.3591794,10.4985319 47.8012864,9.91528009 C47.2180346,9.33202832 46.4572714,9.02772305 45.6204319,9.02772305 L30.2022982,9.02772305 C30.1515806,9.02772305 30.1008631,9.02772305 30.0501455,9.00236428 L16.4578434,9.02772305 C16.4578434,9.02772305 16.4578434,9.02772305 16.4578434,9.02772305 C16.0521031,9.02772305 15.6970802,8.69805901 15.6970802,8.26695987 C15.6970802,7.86121951 16.0267443,7.50619669 16.4578434,7.50619669 L30.227657,7.48083792 C30.2783745,7.48083792 30.329092,7.48083792 30.4051684,7.50619669 L45.6457907,7.50619669 C46.8630118,7.50619669 48.0295153,7.98801337 48.8917136,8.85021164 C49.7539119,9.71240991 50.2357285,10.8789134 50.2357285,12.0961345 C50.2357285,13.2372793 49.8299882,14.3277065 49.0438662,15.164546 L52.4419418,15.164546 C53.6591628,15.164546 54.8256664,15.6463627 55.6878647,16.508561 C56.5500629,17.3707592 57.0318796,18.5372628 57.0318796,19.7544839 C57.0318796,20.9717049 56.5500629,22.1382085 55.6878647,23.0004068 C54.8256664,23.862605 53.6591628,24.3444217 52.4419418,24.3444217 C52.4419418,24.3444217 52.4419418,24.3444217 52.4419418,24.3444217 L52.188354,24.3444217 C52.9237584,25.1559024 53.3802163,26.2463297 53.3802163,27.4128332 C53.3802163,28.6300543 52.8983997,29.7965578 52.0362014,30.6587561 C51.1740031,31.5209544 50.0074996,32.002771 48.7902785,32.002771 C48.7902785,32.002771 48.7902785,32.002771 48.7902785,32.002771 L44.1496231,32.002771 C44.8850275,32.8142518 45.3414854,33.904679 45.3414854,35.0711825 C45.2907679,37.581701 43.2367073,39.6357616 40.70083,39.6357616 Z"></path>
                                </g>
                            </g>
                        </g>
                        <g id="Group" transform="translate(84.191125, 0.000000)" fill="#066695">
                            <g id="Shape">
                                <path d="M35.8826632,93.1934893 C35.4769229,93.1934893 35.1219001,92.8638253 35.1219001,92.4327262 L35.1219001,68.0122281 L8.67270023,68.0122281 L8.67270023,85.1801172 C8.67270023,85.5858576 8.34303619,85.9408804 7.91193705,85.9408804 C7.91193705,85.9408804 7.91193705,85.9408804 7.91193705,85.9408804 C7.50619669,85.9408804 7.15117388,85.6112163 7.15117388,85.1801172 L7.15117388,67.251465 C7.15117388,66.8457246 7.48083792,66.4907018 7.91193705,66.4907018 C7.91193705,66.4907018 7.91193705,66.4907018 7.91193705,66.4907018 L35.8826632,66.4907018 C36.2884036,66.4907018 36.6434264,66.8203658 36.6434264,67.251465 L36.6434264,92.4327262 C36.6180676,92.8384665 36.2884036,93.1934893 35.8826632,93.1934893 Z"></path>
                                <path d="M31.9520535,67.9868694 C31.5463131,67.9868694 31.1912903,67.6572053 31.1912903,67.2261062 L31.1912903,53.532369 C31.1912903,53.1266286 31.5209544,52.7716058 31.9520535,52.7716058 C32.3577939,52.7716058 32.7128167,53.1012698 32.7128167,53.532369 L32.7128167,67.2261062 C32.6874579,67.6572053 32.3577939,67.9868694 31.9520535,67.9868694 Z"></path>
                                <path d="M11.8425468,67.9868694 C11.8425468,67.9868694 11.8425468,67.9868694 11.8425468,67.9868694 C11.4368064,67.9868694 11.0817836,67.6572053 11.0817836,67.2261062 L11.0817836,56.2711164 C11.0817836,55.8653761 11.4114477,55.5103532 11.8425468,55.5103532 C11.8425468,55.5103532 11.8425468,55.5103532 11.8425468,55.5103532 C12.2482872,55.5103532 12.60331,55.8400173 12.60331,56.2711164 L12.60331,67.2261062 C12.5779512,67.6572053 12.2482872,67.9868694 11.8425468,67.9868694 Z"></path>
                                <g>
                                    <path d="M15.6970802,31.4195193 C15.6970802,31.4195193 15.6970802,31.4195193 15.6970802,31.4195193 C15.2913399,31.4195193 14.9363171,31.0898552 14.9363171,30.6587561 L14.9363171,11.6396766 C14.9363171,11.2339363 15.2659811,10.8789134 15.6970802,10.8789134 C15.6970802,10.8789134 15.6970802,10.8789134 15.6970802,10.8789134 C16.1028206,10.8789134 16.4578434,11.2085775 16.4578434,11.6396766 L16.4578434,30.6587561 C16.4578434,31.0898552 16.1281794,31.4195193 15.6970802,31.4195193 Z"></path>
                                    <path d="M23.3554296,32.788893 C23.3554296,32.788893 23.3554296,32.788893 23.3554296,32.788893 C22.9496892,32.788893 22.5946664,32.4592289 22.5946664,32.0281298 L22.5946664,8.46983005 C22.5946664,8.06408969 22.9243304,7.70906687 23.3554296,7.70906687 C23.3554296,7.70906687 23.3554296,7.70906687 23.3554296,7.70906687 C23.7611699,7.70906687 24.1161928,8.03873092 24.1161928,8.46983005 L24.1161928,32.0281298 C24.1161928,32.4592289 23.7865287,32.788893 23.3554296,32.788893 Z"></path>
                                    <path d="M31.0137789,34.8429536 C31.0137789,34.8429536 31.0137789,34.8429536 31.0137789,34.8429536 C30.6080385,34.8429536 30.2530157,34.5132895 30.2530157,34.0821904 L30.2530157,16.5339197 C30.2530157,16.1281794 30.5826798,15.7731566 31.0137789,15.7731566 C31.0137789,15.7731566 31.0137789,15.7731566 31.0137789,15.7731566 C31.4195193,15.7731566 31.7745421,16.1028206 31.7745421,16.5339197 L31.7745421,34.0821904 C31.7745421,34.4879307 31.444878,34.8429536 31.0137789,34.8429536 Z"></path>
                                    <path d="M11.8425468,57.0318796 C11.7411117,57.0318796 11.6396766,57.0065208 11.5382415,56.9558033 C11.2085775,56.8036506 10.8789134,56.651498 10.5746082,56.4739866 C4.08276239,53.0505523 0.0253587726,46.3558363 0.0253587726,39.027151 L0.0253587726,23.9640401 C0.0253587726,23.5582998 0.355022817,23.2032769 0.786121951,23.2032769 C5.22390716,23.2032769 8.85021164,26.8042226 8.85021164,31.2673666 L8.85021164,32.3324351 C8.85021164,32.7381754 8.5205476,33.0931983 8.08944846,33.0931983 C7.65834933,33.0931983 7.32868528,32.7635342 7.32868528,32.3324351 L7.32868528,31.2673666 C7.32868528,27.9200086 4.79280802,25.1559024 1.54688513,24.7755208 L1.54688513,39.0525098 C1.54688513,45.8233021 5.2746247,52.0108426 11.2846538,55.1553304 C11.5889591,55.3074831 11.8679056,55.4596357 12.1722109,55.5864296 C12.5525924,55.763941 12.7301039,56.2203989 12.5525924,56.6007805 C12.4004398,56.879727 12.1214933,57.0318796 11.8425468,57.0318796 Z"></path>
                                    <path d="M31.9520535,54.2931322 C31.7491833,54.2931322 31.5209544,54.1916971 31.3688017,54.0141857 C31.0898552,53.6845216 31.1405728,53.2280637 31.4702368,52.9491172 C35.578358,49.4749654 37.9367238,44.4032108 37.9367238,39.027151 L37.9367238,16.508561 C37.9367238,15.6970802 37.6070598,14.9109583 37.0491668,14.3277065 C36.465915,13.7444548 35.7051518,13.4401495 34.8683123,13.4401495 C33.1692746,13.4401495 31.7999009,14.8095232 31.7999009,16.508561 C31.7999009,16.9143013 31.4702368,17.2693241 31.0391377,17.2693241 C31.0391377,17.2693241 31.0391377,17.2693241 31.0391377,17.2693241 C30.6333973,17.2693241 30.2783745,16.9396601 30.2783745,16.508561 L30.2783745,8.46983005 C30.2783745,7.65834933 29.9487105,6.87222738 29.3908175,6.28897561 C28.8075657,5.70572384 28.0468025,5.40141857 27.209963,5.40141857 C27.209963,5.40141857 27.209963,5.40141857 27.209963,5.40141857 C26.3984823,5.40141857 25.6123603,5.73108261 25.0291086,6.28897561 C24.4458568,6.87222738 24.1415515,7.63299056 24.1415515,8.46983005 C24.1415515,8.87557041 23.8118875,9.23059323 23.3807883,9.23059323 C23.3807883,9.23059323 23.3807883,9.23059323 23.3807883,9.23059323 C22.975048,9.23059323 22.6200252,8.90092919 22.6200252,8.46983005 L22.6200252,4.8181668 C22.6200252,4.00668607 22.2903611,3.22056412 21.7324681,2.63731235 C21.1492164,2.05406058 20.3884532,1.74975531 19.5516137,1.74975531 C18.740133,1.74975531 17.954011,2.07941935 17.3707592,2.63731235 C16.7875075,3.22056412 16.4832022,3.9813273 16.4832022,4.8181668 L16.4832022,11.6143179 C16.4832022,12.0200582 16.1535382,12.375081 15.722439,12.375081 C15.722439,12.375081 15.722439,12.375081 15.722439,12.375081 C15.3166987,12.375081 14.9616758,12.045417 14.9616758,11.6143179 C14.9616758,9.91528009 13.5923021,8.54590637 11.8932644,8.54590637 C11.0817836,8.54590637 10.2956617,8.87557041 9.71240991,9.43346341 C9.12915814,10.0167152 8.82485287,10.7774784 8.82485287,11.6143179 L8.82485287,27.0324516 C8.82485287,27.0831691 8.82485287,27.1338867 8.7994941,27.1846042 L8.82485287,40.7769064 C8.82485287,41.1826467 8.49518882,41.5376695 8.06408969,41.5376695 C8.06408969,41.5376695 8.06408969,41.5376695 8.06408969,41.5376695 C7.65834933,41.5376695 7.30332651,41.2080055 7.30332651,40.7769064 L7.27796774,27.0070928 C7.27796774,26.9563753 7.27796774,26.9056577 7.30332651,26.8295814 L7.30332651,11.5889591 C7.30332651,10.371738 7.78514319,9.20523446 8.64734146,8.34303619 C9.50953973,7.48083792 10.6760433,6.99902124 11.8932644,6.99902124 C11.8932644,6.99902124 11.8932644,6.99902124 11.8932644,6.99902124 C13.0851267,6.99902124 14.1501951,7.45547915 14.9616758,8.19088355 L14.9616758,4.79280802 C14.9616758,3.57558694 15.4434925,2.4090834 16.3056908,1.54688513 C17.1678891,0.68468686 18.3343926,0.202870181 19.5516137,0.202870181 C19.5516137,0.202870181 19.5516137,0.202870181 19.5516137,0.202870181 C20.7688348,0.202870181 21.9353383,0.68468686 22.7975366,1.54688513 C23.6597348,2.4090834 24.1415515,3.57558694 24.1415515,4.79280802 L24.1415515,5.02103698 C24.978391,4.2602738 26.0688182,3.82917466 27.209963,3.82917466 C27.209963,3.82917466 27.209963,3.82917466 27.209963,3.82917466 C28.4271841,3.82917466 29.5936876,4.31099134 30.4558859,5.17318961 C31.3180842,6.03538788 31.7999009,7.20189142 31.7999009,8.41911251 L31.7999009,13.0597679 C32.6113816,12.3243635 33.7018088,11.8679056 34.8683123,11.8679056 C34.8683123,11.8679056 34.8683123,11.8679056 34.8683123,11.8679056 C37.4041896,11.8679056 39.4582502,13.9219662 39.4582502,16.4578434 L39.4582502,38.9764335 C39.4582502,44.8089512 36.8970141,50.2864461 32.4592289,54.0395444 C32.2817175,54.2424146 32.1042061,54.2931322 31.9520535,54.2931322 Z"></path>
                                </g>
                            </g>
                            <path d="M7.91193705,132.22064 C7.50619669,132.22064 7.15117388,131.890976 7.15117388,131.459877 L7.15117388,123.040765 C7.15117388,122.635024 7.48083792,122.280002 7.91193705,122.280002 C8.31767742,122.280002 8.67270023,122.609666 8.67270023,123.040765 L8.67270023,131.459877 C8.64734146,131.890976 8.31767742,132.22064 7.91193705,132.22064 Z" id="Shape"></path>
                            <path d="M35.4008466,132.22064 C34.9951062,132.22064 34.6400834,131.890976 34.6400834,131.459877 L34.6400834,119.21159 C34.6400834,118.80585 34.9697474,118.450827 35.4008466,118.450827 C35.8319457,118.450827 36.1616097,118.780491 36.1616097,119.21159 L36.1616097,131.459877 C36.1616097,131.890976 35.8319457,132.22064 35.4008466,132.22064 Z" id="Shape"></path>
                        </g>
                        <g id="Group" transform="translate(8.368395, 0.253588)" fill="#066695">
                            <g transform="translate(0.000000, 39.052510)" id="Shape">
                                <path d="M31.6477482,26.7027876 C31.6477482,26.7027876 31.6477482,26.7027876 31.6477482,26.7027876 L3.67702203,26.7027876 C3.27128167,26.7027876 2.91625885,26.3731235 2.91625885,25.9420244 L2.91625885,0.760763178 C2.91625885,0.355022817 3.24592289,0 3.67702203,0 C4.08276239,0 4.43778521,0.329664044 4.43778521,0.760763178 L4.43778521,25.1812612 L30.886985,25.1812612 L30.886985,7.98801337 C30.886985,7.58227301 31.2166491,7.22725019 31.6477482,7.22725019 C31.6477482,7.22725019 31.6477482,7.22725019 31.6477482,7.22725019 C32.0534886,7.22725019 32.4085114,7.55691424 32.4085114,7.98801337 L32.4085114,25.9420244 C32.3831526,26.3477647 32.0534886,26.7027876 31.6477482,26.7027876 Z"></path>
                                <path d="M7.60763178,40.3965248 C7.20189142,40.3965248 6.8468686,40.0668607 6.8468686,39.6357616 L6.8468686,25.9420244 C6.8468686,25.536284 7.17653265,25.1812612 7.60763178,25.1812612 C8.03873092,25.1812612 8.36839496,25.5109252 8.36839496,25.9420244 L8.36839496,39.6357616 C8.34303619,40.0668607 8.01337214,40.3965248 7.60763178,40.3965248 Z"></path>
                                <path d="M27.6917797,37.6577773 C27.6917797,37.6577773 27.6917797,37.6577773 27.6917797,37.6577773 C27.2860393,37.6577773 26.9310165,37.3281133 26.9310165,36.8970141 L26.9310165,25.9420244 C26.9310165,25.536284 27.2606806,25.1812612 27.6917797,25.1812612 C27.6917797,25.1812612 27.6917797,25.1812612 27.6917797,25.1812612 C28.0975201,25.1812612 28.4525429,25.5109252 28.4525429,25.9420244 L28.4525429,36.8970141 C28.4525429,37.3027545 28.1228788,37.6577773 27.6917797,37.6577773 Z"></path>
                                <g transform="translate(0.000000, 36.009457)">
                                    <path d="M23.8372463,46.27976 C23.8372463,46.27976 23.8372463,46.27976 23.8372463,46.27976 C23.4315059,46.27976 23.0764831,45.950096 23.0764831,45.5189968 L23.0764831,26.4999174 C23.0764831,26.094177 23.4061471,25.7391542 23.8372463,25.7391542 C23.8372463,25.7391542 23.8372463,25.7391542 23.8372463,25.7391542 C24.2429866,25.7391542 24.5980094,26.0688182 24.5980094,26.4999174 L24.5980094,45.5189968 C24.5980094,45.950096 24.2429866,46.27976 23.8372463,46.27976 Z"></path>
                                    <path d="M16.1788969,49.4496066 C16.1788969,49.4496066 16.1788969,49.4496066 16.1788969,49.4496066 C15.7731566,49.4496066 15.4181337,49.1199425 15.4181337,48.6888434 L15.4181337,25.1305437 C15.4181337,24.7248033 15.7477978,24.3697805 16.1788969,24.3697805 C16.1788969,24.3697805 16.1788969,24.3697805 16.1788969,24.3697805 C16.5846373,24.3697805 16.9396601,24.6994445 16.9396601,25.1305437 L16.9396601,48.6888434 C16.9396601,49.0945838 16.5846373,49.4496066 16.1788969,49.4496066 Z"></path>
                                    <path d="M8.5205476,41.4108757 C8.5205476,41.4108757 8.5205476,41.4108757 8.5205476,41.4108757 C8.11480724,41.4108757 7.75978442,41.0812116 7.75978442,40.6501125 L7.75978442,23.1018418 C7.75978442,22.6961015 8.08944846,22.3410787 8.5205476,22.3410787 C8.5205476,22.3410787 8.5205476,22.3410787 8.5205476,22.3410787 C8.92628796,22.3410787 9.28131078,22.6707427 9.28131078,23.1018418 L9.28131078,40.6501125 C9.28131078,41.0558529 8.92628796,41.4108757 8.5205476,41.4108757 Z"></path>
                                    <path d="M38.7735633,33.9553965 C34.3357781,33.9553965 30.7094736,30.3544508 30.7094736,25.8913068 L30.7094736,24.8262384 C30.7094736,24.420498 31.0391377,24.0654752 31.4702368,24.0654752 C31.8759772,24.0654752 32.231,24.3951393 32.231,24.8262384 L32.231,25.8913068 C32.231,29.2386648 34.7668772,32.002771 38.0128001,32.3831526 L38.0128001,18.1061636 C38.0128001,11.3353714 34.2850606,5.14783084 28.2750315,2.00334304 C27.9707262,1.8511904 27.6917797,1.69903776 27.3874744,1.5722439 C27.0070928,1.39473249 26.8295814,0.938274587 27.0070928,0.557892997 C27.1846042,0.177511408 27.6410621,-1.0005885e-14 28.0214437,0.177511408 C28.3511078,0.329664044 28.6807718,0.48181668 28.9850771,0.659328088 C35.4769229,4.08276239 39.5343265,10.7774784 39.5343265,18.1061636 L39.5343265,33.1692746 C39.5343265,33.6003737 39.1793037,33.9553965 38.7735633,33.9553965 Z"></path>
                                    <path d="M20.0080716,56.9050857 C20.0080716,56.9050857 20.0080716,56.9050857 20.0080716,56.9050857 C18.7908505,56.9050857 17.624347,56.4232691 16.7621487,55.5610708 C15.8999504,54.6988725 15.4181337,53.532369 15.4181337,52.3151479 L15.4181337,52.0869189 C14.5812943,52.8476821 13.490867,53.2787813 12.3497223,53.2787813 C12.3497223,53.2787813 12.3497223,53.2787813 12.3497223,53.2787813 C9.813845,53.2787813 7.75978442,51.2247207 7.75978442,48.6888434 L7.75978442,44.048188 C6.92294492,44.8089512 5.8325177,45.2400503 4.69137293,45.2400503 C4.69137293,45.2400503 4.69137293,45.2400503 4.69137293,45.2400503 C2.15549567,45.2400503 0.10143509,43.1859898 0.10143509,40.6501125 L0.10143509,18.1315224 C0.10143509,12.2990047 2.66267112,6.82150983 7.10045633,3.06841149 C7.43012037,2.78946499 7.88657828,2.84018253 8.16552478,3.16984658 C8.44447128,3.49951062 8.39375373,3.95596853 8.06408969,4.23491503 C3.95596853,7.70906687 1.59760267,12.7808214 1.59760267,18.1568812 L1.59760267,40.6754713 C1.59760267,42.374509 2.9669764,43.7438828 4.66601416,43.7438828 C4.66601416,43.7438828 4.66601416,43.7438828 4.66601416,43.7438828 C5.47749488,43.7438828 6.26361683,43.4142187 6.8468686,42.8563257 C7.43012037,42.2730739 7.73442565,41.5123108 7.73442565,40.6754713 C7.73442565,40.2697309 8.06408969,39.9147081 8.49518882,39.9147081 C8.49518882,39.9147081 8.49518882,39.9147081 8.49518882,39.9147081 C8.90092919,39.9147081 9.255952,40.2443721 9.255952,40.6754713 L9.255952,48.7142022 C9.255952,50.4132399 10.6253257,51.7826137 12.3243635,51.7826137 C12.3243635,51.7826137 12.3243635,51.7826137 12.3243635,51.7826137 C13.1358442,51.7826137 13.9219662,51.4529496 14.5052179,50.8950566 C15.0884697,50.3118049 15.392775,49.5510417 15.392775,48.7142022 C15.392775,48.3084618 15.722439,47.953439 16.1535382,47.953439 C16.1535382,47.953439 16.1535382,47.953439 16.1535382,47.953439 C16.5592785,47.953439 16.9143013,48.283103 16.9143013,48.7142022 L16.9143013,52.3658654 C16.9143013,53.1773462 17.2439654,53.9634681 17.8018584,54.5467199 C18.3851101,55.1299717 19.1458733,55.4342769 19.9827128,55.4342769 C21.6817506,55.4342769 23.0511243,54.0649032 23.0511243,52.3658654 L23.0511243,45.5697144 C23.0511243,45.163974 23.3807883,44.8089512 23.8118875,44.8089512 C23.8118875,44.8089512 23.8118875,44.8089512 23.8118875,44.8089512 C24.2176278,44.8089512 24.5726507,45.1386152 24.5726507,45.5697144 C24.5726507,46.3811951 24.9023147,47.1673171 25.4602077,47.7505688 C26.0434595,48.3338206 26.8042226,48.6381259 27.6410621,48.6381259 C29.3400999,48.6381259 30.7094736,47.2687521 30.7094736,45.5697144 L30.7094736,30.1515806 C30.7094736,30.1008631 30.7094736,30.0501455 30.7348324,29.999428 L30.7094736,16.4071259 C30.7094736,16.0013855 31.0391377,15.6463627 31.4702368,15.6463627 C31.4702368,15.6463627 31.4702368,15.6463627 31.4702368,15.6463627 C31.8759772,15.6463627 32.231,15.9760267 32.231,16.4071259 L32.2563588,30.1769394 C32.2563588,30.227657 32.2563588,30.2783745 32.231,30.3544508 L32.231,45.5950732 C32.231,46.8122942 31.7491833,47.9787978 30.886985,48.840996 C30.0247868,49.7031943 28.8582832,50.185011 27.6410621,50.185011 C27.6410621,50.185011 27.6410621,50.185011 27.6410621,50.185011 C26.4999174,50.185011 25.4094902,49.7792706 24.5726507,48.9931487 L24.5726507,52.3912242 C24.5980094,54.8510252 22.5439489,56.9050857 20.0080716,56.9050857 Z"></path>
                                </g>
                            </g>
                            <path d="M4.13347994,13.7444548 C3.72773957,13.7444548 3.37271676,13.4147907 3.37271676,12.9836916 L3.37271676,0.760763178 C3.37271676,0.355022817 3.7023808,0 4.13347994,0 C4.5392203,0 4.89424311,0.329664044 4.89424311,0.760763178 L4.89424311,13.0090503 C4.89424311,13.4147907 4.56457907,13.7444548 4.13347994,13.7444548 Z" id="Shape"></path>
                            <path d="M31.6477482,9.91528009 C31.2420079,9.91528009 30.886985,9.58561605 30.886985,9.15451691 L30.886985,0.760763178 C30.886985,0.355022817 31.2166491,0 31.6477482,0 C32.0534886,0 32.4085114,0.329664044 32.4085114,0.760763178 L32.4085114,9.17987568 C32.3831526,9.58561605 32.0534886,9.91528009 31.6477482,9.91528009 Z" id="Shape"></path>
                        </g>
                        <g id="Group" transform="translate(0.000000, 8.621983)" fill="#066695">
                            <g id="Shape">
                                <path d="M84.9518882,32.3324351 C84.9518882,32.3324351 84.9518882,32.3324351 84.9518882,32.3324351 L67.023236,32.3324351 C66.6174956,32.3324351 66.2624728,32.002771 66.2624728,31.5716719 L66.2624728,3.60094571 C66.2624728,3.19520535 66.5921369,2.84018253 67.023236,2.84018253 L92.2044972,2.84018253 C92.6102376,2.84018253 92.9652604,3.16984658 92.9652604,3.60094571 C92.9652604,4.03204484 92.6355963,4.36170889 92.2044972,4.36170889 L67.7839992,4.36170889 L67.7839992,30.8109087 L84.9518882,30.8109087 C85.3576286,30.8109087 85.7126514,31.1405728 85.7126514,31.5716719 C85.7126514,32.002771 85.3829874,32.3324351 84.9518882,32.3324351 Z"></path>
                                <path d="M67.0485948,8.29231864 L53.3548576,8.29231864 C52.9491172,8.29231864 52.5940944,7.9626546 52.5940944,7.53155547 C52.5940944,7.10045633 52.9237584,6.77079229 53.3548576,6.77079229 L67.0485948,6.77079229 C67.4543351,6.77079229 67.809358,7.10045633 67.809358,7.53155547 C67.809358,7.9626546 67.4543351,8.29231864 67.0485948,8.29231864 Z"></path>
                                <path d="M67.0485948,28.4018253 C67.0485948,28.4018253 67.0485948,28.4018253 67.0485948,28.4018253 L56.093605,28.4018253 C55.6878647,28.4018253 55.3328418,28.0721613 55.3328418,27.6410621 C55.3328418,27.2353218 55.6625059,26.880299 56.093605,26.880299 C56.093605,26.880299 56.093605,26.880299 56.093605,26.880299 L67.0485948,26.880299 C67.4543351,26.880299 67.809358,27.209963 67.809358,27.6410621 C67.809358,28.0721613 67.4543351,28.4018253 67.0485948,28.4018253 Z"></path>
                                <g>
                                    <path d="M30.4558859,24.5219331 C30.4558859,24.5219331 30.4558859,24.5219331 30.4558859,24.5219331 L11.4368064,24.5219331 C11.0310661,24.5219331 10.6760433,24.1922691 10.6760433,23.7611699 C10.6760433,23.3554296 11.0057073,23.0004068 11.4368064,23.0004068 C11.4368064,23.0004068 11.4368064,23.0004068 11.4368064,23.0004068 L30.4558859,23.0004068 C30.8616263,23.0004068 31.2166491,23.3300708 31.2166491,23.7611699 C31.2166491,24.1922691 30.886985,24.5219331 30.4558859,24.5219331 Z"></path>
                                    <path d="M31.8506184,16.8635838 C31.8506184,16.8635838 31.8506184,16.8635838 31.8506184,16.8635838 L8.29231864,16.8635838 C7.88657828,16.8635838 7.53155547,16.5339197 7.53155547,16.1028206 C7.53155547,15.6970802 7.86121951,15.3420574 8.29231864,15.3420574 C8.29231864,15.3420574 8.29231864,15.3420574 8.29231864,15.3420574 L31.8506184,15.3420574 C32.2563588,15.3420574 32.6113816,15.6717215 32.6113816,16.1028206 C32.6113816,16.5339197 32.2563588,16.8635838 31.8506184,16.8635838 Z"></path>
                                    <path d="M33.8793202,9.20523446 C33.8793202,9.20523446 33.8793202,9.20523446 33.8793202,9.20523446 L16.3310496,9.20523446 C15.9253092,9.20523446 15.5702864,8.87557041 15.5702864,8.44447128 C15.5702864,8.01337214 15.8999504,7.6837081 16.3310496,7.6837081 C16.3310496,7.6837081 16.3310496,7.6837081 16.3310496,7.6837081 L33.8793202,7.6837081 C34.2850606,7.6837081 34.6400834,8.01337214 34.6400834,8.44447128 C34.6400834,8.87557041 34.3104193,9.20523446 33.8793202,9.20523446 Z"></path>
                                    <path d="M38.8496396,39.4582502 L23.7865287,39.4582502 C23.3807883,39.4582502 23.0257655,39.1285861 23.0257655,38.697487 C23.0257655,34.2597018 26.6267112,30.6333973 31.0898552,30.6333973 L32.1549237,30.6333973 C32.560664,30.6333973 32.9156868,30.9630614 32.9156868,31.3941605 C32.9156868,31.8252596 32.5860228,32.1549237 32.1549237,32.1549237 L31.0898552,32.1549237 C27.7424972,32.1549237 24.978391,34.6908009 24.5980094,37.9367238 L38.8749984,37.9367238 C45.6457907,37.9367238 51.8333312,34.2089843 54.977819,28.1989551 C55.1299717,27.8946499 55.2821243,27.6157034 55.4089182,27.3113981 C55.5864296,26.9310165 56.0428875,26.7535051 56.4232691,26.9310165 C56.8036506,27.1085279 56.9811621,27.5649858 56.8036506,27.9453674 C56.651498,28.2750315 56.4993454,28.6046955 56.321834,28.9090008 C52.8730409,35.4262053 46.2036837,39.4582502 38.8496396,39.4582502 Z"></path>
                                    <path d="M26.8549402,32.2056412 C26.8042226,32.2056412 26.7535051,32.2056412 26.7027876,32.1802824 L11.4621652,32.1802824 C10.2449441,32.1802824 9.07844059,31.6984658 8.21624233,30.8362675 C7.35404406,29.9740692 6.87222738,28.8075657 6.87222738,27.5903446 C6.87222738,26.3984823 7.32868528,25.3334138 8.06408969,24.5219331 L4.66601416,24.5219331 C3.44879307,24.5219331 2.28228953,24.0401164 1.42009127,23.1779182 C0.557892997,22.3157199 0.0760763178,21.1492164 0.0760763178,19.9319953 C0.0760763178,17.396118 2.1301369,15.3420574 4.66601416,15.3420574 C4.66601416,15.3420574 4.66601416,15.3420574 4.66601416,15.3420574 L4.89424311,15.3420574 C4.13347994,14.5052179 3.7023808,13.4147907 3.7023808,12.2736459 C3.7023808,11.0564249 4.18419748,9.88992132 5.04639575,9.02772305 C5.90859402,8.16552478 7.07509756,7.6837081 8.29231864,7.6837081 C8.29231864,7.6837081 8.29231864,7.6837081 8.29231864,7.6837081 L12.932974,7.6837081 C12.1975696,6.87222738 11.7411117,5.78180016 11.7411117,4.61529662 C11.7411117,3.39807553 12.2229284,2.23157199 13.0851267,1.36937372 C13.9473249,0.507175452 15.1138285,0.0253587726 16.3310496,0.0253587726 C16.3310496,0.0253587726 16.3310496,0.0253587726 16.3310496,0.0253587726 L16.4578434,0.0253587726 L38.8496396,0.0253587726 C44.6821573,0.0253587726 50.1596522,2.58659481 53.9127506,7.02438001 C54.1916971,7.35404406 54.1409795,7.81050196 53.8113155,8.08944846 C53.4816514,8.36839496 53.0251935,8.31767742 52.746247,7.98801337 C49.2720952,3.87989221 44.2003407,1.52152636 38.8242809,1.52152636 L16.4324847,1.52152636 L16.3056908,1.52152636 C15.4942101,1.52152636 14.7080881,1.8511904 14.1248363,2.4090834 C13.5415846,2.99233517 13.2372793,3.75309835 13.2372793,4.58993784 C13.2372793,6.28897561 14.606653,7.65834933 16.3056908,7.65834933 C16.7114311,7.65834933 17.066454,7.98801337 17.066454,8.41911251 C17.066454,8.85021164 16.7367899,9.17987568 16.3056908,9.17987568 C16.3056908,9.17987568 16.3056908,9.17987568 16.3056908,9.17987568 L8.26695987,9.17987568 C7.45547915,9.17987568 6.6693572,9.50953973 6.08610543,10.0674327 C5.50285366,10.6506845 5.19854839,11.4114477 5.19854839,12.2482872 C5.19854839,13.0597679 5.52821243,13.8458898 6.08610543,14.4291416 C6.6693572,15.0123934 7.43012037,15.3166987 8.26695987,15.3166987 C8.67270023,15.3166987 9.02772305,15.6463627 9.02772305,16.0774618 C9.02772305,16.508561 8.69805901,16.838225 8.26695987,16.838225 C8.26695987,16.838225 8.26695987,16.838225 8.26695987,16.838225 L4.61529662,16.838225 C2.91625885,16.838225 1.54688513,18.2075987 1.54688513,19.9066365 C1.54688513,20.7181172 1.87654917,21.5042392 2.43444217,22.0874909 C3.01769394,22.6707427 3.77845712,22.975048 4.61529662,22.975048 L11.4114477,22.975048 C11.817188,22.975048 12.1722109,23.304712 12.1722109,23.7358112 C12.1722109,24.1415515 11.8425468,24.4965743 11.4114477,24.4965743 C11.4114477,24.4965743 11.4114477,24.4965743 11.4114477,24.4965743 C9.71240991,24.4965743 8.34303619,25.8659481 8.34303619,27.5649858 C8.34303619,28.3764666 8.67270023,29.1625885 9.23059323,29.7458403 C9.78848623,30.329092 10.5746082,30.6333973 11.4114477,30.6333973 L26.8295814,30.6333973 C26.880299,30.6333973 26.9310165,30.6333973 26.9817341,30.6587561 L40.5740362,30.6333973 C40.5740362,30.6333973 40.5740362,30.6333973 40.5740362,30.6333973 C40.9797765,30.6333973 41.3347994,30.9630614 41.3347994,31.3941605 C41.3347994,31.7999009 41.0051353,32.1549237 40.5740362,32.1549237 L26.8549402,32.2056412 C26.8549402,32.2056412 26.8549402,32.2056412 26.8549402,32.2056412 Z"></path>
                                </g>
                            </g>
                            <path d="M131.282366,32.3324351 L122.863253,32.3324351 C122.457513,32.3324351 122.10249,32.002771 122.10249,31.5716719 C122.10249,31.1405728 122.432154,30.8109087 122.863253,30.8109087 L131.282366,30.8109087 C131.688106,30.8109087 132.043129,31.1405728 132.043129,31.5716719 C132.043129,32.002771 131.688106,32.3324351 131.282366,32.3324351 Z" id="Shape"></path>
                            <path d="M131.282366,4.84352557 L119.034079,4.84352557 C118.628338,4.84352557 118.273315,4.51386152 118.273315,4.08276239 C118.273315,3.65166326 118.602979,3.32199921 119.034079,3.32199921 L131.282366,3.32199921 C131.688106,3.32199921 132.043129,3.65166326 132.043129,4.08276239 C132.043129,4.51386152 131.688106,4.84352557 131.282366,4.84352557 Z" id="Shape"></path>
                        </g>
                        <circle id="Oval" fill="#D8EAF3" cx="73.5150818" cy="34.0821904" r="2.66267112"></circle>
                        <circle id="Oval" fill="#D8EAF3" cx="58.7562761" cy="98.366679" r="2.66267112"></circle>
                        <circle id="Oval" fill="#D8EAF3" cx="34.5386483" cy="59.770627" r="2.66267112"></circle>
                        <circle id="Oval" fill="#D8EAF3" cx="98.1638088" cy="74.7576617" r="2.66267112"></circle>
                    </g>
                </g>
            </g>
        </g>
    </g>
</svg>